<?xml version="1.0" encoding="UTF-8"?>
<svg xmlns="http://www.w3.org/2000/svg" xmlns:xlink="http://www.w3.org/1999/xlink" width="900" height="400" viewBox="0 0 900 400">
<defs>
<g>
<g id="glyph-0-0-1bbd850f">
<path d="M 7.09375 -4.78125 C 7.09375 -1.515625 5.953125 0.203125 3.84375 0.203125 C 1.71875 0.203125 0.609375 -1.515625 0.609375 -4.859375 C 0.609375 -8.1875 1.703125 -9.921875 3.84375 -9.921875 C 6 -9.921875 7.09375 -8.21875 7.09375 -4.78125 Z M 5.84375 -4.890625 C 5.84375 -7.546875 5.1875 -8.828125 3.84375 -8.828125 C 2.515625 -8.828125 1.859375 -7.5625 1.859375 -4.84375 C 1.859375 -2.125 2.515625 -0.8125 3.828125 -0.8125 C 5.1875 -0.8125 5.84375 -2.078125 5.84375 -4.890625 Z M 5.84375 -4.890625 "/>
</g>
<g id="glyph-1-0-1bbd850f">
<path d="M 2.671875 0 C 2.671875 0 1.21875 0 1.21875 0 C 1.21875 0 1.21875 -1.453125 1.21875 -1.453125 C 1.21875 -1.453125 2.671875 -1.453125 2.671875 -1.453125 C 2.671875 -1.453125 2.671875 0 2.671875 0 Z M 2.671875 0 "/>
</g>
<g id="glyph-1-1-1bbd850f">
<path d="M 7.09375 -4.78125 C 7.09375 -1.515625 5.953125 0.203125 3.84375 0.203125 C 1.71875 0.203125 0.609375 -1.515625 0.609375 -4.859375 C 0.609375 -8.1875 1.703125 -9.921875 3.84375 -9.921875 C 6 -9.921875 7.09375 -8.21875 7.09375 -4.78125 Z M 5.84375 -4.890625 C 5.84375 -7.546875 5.1875 -8.828125 3.84375 -8.828125 C 2.515625 -8.828125 1.859375 -7.5625 1.859375 -4.84375 C 1.859375 -2.125 2.515625 -0.8125 3.828125 -0.8125 C 5.1875 -0.8125 5.84375 -2.078125 5.84375 -4.890625 Z M 5.84375 -4.890625 "/>
</g>
<g id="glyph-1-2-1bbd850f">
<path d="M 8.296875 -9.0625 C 8.296875 -9.0625 4.953125 -9.0625 4.953125 -9.0625 C 4.953125 -9.0625 4.953125 0 4.953125 0 C 4.953125 0 3.65625 0 3.65625 0 C 3.65625 0 3.65625 -9.0625 3.65625 -9.0625 C 3.65625 -9.0625 0.296875 -9.0625 0.296875 -9.0625 C 0.296875 -9.0625 0.296875 -10.203125 0.296875 -10.203125 C 0.296875 -10.203125 8.296875 -10.203125 8.296875 -10.203125 C 8.296875 -10.203125 8.296875 -9.0625 8.296875 -9.0625 Z M 8.296875 -9.0625 "/>
</g>
<g id="glyph-1-3-1bbd850f">
<path d="M 7.15625 -7.015625 C 7.15625 -5.796875 6.4375 -4.765625 5.046875 -4.015625 C 5.046875 -4.015625 3.65625 -3.265625 3.65625 -3.265625 C 2.4375 -2.546875 1.984375 -2.03125 1.859375 -1.21875 C 1.859375 -1.21875 7.078125 -1.21875 7.078125 -1.21875 C 7.078125 -1.21875 7.078125 0 7.078125 0 C 7.078125 0 0.46875 0 0.46875 0 C 0.59375 -2.1875 1.1875 -3.125 3.265625 -4.296875 C 3.265625 -4.296875 4.546875 -5.03125 4.546875 -5.03125 C 5.4375 -5.53125 5.890625 -6.203125 5.890625 -6.984375 C 5.890625 -8.046875 5.046875 -8.84375 3.9375 -8.84375 C 2.71875 -8.84375 2.03125 -8.140625 1.9375 -6.484375 C 1.9375 -6.484375 0.703125 -6.484375 0.703125 -6.484375 C 0.765625 -8.890625 1.953125 -9.921875 3.96875 -9.921875 C 5.859375 -9.921875 7.15625 -8.6875 7.15625 -7.015625 Z M 7.15625 -7.015625 "/>
</g>
<g id="glyph-1-4-1bbd850f">
<path d="M 7.1875 -3.296875 C 7.1875 -1.1875 5.78125 0.203125 3.78125 0.203125 C 2.015625 0.203125 0.890625 -0.578125 0.484375 -2.546875 C 0.484375 -2.546875 1.71875 -2.546875 1.71875 -2.546875 C 2.015625 -1.421875 2.671875 -0.875 3.75 -0.875 C 5.09375 -0.875 5.921875 -1.6875 5.921875 -3.125 C 5.921875 -4.59375 5.078125 -5.453125 3.75 -5.453125 C 2.984375 -5.453125 2.5 -5.203125 1.9375 -4.515625 C 1.9375 -4.515625 0.796875 -4.515625 0.796875 -4.515625 C 0.796875 -4.515625 1.546875 -9.71875 1.546875 -9.71875 C 1.546875 -9.71875 6.65625 -9.71875 6.65625 -9.71875 C 6.65625 -9.71875 6.65625 -8.5 6.65625 -8.5 C 6.65625 -8.5 2.53125 -8.5 2.53125 -8.5 C 2.53125 -8.5 2.140625 -5.9375 2.140625 -5.9375 C 2.71875 -6.359375 3.28125 -6.53125 3.96875 -6.53125 C 5.875 -6.53125 7.1875 -5.25 7.1875 -3.296875 Z M 7.1875 -3.296875 "/>
</g>
<g id="glyph-1-5-1bbd850f">
<path d="M 7.28125 -8.6875 C 5.1875 -6.203125 3.796875 -3.203125 3.25 0 C 3.25 0 1.9375 0 1.9375 0 C 2.625 -3.109375 4.03125 -6 6 -8.5 C 6 -8.5 0.640625 -8.5 0.640625 -8.5 C 0.640625 -8.5 0.640625 -9.71875 0.640625 -9.71875 C 0.640625 -9.71875 7.28125 -9.71875 7.28125 -9.71875 C 7.28125 -9.71875 7.28125 -8.6875 7.28125 -8.6875 Z M 7.28125 -8.6875 "/>
</g>
<g id="glyph-1-6-1bbd850f">
<path d="M 4.859375 0 C 4.859375 0 3.625 0 3.625 0 C 3.625 0 3.625 -7.0625 3.625 -7.0625 C 3.625 -7.0625 1.421875 -7.0625 1.421875 -7.0625 C 1.421875 -7.0625 1.421875 -7.953125 1.421875 -7.953125 C 3.328125 -8.1875 3.609375 -8.40625 4.046875 -9.921875 C 4.046875 -9.921875 4.859375 -9.921875 4.859375 -9.921875 C 4.859375 -9.921875 4.859375 0 4.859375 0 Z M 4.859375 0 "/>
</g>
<g id="glyph-1-7-1bbd850f">
<path d="M 7.21875 -3.03125 C 7.21875 -3.03125 0.953125 -3.03125 0.953125 -3.03125 C 0.953125 -3.03125 0.953125 -3.96875 0.953125 -3.96875 C 0.953125 -3.96875 7.21875 -3.96875 7.21875 -3.96875 C 7.21875 -3.96875 7.21875 -3.03125 7.21875 -3.03125 Z M 7.21875 -3.03125 "/>
</g>
<g id="glyph-1-8-1bbd850f">
<path d="M 7.28125 -2.375 C 7.28125 -2.375 5.8125 -2.375 5.8125 -2.375 C 5.8125 -2.375 5.8125 0 5.8125 0 C 5.8125 0 4.578125 0 4.578125 0 C 4.578125 0 4.578125 -2.375 4.578125 -2.375 C 4.578125 -2.375 0.390625 -2.375 0.390625 -2.375 C 0.390625 -2.375 0.390625 -3.6875 0.390625 -3.6875 C 0.390625 -3.6875 4.90625 -9.921875 4.90625 -9.921875 C 4.90625 -9.921875 5.8125 -9.921875 5.8125 -9.921875 C 5.8125 -9.921875 5.8125 -3.484375 5.8125 -3.484375 C 5.8125 -3.484375 7.28125 -3.484375 7.28125 -3.484375 C 7.28125 -3.484375 7.28125 -2.375 7.28125 -2.375 Z M 4.578125 -3.484375 C 4.578125 -3.484375 4.578125 -7.828125 4.578125 -7.828125 C 4.578125 -7.828125 1.46875 -3.484375 1.46875 -3.484375 C 1.46875 -3.484375 4.578125 -3.484375 4.578125 -3.484375 Z M 4.578125 -3.484375 "/>
</g>
<g id="glyph-1-9-1bbd850f">
<path d="M 7.1875 -3.078125 C 7.1875 -1.140625 5.828125 0.203125 3.9375 0.203125 C 1.671875 0.203125 0.609375 -1.421875 0.609375 -4.515625 C 0.609375 -7.984375 1.84375 -9.921875 4.15625 -9.921875 C 5.671875 -9.921875 6.734375 -8.953125 6.96875 -7.34375 C 6.96875 -7.34375 5.734375 -7.34375 5.734375 -7.34375 C 5.546875 -8.28125 4.9375 -8.828125 4.078125 -8.828125 C 2.65625 -8.828125 1.875 -7.484375 1.859375 -5.0625 C 2.390625 -5.796875 3.15625 -6.171875 4.140625 -6.171875 C 5.921875 -6.171875 7.1875 -4.921875 7.1875 -3.078125 Z M 5.921875 -2.984375 C 5.921875 -4.3125 5.1875 -5.078125 3.984375 -5.078125 C 2.765625 -5.078125 1.9375 -4.28125 1.9375 -3.046875 C 1.9375 -1.78125 2.796875 -0.875 3.953125 -0.875 C 5.078125 -0.875 5.921875 -1.734375 5.921875 -2.984375 Z M 5.921875 -2.984375 "/>
</g>
<g id="glyph-1-10-1bbd850f">
<path d="M 7.1875 -2.796875 C 7.1875 -1 5.8125 0.203125 3.84375 0.203125 C 1.890625 0.203125 0.515625 -1 0.515625 -2.8125 C 0.515625 -3.90625 1.078125 -4.671875 2.21875 -5.21875 C 1.203125 -5.859375 0.875 -6.359375 0.875 -7.28125 C 0.875 -8.828125 2.09375 -9.921875 3.84375 -9.921875 C 5.609375 -9.921875 6.828125 -8.828125 6.828125 -7.28125 C 6.828125 -6.34375 6.5 -5.84375 5.46875 -5.21875 C 6.625 -4.671875 7.1875 -3.90625 7.1875 -2.796875 Z M 5.578125 -7.25 C 5.578125 -8.21875 4.90625 -8.828125 3.84375 -8.828125 C 2.8125 -8.828125 2.125 -8.21875 2.125 -7.265625 C 2.125 -6.328125 2.8125 -5.71875 3.84375 -5.71875 C 4.890625 -5.71875 5.578125 -6.328125 5.578125 -7.25 Z M 5.921875 -2.78125 C 5.921875 -3.953125 5.078125 -4.671875 3.84375 -4.671875 C 2.625 -4.671875 1.78125 -3.953125 1.78125 -2.78125 C 1.78125 -1.625 2.625 -0.875 3.828125 -0.875 C 5.078125 -0.875 5.921875 -1.609375 5.921875 -2.78125 Z M 5.921875 -2.78125 "/>
</g>
<g id="glyph-1-11-1bbd850f">
<path d="M 7.125 -5.1875 C 7.125 -1.765625 5.875 0.203125 3.5625 0.203125 C 2.046875 0.203125 0.984375 -0.75 0.734375 -2.375 C 0.734375 -2.375 1.96875 -2.375 1.96875 -2.375 C 2.171875 -1.421875 2.765625 -0.875 3.640625 -0.875 C 5.046875 -0.875 5.84375 -2.21875 5.859375 -4.640625 C 5.203125 -3.875 4.515625 -3.546875 3.578125 -3.546875 C 1.796875 -3.546875 0.53125 -4.78125 0.53125 -6.640625 C 0.53125 -8.578125 1.890625 -9.921875 3.78125 -9.921875 C 6.046875 -9.921875 7.125 -8.296875 7.125 -5.1875 Z M 5.78125 -6.65625 C 5.78125 -7.953125 4.90625 -8.84375 3.765625 -8.84375 C 2.625 -8.84375 1.796875 -8 1.796875 -6.734375 C 1.796875 -5.40625 2.53125 -4.640625 3.71875 -4.640625 C 4.921875 -4.640625 5.78125 -5.453125 5.78125 -6.65625 Z M 5.78125 -6.65625 "/>
</g>
<g id="glyph-2-0-1bbd850f">
<path d="M 2.671875 0 C 2.671875 0 1.21875 0 1.21875 0 C 1.21875 0 1.21875 -1.453125 1.21875 -1.453125 C 1.21875 -1.453125 2.671875 -1.453125 2.671875 -1.453125 C 2.671875 -1.453125 2.671875 0 2.671875 0 Z M 2.671875 0 "/>
</g>
<g id="glyph-3-0-1bbd850f">
<path d="M 4.703125 3.21875 C 4.703125 3.171875 4.703125 3.15625 4.6875 3.125 L 2.109375 -3.5 L 4.6875 -10.125 C 4.703125 -10.15625 4.703125 -10.171875 4.703125 -10.21875 C 4.703125 -10.375 4.578125 -10.5 4.421875 -10.5 C 4.3125 -10.5 4.203125 -10.4375 4.15625 -10.3125 L 1.546875 -3.59375 C 1.546875 -3.5625 1.546875 -3.546875 1.546875 -3.5 C 1.546875 -3.453125 1.546875 -3.4375 1.546875 -3.40625 L 4.15625 3.3125 C 4.203125 3.4375 4.3125 3.5 4.421875 3.5 C 4.578125 3.5 4.703125 3.375 4.703125 3.21875 Z M 4.703125 3.21875 "/>
</g>
<g id="glyph-3-1-1bbd850f">
<path d="M 3.890625 -3.59375 L 1.28125 -10.3125 C 1.25 -10.4375 1.140625 -10.5 1.015625 -10.5 C 0.875 -10.5 0.734375 -10.375 0.734375 -10.21875 C 0.734375 -10.171875 0.734375 -10.15625 0.75 -10.125 L 3.328125 -3.5 L 0.75 3.125 C 0.734375 3.15625 0.734375 3.171875 0.734375 3.21875 C 0.734375 3.375 0.875 3.5 1.015625 3.5 C 1.140625 3.5 1.25 3.4375 1.28125 3.3125 L 3.890625 -3.40625 C 3.90625 -3.4375 3.90625 -3.453125 3.90625 -3.5 C 3.90625 -3.546875 3.90625 -3.5625 3.890625 -3.59375 Z M 3.890625 -3.59375 "/>
</g>
<g id="glyph-3-2-1bbd850f">
<path d="M 2.21875 3.21875 L 2.21875 -10.21875 C 2.21875 -10.375 2.09375 -10.5 1.953125 -10.5 C 1.796875 -10.5 1.671875 -10.375 1.671875 -10.21875 L 1.671875 3.21875 C 1.671875 3.375 1.796875 3.5 1.953125 3.5 C 2.09375 3.5 2.21875 3.375 2.21875 3.21875 Z M 2.21875 3.21875 "/>
</g>
<g id="glyph-3-3-1bbd850f">
<path d="M 8.890625 -5.203125 C 8.890625 -5.984375 8.515625 -6.1875 8.28125 -6.1875 C 7.921875 -6.1875 7.578125 -5.828125 7.578125 -5.515625 C 7.578125 -5.328125 7.65625 -5.25 7.78125 -5.140625 C 7.9375 -4.984375 8.28125 -4.625 8.28125 -3.953125 C 8.28125 -3.046875 7.5625 -1.90625 7.0625 -1.40625 C 5.84375 -0.15625 4.9375 -0.15625 4.4375 -0.15625 L 6.75 -9.359375 C 6.765625 -9.40625 6.796875 -9.484375 6.796875 -9.5625 C 6.796875 -9.703125 6.6875 -9.71875 6.625 -9.71875 C 6.484375 -9.71875 6.46875 -9.6875 6.40625 -9.4375 L 4.09375 -0.1875 C 3.03125 -0.3125 2.484375 -0.828125 2.484375 -1.75 C 2.484375 -2.03125 2.484375 -2.390625 3.25 -4.359375 C 3.296875 -4.515625 3.40625 -4.765625 3.40625 -5.046875 C 3.40625 -5.671875 2.953125 -6.1875 2.25 -6.1875 C 0.921875 -6.1875 0.40625 -4.15625 0.40625 -4.03125 C 0.40625 -3.890625 0.578125 -3.890625 0.578125 -3.890625 C 0.71875 -3.890625 0.734375 -3.921875 0.796875 -4.140625 C 1.171875 -5.46875 1.734375 -5.875 2.21875 -5.875 C 2.328125 -5.875 2.5625 -5.875 2.5625 -5.4375 C 2.5625 -5.0625 2.421875 -4.71875 2.234375 -4.234375 C 1.5625 -2.46875 1.5625 -2.09375 1.5625 -1.859375 C 1.5625 -0.53125 2.65625 0.046875 4 0.125 C 3.890625 0.625 3.890625 0.65625 3.703125 1.40625 C 3.65625 1.546875 3.375 2.6875 3.375 2.734375 C 3.375 2.734375 3.375 2.875 3.546875 2.875 C 3.546875 2.875 3.640625 2.875 3.671875 2.8125 C 3.703125 2.78125 3.796875 2.4375 3.84375 2.234375 L 4.375 0.15625 C 4.890625 0.15625 6.125 0.15625 7.4375 -1.34375 C 8.015625 -1.984375 8.296875 -2.609375 8.453125 -3.03125 C 8.578125 -3.375 8.890625 -4.59375 8.890625 -5.203125 Z M 8.890625 -5.203125 "/>
</g>
<g id="glyph-3-4-1bbd850f">
<path d="M 4.640625 3.328125 C 4.640625 3.296875 4.625 3.25 4.59375 3.21875 C 3.140625 2.125 2.171875 -0.671875 2.171875 -2.90625 L 2.171875 -4.09375 C 2.171875 -6.328125 3.140625 -9.125 4.59375 -10.21875 C 4.625 -10.25 4.640625 -10.296875 4.640625 -10.328125 C 4.640625 -10.40625 4.578125 -10.46875 4.515625 -10.46875 C 4.484375 -10.46875 4.453125 -10.453125 4.421875 -10.4375 C 2.890625 -9.28125 1.40625 -6.484375 1.40625 -4.09375 L 1.40625 -2.90625 C 1.40625 -0.515625 2.890625 2.28125 4.421875 3.4375 C 4.453125 3.453125 4.484375 3.46875 4.515625 3.46875 C 4.578125 3.46875 4.640625 3.40625 4.640625 3.328125 Z M 4.640625 3.328125 "/>
</g>
<g id="glyph-3-5-1bbd850f">
<path d="M 4.03125 -2.90625 L 4.03125 -4.09375 C 4.03125 -6.484375 2.5625 -9.28125 1.015625 -10.4375 C 1 -10.453125 0.96875 -10.46875 0.9375 -10.46875 C 0.875 -10.46875 0.796875 -10.40625 0.796875 -10.328125 C 0.796875 -10.296875 0.828125 -10.25 0.859375 -10.21875 C 2.3125 -9.125 3.28125 -6.328125 3.28125 -4.09375 L 3.28125 -2.90625 C 3.28125 -0.671875 2.3125 2.125 0.859375 3.21875 C 0.828125 3.25 0.796875 3.296875 0.796875 3.328125 C 0.796875 3.40625 0.875 3.46875 0.9375 3.46875 C 0.96875 3.46875 1 3.453125 1.015625 3.4375 C 2.5625 2.28125 4.03125 -0.515625 4.03125 -2.90625 Z M 4.03125 -2.90625 "/>
</g>
<g id="glyph-3-6-1bbd850f">
<path d="M 5.859375 0 L 5.859375 -0.4375 L 5.421875 -0.4375 C 4.15625 -0.4375 4.109375 -0.59375 4.109375 -1.109375 L 4.109375 -8.953125 C 4.109375 -9.296875 4.109375 -9.328125 3.796875 -9.328125 C 2.921875 -8.421875 1.6875 -8.421875 1.25 -8.421875 L 1.25 -8 C 1.53125 -8 2.359375 -8 3.078125 -8.359375 L 3.078125 -1.109375 C 3.078125 -0.609375 3.03125 -0.4375 1.78125 -0.4375 L 1.328125 -0.4375 L 1.328125 0 C 1.8125 -0.046875 3.03125 -0.046875 3.59375 -0.046875 C 4.15625 -0.046875 5.375 -0.046875 5.859375 0 Z M 5.859375 0 "/>
</g>
<g id="glyph-3-7-1bbd850f">
<path d="M 6.4375 -4.484375 C 6.4375 -5.59375 6.375 -6.71875 5.875 -7.75 C 5.234375 -9.09375 4.09375 -9.328125 3.5 -9.328125 C 2.65625 -9.328125 1.640625 -8.953125 1.0625 -7.65625 C 0.609375 -6.6875 0.546875 -5.59375 0.546875 -4.484375 C 0.546875 -3.4375 0.609375 -2.171875 1.171875 -1.109375 C 1.78125 0.03125 2.796875 0.3125 3.484375 0.3125 C 4.234375 0.3125 5.3125 0.015625 5.921875 -1.3125 C 6.375 -2.28125 6.4375 -3.375 6.4375 -4.484375 Z M 5.28125 -4.640625 C 5.28125 -3.59375 5.28125 -2.640625 5.125 -1.75 C 4.90625 -0.421875 4.109375 0 3.484375 0 C 2.9375 0 2.109375 -0.34375 1.859375 -1.6875 C 1.703125 -2.53125 1.703125 -3.828125 1.703125 -4.640625 C 1.703125 -5.546875 1.703125 -6.46875 1.8125 -7.21875 C 2.09375 -8.890625 3.140625 -9.015625 3.484375 -9.015625 C 3.953125 -9.015625 4.875 -8.765625 5.140625 -7.375 C 5.28125 -6.59375 5.28125 -5.53125 5.28125 -4.640625 Z M 5.28125 -4.640625 "/>
</g>
<g id="glyph-4-0-1bbd850f">
<path d="M 9.640625 -0.25 C 9.640625 -0.4375 9.546875 -0.4375 9.265625 -0.4375 C 8.453125 -0.4375 8.453125 -0.546875 8.453125 -0.671875 C 8.453125 -0.671875 8.453125 -0.78125 8.515625 -1 L 10.40625 -8.5625 C 10.515625 -9.015625 10.625 -9.125 11.515625 -9.125 C 11.796875 -9.125 11.921875 -9.125 11.921875 -9.375 C 11.921875 -9.53125 11.828125 -9.5625 11.734375 -9.5625 C 11.203125 -9.5625 10.625 -9.515625 10.078125 -9.515625 C 9.515625 -9.515625 8.953125 -9.5625 8.40625 -9.5625 C 8.3125 -9.5625 8.140625 -9.5625 8.140625 -9.296875 C 8.140625 -9.125 8.25 -9.125 8.515625 -9.125 C 8.953125 -9.125 9.328125 -9.125 9.328125 -8.890625 C 9.328125 -8.84375 9.328125 -8.8125 9.265625 -8.625 L 8.40625 -5.1875 L 4.578125 -5.1875 L 5.421875 -8.5625 C 5.53125 -9.015625 5.640625 -9.125 6.53125 -9.125 C 6.8125 -9.125 6.9375 -9.125 6.9375 -9.375 C 6.9375 -9.53125 6.84375 -9.5625 6.75 -9.5625 C 6.21875 -9.5625 5.640625 -9.515625 5.09375 -9.515625 C 4.53125 -9.515625 3.96875 -9.5625 3.421875 -9.5625 C 3.328125 -9.5625 3.15625 -9.5625 3.15625 -9.296875 C 3.15625 -9.125 3.265625 -9.125 3.53125 -9.125 C 3.96875 -9.125 4.34375 -9.125 4.34375 -8.890625 C 4.34375 -8.84375 4.34375 -8.8125 4.28125 -8.625 L 2.390625 -1.015625 C 2.28125 -0.546875 2.203125 -0.4375 1.25 -0.4375 C 1.015625 -0.4375 0.875 -0.4375 0.875 -0.171875 C 0.875 0 1.015625 0 1.0625 0 C 1.59375 0 2.171875 -0.046875 2.71875 -0.046875 C 3.28125 -0.046875 3.84375 0 4.390625 0 C 4.5 0 4.65625 0 4.65625 -0.25 C 4.65625 -0.4375 4.5625 -0.4375 4.28125 -0.4375 C 3.46875 -0.4375 3.46875 -0.546875 3.46875 -0.671875 C 3.46875 -0.734375 3.46875 -0.75 3.53125 -0.953125 L 4.46875 -4.765625 L 8.296875 -4.765625 L 7.375 -1.015625 C 7.265625 -0.546875 7.1875 -0.4375 6.234375 -0.4375 C 6 -0.4375 5.859375 -0.4375 5.859375 -0.171875 C 5.859375 0 6 0 6.046875 0 C 6.578125 0 7.15625 -0.046875 7.703125 -0.046875 C 8.265625 -0.046875 8.828125 0 9.375 0 C 9.484375 0 9.640625 0 9.640625 -0.25 Z M 9.640625 -0.25 "/>
</g>
<g id="glyph-4-1-1bbd850f">
<path d="M 4.984375 -2 C 4.984375 -2.140625 4.875 -2.140625 4.78125 -2.140625 C 4.609375 -2.140625 4.609375 -2.125 4.5 -1.875 C 4.234375 -1.203125 3.6875 -0.15625 2.890625 -0.15625 C 2.5 -0.15625 2.5 -0.5 2.5 -0.734375 C 2.5 -0.828125 2.5 -1.046875 2.609375 -1.4375 L 3.640625 -5.59375 L 4.828125 -5.59375 C 5.0625 -5.59375 5.21875 -5.59375 5.21875 -5.859375 C 5.21875 -6.03125 5.09375 -6.03125 4.875 -6.03125 L 3.75 -6.03125 L 4.265625 -8.109375 C 4.328125 -8.296875 4.328125 -8.328125 4.328125 -8.40625 C 4.328125 -8.6875 4.09375 -8.765625 3.953125 -8.765625 C 3.59375 -8.765625 3.453125 -8.46875 3.40625 -8.265625 L 2.859375 -6.03125 L 1.671875 -6.03125 C 1.421875 -6.03125 1.28125 -6.03125 1.28125 -5.765625 C 1.28125 -5.59375 1.40625 -5.59375 1.625 -5.59375 L 2.75 -5.59375 L 1.734375 -1.578125 C 1.71875 -1.53125 1.671875 -1.296875 1.671875 -1.109375 C 1.671875 -0.40625 2.125 0.15625 2.859375 0.15625 C 4.265625 0.15625 4.984375 -1.9375 4.984375 -2 Z M 4.984375 -2 "/>
</g>
<g id="glyph-4-2-1bbd850f">
<path d="M 10.84375 -6.625 L 11.265625 -9.125 C 11.28125 -9.1875 11.28125 -9.25 11.28125 -9.3125 C 11.28125 -9.484375 11.15625 -9.484375 10.9375 -9.484375 L 3.75 -9.484375 C 3.46875 -9.484375 3.4375 -9.484375 3.34375 -9.21875 L 2.515625 -6.71875 C 2.453125 -6.53125 2.453125 -6.484375 2.453125 -6.484375 C 2.453125 -6.328125 2.625 -6.328125 2.65625 -6.328125 C 2.71875 -6.328125 2.765625 -6.328125 2.8125 -6.375 C 2.84375 -6.390625 2.859375 -6.40625 3 -6.78125 C 3.65625 -8.75 4.046875 -9.046875 5.859375 -9.046875 L 6.328125 -9.046875 C 6.65625 -9.046875 6.65625 -8.984375 6.65625 -8.890625 C 6.65625 -8.796875 6.625 -8.671875 6.59375 -8.578125 L 4.71875 -1.0625 C 4.59375 -0.578125 4.46875 -0.4375 3.234375 -0.4375 L 3.015625 -0.4375 C 2.765625 -0.4375 2.625 -0.4375 2.625 -0.171875 C 2.625 0 2.78125 0 2.859375 0 C 3.5625 0 4.3125 -0.046875 5.03125 -0.046875 C 5.75 -0.046875 6.515625 0 7.21875 0 C 7.34375 0 7.515625 0 7.515625 -0.28125 C 7.515625 -0.4375 7.375 -0.4375 7.171875 -0.4375 L 6.953125 -0.4375 C 6.734375 -0.4375 6.296875 -0.46875 6.265625 -0.46875 C 5.859375 -0.5 5.796875 -0.5625 5.796875 -0.75 C 5.796875 -0.796875 5.796875 -0.828125 5.859375 -1.015625 L 7.734375 -8.546875 C 7.828125 -8.96875 7.9375 -9 8.046875 -9.015625 C 8.15625 -9.046875 8.546875 -9.046875 8.78125 -9.046875 C 10.234375 -9.046875 10.5625 -8.84375 10.5625 -7.984375 C 10.5625 -7.8125 10.5625 -7.546875 10.421875 -6.71875 C 10.390625 -6.5625 10.390625 -6.515625 10.390625 -6.515625 C 10.390625 -6.328125 10.53125 -6.328125 10.59375 -6.328125 C 10.78125 -6.328125 10.8125 -6.375 10.84375 -6.625 Z M 10.84375 -6.625 "/>
</g>
<g id="glyph-5-0-1bbd850f">
<path d="M 3.796875 -5.375 C 3.796875 -5.734375 3.453125 -5.921875 3.109375 -5.921875 C 2.28125 -5.921875 2.078125 -4.828125 2.015625 -4.546875 L 1.84375 -3.625 L 1.28125 -3.625 C 1.15625 -3.625 1.0625 -3.625 1.0625 -3.453125 C 1.0625 -3.359375 1.140625 -3.359375 1.265625 -3.359375 L 1.796875 -3.359375 L 1.171875 -0.234375 C 1.078125 0.296875 0.984375 0.640625 0.9375 0.8125 C 0.875 1.09375 0.765625 1.53125 0.46875 1.53125 C 0.375 1.53125 0.21875 1.515625 0.125 1.390625 C 0.375 1.34375 0.5 1.140625 0.5 0.96875 C 0.5 0.796875 0.34375 0.703125 0.203125 0.703125 C 0 0.703125 -0.203125 0.875 -0.203125 1.171875 C -0.203125 1.546875 0.15625 1.71875 0.46875 1.71875 C 1.34375 1.71875 1.6875 -0.046875 1.734375 -0.34375 L 2.328125 -3.359375 L 3.015625 -3.359375 C 3.15625 -3.359375 3.25 -3.359375 3.25 -3.515625 C 3.25 -3.625 3.171875 -3.625 3.03125 -3.625 L 2.375 -3.625 L 2.640625 -4.984375 C 2.71875 -5.296875 2.8125 -5.734375 3.109375 -5.734375 C 3.171875 -5.734375 3.359375 -5.71875 3.46875 -5.59375 C 3.21875 -5.546875 3.09375 -5.34375 3.09375 -5.171875 C 3.09375 -5 3.25 -4.90625 3.375 -4.90625 C 3.59375 -4.90625 3.796875 -5.078125 3.796875 -5.375 Z M 3.796875 -5.375 "/>
</g>
<g id="glyph-6-0-1bbd850f">
<path d="M 6.453125 -2.1875 C 6.453125 -2.25 6.421875 -2.296875 6.34375 -2.296875 C 6.09375 -2.296875 5.796875 -2.265625 5.53125 -2.265625 C 5.171875 -2.265625 4.796875 -2.296875 4.4375 -2.296875 C 4.359375 -2.296875 4.25 -2.296875 4.25 -2.125 C 4.25 -2.03125 4.34375 -2.03125 4.46875 -2.03125 L 4.546875 -2.03125 C 4.65625 -2.03125 4.796875 -2.03125 4.90625 -2.015625 C 5.078125 -2 5.140625 -1.984375 5.140625 -1.859375 C 5.140625 -1.828125 5.140625 -1.8125 5.078125 -1.578125 C 4.890625 -0.828125 4.875 -0.734375 4.625 -0.5 C 4.265625 -0.171875 3.796875 -0.078125 3.484375 -0.078125 C 2.6875 -0.078125 2 -0.625 2 -1.75 C 2 -2.234375 2.1875 -3.578125 2.875 -4.5 C 3.453125 -5.28125 4.21875 -5.671875 4.859375 -5.671875 C 5.765625 -5.671875 6.0625 -4.859375 6.0625 -4.125 C 6.0625 -3.90625 6.015625 -3.640625 6.015625 -3.609375 C 6.015625 -3.53125 6.109375 -3.53125 6.140625 -3.53125 C 6.234375 -3.53125 6.265625 -3.53125 6.296875 -3.6875 L 6.8125 -5.71875 C 6.8125 -5.765625 6.828125 -5.8125 6.828125 -5.84375 C 6.828125 -5.84375 6.8125 -5.921875 6.734375 -5.921875 C 6.734375 -5.921875 6.671875 -5.921875 6.59375 -5.828125 L 6.0625 -5.21875 C 5.703125 -5.796875 5.21875 -5.921875 4.796875 -5.921875 C 3.0625 -5.921875 1.265625 -4.03125 1.265625 -2.0625 C 1.265625 -0.703125 2.140625 0.1875 3.328125 0.1875 C 4.109375 0.1875 4.71875 -0.203125 4.953125 -0.515625 C 5.03125 -0.3125 5.21875 -0.015625 5.3125 -0.015625 C 5.375 -0.015625 5.390625 -0.0625 5.40625 -0.15625 L 5.8125 -1.75 C 5.875 -1.953125 5.890625 -2.03125 6.25 -2.03125 C 6.359375 -2.03125 6.453125 -2.03125 6.453125 -2.1875 Z M 6.453125 -2.1875 "/>
</g>
<g id="glyph-6-1-1bbd850f">
<path d="M 3.796875 -5.375 C 3.796875 -5.734375 3.453125 -5.921875 3.109375 -5.921875 C 2.28125 -5.921875 2.078125 -4.828125 2.015625 -4.546875 L 1.84375 -3.625 L 1.28125 -3.625 C 1.15625 -3.625 1.0625 -3.625 1.0625 -3.453125 C 1.0625 -3.359375 1.140625 -3.359375 1.265625 -3.359375 L 1.796875 -3.359375 L 1.171875 -0.234375 C 1.078125 0.296875 0.984375 0.640625 0.9375 0.8125 C 0.875 1.09375 0.765625 1.53125 0.46875 1.53125 C 0.375 1.53125 0.21875 1.515625 0.125 1.390625 C 0.375 1.34375 0.5 1.140625 0.5 0.96875 C 0.5 0.796875 0.34375 0.703125 0.203125 0.703125 C 0 0.703125 -0.203125 0.875 -0.203125 1.171875 C -0.203125 1.546875 0.15625 1.71875 0.46875 1.71875 C 1.34375 1.71875 1.6875 -0.046875 1.734375 -0.34375 L 2.328125 -3.359375 L 3.015625 -3.359375 C 3.15625 -3.359375 3.25 -3.359375 3.25 -3.515625 C 3.25 -3.625 3.171875 -3.625 3.03125 -3.625 L 2.375 -3.625 L 2.640625 -4.984375 C 2.71875 -5.296875 2.8125 -5.734375 3.109375 -5.734375 C 3.171875 -5.734375 3.359375 -5.71875 3.46875 -5.59375 C 3.21875 -5.546875 3.09375 -5.34375 3.09375 -5.171875 C 3.09375 -5 3.25 -4.90625 3.375 -4.90625 C 3.59375 -4.90625 3.796875 -5.078125 3.796875 -5.375 Z M 3.796875 -5.375 "/>
</g>
<g id="glyph-7-0-1bbd850f">
<path d="M 3.78125 -1.46875 L 3.5625 -1.46875 C 3.515625 -1.203125 3.46875 -0.84375 3.375 -0.71875 C 3.328125 -0.640625 2.765625 -0.640625 2.578125 -0.640625 L 1.0625 -0.640625 L 1.953125 -1.515625 C 3.265625 -2.671875 3.78125 -3.125 3.78125 -3.96875 C 3.78125 -4.921875 3.015625 -5.59375 2 -5.59375 C 1.046875 -5.59375 0.421875 -4.828125 0.421875 -4.078125 C 0.421875 -3.609375 0.84375 -3.609375 0.859375 -3.609375 C 1.015625 -3.609375 1.296875 -3.703125 1.296875 -4.046875 C 1.296875 -4.265625 1.15625 -4.484375 0.859375 -4.484375 C 0.796875 -4.484375 0.765625 -4.484375 0.75 -4.484375 C 0.9375 -5.03125 1.390625 -5.34375 1.890625 -5.34375 C 2.640625 -5.34375 3.015625 -4.65625 3.015625 -3.96875 C 3.015625 -3.296875 2.59375 -2.625 2.125 -2.109375 L 0.515625 -0.3125 C 0.421875 -0.21875 0.421875 -0.203125 0.421875 0 L 3.53125 0 Z M 3.78125 -1.46875 "/>
</g>
<g id="glyph-8-0-1bbd850f">
<path d="M 3.859375 -2.6875 C 3.859375 -3.359375 3.828125 -4.03125 3.53125 -4.65625 C 3.140625 -5.46875 2.453125 -5.59375 2.09375 -5.59375 C 1.59375 -5.59375 0.984375 -5.375 0.640625 -4.59375 C 0.375 -4.015625 0.328125 -3.359375 0.328125 -2.6875 C 0.328125 -2.0625 0.359375 -1.296875 0.703125 -0.671875 C 1.0625 0.015625 1.6875 0.1875 2.09375 0.1875 C 2.546875 0.1875 3.1875 0.015625 3.5625 -0.796875 C 3.828125 -1.375 3.859375 -2.03125 3.859375 -2.6875 Z M 3.171875 -2.796875 C 3.171875 -2.15625 3.171875 -1.59375 3.078125 -1.046875 C 2.953125 -0.25 2.46875 0 2.09375 0 C 1.765625 0 1.265625 -0.203125 1.125 -1.015625 C 1.03125 -1.515625 1.03125 -2.296875 1.03125 -2.796875 C 1.03125 -3.328125 1.03125 -3.890625 1.09375 -4.34375 C 1.25 -5.34375 1.890625 -5.40625 2.09375 -5.40625 C 2.375 -5.40625 2.921875 -5.265625 3.078125 -4.4375 C 3.171875 -3.953125 3.171875 -3.328125 3.171875 -2.796875 Z M 3.171875 -2.796875 "/>
</g>
<g id="glyph-8-1-1bbd850f">
<path d="M 1.609375 -0.453125 C 1.609375 -0.6875 1.40625 -0.890625 1.171875 -0.890625 C 0.921875 -0.890625 0.71875 -0.6875 0.71875 -0.453125 C 0.71875 -0.203125 0.921875 0 1.171875 0 C 1.40625 0 1.609375 -0.203125 1.609375 -0.453125 Z M 1.609375 -0.453125 "/>
</g>
<g id="glyph-8-2-1bbd850f">
<path d="M 3.78125 -1.46875 L 3.5625 -1.46875 C 3.515625 -1.203125 3.46875 -0.84375 3.375 -0.71875 C 3.328125 -0.640625 2.765625 -0.640625 2.578125 -0.640625 L 1.0625 -0.640625 L 1.953125 -1.515625 C 3.265625 -2.671875 3.78125 -3.125 3.78125 -3.96875 C 3.78125 -4.921875 3.015625 -5.59375 2 -5.59375 C 1.046875 -5.59375 0.421875 -4.828125 0.421875 -4.078125 C 0.421875 -3.609375 0.84375 -3.609375 0.859375 -3.609375 C 1.015625 -3.609375 1.296875 -3.703125 1.296875 -4.046875 C 1.296875 -4.265625 1.15625 -4.484375 0.859375 -4.484375 C 0.796875 -4.484375 0.765625 -4.484375 0.75 -4.484375 C 0.9375 -5.03125 1.390625 -5.34375 1.890625 -5.34375 C 2.640625 -5.34375 3.015625 -4.65625 3.015625 -3.96875 C 3.015625 -3.296875 2.59375 -2.625 2.125 -2.109375 L 0.515625 -0.3125 C 0.421875 -0.21875 0.421875 -0.203125 0.421875 0 L 3.53125 0 Z M 3.78125 -1.46875 "/>
</g>
<g id="glyph-8-3-1bbd850f">
<path d="M 3.78125 -1.6875 C 3.78125 -2.6875 3.078125 -3.53125 2.171875 -3.53125 C 1.78125 -3.53125 1.40625 -3.390625 1.109375 -3.109375 L 1.109375 -4.734375 C 1.28125 -4.6875 1.5625 -4.625 1.828125 -4.625 C 2.859375 -4.625 3.453125 -5.390625 3.453125 -5.5 C 3.453125 -5.5625 3.421875 -5.59375 3.359375 -5.59375 C 3.359375 -5.59375 3.34375 -5.59375 3.296875 -5.578125 C 3.125 -5.5 2.71875 -5.328125 2.15625 -5.328125 C 1.8125 -5.328125 1.421875 -5.390625 1.03125 -5.5625 C 0.96875 -5.59375 0.9375 -5.59375 0.9375 -5.59375 C 0.84375 -5.59375 0.84375 -5.515625 0.84375 -5.390625 L 0.84375 -2.90625 C 0.84375 -2.75 0.84375 -2.6875 0.96875 -2.6875 C 1.03125 -2.6875 1.046875 -2.703125 1.078125 -2.75 C 1.171875 -2.890625 1.484375 -3.34375 2.15625 -3.34375 C 2.59375 -3.34375 2.8125 -2.953125 2.875 -2.8125 C 3.015625 -2.5 3.03125 -2.171875 3.03125 -1.75 C 3.03125 -1.453125 3.03125 -0.953125 2.828125 -0.59375 C 2.625 -0.265625 2.3125 -0.046875 1.921875 -0.046875 C 1.3125 -0.046875 0.828125 -0.5 0.6875 -0.984375 C 0.71875 -0.984375 0.734375 -0.96875 0.828125 -0.96875 C 1.109375 -0.96875 1.25 -1.1875 1.25 -1.390625 C 1.25 -1.59375 1.109375 -1.796875 0.828125 -1.796875 C 0.71875 -1.796875 0.421875 -1.734375 0.421875 -1.359375 C 0.421875 -0.625 1 0.1875 1.9375 0.1875 C 2.921875 0.1875 3.78125 -0.625 3.78125 -1.6875 Z M 3.78125 -1.6875 "/>
</g>
<g id="glyph-8-4-1bbd850f">
<path d="M 4.078125 -5.40625 L 2.03125 -5.40625 C 1.015625 -5.40625 0.984375 -5.515625 0.953125 -5.6875 L 0.75 -5.6875 L 0.46875 -3.953125 L 0.6875 -3.953125 C 0.703125 -4.078125 0.78125 -4.609375 0.890625 -4.71875 C 0.953125 -4.765625 1.609375 -4.765625 1.71875 -4.765625 L 3.453125 -4.765625 L 2.515625 -3.4375 C 1.75 -2.296875 1.484375 -1.140625 1.484375 -0.28125 C 1.484375 -0.1875 1.484375 0.1875 1.859375 0.1875 C 2.25 0.1875 2.25 -0.1875 2.25 -0.28125 L 2.25 -0.703125 C 2.25 -1.171875 2.28125 -1.625 2.34375 -2.078125 C 2.375 -2.28125 2.5 -3 2.859375 -3.515625 L 4 -5.125 C 4.078125 -5.21875 4.078125 -5.234375 4.078125 -5.40625 Z M 4.078125 -5.40625 "/>
</g>
<g id="glyph-8-5-1bbd850f">
<path d="M 3.515625 0 L 3.515625 -0.265625 L 3.25 -0.265625 C 2.5 -0.265625 2.46875 -0.359375 2.46875 -0.671875 L 2.46875 -5.375 C 2.46875 -5.578125 2.46875 -5.59375 2.28125 -5.59375 C 1.75 -5.0625 1.015625 -5.0625 0.75 -5.0625 L 0.75 -4.796875 C 0.921875 -4.796875 1.40625 -4.796875 1.84375 -5.015625 L 1.84375 -0.671875 C 1.84375 -0.359375 1.828125 -0.265625 1.0625 -0.265625 L 0.796875 -0.265625 L 0.796875 0 C 1.09375 -0.03125 1.828125 -0.03125 2.15625 -0.03125 C 2.5 -0.03125 3.234375 -0.03125 3.515625 0 Z M 3.515625 0 "/>
</g>
<g id="glyph-9-0-1bbd850f">
<path d="M 3.859375 -2.6875 C 3.859375 -3.359375 3.828125 -4.03125 3.53125 -4.65625 C 3.140625 -5.46875 2.453125 -5.59375 2.09375 -5.59375 C 1.59375 -5.59375 0.984375 -5.375 0.640625 -4.59375 C 0.375 -4.015625 0.328125 -3.359375 0.328125 -2.6875 C 0.328125 -2.0625 0.359375 -1.296875 0.703125 -0.671875 C 1.0625 0.015625 1.6875 0.1875 2.09375 0.1875 C 2.546875 0.1875 3.1875 0.015625 3.5625 -0.796875 C 3.828125 -1.375 3.859375 -2.03125 3.859375 -2.6875 Z M 3.171875 -2.796875 C 3.171875 -2.15625 3.171875 -1.59375 3.078125 -1.046875 C 2.953125 -0.25 2.46875 0 2.09375 0 C 1.765625 0 1.265625 -0.203125 1.125 -1.015625 C 1.03125 -1.515625 1.03125 -2.296875 1.03125 -2.796875 C 1.03125 -3.328125 1.03125 -3.890625 1.09375 -4.34375 C 1.25 -5.34375 1.890625 -5.40625 2.09375 -5.40625 C 2.375 -5.40625 2.921875 -5.265625 3.078125 -4.4375 C 3.171875 -3.953125 3.171875 -3.328125 3.171875 -2.796875 Z M 3.171875 -2.796875 "/>
</g>
<g id="glyph-9-1-1bbd850f">
<path d="M 3.78125 -1.6875 C 3.78125 -2.6875 3.078125 -3.53125 2.171875 -3.53125 C 1.78125 -3.53125 1.40625 -3.390625 1.109375 -3.109375 L 1.109375 -4.734375 C 1.28125 -4.6875 1.5625 -4.625 1.828125 -4.625 C 2.859375 -4.625 3.453125 -5.390625 3.453125 -5.5 C 3.453125 -5.5625 3.421875 -5.59375 3.359375 -5.59375 C 3.359375 -5.59375 3.34375 -5.59375 3.296875 -5.578125 C 3.125 -5.5 2.71875 -5.328125 2.15625 -5.328125 C 1.8125 -5.328125 1.421875 -5.390625 1.03125 -5.5625 C 0.96875 -5.59375 0.9375 -5.59375 0.9375 -5.59375 C 0.84375 -5.59375 0.84375 -5.515625 0.84375 -5.390625 L 0.84375 -2.90625 C 0.84375 -2.75 0.84375 -2.6875 0.96875 -2.6875 C 1.03125 -2.6875 1.046875 -2.703125 1.078125 -2.75 C 1.171875 -2.890625 1.484375 -3.34375 2.15625 -3.34375 C 2.59375 -3.34375 2.8125 -2.953125 2.875 -2.8125 C 3.015625 -2.5 3.03125 -2.171875 3.03125 -1.75 C 3.03125 -1.453125 3.03125 -0.953125 2.828125 -0.59375 C 2.625 -0.265625 2.3125 -0.046875 1.921875 -0.046875 C 1.3125 -0.046875 0.828125 -0.5 0.6875 -0.984375 C 0.71875 -0.984375 0.734375 -0.96875 0.828125 -0.96875 C 1.109375 -0.96875 1.25 -1.1875 1.25 -1.390625 C 1.25 -1.59375 1.109375 -1.796875 0.828125 -1.796875 C 0.71875 -1.796875 0.421875 -1.734375 0.421875 -1.359375 C 0.421875 -0.625 1 0.1875 1.9375 0.1875 C 2.921875 0.1875 3.78125 -0.625 3.78125 -1.6875 Z M 3.78125 -1.6875 "/>
</g>
</g>
</defs>
<rect x="-90" y="-40" width="1080" height="480" fill="rgb(100%, 100%, 100%)" fill-opacity="1"/>
<path fill-rule="nonzero" fill="rgb(100%, 100%, 100%)" fill-opacity="1" d="M 53 361 L 403 361 L 403 37 L 53 37 Z M 53 361 "/>
<path fill-rule="nonzero" fill="rgb(100%, 100%, 100%)" fill-opacity="1" d="M 450 361 L 800 361 L 800 37 L 450 37 Z M 450 361 "/>
<path fill="none" stroke-width="1" stroke-linecap="butt" stroke-linejoin="miter" stroke="rgb(0%, 0%, 0%)" stroke-opacity="0.12" stroke-miterlimit="1.154701" d="M 68.910156 361 L 68.910156 37 "/>
<path fill="none" stroke-width="1" stroke-linecap="butt" stroke-linejoin="miter" stroke="rgb(0%, 0%, 0%)" stroke-opacity="0.12" stroke-miterlimit="1.154701" d="M 148.453125 361 L 148.453125 37 "/>
<path fill="none" stroke-width="1" stroke-linecap="butt" stroke-linejoin="miter" stroke="rgb(0%, 0%, 0%)" stroke-opacity="0.12" stroke-miterlimit="1.154701" d="M 228 361 L 228 37 "/>
<path fill="none" stroke-width="1" stroke-linecap="butt" stroke-linejoin="miter" stroke="rgb(0%, 0%, 0%)" stroke-opacity="0.12" stroke-miterlimit="1.154701" d="M 307.546875 361 L 307.546875 37 "/>
<path fill="none" stroke-width="1" stroke-linecap="butt" stroke-linejoin="miter" stroke="rgb(0%, 0%, 0%)" stroke-opacity="0.12" stroke-miterlimit="1.154701" d="M 387.089844 361 L 387.089844 37 "/>
<path fill="none" stroke-width="1" stroke-linecap="butt" stroke-linejoin="miter" stroke="rgb(0%, 0%, 0%)" stroke-opacity="0.12" stroke-miterlimit="1.154701" d="M 53 307.195312 L 403 307.195312 "/>
<path fill="none" stroke-width="1" stroke-linecap="butt" stroke-linejoin="miter" stroke="rgb(0%, 0%, 0%)" stroke-opacity="0.12" stroke-miterlimit="1.154701" d="M 53 179.460938 L 403 179.460938 "/>
<path fill="none" stroke-width="1" stroke-linecap="butt" stroke-linejoin="miter" stroke="rgb(0%, 0%, 0%)" stroke-opacity="0.12" stroke-miterlimit="1.154701" d="M 53 51.726562 L 403 51.726562 "/>
<path fill="none" stroke-width="1" stroke-linecap="butt" stroke-linejoin="miter" stroke="rgb(0%, 0%, 0%)" stroke-opacity="0.12" stroke-miterlimit="1.154701" d="M 465.910156 361 L 465.910156 37 "/>
<path fill="none" stroke-width="1" stroke-linecap="butt" stroke-linejoin="miter" stroke="rgb(0%, 0%, 0%)" stroke-opacity="0.12" stroke-miterlimit="1.154701" d="M 545.453125 361 L 545.453125 37 "/>
<path fill="none" stroke-width="1" stroke-linecap="butt" stroke-linejoin="miter" stroke="rgb(0%, 0%, 0%)" stroke-opacity="0.12" stroke-miterlimit="1.154701" d="M 625 361 L 625 37 "/>
<path fill="none" stroke-width="1" stroke-linecap="butt" stroke-linejoin="miter" stroke="rgb(0%, 0%, 0%)" stroke-opacity="0.12" stroke-miterlimit="1.154701" d="M 704.546875 361 L 704.546875 37 "/>
<path fill="none" stroke-width="1" stroke-linecap="butt" stroke-linejoin="miter" stroke="rgb(0%, 0%, 0%)" stroke-opacity="0.12" stroke-miterlimit="1.154701" d="M 784.089844 361 L 784.089844 37 "/>
<path fill="none" stroke-width="1" stroke-linecap="butt" stroke-linejoin="miter" stroke="rgb(0%, 0%, 0%)" stroke-opacity="0.12" stroke-miterlimit="1.154701" d="M 450 333.269531 L 800 333.269531 "/>
<path fill="none" stroke-width="1" stroke-linecap="butt" stroke-linejoin="miter" stroke="rgb(0%, 0%, 0%)" stroke-opacity="0.12" stroke-miterlimit="1.154701" d="M 450 276.386719 L 800 276.386719 "/>
<path fill="none" stroke-width="1" stroke-linecap="butt" stroke-linejoin="miter" stroke="rgb(0%, 0%, 0%)" stroke-opacity="0.12" stroke-miterlimit="1.154701" d="M 450 219.5 L 800 219.5 "/>
<path fill="none" stroke-width="1" stroke-linecap="butt" stroke-linejoin="miter" stroke="rgb(0%, 0%, 0%)" stroke-opacity="0.12" stroke-miterlimit="1.154701" d="M 450 162.617188 L 800 162.617188 "/>
<path fill="none" stroke-width="1" stroke-linecap="butt" stroke-linejoin="miter" stroke="rgb(0%, 0%, 0%)" stroke-opacity="0.12" stroke-miterlimit="1.154701" d="M 450 105.734375 L 800 105.734375 "/>
<path fill="none" stroke-width="1" stroke-linecap="butt" stroke-linejoin="miter" stroke="rgb(0%, 0%, 0%)" stroke-opacity="0.12" stroke-miterlimit="1.154701" d="M 450 48.851562 L 800 48.851562 "/>
<g fill="rgb(0%, 0%, 0%)" fill-opacity="1">
<use xlink:href="#glyph-0-0-1bbd850f" x="54.902089" y="382.258001"/>
</g>
<g fill="rgb(0%, 0%, 0%)" fill-opacity="1">
<use xlink:href="#glyph-1-0-1bbd850f" x="62.68609" y="382.258001"/>
</g>
<g fill="rgb(0%, 0%, 0%)" fill-opacity="1">
<use xlink:href="#glyph-1-1-1bbd850f" x="66.578089" y="382.258001"/>
</g>
<g fill="rgb(0%, 0%, 0%)" fill-opacity="1">
<use xlink:href="#glyph-1-2-1bbd850f" x="74.362089" y="382.258001"/>
</g>
<g fill="rgb(0%, 0%, 0%)" fill-opacity="1">
<use xlink:href="#glyph-1-1-1bbd850f" x="130.555547" y="382.258001"/>
</g>
<g fill="rgb(0%, 0%, 0%)" fill-opacity="1">
<use xlink:href="#glyph-1-0-1bbd850f" x="138.339548" y="382.258001"/>
</g>
<g fill="rgb(0%, 0%, 0%)" fill-opacity="1">
<use xlink:href="#glyph-1-3-1bbd850f" x="142.231547" y="382.258001"/>
</g>
<g fill="rgb(0%, 0%, 0%)" fill-opacity="1">
<use xlink:href="#glyph-1-4-1bbd850f" x="150.015547" y="382.258001"/>
</g>
<g fill="rgb(0%, 0%, 0%)" fill-opacity="1">
<use xlink:href="#glyph-1-2-1bbd850f" x="157.799547" y="382.258001"/>
</g>
<g fill="rgb(0%, 0%, 0%)" fill-opacity="1">
<use xlink:href="#glyph-1-1-1bbd850f" x="213.993005" y="382.258001"/>
</g>
<g fill="rgb(0%, 0%, 0%)" fill-opacity="1">
<use xlink:href="#glyph-1-0-1bbd850f" x="221.777005" y="382.258001"/>
</g>
<g fill="rgb(0%, 0%, 0%)" fill-opacity="1">
<use xlink:href="#glyph-1-4-1bbd850f" x="225.669005" y="382.258001"/>
</g>
<g fill="rgb(0%, 0%, 0%)" fill-opacity="1">
<use xlink:href="#glyph-1-2-1bbd850f" x="233.453005" y="382.258001"/>
</g>
<g fill="rgb(0%, 0%, 0%)" fill-opacity="1">
<use xlink:href="#glyph-1-1-1bbd850f" x="289.646448" y="382.258001"/>
</g>
<g fill="rgb(0%, 0%, 0%)" fill-opacity="1">
<use xlink:href="#glyph-1-0-1bbd850f" x="297.430448" y="382.258001"/>
</g>
<g fill="rgb(0%, 0%, 0%)" fill-opacity="1">
<use xlink:href="#glyph-1-5-1bbd850f" x="301.322447" y="382.258001"/>
</g>
<g fill="rgb(0%, 0%, 0%)" fill-opacity="1">
<use xlink:href="#glyph-1-4-1bbd850f" x="309.106447" y="382.258001"/>
</g>
<g fill="rgb(0%, 0%, 0%)" fill-opacity="1">
<use xlink:href="#glyph-1-2-1bbd850f" x="316.890448" y="382.258001"/>
</g>
<g fill="rgb(0%, 0%, 0%)" fill-opacity="1">
<use xlink:href="#glyph-1-6-1bbd850f" x="373.083921" y="382.258001"/>
</g>
<g fill="rgb(0%, 0%, 0%)" fill-opacity="1">
<use xlink:href="#glyph-1-0-1bbd850f" x="380.867921" y="382.258001"/>
</g>
<g fill="rgb(0%, 0%, 0%)" fill-opacity="1">
<use xlink:href="#glyph-1-1-1bbd850f" x="384.759921" y="382.258001"/>
</g>
<g fill="rgb(0%, 0%, 0%)" fill-opacity="1">
<use xlink:href="#glyph-1-2-1bbd850f" x="392.54392" y="382.258001"/>
</g>
<g fill="rgb(0%, 0%, 0%)" fill-opacity="1">
<use xlink:href="#glyph-1-7-1bbd850f" x="15.364001" y="312.300245"/>
</g>
<g fill="rgb(0%, 0%, 0%)" fill-opacity="1">
<use xlink:href="#glyph-1-4-1bbd850f" x="23.540001" y="312.300245"/>
</g>
<g fill="rgb(0%, 0%, 0%)" fill-opacity="1">
<use xlink:href="#glyph-2-0-1bbd850f" x="31.324" y="312.300245"/>
</g>
<g fill="rgb(0%, 0%, 0%)" fill-opacity="1">
<use xlink:href="#glyph-1-1-1bbd850f" x="35.216" y="312.300245"/>
</g>
<g fill="rgb(0%, 0%, 0%)" fill-opacity="1">
<use xlink:href="#glyph-1-7-1bbd850f" x="15.364001" y="184.56527"/>
</g>
<g fill="rgb(0%, 0%, 0%)" fill-opacity="1">
<use xlink:href="#glyph-1-8-1bbd850f" x="23.540001" y="184.56527"/>
</g>
<g fill="rgb(0%, 0%, 0%)" fill-opacity="1">
<use xlink:href="#glyph-2-0-1bbd850f" x="31.324" y="184.56527"/>
</g>
<g fill="rgb(0%, 0%, 0%)" fill-opacity="1">
<use xlink:href="#glyph-1-4-1bbd850f" x="35.216" y="184.56527"/>
</g>
<g fill="rgb(0%, 0%, 0%)" fill-opacity="1">
<use xlink:href="#glyph-1-7-1bbd850f" x="15.364001" y="56.830272"/>
</g>
<g fill="rgb(0%, 0%, 0%)" fill-opacity="1">
<use xlink:href="#glyph-1-8-1bbd850f" x="23.540001" y="56.830272"/>
</g>
<g fill="rgb(0%, 0%, 0%)" fill-opacity="1">
<use xlink:href="#glyph-2-0-1bbd850f" x="31.324" y="56.830272"/>
</g>
<g fill="rgb(0%, 0%, 0%)" fill-opacity="1">
<use xlink:href="#glyph-1-1-1bbd850f" x="35.216" y="56.830272"/>
</g>
<g fill="rgb(0%, 0%, 0%)" fill-opacity="1">
<use xlink:href="#glyph-3-0-1bbd850f" x="216.133605" y="28.478008"/>
</g>
<g fill="rgb(0%, 0%, 0%)" fill-opacity="1">
<use xlink:href="#glyph-4-0-1bbd850f" x="221.579606" y="28.478008"/>
</g>
<g fill="rgb(0%, 0%, 0%)" fill-opacity="1">
<use xlink:href="#glyph-5-0-1bbd850f" x="231.841606" y="31.278008"/>
</g>
<g fill="rgb(0%, 0%, 0%)" fill-opacity="1">
<use xlink:href="#glyph-3-1-1bbd850f" x="234.420406" y="28.478008"/>
</g>
<path fill="none" stroke-width="1.5" stroke-linecap="butt" stroke-linejoin="miter" stroke="rgb(0%, 44.705883%, 69.803923%)" stroke-opacity="1" stroke-miterlimit="2" d="M 68.910156 51.726562 L 72.089844 51.726562 L 75.273438 51.730469 L 78.453125 51.738281 L 81.636719 51.75 L 84.816406 51.773438 L 88 51.804688 L 91.183594 51.847656 L 94.363281 51.90625 L 97.546875 51.980469 L 100.726562 52.074219 L 103.910156 52.183594 L 107.089844 52.316406 L 110.273438 52.46875 L 113.453125 52.644531 L 116.636719 52.847656 L 119.816406 53.074219 L 123 53.328125 L 126.183594 53.609375 L 129.363281 53.921875 L 132.546875 54.261719 L 135.726562 54.632812 L 138.910156 55.035156 L 142.089844 55.46875 L 145.273438 55.9375 L 148.453125 56.4375 L 151.636719 56.96875 L 154.816406 57.539062 L 158 58.140625 L 161.183594 58.773438 L 164.363281 59.445312 L 167.546875 60.152344 L 170.726562 60.890625 L 173.910156 61.664062 L 177.089844 62.472656 L 180.273438 63.3125 L 183.453125 64.1875 L 186.636719 65.09375 L 189.816406 66.035156 L 193 67.007812 L 196.183594 68.011719 L 199.363281 69.046875 L 202.546875 70.109375 L 205.726562 71.203125 L 208.910156 72.324219 L 212.089844 73.472656 L 215.273438 74.648438 L 218.453125 75.847656 L 221.636719 77.070312 L 224.816406 78.316406 L 228 79.582031 L 231.183594 80.867188 L 234.363281 82.171875 L 237.546875 83.492188 L 240.726562 84.828125 L 243.910156 86.179688 L 247.089844 87.539062 L 250.273438 88.914062 L 253.453125 90.292969 L 256.636719 91.679688 L 259.816406 93.074219 L 263 94.46875 L 266.183594 95.867188 L 269.363281 97.261719 L 272.546875 98.65625 L 275.726562 100.042969 L 278.910156 101.425781 L 282.089844 102.796875 L 285.273438 104.160156 L 288.453125 105.511719 L 291.636719 106.84375 L 294.816406 108.160156 L 298 109.460938 L 301.183594 110.738281 L 304.363281 111.992188 L 307.546875 113.21875 L 310.726562 114.421875 L 313.910156 115.59375 L 317.089844 116.734375 L 320.273438 117.839844 L 323.453125 118.914062 L 326.636719 119.945312 L 329.816406 120.941406 L 333 121.894531 L 336.183594 122.808594 L 339.363281 123.671875 L 342.546875 124.492188 L 345.726562 125.265625 L 348.910156 125.988281 L 352.089844 126.660156 L 355.273438 127.277344 L 358.453125 127.84375 L 361.636719 128.351562 L 364.816406 128.804688 L 368 129.199219 L 371.183594 129.535156 L 374.363281 129.8125 L 377.546875 130.03125 L 380.726562 130.1875 L 383.910156 130.28125 L 387.089844 130.3125 "/>
<path fill="none" stroke-width="1.5" stroke-linecap="butt" stroke-linejoin="miter" stroke="rgb(90.196079%, 62.352943%, 0%)" stroke-opacity="1" stroke-miterlimit="2" d="M 68.910156 51.726562 L 72.089844 51.726562 L 75.273438 51.738281 L 78.453125 51.757812 L 81.636719 51.800781 L 84.816406 51.871094 L 88 51.972656 L 91.183594 52.113281 L 94.363281 52.296875 L 97.546875 52.53125 L 100.726562 52.820312 L 103.910156 53.167969 L 107.089844 53.578125 L 110.273438 54.058594 L 113.453125 54.609375 L 116.636719 55.234375 L 119.816406 55.941406 L 123 56.726562 L 126.183594 57.597656 L 129.363281 58.554688 L 132.546875 59.601562 L 135.726562 60.738281 L 138.910156 61.96875 L 142.089844 63.292969 L 145.273438 64.710938 L 148.453125 66.21875 L 151.636719 67.828125 L 154.816406 69.527344 L 158 71.324219 L 161.183594 73.210938 L 164.363281 75.195312 L 167.546875 77.265625 L 170.726562 79.429688 L 173.910156 81.683594 L 177.089844 84.019531 L 180.273438 86.441406 L 183.453125 88.941406 L 186.636719 91.523438 L 189.816406 94.179688 L 193 96.90625 L 196.183594 99.699219 L 199.363281 102.558594 L 202.546875 105.480469 L 205.726562 108.457031 L 208.910156 111.480469 L 212.089844 114.554688 L 215.273438 117.671875 L 218.453125 120.828125 L 221.636719 124.011719 L 224.816406 127.226562 L 228 130.460938 L 231.183594 133.714844 L 234.363281 136.976562 L 237.546875 140.246094 L 240.726562 143.515625 L 243.910156 146.78125 L 247.089844 150.035156 L 250.273438 153.273438 L 253.453125 156.492188 L 256.636719 159.683594 L 259.816406 162.839844 L 263 165.964844 L 266.183594 169.042969 L 269.363281 172.074219 L 272.546875 175.054688 L 275.726562 177.980469 L 278.910156 180.839844 L 282.089844 183.640625 L 285.273438 186.367188 L 288.453125 189.019531 L 291.636719 191.597656 L 294.816406 194.097656 L 298 196.511719 L 301.183594 198.839844 L 304.363281 201.078125 L 307.546875 203.226562 L 310.726562 205.28125 L 313.910156 207.242188 L 317.089844 209.109375 L 320.273438 210.878906 L 323.453125 212.550781 L 326.636719 214.121094 L 329.816406 215.597656 L 333 216.976562 L 336.183594 218.257812 L 339.363281 219.445312 L 342.546875 220.535156 L 345.726562 221.53125 L 348.910156 222.4375 L 352.089844 223.253906 L 355.273438 223.984375 L 358.453125 224.628906 L 361.636719 225.191406 L 364.816406 225.675781 L 368 226.085938 L 371.183594 226.421875 L 374.363281 226.6875 L 377.546875 226.886719 L 380.726562 227.027344 L 383.910156 227.105469 L 387.089844 227.132812 "/>
<path fill="none" stroke-width="1.5" stroke-linecap="butt" stroke-linejoin="miter" stroke="rgb(0%, 61.960787%, 45.09804%)" stroke-opacity="1" stroke-miterlimit="2" d="M 68.910156 51.726562 L 72.089844 51.730469 L 75.273438 51.757812 L 78.453125 51.824219 L 81.636719 51.960938 L 84.816406 52.175781 L 88 52.496094 L 91.183594 52.9375 L 94.363281 53.511719 L 97.546875 54.238281 L 100.726562 55.132812 L 103.910156 56.203125 L 107.089844 57.46875 L 110.273438 58.929688 L 113.453125 60.597656 L 116.636719 62.484375 L 119.816406 64.59375 L 123 66.925781 L 126.183594 69.488281 L 129.363281 72.28125 L 132.546875 75.304688 L 135.726562 78.558594 L 138.910156 82.039062 L 142.089844 85.738281 L 145.273438 89.65625 L 148.453125 93.785156 L 151.636719 98.117188 L 154.816406 102.640625 L 158 107.347656 L 161.183594 112.226562 L 164.363281 117.261719 L 167.546875 122.445312 L 170.726562 127.761719 L 173.910156 133.191406 L 177.089844 138.726562 L 180.273438 144.347656 L 183.453125 150.039062 L 186.636719 155.78125 L 189.816406 161.558594 L 196.183594 173.160156 L 199.363281 178.945312 L 202.546875 184.699219 L 205.726562 190.40625 L 208.910156 196.046875 L 212.089844 201.613281 L 215.273438 207.082031 L 218.453125 212.445312 L 221.636719 217.683594 L 224.816406 222.792969 L 228 227.757812 L 231.183594 232.566406 L 234.363281 237.210938 L 237.546875 241.683594 L 240.726562 245.980469 L 243.910156 250.089844 L 247.089844 254.011719 L 250.273438 257.746094 L 253.453125 261.28125 L 256.636719 264.628906 L 259.816406 267.78125 L 263 270.742188 L 266.183594 273.515625 L 269.363281 276.105469 L 272.546875 278.519531 L 275.726562 280.757812 L 278.910156 282.832031 L 282.089844 284.746094 L 285.273438 286.511719 L 288.453125 288.136719 L 291.636719 289.625 L 294.816406 290.996094 L 298 292.25 L 301.183594 293.398438 L 304.363281 294.453125 L 307.546875 295.421875 L 310.726562 296.3125 L 313.910156 297.136719 L 317.089844 297.898438 L 320.273438 298.609375 L 323.453125 299.273438 L 326.636719 299.894531 L 329.816406 300.484375 L 333 301.039062 L 336.183594 301.570312 L 339.363281 302.074219 L 342.546875 302.558594 L 345.726562 303.019531 L 348.910156 303.460938 L 352.089844 303.878906 L 355.273438 304.273438 L 358.453125 304.644531 L 361.636719 304.992188 L 364.816406 305.308594 L 368 305.59375 L 371.183594 305.84375 L 374.363281 306.054688 L 377.546875 306.222656 L 380.726562 306.351562 L 383.910156 306.425781 L 387.089844 306.453125 "/>
<path fill="none" stroke-width="1.5" stroke-linecap="butt" stroke-linejoin="miter" stroke="rgb(80.000001%, 47.450981%, 65.490198%)" stroke-opacity="1" stroke-miterlimit="2" d="M 68.910156 51.726562 L 72.089844 51.738281 L 75.273438 51.820312 L 78.453125 52.039062 L 81.636719 52.457031 L 84.816406 53.132812 L 88 54.121094 L 91.183594 55.46875 L 94.363281 57.21875 L 97.546875 59.398438 L 100.726562 62.042969 L 103.910156 65.167969 L 107.089844 68.785156 L 110.273438 72.898438 L 113.453125 77.503906 L 116.636719 82.59375 L 119.816406 88.144531 L 123 94.140625 L 126.183594 100.542969 L 129.363281 107.316406 L 132.546875 114.417969 L 135.726562 121.800781 L 138.910156 129.417969 L 142.089844 137.214844 L 145.273438 145.132812 L 148.453125 153.113281 L 151.636719 161.105469 L 154.816406 169.046875 L 158 176.882812 L 161.183594 184.5625 L 164.363281 192.035156 L 167.546875 199.253906 L 170.726562 206.179688 L 173.910156 212.773438 L 177.089844 219.007812 L 180.273438 224.855469 L 183.453125 230.300781 L 186.636719 235.328125 L 189.816406 239.941406 L 193 244.132812 L 196.183594 247.921875 L 199.363281 251.316406 L 202.546875 254.335938 L 205.726562 257.007812 L 208.910156 259.367188 L 212.089844 261.441406 L 215.273438 263.265625 L 218.453125 264.882812 L 221.636719 266.332031 L 224.816406 267.652344 L 228 268.882812 L 231.183594 270.058594 L 234.363281 271.21875 L 237.546875 272.390625 L 240.726562 273.605469 L 243.910156 274.886719 L 247.089844 276.253906 L 250.273438 277.71875 L 253.453125 279.296875 L 256.636719 280.984375 L 259.816406 282.789062 L 263 284.699219 L 266.183594 286.714844 L 269.363281 288.8125 L 272.546875 290.984375 L 275.726562 293.214844 L 278.910156 295.476562 L 282.089844 297.757812 L 285.273438 300.035156 L 288.453125 302.289062 L 291.636719 304.503906 L 294.816406 306.660156 L 298 308.746094 L 301.183594 310.746094 L 304.363281 312.65625 L 307.546875 314.464844 L 310.726562 316.167969 L 313.910156 317.769531 L 317.089844 319.261719 L 320.273438 320.65625 L 323.453125 321.949219 L 326.636719 323.152344 L 329.816406 324.265625 L 333 325.296875 L 336.183594 326.25 L 339.363281 327.136719 L 342.546875 327.957031 L 345.726562 328.71875 L 348.910156 329.417969 L 352.089844 330.0625 L 355.273438 330.652344 L 358.453125 331.1875 L 361.636719 331.671875 L 364.816406 332.097656 L 368 332.46875 L 371.183594 332.78125 L 374.363281 333.039062 L 377.546875 333.238281 L 380.726562 333.382812 L 383.910156 333.46875 L 387.089844 333.496094 "/>
<path fill="none" stroke-width="1.5" stroke-linecap="butt" stroke-linejoin="miter" stroke="rgb(33.725491%, 70.588237%, 91.37255%)" stroke-opacity="1" stroke-miterlimit="2" d="M 68.910156 51.726562 L 72.089844 51.765625 L 75.273438 52.019531 L 78.453125 52.699219 L 81.636719 53.984375 L 84.816406 56.027344 L 88 58.9375 L 91.183594 62.796875 L 94.363281 67.636719 L 97.546875 73.449219 L 100.726562 80.179688 L 103.910156 87.742188 L 107.089844 96.011719 L 110.273438 104.832031 L 113.453125 114.035156 L 116.636719 123.429688 L 119.816406 132.816406 L 123 142.007812 L 126.183594 150.820312 L 129.363281 159.09375 L 132.546875 166.6875 L 135.726562 173.496094 L 138.910156 179.453125 L 142.089844 184.523438 L 145.273438 188.714844 L 148.453125 192.066406 L 151.636719 194.65625 L 154.816406 196.597656 L 158 198.015625 L 161.183594 199.0625 L 164.363281 199.890625 L 167.546875 200.664062 L 170.726562 201.523438 L 173.910156 202.609375 L 177.089844 204.035156 L 180.273438 205.882812 L 183.453125 208.210938 L 186.636719 211.042969 L 189.816406 214.371094 L 193 218.160156 L 196.183594 222.34375 L 199.363281 226.839844 L 202.546875 231.554688 L 205.726562 236.382812 L 208.910156 241.222656 L 212.089844 245.976562 L 215.273438 250.5625 L 218.453125 254.910156 L 221.636719 258.980469 L 224.816406 262.746094 L 228 266.203125 L 231.183594 269.367188 L 234.363281 272.269531 L 237.546875 274.957031 L 240.726562 277.480469 L 243.910156 279.882812 L 247.089844 282.222656 L 250.273438 284.53125 L 253.453125 286.847656 L 256.636719 289.183594 L 259.816406 291.554688 L 263 293.957031 L 266.183594 296.371094 L 269.363281 298.792969 L 272.546875 301.195312 L 275.726562 303.558594 L 278.910156 305.871094 L 282.089844 308.117188 L 285.273438 310.289062 L 288.453125 312.390625 L 291.636719 314.421875 L 294.816406 316.382812 L 298 318.28125 L 301.183594 320.121094 L 304.363281 321.90625 L 307.546875 323.628906 L 310.726562 325.285156 L 313.910156 326.863281 L 317.089844 328.359375 L 320.273438 329.757812 L 323.453125 331.058594 L 326.636719 332.25 L 329.816406 333.335938 L 333 334.328125 L 336.183594 335.238281 L 339.363281 336.082031 L 342.546875 336.875 L 345.726562 337.632812 L 348.910156 338.367188 L 352.089844 339.078125 L 355.273438 339.777344 L 358.453125 340.445312 L 361.636719 341.078125 L 364.816406 341.660156 L 368 342.171875 L 371.183594 342.605469 L 374.363281 342.953125 L 377.546875 343.207031 L 380.726562 343.378906 L 383.910156 343.472656 L 387.089844 343.5 "/>
<path fill="none" stroke-width="1.5" stroke-linecap="butt" stroke-linejoin="miter" stroke="rgb(83.529413%, 36.862746%, 0%)" stroke-opacity="1" stroke-miterlimit="2" d="M 68.910156 51.726562 L 72.089844 51.84375 L 75.273438 52.640625 L 78.453125 54.6875 L 81.636719 58.390625 L 84.816406 63.929688 L 88 71.238281 L 91.183594 80.03125 L 94.363281 89.832031 L 97.546875 100.039062 L 100.726562 110.015625 L 103.910156 119.144531 L 107.089844 126.9375 L 110.273438 133.082031 L 113.453125 137.476562 L 116.636719 140.238281 L 119.816406 141.691406 L 123 142.3125 L 126.183594 142.667969 L 129.363281 143.320312 L 132.546875 144.769531 L 135.726562 147.378906 L 138.910156 151.324219 L 142.089844 156.585938 L 145.273438 162.953125 L 148.453125 170.070312 L 151.636719 177.496094 L 154.816406 184.769531 L 158 191.488281 L 161.183594 197.351562 L 164.363281 202.222656 L 167.546875 206.109375 L 170.726562 209.171875 L 173.910156 211.664062 L 177.089844 213.894531 L 180.273438 216.152344 L 183.453125 218.671875 L 186.636719 221.59375 L 189.816406 224.953125 L 193 228.683594 L 196.183594 232.65625 L 199.363281 236.703125 L 202.546875 240.679688 L 205.726562 244.472656 L 208.910156 248.027344 L 212.089844 251.351562 L 215.273438 254.492188 L 218.453125 257.519531 L 221.636719 260.5 L 224.816406 263.476562 L 231.183594 269.453125 L 234.363281 272.417969 L 237.546875 275.339844 L 240.726562 278.214844 L 243.910156 281.058594 L 247.089844 283.902344 L 250.273438 286.777344 L 253.453125 289.691406 L 256.636719 292.621094 L 259.816406 295.519531 L 263 298.304688 L 266.183594 300.902344 L 269.363281 303.261719 L 272.546875 305.371094 L 275.726562 307.273438 L 278.910156 309.058594 L 282.089844 310.832031 L 285.273438 312.703125 L 288.453125 314.722656 L 291.636719 316.902344 L 294.816406 319.1875 L 298 321.480469 L 301.183594 323.675781 L 304.363281 325.675781 L 307.546875 327.4375 L 310.726562 328.957031 L 313.910156 330.273438 L 317.089844 331.453125 L 320.273438 332.570312 L 323.453125 333.675781 L 326.636719 334.792969 L 329.816406 335.921875 L 333 337.046875 L 336.183594 338.136719 L 339.363281 339.167969 L 342.546875 340.117188 L 345.726562 340.964844 L 348.910156 341.707031 L 352.089844 342.351562 L 355.273438 342.914062 L 358.453125 343.421875 L 361.636719 343.90625 L 364.816406 344.378906 L 368 344.847656 L 371.183594 345.289062 L 374.363281 345.671875 L 377.546875 345.964844 L 380.726562 346.15625 L 383.910156 346.25 L 387.089844 346.273438 "/>
<g fill="rgb(0%, 0%, 0%)" fill-opacity="1">
<use xlink:href="#glyph-1-1-1bbd850f" x="451.902099" y="382.258001"/>
</g>
<g fill="rgb(0%, 0%, 0%)" fill-opacity="1">
<use xlink:href="#glyph-1-0-1bbd850f" x="459.686099" y="382.258001"/>
</g>
<g fill="rgb(0%, 0%, 0%)" fill-opacity="1">
<use xlink:href="#glyph-1-1-1bbd850f" x="463.578099" y="382.258001"/>
</g>
<g fill="rgb(0%, 0%, 0%)" fill-opacity="1">
<use xlink:href="#glyph-1-2-1bbd850f" x="471.362099" y="382.258001"/>
</g>
<g fill="rgb(0%, 0%, 0%)" fill-opacity="1">
<use xlink:href="#glyph-1-1-1bbd850f" x="527.555541" y="382.258001"/>
</g>
<g fill="rgb(0%, 0%, 0%)" fill-opacity="1">
<use xlink:href="#glyph-1-0-1bbd850f" x="535.339542" y="382.258001"/>
</g>
<g fill="rgb(0%, 0%, 0%)" fill-opacity="1">
<use xlink:href="#glyph-1-3-1bbd850f" x="539.231541" y="382.258001"/>
</g>
<g fill="rgb(0%, 0%, 0%)" fill-opacity="1">
<use xlink:href="#glyph-1-4-1bbd850f" x="547.015541" y="382.258001"/>
</g>
<g fill="rgb(0%, 0%, 0%)" fill-opacity="1">
<use xlink:href="#glyph-1-2-1bbd850f" x="554.799542" y="382.258001"/>
</g>
<g fill="rgb(0%, 0%, 0%)" fill-opacity="1">
<use xlink:href="#glyph-1-1-1bbd850f" x="610.993015" y="382.258001"/>
</g>
<g fill="rgb(0%, 0%, 0%)" fill-opacity="1">
<use xlink:href="#glyph-1-0-1bbd850f" x="618.777015" y="382.258001"/>
</g>
<g fill="rgb(0%, 0%, 0%)" fill-opacity="1">
<use xlink:href="#glyph-1-4-1bbd850f" x="622.669015" y="382.258001"/>
</g>
<g fill="rgb(0%, 0%, 0%)" fill-opacity="1">
<use xlink:href="#glyph-1-2-1bbd850f" x="630.453014" y="382.258001"/>
</g>
<g fill="rgb(0%, 0%, 0%)" fill-opacity="1">
<use xlink:href="#glyph-1-1-1bbd850f" x="686.646488" y="382.258001"/>
</g>
<g fill="rgb(0%, 0%, 0%)" fill-opacity="1">
<use xlink:href="#glyph-1-0-1bbd850f" x="694.430488" y="382.258001"/>
</g>
<g fill="rgb(0%, 0%, 0%)" fill-opacity="1">
<use xlink:href="#glyph-1-5-1bbd850f" x="698.322488" y="382.258001"/>
</g>
<g fill="rgb(0%, 0%, 0%)" fill-opacity="1">
<use xlink:href="#glyph-1-4-1bbd850f" x="706.106487" y="382.258001"/>
</g>
<g fill="rgb(0%, 0%, 0%)" fill-opacity="1">
<use xlink:href="#glyph-1-2-1bbd850f" x="713.890488" y="382.258001"/>
</g>
<g fill="rgb(0%, 0%, 0%)" fill-opacity="1">
<use xlink:href="#glyph-1-6-1bbd850f" x="770.0839" y="382.258001"/>
</g>
<g fill="rgb(0%, 0%, 0%)" fill-opacity="1">
<use xlink:href="#glyph-1-0-1bbd850f" x="777.8679" y="382.258001"/>
</g>
<g fill="rgb(0%, 0%, 0%)" fill-opacity="1">
<use xlink:href="#glyph-1-1-1bbd850f" x="781.7599" y="382.258001"/>
</g>
<g fill="rgb(0%, 0%, 0%)" fill-opacity="1">
<use xlink:href="#glyph-1-2-1bbd850f" x="789.5439" y="382.258001"/>
</g>
<g fill="rgb(0%, 0%, 0%)" fill-opacity="1">
<use xlink:href="#glyph-1-1-1bbd850f" x="420.540011" y="338.370763"/>
</g>
<g fill="rgb(0%, 0%, 0%)" fill-opacity="1">
<use xlink:href="#glyph-1-0-1bbd850f" x="428.324012" y="338.370763"/>
</g>
<g fill="rgb(0%, 0%, 0%)" fill-opacity="1">
<use xlink:href="#glyph-1-4-1bbd850f" x="432.216011" y="338.370763"/>
</g>
<g fill="rgb(0%, 0%, 0%)" fill-opacity="1">
<use xlink:href="#glyph-1-1-1bbd850f" x="420.540011" y="281.48786"/>
</g>
<g fill="rgb(0%, 0%, 0%)" fill-opacity="1">
<use xlink:href="#glyph-1-0-1bbd850f" x="428.324012" y="281.48786"/>
</g>
<g fill="rgb(0%, 0%, 0%)" fill-opacity="1">
<use xlink:href="#glyph-1-9-1bbd850f" x="432.216011" y="281.48786"/>
</g>
<g fill="rgb(0%, 0%, 0%)" fill-opacity="1">
<use xlink:href="#glyph-1-1-1bbd850f" x="420.540011" y="224.604957"/>
</g>
<g fill="rgb(0%, 0%, 0%)" fill-opacity="1">
<use xlink:href="#glyph-1-0-1bbd850f" x="428.324012" y="224.604957"/>
</g>
<g fill="rgb(0%, 0%, 0%)" fill-opacity="1">
<use xlink:href="#glyph-1-5-1bbd850f" x="432.216011" y="224.604957"/>
</g>
<g fill="rgb(0%, 0%, 0%)" fill-opacity="1">
<use xlink:href="#glyph-1-1-1bbd850f" x="420.540011" y="167.722054"/>
</g>
<g fill="rgb(0%, 0%, 0%)" fill-opacity="1">
<use xlink:href="#glyph-1-0-1bbd850f" x="428.324012" y="167.722054"/>
</g>
<g fill="rgb(0%, 0%, 0%)" fill-opacity="1">
<use xlink:href="#glyph-1-10-1bbd850f" x="432.216011" y="167.722054"/>
</g>
<g fill="rgb(0%, 0%, 0%)" fill-opacity="1">
<use xlink:href="#glyph-1-1-1bbd850f" x="420.540011" y="110.839152"/>
</g>
<g fill="rgb(0%, 0%, 0%)" fill-opacity="1">
<use xlink:href="#glyph-1-0-1bbd850f" x="428.324012" y="110.839152"/>
</g>
<g fill="rgb(0%, 0%, 0%)" fill-opacity="1">
<use xlink:href="#glyph-1-11-1bbd850f" x="432.216011" y="110.839152"/>
</g>
<g fill="rgb(0%, 0%, 0%)" fill-opacity="1">
<use xlink:href="#glyph-1-6-1bbd850f" x="420.540011" y="53.956249"/>
</g>
<g fill="rgb(0%, 0%, 0%)" fill-opacity="1">
<use xlink:href="#glyph-1-0-1bbd850f" x="428.324012" y="53.956249"/>
</g>
<g fill="rgb(0%, 0%, 0%)" fill-opacity="1">
<use xlink:href="#glyph-1-1-1bbd850f" x="432.216011" y="53.956249"/>
</g>
<g fill="rgb(0%, 0%, 0%)" fill-opacity="1">
<use xlink:href="#glyph-3-2-1bbd850f" x="591.061217" y="28.570409"/>
</g>
<g fill="rgb(0%, 0%, 0%)" fill-opacity="1">
<use xlink:href="#glyph-3-0-1bbd850f" x="594.953218" y="28.570409"/>
</g>
<g fill="rgb(0%, 0%, 0%)" fill-opacity="1">
<use xlink:href="#glyph-3-3-1bbd850f" x="600.399219" y="28.570409"/>
</g>
<g fill="rgb(0%, 0%, 0%)" fill-opacity="1">
<use xlink:href="#glyph-6-0-1bbd850f" x="610.353218" y="31.370408"/>
</g>
<g fill="rgb(0%, 0%, 0%)" fill-opacity="1">
<use xlink:href="#glyph-6-1-1bbd850f" x="609.513219" y="22.536408"/>
</g>
<g fill="rgb(0%, 0%, 0%)" fill-opacity="1">
<use xlink:href="#glyph-3-2-1bbd850f" x="616.85482" y="28.570409"/>
</g>
<g fill="rgb(0%, 0%, 0%)" fill-opacity="1">
<use xlink:href="#glyph-3-3-1bbd850f" x="620.746818" y="28.570409"/>
</g>
<g fill="rgb(0%, 0%, 0%)" fill-opacity="1">
<use xlink:href="#glyph-3-4-1bbd850f" x="629.860817" y="28.570409"/>
</g>
<g fill="rgb(0%, 0%, 0%)" fill-opacity="1">
<use xlink:href="#glyph-4-1-1bbd850f" x="635.306816" y="28.570409"/>
</g>
<g fill="rgb(0%, 0%, 0%)" fill-opacity="1">
<use xlink:href="#glyph-3-5-1bbd850f" x="639.954819" y="28.570409"/>
</g>
<g fill="rgb(0%, 0%, 0%)" fill-opacity="1">
<use xlink:href="#glyph-3-1-1bbd850f" x="645.400818" y="28.570409"/>
</g>
<g fill="rgb(0%, 0%, 0%)" fill-opacity="1">
<use xlink:href="#glyph-3-2-1bbd850f" x="650.846818" y="28.570409"/>
</g>
<g fill="rgb(0%, 0%, 0%)" fill-opacity="1">
<use xlink:href="#glyph-7-0-1bbd850f" x="654.738816" y="22.536408"/>
</g>
<path fill="none" stroke-width="1.5" stroke-linecap="butt" stroke-linejoin="miter" stroke="rgb(0%, 44.705883%, 69.803923%)" stroke-opacity="1" stroke-miterlimit="2" d="M 465.910156 346.273438 L 469.089844 346.273438 L 472.273438 346.269531 L 475.453125 346.265625 L 478.636719 346.257812 L 481.816406 346.246094 L 485 346.230469 L 488.183594 346.203125 L 491.363281 346.171875 L 494.546875 346.128906 L 497.726562 346.078125 L 500.910156 346.015625 L 504.089844 345.945312 L 507.273438 345.859375 L 510.453125 345.761719 L 513.636719 345.648438 L 516.816406 345.519531 L 520 345.378906 L 523.183594 345.222656 L 526.363281 345.046875 L 529.546875 344.855469 L 532.726562 344.648438 L 535.910156 344.421875 L 539.089844 344.179688 L 542.273438 343.917969 L 545.453125 343.636719 L 548.636719 343.335938 L 551.816406 343.015625 L 555 342.679688 L 558.183594 342.320312 L 561.363281 341.941406 L 564.546875 341.542969 L 567.726562 341.125 L 570.910156 340.6875 L 574.089844 340.226562 L 577.273438 339.75 L 580.453125 339.253906 L 583.636719 338.734375 L 586.816406 338.199219 L 590 337.640625 L 593.183594 337.066406 L 596.363281 336.472656 L 599.546875 335.863281 L 602.726562 335.234375 L 605.910156 334.585938 L 609.089844 333.921875 L 612.273438 333.242188 L 615.453125 332.542969 L 618.636719 331.832031 L 621.816406 331.105469 L 625 330.367188 L 628.183594 329.613281 L 631.363281 328.84375 L 634.546875 328.066406 L 637.726562 327.277344 L 640.910156 326.476562 L 644.089844 325.664062 L 647.273438 324.847656 L 650.453125 324.023438 L 653.636719 323.191406 L 656.816406 322.351562 L 663.183594 320.664062 L 666.363281 319.816406 L 669.546875 318.964844 L 672.726562 318.117188 L 675.910156 317.269531 L 679.089844 316.421875 L 682.273438 315.582031 L 685.453125 314.742188 L 688.636719 313.910156 L 691.816406 313.085938 L 695 312.273438 L 698.183594 311.46875 L 701.363281 310.675781 L 704.546875 309.894531 L 707.726562 309.128906 L 710.910156 308.378906 L 714.089844 307.644531 L 717.273438 306.929688 L 720.453125 306.234375 L 723.636719 305.558594 L 726.816406 304.910156 L 730 304.28125 L 733.183594 303.679688 L 736.363281 303.105469 L 739.546875 302.558594 L 742.726562 302.042969 L 745.910156 301.554688 L 749.089844 301.101562 L 752.273438 300.679688 L 755.453125 300.296875 L 758.636719 299.945312 L 761.816406 299.632812 L 765 299.359375 L 768.183594 299.125 L 771.363281 298.929688 L 774.546875 298.777344 L 777.726562 298.667969 L 780.910156 298.601562 L 784.089844 298.578125 "/>
<path fill="none" stroke-width="1.5" stroke-linecap="butt" stroke-linejoin="miter" stroke="rgb(90.196079%, 62.352943%, 0%)" stroke-opacity="1" stroke-miterlimit="2" d="M 465.910156 346.273438 L 469.089844 346.273438 L 472.273438 346.265625 L 475.453125 346.253906 L 478.636719 346.230469 L 481.816406 346.191406 L 485 346.136719 L 488.183594 346.058594 L 491.363281 345.953125 L 494.546875 345.824219 L 497.726562 345.664062 L 500.910156 345.46875 L 504.089844 345.238281 L 507.273438 344.96875 L 510.453125 344.660156 L 513.636719 344.3125 L 516.816406 343.914062 L 520 343.472656 L 523.183594 342.984375 L 526.363281 342.445312 L 529.546875 341.851562 L 532.726562 341.210938 L 535.910156 340.515625 L 539.089844 339.761719 L 542.273438 338.957031 L 545.453125 338.097656 L 548.636719 337.179688 L 551.816406 336.203125 L 555 335.171875 L 558.183594 334.082031 L 561.363281 332.933594 L 564.546875 331.730469 L 567.726562 330.472656 L 570.910156 329.152344 L 574.089844 327.78125 L 577.273438 326.351562 L 580.453125 324.871094 L 583.636719 323.335938 L 586.816406 321.746094 L 590 320.109375 L 593.183594 318.417969 L 596.363281 316.683594 L 599.546875 314.898438 L 602.726562 313.070312 L 605.910156 311.199219 L 609.089844 309.289062 L 612.273438 307.335938 L 615.453125 305.351562 L 618.636719 303.328125 L 621.816406 301.277344 L 625 299.195312 L 628.183594 297.085938 L 631.363281 294.957031 L 634.546875 292.804688 L 637.726562 290.636719 L 640.910156 288.453125 L 644.089844 286.257812 L 647.273438 284.054688 L 650.453125 281.847656 L 653.636719 279.636719 L 656.816406 277.429688 L 660 275.230469 L 663.183594 273.035156 L 666.363281 270.855469 L 669.546875 268.691406 L 672.726562 266.546875 L 675.910156 264.421875 L 679.089844 262.324219 L 682.273438 260.257812 L 685.453125 258.222656 L 688.636719 256.226562 L 691.816406 254.265625 L 695 252.347656 L 698.183594 250.476562 L 701.363281 248.652344 L 704.546875 246.882812 L 707.726562 245.164062 L 710.910156 243.5 L 714.089844 241.898438 L 717.273438 240.355469 L 720.453125 238.875 L 723.636719 237.460938 L 726.816406 236.113281 L 730 234.835938 L 733.183594 233.625 L 736.363281 232.488281 L 739.546875 231.421875 L 742.726562 230.429688 L 745.910156 229.511719 L 749.089844 228.664062 L 752.273438 227.894531 L 755.453125 227.199219 L 758.636719 226.582031 L 761.816406 226.035156 L 765 225.566406 L 768.183594 225.167969 L 771.363281 224.847656 L 774.546875 224.597656 L 777.726562 224.421875 L 780.910156 224.316406 L 784.089844 224.28125 "/>
<path fill="none" stroke-width="1.5" stroke-linecap="butt" stroke-linejoin="miter" stroke="rgb(0%, 61.960787%, 45.09804%)" stroke-opacity="1" stroke-miterlimit="2" d="M 465.910156 346.273438 L 469.089844 346.269531 L 472.273438 346.257812 L 475.453125 346.21875 L 478.636719 346.144531 L 481.816406 346.023438 L 485 345.84375 L 488.183594 345.597656 L 491.363281 345.277344 L 494.546875 344.867188 L 497.726562 344.367188 L 500.910156 343.765625 L 504.089844 343.058594 L 507.273438 342.234375 L 510.453125 341.289062 L 513.636719 340.222656 L 516.816406 339.023438 L 520 337.695312 L 523.183594 336.226562 L 526.363281 334.621094 L 529.546875 332.875 L 532.726562 330.984375 L 535.910156 328.953125 L 539.089844 326.777344 L 542.273438 324.460938 L 545.453125 322 L 548.636719 319.402344 L 551.816406 316.664062 L 555 313.792969 L 558.183594 310.789062 L 561.363281 307.660156 L 564.546875 304.40625 L 567.726562 301.035156 L 570.910156 297.554688 L 574.089844 293.964844 L 577.273438 290.277344 L 580.453125 286.496094 L 583.636719 282.632812 L 586.816406 278.6875 L 590 274.679688 L 593.183594 270.609375 L 596.363281 266.488281 L 599.546875 262.324219 L 602.726562 258.128906 L 605.910156 253.910156 L 609.089844 249.675781 L 612.273438 245.441406 L 615.453125 241.210938 L 618.636719 236.992188 L 621.816406 232.800781 L 625 228.640625 L 628.183594 224.519531 L 631.363281 220.453125 L 634.546875 216.441406 L 637.726562 212.496094 L 640.910156 208.621094 L 644.089844 204.828125 L 647.273438 201.117188 L 650.453125 197.5 L 653.636719 193.972656 L 656.816406 190.546875 L 660 187.222656 L 663.183594 184 L 666.363281 180.886719 L 669.546875 177.878906 L 672.726562 174.980469 L 675.910156 172.191406 L 679.089844 169.507812 L 682.273438 166.933594 L 685.453125 164.460938 L 688.636719 162.097656 L 691.816406 159.832031 L 695 157.664062 L 698.183594 155.589844 L 701.363281 153.613281 L 704.546875 151.722656 L 707.726562 149.917969 L 710.910156 148.199219 L 714.089844 146.558594 L 717.273438 144.996094 L 720.453125 143.507812 L 723.636719 142.089844 L 726.816406 140.742188 L 730 139.464844 L 733.183594 138.253906 L 736.363281 137.105469 L 739.546875 136.023438 L 742.726562 135.007812 L 745.910156 134.054688 L 749.089844 133.167969 L 752.273438 132.347656 L 755.453125 131.597656 L 758.636719 130.914062 L 761.816406 130.300781 L 765 129.761719 L 768.183594 129.300781 L 771.363281 128.914062 L 774.546875 128.613281 L 777.726562 128.390625 L 780.910156 128.257812 L 784.089844 128.214844 "/>
<path fill="none" stroke-width="1.5" stroke-linecap="butt" stroke-linejoin="miter" stroke="rgb(80.000001%, 47.450981%, 65.490198%)" stroke-opacity="1" stroke-miterlimit="2" d="M 465.910156 346.273438 L 469.089844 346.265625 L 472.273438 346.21875 L 475.453125 346.097656 L 478.636719 345.867188 L 481.816406 345.488281 L 485 344.933594 L 488.183594 344.179688 L 491.363281 343.195312 L 494.546875 341.96875 L 497.726562 340.472656 L 500.910156 338.699219 L 504.089844 336.632812 L 507.273438 334.265625 L 510.453125 331.601562 L 513.636719 328.628906 L 516.816406 325.355469 L 520 321.789062 L 523.183594 317.933594 L 526.363281 313.808594 L 529.546875 309.421875 L 532.726562 304.796875 L 535.910156 299.949219 L 539.089844 294.90625 L 542.273438 289.691406 L 545.453125 284.335938 L 548.636719 278.863281 L 551.816406 273.304688 L 555 267.691406 L 558.183594 262.054688 L 561.363281 256.425781 L 564.546875 250.835938 L 567.726562 245.308594 L 570.910156 239.875 L 574.089844 234.5625 L 577.273438 229.386719 L 580.453125 224.375 L 583.636719 219.539062 L 586.816406 214.894531 L 590 210.449219 L 593.183594 206.210938 L 596.363281 202.175781 L 599.546875 198.351562 L 602.726562 194.726562 L 605.910156 191.292969 L 609.089844 188.042969 L 612.273438 184.960938 L 615.453125 182.027344 L 618.636719 179.230469 L 621.816406 176.550781 L 625 173.960938 L 628.183594 171.449219 L 631.363281 168.996094 L 634.546875 166.582031 L 637.726562 164.183594 L 640.910156 161.792969 L 644.089844 159.394531 L 647.273438 156.976562 L 650.453125 154.527344 L 653.636719 152.042969 L 656.816406 149.519531 L 660 146.953125 L 663.183594 144.34375 L 666.363281 141.699219 L 669.546875 139.019531 L 672.726562 136.3125 L 675.910156 133.589844 L 679.089844 130.859375 L 682.273438 128.128906 L 685.453125 125.410156 L 688.636719 122.710938 L 691.816406 120.050781 L 695 117.429688 L 698.183594 114.863281 L 701.363281 112.359375 L 704.546875 109.921875 L 707.726562 107.5625 L 710.910156 105.28125 L 714.089844 103.082031 L 717.273438 100.972656 L 720.453125 98.949219 L 723.636719 97.019531 L 726.816406 95.179688 L 730 93.433594 L 733.183594 91.777344 L 736.363281 90.214844 L 739.546875 88.742188 L 742.726562 87.359375 L 745.910156 86.074219 L 749.089844 84.878906 L 752.273438 83.777344 L 755.453125 82.769531 L 758.636719 81.863281 L 761.816406 81.054688 L 765 80.34375 L 768.183594 79.742188 L 771.363281 79.242188 L 774.546875 78.851562 L 777.726562 78.566406 L 780.910156 78.398438 L 784.089844 78.339844 "/>
<path fill="none" stroke-width="1.5" stroke-linecap="butt" stroke-linejoin="miter" stroke="rgb(33.725491%, 70.588237%, 91.37255%)" stroke-opacity="1" stroke-miterlimit="2" d="M 465.910156 346.273438 L 469.089844 346.253906 L 472.273438 346.109375 L 475.453125 345.730469 L 478.636719 345.011719 L 481.816406 343.867188 L 485 342.226562 L 488.183594 340.046875 L 491.363281 337.289062 L 494.546875 333.949219 L 497.726562 330.035156 L 500.910156 325.585938 L 504.089844 320.644531 L 507.273438 315.28125 L 510.453125 309.582031 L 513.636719 303.632812 L 516.816406 297.539062 L 520 291.410156 L 523.183594 285.34375 L 526.363281 279.449219 L 529.546875 273.816406 L 532.726562 268.527344 L 535.910156 263.640625 L 539.089844 259.199219 L 542.273438 255.230469 L 545.453125 251.730469 L 548.636719 248.683594 L 551.816406 246.046875 L 555 243.769531 L 558.183594 241.777344 L 561.363281 239.992188 L 564.546875 238.332031 L 567.726562 236.714844 L 570.910156 235.0625 L 574.089844 233.296875 L 577.273438 231.359375 L 580.453125 229.203125 L 583.636719 226.789062 L 586.816406 224.101562 L 590 221.132812 L 593.183594 217.894531 L 596.363281 214.40625 L 599.546875 210.703125 L 602.726562 206.820312 L 605.910156 202.804688 L 609.089844 198.703125 L 612.273438 194.558594 L 615.453125 190.414062 L 618.636719 186.308594 L 621.816406 182.261719 L 625 178.292969 L 628.183594 174.417969 L 631.363281 170.628906 L 634.546875 166.929688 L 637.726562 163.296875 L 640.910156 159.726562 L 644.089844 156.195312 L 647.273438 152.6875 L 650.453125 149.195312 L 653.636719 145.707031 L 656.816406 142.214844 L 663.183594 135.222656 L 666.363281 131.738281 L 669.546875 128.265625 L 672.726562 124.824219 L 675.910156 121.417969 L 679.089844 118.058594 L 682.273438 114.75 L 685.453125 111.503906 L 688.636719 108.320312 L 691.816406 105.207031 L 695 102.160156 L 698.183594 99.191406 L 701.363281 96.300781 L 704.546875 93.496094 L 707.726562 90.777344 L 710.910156 88.160156 L 714.089844 85.644531 L 717.273438 83.242188 L 720.453125 80.953125 L 723.636719 78.78125 L 726.816406 76.726562 L 730 74.78125 L 733.183594 72.945312 L 736.363281 71.210938 L 739.546875 69.570312 L 742.726562 68.015625 L 745.910156 66.542969 L 749.089844 65.160156 L 752.273438 63.859375 L 755.453125 62.65625 L 758.636719 61.558594 L 761.816406 60.570312 L 765 59.710938 L 768.183594 58.984375 L 771.363281 58.394531 L 774.546875 57.945312 L 777.726562 57.632812 L 780.910156 57.453125 L 784.089844 57.394531 "/>
<path fill="none" stroke-width="1.5" stroke-linecap="butt" stroke-linejoin="miter" stroke="rgb(83.529413%, 36.862746%, 0%)" stroke-opacity="1" stroke-miterlimit="2" d="M 465.910156 346.273438 L 469.089844 346.207031 L 472.273438 345.761719 L 475.453125 344.617188 L 478.636719 342.535156 L 481.816406 339.402344 L 485 335.21875 L 488.183594 330.109375 L 491.363281 324.308594 L 494.546875 318.121094 L 497.726562 311.898438 L 500.910156 305.996094 L 504.089844 300.714844 L 507.273438 296.28125 L 510.453125 292.808594 L 513.636719 290.277344 L 516.816406 288.558594 L 520 287.421875 L 523.183594 286.574219 L 526.363281 285.699219 L 529.546875 284.503906 L 532.726562 282.746094 L 535.910156 280.273438 L 539.089844 277.011719 L 542.273438 272.992188 L 545.453125 268.335938 L 548.636719 263.21875 L 551.816406 257.867188 L 555 252.511719 L 558.183594 247.347656 L 561.363281 242.53125 L 564.546875 238.148438 L 567.726562 234.203125 L 570.910156 230.644531 L 574.089844 227.375 L 577.273438 224.269531 L 580.453125 221.207031 L 583.636719 218.101562 L 586.816406 214.886719 L 590 211.546875 L 593.183594 208.09375 L 596.363281 204.570312 L 599.546875 201.015625 L 602.726562 197.476562 L 605.910156 193.96875 L 609.089844 190.503906 L 612.273438 187.070312 L 615.453125 183.640625 L 618.636719 180.191406 L 621.816406 176.695312 L 625 173.144531 L 628.183594 169.53125 L 631.363281 165.863281 L 634.546875 162.144531 L 637.726562 158.378906 L 640.910156 154.566406 L 644.089844 150.710938 L 647.273438 146.816406 L 650.453125 142.886719 L 653.636719 138.953125 L 656.816406 135.050781 L 660 131.226562 L 663.183594 127.519531 L 666.363281 123.960938 L 669.546875 120.558594 L 672.726562 117.289062 L 675.910156 114.101562 L 679.089844 110.949219 L 682.273438 107.78125 L 685.453125 104.5625 L 688.636719 101.300781 L 691.816406 98.023438 L 695 94.792969 L 698.183594 91.675781 L 701.363281 88.722656 L 704.546875 85.96875 L 707.726562 83.425781 L 710.910156 81.066406 L 714.089844 78.851562 L 717.273438 76.746094 L 720.453125 74.703125 L 723.636719 72.710938 L 726.816406 70.753906 L 730 68.847656 L 733.183594 67.003906 L 736.363281 65.25 L 739.546875 63.59375 L 742.726562 62.058594 L 745.910156 60.644531 L 749.089844 59.34375 L 752.273438 58.152344 L 755.453125 57.046875 L 758.636719 56.023438 L 761.816406 55.074219 L 765 54.203125 L 768.183594 53.433594 L 771.363281 52.792969 L 774.546875 52.304688 L 777.726562 51.96875 L 780.910156 51.785156 L 784.089844 51.726562 "/>
<path fill-rule="nonzero" fill="rgb(100%, 100%, 100%)" fill-opacity="1" stroke-width="1" stroke-linecap="butt" stroke-linejoin="miter" stroke="rgb(0%, 0%, 0%)" stroke-opacity="1" stroke-miterlimit="2" d="M 818 283 L 884 283 L 884 114 L 818 114 Z M 818 283 "/>
<path fill="none" stroke-width="1" stroke-linecap="butt" stroke-linejoin="miter" stroke="rgb(0%, 0%, 0%)" stroke-opacity="1" stroke-miterlimit="1.154701" d="M 68.910156 361.5 L 68.910156 366.5 "/>
<path fill="none" stroke-width="1" stroke-linecap="butt" stroke-linejoin="miter" stroke="rgb(0%, 0%, 0%)" stroke-opacity="1" stroke-miterlimit="1.154701" d="M 148.453125 361.5 L 148.453125 366.5 "/>
<path fill="none" stroke-width="1" stroke-linecap="butt" stroke-linejoin="miter" stroke="rgb(0%, 0%, 0%)" stroke-opacity="1" stroke-miterlimit="1.154701" d="M 228 361.5 L 228 366.5 "/>
<path fill="none" stroke-width="1" stroke-linecap="butt" stroke-linejoin="miter" stroke="rgb(0%, 0%, 0%)" stroke-opacity="1" stroke-miterlimit="1.154701" d="M 307.546875 361.5 L 307.546875 366.5 "/>
<path fill="none" stroke-width="1" stroke-linecap="butt" stroke-linejoin="miter" stroke="rgb(0%, 0%, 0%)" stroke-opacity="1" stroke-miterlimit="1.154701" d="M 387.089844 361.5 L 387.089844 366.5 "/>
<path fill="none" stroke-width="1" stroke-linecap="butt" stroke-linejoin="miter" stroke="rgb(0%, 0%, 0%)" stroke-opacity="1" stroke-miterlimit="1.154701" d="M 52.5 307.195312 L 47.5 307.195312 "/>
<path fill="none" stroke-width="1" stroke-linecap="butt" stroke-linejoin="miter" stroke="rgb(0%, 0%, 0%)" stroke-opacity="1" stroke-miterlimit="1.154701" d="M 52.5 179.460938 L 47.5 179.460938 "/>
<path fill="none" stroke-width="1" stroke-linecap="butt" stroke-linejoin="miter" stroke="rgb(0%, 0%, 0%)" stroke-opacity="1" stroke-miterlimit="1.154701" d="M 52.5 51.726562 L 47.5 51.726562 "/>
<path fill="none" stroke-width="1" stroke-linecap="butt" stroke-linejoin="miter" stroke="rgb(0%, 0%, 0%)" stroke-opacity="1" stroke-miterlimit="1.154701" d="M 465.910156 361.5 L 465.910156 366.5 "/>
<path fill="none" stroke-width="1" stroke-linecap="butt" stroke-linejoin="miter" stroke="rgb(0%, 0%, 0%)" stroke-opacity="1" stroke-miterlimit="1.154701" d="M 545.453125 361.5 L 545.453125 366.5 "/>
<path fill="none" stroke-width="1" stroke-linecap="butt" stroke-linejoin="miter" stroke="rgb(0%, 0%, 0%)" stroke-opacity="1" stroke-miterlimit="1.154701" d="M 625 361.5 L 625 366.5 "/>
<path fill="none" stroke-width="1" stroke-linecap="butt" stroke-linejoin="miter" stroke="rgb(0%, 0%, 0%)" stroke-opacity="1" stroke-miterlimit="1.154701" d="M 704.546875 361.5 L 704.546875 366.5 "/>
<path fill="none" stroke-width="1" stroke-linecap="butt" stroke-linejoin="miter" stroke="rgb(0%, 0%, 0%)" stroke-opacity="1" stroke-miterlimit="1.154701" d="M 784.089844 361.5 L 784.089844 366.5 "/>
<path fill="none" stroke-width="1" stroke-linecap="butt" stroke-linejoin="miter" stroke="rgb(0%, 0%, 0%)" stroke-opacity="1" stroke-miterlimit="1.154701" d="M 449.5 333.269531 L 444.5 333.269531 "/>
<path fill="none" stroke-width="1" stroke-linecap="butt" stroke-linejoin="miter" stroke="rgb(0%, 0%, 0%)" stroke-opacity="1" stroke-miterlimit="1.154701" d="M 449.5 276.386719 L 444.5 276.386719 "/>
<path fill="none" stroke-width="1" stroke-linecap="butt" stroke-linejoin="miter" stroke="rgb(0%, 0%, 0%)" stroke-opacity="1" stroke-miterlimit="1.154701" d="M 449.5 219.5 L 444.5 219.5 "/>
<path fill="none" stroke-width="1" stroke-linecap="butt" stroke-linejoin="miter" stroke="rgb(0%, 0%, 0%)" stroke-opacity="1" stroke-miterlimit="1.154701" d="M 449.5 162.617188 L 444.5 162.617188 "/>
<path fill="none" stroke-width="1" stroke-linecap="butt" stroke-linejoin="miter" stroke="rgb(0%, 0%, 0%)" stroke-opacity="1" stroke-miterlimit="1.154701" d="M 449.5 105.734375 L 444.5 105.734375 "/>
<path fill="none" stroke-width="1" stroke-linecap="butt" stroke-linejoin="miter" stroke="rgb(0%, 0%, 0%)" stroke-opacity="1" stroke-miterlimit="1.154701" d="M 449.5 48.851562 L 444.5 48.851562 "/>
<path fill="none" stroke-width="1.5" stroke-linecap="butt" stroke-linejoin="miter" stroke="rgb(0%, 44.705883%, 69.803923%)" stroke-opacity="1" stroke-miterlimit="2" d="M 824.03125 152 L 844.03125 152 "/>
<path fill="none" stroke-width="1.5" stroke-linecap="butt" stroke-linejoin="miter" stroke="rgb(90.196079%, 62.352943%, 0%)" stroke-opacity="1" stroke-miterlimit="2" d="M 824.03125 175 L 844.03125 175 "/>
<path fill="none" stroke-width="1.5" stroke-linecap="butt" stroke-linejoin="miter" stroke="rgb(0%, 61.960787%, 45.09804%)" stroke-opacity="1" stroke-miterlimit="2" d="M 824.03125 198 L 844.03125 198 "/>
<path fill="none" stroke-width="1.5" stroke-linecap="butt" stroke-linejoin="miter" stroke="rgb(80.000001%, 47.450981%, 65.490198%)" stroke-opacity="1" stroke-miterlimit="2" d="M 824.03125 221 L 844.03125 221 "/>
<path fill="none" stroke-width="1.5" stroke-linecap="butt" stroke-linejoin="miter" stroke="rgb(33.725491%, 70.588237%, 91.37255%)" stroke-opacity="1" stroke-miterlimit="2" d="M 824.03125 244 L 844.03125 244 "/>
<path fill="none" stroke-width="1.5" stroke-linecap="butt" stroke-linejoin="miter" stroke="rgb(83.529413%, 36.862746%, 0%)" stroke-opacity="1" stroke-miterlimit="2" d="M 824.03125 267 L 844.03125 267 "/>
<g fill="rgb(0%, 0%, 0%)" fill-opacity="1">
<use xlink:href="#glyph-4-2-1bbd850f" x="845.98802" y="131.284006"/>
</g>
<g fill="rgb(0%, 0%, 0%)" fill-opacity="1">
<use xlink:href="#glyph-3-6-1bbd850f" x="849.032445" y="157.044205"/>
</g>
<g fill="rgb(0%, 0%, 0%)" fill-opacity="1">
<use xlink:href="#glyph-3-7-1bbd850f" x="856.032446" y="157.044205"/>
</g>
<g fill="rgb(0%, 0%, 0%)" fill-opacity="1">
<use xlink:href="#glyph-8-0-1bbd850f" x="863.032446" y="151.010206"/>
</g>
<g fill="rgb(0%, 0%, 0%)" fill-opacity="1">
<use xlink:href="#glyph-8-1-1bbd850f" x="867.232445" y="151.010206"/>
</g>
<g fill="rgb(0%, 0%, 0%)" fill-opacity="1">
<use xlink:href="#glyph-9-0-1bbd850f" x="869.567646" y="151.010206"/>
</g>
<g fill="rgb(0%, 0%, 0%)" fill-opacity="1">
<use xlink:href="#glyph-3-6-1bbd850f" x="849.032421" y="180.044205"/>
</g>
<g fill="rgb(0%, 0%, 0%)" fill-opacity="1">
<use xlink:href="#glyph-3-7-1bbd850f" x="856.032421" y="180.044205"/>
</g>
<g fill="rgb(0%, 0%, 0%)" fill-opacity="1">
<use xlink:href="#glyph-8-0-1bbd850f" x="863.032421" y="174.010205"/>
</g>
<g fill="rgb(0%, 0%, 0%)" fill-opacity="1">
<use xlink:href="#glyph-8-1-1bbd850f" x="867.23242" y="174.010205"/>
</g>
<g fill="rgb(0%, 0%, 0%)" fill-opacity="1">
<use xlink:href="#glyph-8-2-1bbd850f" x="869.567621" y="174.010205"/>
</g>
<g fill="rgb(0%, 0%, 0%)" fill-opacity="1">
<use xlink:href="#glyph-8-3-1bbd850f" x="873.767622" y="174.010205"/>
</g>
<g fill="rgb(0%, 0%, 0%)" fill-opacity="1">
<use xlink:href="#glyph-3-6-1bbd850f" x="849.032445" y="203.044204"/>
</g>
<g fill="rgb(0%, 0%, 0%)" fill-opacity="1">
<use xlink:href="#glyph-3-7-1bbd850f" x="856.032446" y="203.044204"/>
</g>
<g fill="rgb(0%, 0%, 0%)" fill-opacity="1">
<use xlink:href="#glyph-8-0-1bbd850f" x="863.032446" y="197.010205"/>
</g>
<g fill="rgb(0%, 0%, 0%)" fill-opacity="1">
<use xlink:href="#glyph-8-1-1bbd850f" x="867.232445" y="197.010205"/>
</g>
<g fill="rgb(0%, 0%, 0%)" fill-opacity="1">
<use xlink:href="#glyph-9-1-1bbd850f" x="869.567646" y="197.010205"/>
</g>
<g fill="rgb(0%, 0%, 0%)" fill-opacity="1">
<use xlink:href="#glyph-3-6-1bbd850f" x="849.032421" y="226.044204"/>
</g>
<g fill="rgb(0%, 0%, 0%)" fill-opacity="1">
<use xlink:href="#glyph-3-7-1bbd850f" x="856.032421" y="226.044204"/>
</g>
<g fill="rgb(0%, 0%, 0%)" fill-opacity="1">
<use xlink:href="#glyph-8-0-1bbd850f" x="863.032421" y="220.010204"/>
</g>
<g fill="rgb(0%, 0%, 0%)" fill-opacity="1">
<use xlink:href="#glyph-8-1-1bbd850f" x="867.23242" y="220.010204"/>
</g>
<g fill="rgb(0%, 0%, 0%)" fill-opacity="1">
<use xlink:href="#glyph-8-4-1bbd850f" x="869.567621" y="220.010204"/>
</g>
<g fill="rgb(0%, 0%, 0%)" fill-opacity="1">
<use xlink:href="#glyph-8-3-1bbd850f" x="873.767622" y="220.010204"/>
</g>
<g fill="rgb(0%, 0%, 0%)" fill-opacity="1">
<use xlink:href="#glyph-3-6-1bbd850f" x="849.032445" y="249.044203"/>
</g>
<g fill="rgb(0%, 0%, 0%)" fill-opacity="1">
<use xlink:href="#glyph-3-7-1bbd850f" x="856.032446" y="249.044203"/>
</g>
<g fill="rgb(0%, 0%, 0%)" fill-opacity="1">
<use xlink:href="#glyph-8-5-1bbd850f" x="863.032446" y="243.010204"/>
</g>
<g fill="rgb(0%, 0%, 0%)" fill-opacity="1">
<use xlink:href="#glyph-8-1-1bbd850f" x="867.232445" y="243.010204"/>
</g>
<g fill="rgb(0%, 0%, 0%)" fill-opacity="1">
<use xlink:href="#glyph-9-0-1bbd850f" x="869.567646" y="243.010204"/>
</g>
<g fill="rgb(0%, 0%, 0%)" fill-opacity="1">
<use xlink:href="#glyph-3-6-1bbd850f" x="849.032421" y="272.044203"/>
</g>
<g fill="rgb(0%, 0%, 0%)" fill-opacity="1">
<use xlink:href="#glyph-3-7-1bbd850f" x="856.032421" y="272.044203"/>
</g>
<g fill="rgb(0%, 0%, 0%)" fill-opacity="1">
<use xlink:href="#glyph-8-5-1bbd850f" x="863.032421" y="266.010203"/>
</g>
<g fill="rgb(0%, 0%, 0%)" fill-opacity="1">
<use xlink:href="#glyph-8-1-1bbd850f" x="867.23242" y="266.010203"/>
</g>
<g fill="rgb(0%, 0%, 0%)" fill-opacity="1">
<use xlink:href="#glyph-8-2-1bbd850f" x="869.567621" y="266.010203"/>
</g>
<g fill="rgb(0%, 0%, 0%)" fill-opacity="1">
<use xlink:href="#glyph-8-3-1bbd850f" x="873.767622" y="266.010203"/>
</g>
<path fill="none" stroke-width="1" stroke-linecap="butt" stroke-linejoin="miter" stroke="rgb(0%, 0%, 0%)" stroke-opacity="1" stroke-miterlimit="1.154701" d="M 52.5 361 L 403.5 361 "/>
<path fill="none" stroke-width="1" stroke-linecap="butt" stroke-linejoin="miter" stroke="rgb(0%, 0%, 0%)" stroke-opacity="1" stroke-miterlimit="1.154701" d="M 53 361.5 L 53 36.5 "/>
<path fill="none" stroke-width="1" stroke-linecap="butt" stroke-linejoin="miter" stroke="rgb(0%, 0%, 0%)" stroke-opacity="1" stroke-miterlimit="1.154701" d="M 52.5 37 L 403.5 37 "/>
<path fill="none" stroke-width="1" stroke-linecap="butt" stroke-linejoin="miter" stroke="rgb(0%, 0%, 0%)" stroke-opacity="1" stroke-miterlimit="1.154701" d="M 403 361.5 L 403 36.5 "/>
<path fill="none" stroke-width="1" stroke-linecap="butt" stroke-linejoin="miter" stroke="rgb(0%, 0%, 0%)" stroke-opacity="1" stroke-miterlimit="1.154701" d="M 449.5 361 L 800.5 361 "/>
<path fill="none" stroke-width="1" stroke-linecap="butt" stroke-linejoin="miter" stroke="rgb(0%, 0%, 0%)" stroke-opacity="1" stroke-miterlimit="1.154701" d="M 450 361.5 L 450 36.5 "/>
<path fill="none" stroke-width="1" stroke-linecap="butt" stroke-linejoin="miter" stroke="rgb(0%, 0%, 0%)" stroke-opacity="1" stroke-miterlimit="1.154701" d="M 449.5 37 L 800.5 37 "/>
<path fill="none" stroke-width="1" stroke-linecap="butt" stroke-linejoin="miter" stroke="rgb(0%, 0%, 0%)" stroke-opacity="1" stroke-miterlimit="1.154701" d="M 800 361.5 L 800 36.5 "/>
</svg>
