<?xml version="1.0" encoding="UTF-8"?>
<svg xmlns="http://www.w3.org/2000/svg" xmlns:xlink="http://www.w3.org/1999/xlink" width="900" height="400" viewBox="0 0 900 400">
<defs>
<g>
<g id="glyph-0-0-fca05bdf">
<path d="M 7.09375 -4.78125 C 7.09375 -1.515625 5.953125 0.203125 3.84375 0.203125 C 1.71875 0.203125 0.609375 -1.515625 0.609375 -4.859375 C 0.609375 -8.1875 1.703125 -9.921875 3.84375 -9.921875 C 6 -9.921875 7.09375 -8.21875 7.09375 -4.78125 Z M 5.84375 -4.890625 C 5.84375 -7.546875 5.1875 -8.828125 3.84375 -8.828125 C 2.515625 -8.828125 1.859375 -7.5625 1.859375 -4.84375 C 1.859375 -2.125 2.515625 -0.8125 3.828125 -0.8125 C 5.1875 -0.8125 5.84375 -2.078125 5.84375 -4.890625 Z M 5.84375 -4.890625 "/>
</g>
<g id="glyph-0-1-fca05bdf">
<path d="M 2.671875 0 C 2.671875 0 1.21875 0 1.21875 0 C 1.21875 0 1.21875 -1.453125 1.21875 -1.453125 C 1.21875 -1.453125 2.671875 -1.453125 2.671875 -1.453125 C 2.671875 -1.453125 2.671875 0 2.671875 0 Z M 2.671875 0 "/>
</g>
<g id="glyph-0-2-fca05bdf">
<path d="M 8.296875 -9.0625 C 8.296875 -9.0625 4.953125 -9.0625 4.953125 -9.0625 C 4.953125 -9.0625 4.953125 0 4.953125 0 C 4.953125 0 3.65625 0 3.65625 0 C 3.65625 0 3.65625 -9.0625 3.65625 -9.0625 C 3.65625 -9.0625 0.296875 -9.0625 0.296875 -9.0625 C 0.296875 -9.0625 0.296875 -10.203125 0.296875 -10.203125 C 0.296875 -10.203125 8.296875 -10.203125 8.296875 -10.203125 C 8.296875 -10.203125 8.296875 -9.0625 8.296875 -9.0625 Z M 8.296875 -9.0625 "/>
</g>
<g id="glyph-0-3-fca05bdf">
<path d="M 7.15625 -7.015625 C 7.15625 -5.796875 6.4375 -4.765625 5.046875 -4.015625 C 5.046875 -4.015625 3.65625 -3.265625 3.65625 -3.265625 C 2.4375 -2.546875 1.984375 -2.03125 1.859375 -1.21875 C 1.859375 -1.21875 7.078125 -1.21875 7.078125 -1.21875 C 7.078125 -1.21875 7.078125 0 7.078125 0 C 7.078125 0 0.46875 0 0.46875 0 C 0.59375 -2.1875 1.1875 -3.125 3.265625 -4.296875 C 3.265625 -4.296875 4.546875 -5.03125 4.546875 -5.03125 C 5.4375 -5.53125 5.890625 -6.203125 5.890625 -6.984375 C 5.890625 -8.046875 5.046875 -8.84375 3.9375 -8.84375 C 2.71875 -8.84375 2.03125 -8.140625 1.9375 -6.484375 C 1.9375 -6.484375 0.703125 -6.484375 0.703125 -6.484375 C 0.765625 -8.890625 1.953125 -9.921875 3.96875 -9.921875 C 5.859375 -9.921875 7.15625 -8.6875 7.15625 -7.015625 Z M 7.15625 -7.015625 "/>
</g>
<g id="glyph-0-4-fca05bdf">
<path d="M 7.1875 -3.296875 C 7.1875 -1.1875 5.78125 0.203125 3.78125 0.203125 C 2.015625 0.203125 0.890625 -0.578125 0.484375 -2.546875 C 0.484375 -2.546875 1.71875 -2.546875 1.71875 -2.546875 C 2.015625 -1.421875 2.671875 -0.875 3.75 -0.875 C 5.09375 -0.875 5.921875 -1.6875 5.921875 -3.125 C 5.921875 -4.59375 5.078125 -5.453125 3.75 -5.453125 C 2.984375 -5.453125 2.5 -5.203125 1.9375 -4.515625 C 1.9375 -4.515625 0.796875 -4.515625 0.796875 -4.515625 C 0.796875 -4.515625 1.546875 -9.71875 1.546875 -9.71875 C 1.546875 -9.71875 6.65625 -9.71875 6.65625 -9.71875 C 6.65625 -9.71875 6.65625 -8.5 6.65625 -8.5 C 6.65625 -8.5 2.53125 -8.5 2.53125 -8.5 C 2.53125 -8.5 2.140625 -5.9375 2.140625 -5.9375 C 2.71875 -6.359375 3.28125 -6.53125 3.96875 -6.53125 C 5.875 -6.53125 7.1875 -5.25 7.1875 -3.296875 Z M 7.1875 -3.296875 "/>
</g>
<g id="glyph-0-5-fca05bdf">
<path d="M 7.28125 -8.6875 C 5.1875 -6.203125 3.796875 -3.203125 3.25 0 C 3.25 0 1.9375 0 1.9375 0 C 2.625 -3.109375 4.03125 -6 6 -8.5 C 6 -8.5 0.640625 -8.5 0.640625 -8.5 C 0.640625 -8.5 0.640625 -9.71875 0.640625 -9.71875 C 0.640625 -9.71875 7.28125 -9.71875 7.28125 -9.71875 C 7.28125 -9.71875 7.28125 -8.6875 7.28125 -8.6875 Z M 7.28125 -8.6875 "/>
</g>
<g id="glyph-0-6-fca05bdf">
<path d="M 4.859375 0 C 4.859375 0 3.625 0 3.625 0 C 3.625 0 3.625 -7.0625 3.625 -7.0625 C 3.625 -7.0625 1.421875 -7.0625 1.421875 -7.0625 C 1.421875 -7.0625 1.421875 -7.953125 1.421875 -7.953125 C 3.328125 -8.1875 3.609375 -8.40625 4.046875 -9.921875 C 4.046875 -9.921875 4.859375 -9.921875 4.859375 -9.921875 C 4.859375 -9.921875 4.859375 0 4.859375 0 Z M 4.859375 0 "/>
</g>
<g id="glyph-0-7-fca05bdf">
<path d="M 7.21875 -3.03125 C 7.21875 -3.03125 0.953125 -3.03125 0.953125 -3.03125 C 0.953125 -3.03125 0.953125 -3.96875 0.953125 -3.96875 C 0.953125 -3.96875 7.21875 -3.96875 7.21875 -3.96875 C 7.21875 -3.96875 7.21875 -3.03125 7.21875 -3.03125 Z M 7.21875 -3.03125 "/>
</g>
<g id="glyph-0-8-fca05bdf">
<path d="M 7.28125 -2.375 C 7.28125 -2.375 5.8125 -2.375 5.8125 -2.375 C 5.8125 -2.375 5.8125 0 5.8125 0 C 5.8125 0 4.578125 0 4.578125 0 C 4.578125 0 4.578125 -2.375 4.578125 -2.375 C 4.578125 -2.375 0.390625 -2.375 0.390625 -2.375 C 0.390625 -2.375 0.390625 -3.6875 0.390625 -3.6875 C 0.390625 -3.6875 4.90625 -9.921875 4.90625 -9.921875 C 4.90625 -9.921875 5.8125 -9.921875 5.8125 -9.921875 C 5.8125 -9.921875 5.8125 -3.484375 5.8125 -3.484375 C 5.8125 -3.484375 7.28125 -3.484375 7.28125 -3.484375 C 7.28125 -3.484375 7.28125 -2.375 7.28125 -2.375 Z M 4.578125 -3.484375 C 4.578125 -3.484375 4.578125 -7.828125 4.578125 -7.828125 C 4.578125 -7.828125 1.46875 -3.484375 1.46875 -3.484375 C 1.46875 -3.484375 4.578125 -3.484375 4.578125 -3.484375 Z M 4.578125 -3.484375 "/>
</g>
<g id="glyph-1-0-fca05bdf">
<path d="M 7.09375 -4.78125 C 7.09375 -1.515625 5.953125 0.203125 3.84375 0.203125 C 1.71875 0.203125 0.609375 -1.515625 0.609375 -4.859375 C 0.609375 -8.1875 1.703125 -9.921875 3.84375 -9.921875 C 6 -9.921875 7.09375 -8.21875 7.09375 -4.78125 Z M 5.84375 -4.890625 C 5.84375 -7.546875 5.1875 -8.828125 3.84375 -8.828125 C 2.515625 -8.828125 1.859375 -7.5625 1.859375 -4.84375 C 1.859375 -2.125 2.515625 -0.8125 3.828125 -0.8125 C 5.1875 -0.8125 5.84375 -2.078125 5.84375 -4.890625 Z M 5.84375 -4.890625 "/>
</g>
<g id="glyph-2-0-fca05bdf">
<path d="M 7.21875 -3.03125 C 7.21875 -3.03125 0.953125 -3.03125 0.953125 -3.03125 C 0.953125 -3.03125 0.953125 -3.96875 0.953125 -3.96875 C 0.953125 -3.96875 7.21875 -3.96875 7.21875 -3.96875 C 7.21875 -3.96875 7.21875 -3.03125 7.21875 -3.03125 Z M 7.21875 -3.03125 "/>
</g>
<g id="glyph-2-1-fca05bdf">
<path d="M 7.078125 -2.890625 C 7.078125 -1.015625 5.765625 0.203125 3.71875 0.203125 C 1.6875 0.203125 0.609375 -0.78125 0.453125 -3 C 0.453125 -3 1.6875 -3 1.6875 -3 C 1.765625 -1.546875 2.421875 -0.875 3.765625 -0.875 C 5.046875 -0.875 5.828125 -1.625 5.828125 -2.875 C 5.828125 -3.96875 5.125 -4.625 3.765625 -4.625 C 3.765625 -4.625 3.09375 -4.625 3.09375 -4.625 C 3.09375 -4.625 3.09375 -5.65625 3.09375 -5.65625 C 5.0625 -5.65625 5.53125 -6.09375 5.53125 -7.15625 C 5.53125 -8.203125 4.875 -8.84375 3.78125 -8.84375 C 2.515625 -8.84375 1.921875 -8.1875 1.890625 -6.71875 C 1.890625 -6.71875 0.65625 -6.71875 0.65625 -6.71875 C 0.703125 -8.828125 1.765625 -9.921875 3.765625 -9.921875 C 5.65625 -9.921875 6.796875 -8.90625 6.796875 -7.203125 C 6.796875 -6.203125 6.328125 -5.5625 5.40625 -5.1875 C 6.59375 -4.78125 7.078125 -4.09375 7.078125 -2.890625 Z M 7.078125 -2.890625 "/>
</g>
</g>
</defs>
<rect x="-90" y="-40" width="1080" height="480" fill="rgb(100%, 100%, 100%)" fill-opacity="1"/>
<path fill-rule="nonzero" fill="rgb(100%, 100%, 100%)" fill-opacity="1" d="M 41 361 L 884 361 L 884 16 L 41 16 Z M 41 361 "/>
<path fill="none" stroke-width="1" stroke-linecap="butt" stroke-linejoin="miter" stroke="rgb(0%, 0%, 0%)" stroke-opacity="0.12" stroke-miterlimit="1.154701" d="M 79.316406 361 L 79.316406 16 "/>
<path fill="none" stroke-width="1" stroke-linecap="butt" stroke-linejoin="miter" stroke="rgb(0%, 0%, 0%)" stroke-opacity="0.12" stroke-miterlimit="1.154701" d="M 270.910156 361 L 270.910156 16 "/>
<path fill="none" stroke-width="1" stroke-linecap="butt" stroke-linejoin="miter" stroke="rgb(0%, 0%, 0%)" stroke-opacity="0.12" stroke-miterlimit="1.154701" d="M 462.5 361 L 462.5 16 "/>
<path fill="none" stroke-width="1" stroke-linecap="butt" stroke-linejoin="miter" stroke="rgb(0%, 0%, 0%)" stroke-opacity="0.12" stroke-miterlimit="1.154701" d="M 654.089844 361 L 654.089844 16 "/>
<path fill="none" stroke-width="1" stroke-linecap="butt" stroke-linejoin="miter" stroke="rgb(0%, 0%, 0%)" stroke-opacity="0.12" stroke-miterlimit="1.154701" d="M 845.683594 361 L 845.683594 16 "/>
<path fill="none" stroke-width="1" stroke-linecap="butt" stroke-linejoin="miter" stroke="rgb(0%, 0%, 0%)" stroke-opacity="0.12" stroke-miterlimit="1.154701" d="M 41 301.074219 L 884 301.074219 "/>
<path fill="none" stroke-width="1" stroke-linecap="butt" stroke-linejoin="miter" stroke="rgb(0%, 0%, 0%)" stroke-opacity="0.12" stroke-miterlimit="1.154701" d="M 41 211.277344 L 884 211.277344 "/>
<path fill="none" stroke-width="1" stroke-linecap="butt" stroke-linejoin="miter" stroke="rgb(0%, 0%, 0%)" stroke-opacity="0.12" stroke-miterlimit="1.154701" d="M 41 121.480469 L 884 121.480469 "/>
<path fill="none" stroke-width="1" stroke-linecap="butt" stroke-linejoin="miter" stroke="rgb(0%, 0%, 0%)" stroke-opacity="0.12" stroke-miterlimit="1.154701" d="M 41 31.683594 L 884 31.683594 "/>
<g fill="rgb(0%, 0%, 0%)" fill-opacity="1">
<use xlink:href="#glyph-0-0-fca05bdf" x="65.311186" y="382.258001"/>
</g>
<g fill="rgb(0%, 0%, 0%)" fill-opacity="1">
<use xlink:href="#glyph-0-1-fca05bdf" x="73.095186" y="382.258001"/>
</g>
<g fill="rgb(0%, 0%, 0%)" fill-opacity="1">
<use xlink:href="#glyph-0-0-fca05bdf" x="76.987185" y="382.258001"/>
</g>
<g fill="rgb(0%, 0%, 0%)" fill-opacity="1">
<use xlink:href="#glyph-0-2-fca05bdf" x="84.771185" y="382.258001"/>
</g>
<g fill="rgb(0%, 0%, 0%)" fill-opacity="1">
<use xlink:href="#glyph-1-0-fca05bdf" x="253.010094" y="382.258001"/>
</g>
<g fill="rgb(0%, 0%, 0%)" fill-opacity="1">
<use xlink:href="#glyph-0-1-fca05bdf" x="260.794095" y="382.258001"/>
</g>
<g fill="rgb(0%, 0%, 0%)" fill-opacity="1">
<use xlink:href="#glyph-0-3-fca05bdf" x="264.686094" y="382.258001"/>
</g>
<g fill="rgb(0%, 0%, 0%)" fill-opacity="1">
<use xlink:href="#glyph-0-4-fca05bdf" x="272.470094" y="382.258001"/>
</g>
<g fill="rgb(0%, 0%, 0%)" fill-opacity="1">
<use xlink:href="#glyph-0-2-fca05bdf" x="280.254094" y="382.258001"/>
</g>
<g fill="rgb(0%, 0%, 0%)" fill-opacity="1">
<use xlink:href="#glyph-0-0-fca05bdf" x="448.493011" y="382.258001"/>
</g>
<g fill="rgb(0%, 0%, 0%)" fill-opacity="1">
<use xlink:href="#glyph-0-1-fca05bdf" x="456.277011" y="382.258001"/>
</g>
<g fill="rgb(0%, 0%, 0%)" fill-opacity="1">
<use xlink:href="#glyph-0-4-fca05bdf" x="460.169011" y="382.258001"/>
</g>
<g fill="rgb(0%, 0%, 0%)" fill-opacity="1">
<use xlink:href="#glyph-0-2-fca05bdf" x="467.95301" y="382.258001"/>
</g>
<g fill="rgb(0%, 0%, 0%)" fill-opacity="1">
<use xlink:href="#glyph-0-0-fca05bdf" x="636.191897" y="382.258001"/>
</g>
<g fill="rgb(0%, 0%, 0%)" fill-opacity="1">
<use xlink:href="#glyph-0-1-fca05bdf" x="643.975897" y="382.258001"/>
</g>
<g fill="rgb(0%, 0%, 0%)" fill-opacity="1">
<use xlink:href="#glyph-0-5-fca05bdf" x="647.867897" y="382.258001"/>
</g>
<g fill="rgb(0%, 0%, 0%)" fill-opacity="1">
<use xlink:href="#glyph-0-4-fca05bdf" x="655.651896" y="382.258001"/>
</g>
<g fill="rgb(0%, 0%, 0%)" fill-opacity="1">
<use xlink:href="#glyph-0-2-fca05bdf" x="663.435897" y="382.258001"/>
</g>
<g fill="rgb(0%, 0%, 0%)" fill-opacity="1">
<use xlink:href="#glyph-0-6-fca05bdf" x="831.674844" y="382.258001"/>
</g>
<g fill="rgb(0%, 0%, 0%)" fill-opacity="1">
<use xlink:href="#glyph-0-1-fca05bdf" x="839.458844" y="382.258001"/>
</g>
<g fill="rgb(0%, 0%, 0%)" fill-opacity="1">
<use xlink:href="#glyph-0-0-fca05bdf" x="843.350844" y="382.258001"/>
</g>
<g fill="rgb(0%, 0%, 0%)" fill-opacity="1">
<use xlink:href="#glyph-0-2-fca05bdf" x="851.134843" y="382.258001"/>
</g>
<g fill="rgb(0%, 0%, 0%)" fill-opacity="1">
<use xlink:href="#glyph-0-7-fca05bdf" x="15.040001" y="306.177534"/>
</g>
<g fill="rgb(0%, 0%, 0%)" fill-opacity="1">
<use xlink:href="#glyph-0-4-fca05bdf" x="23.216001" y="306.177534"/>
</g>
<g fill="rgb(0%, 0%, 0%)" fill-opacity="1">
<use xlink:href="#glyph-0-7-fca05bdf" x="15.040001" y="216.379967"/>
</g>
<g fill="rgb(0%, 0%, 0%)" fill-opacity="1">
<use xlink:href="#glyph-0-8-fca05bdf" x="23.216001" y="216.379967"/>
</g>
<g fill="rgb(0%, 0%, 0%)" fill-opacity="1">
<use xlink:href="#glyph-2-0-fca05bdf" x="15.040001" y="126.582407"/>
</g>
<g fill="rgb(0%, 0%, 0%)" fill-opacity="1">
<use xlink:href="#glyph-2-1-fca05bdf" x="23.216001" y="126.582407"/>
</g>
<g fill="rgb(0%, 0%, 0%)" fill-opacity="1">
<use xlink:href="#glyph-0-7-fca05bdf" x="15.040001" y="36.784832"/>
</g>
<g fill="rgb(0%, 0%, 0%)" fill-opacity="1">
<use xlink:href="#glyph-0-3-fca05bdf" x="23.216001" y="36.784832"/>
</g>
<path fill="none" stroke-width="1.5" stroke-linecap="butt" stroke-linejoin="miter" stroke="rgb(100%, 0%, 100%)" stroke-opacity="1" stroke-miterlimit="2" d="M 79.316406 211.277344 L 86.980469 211.289062 L 94.644531 211.332031 L 102.308594 211.402344 L 109.972656 211.496094 L 117.636719 211.621094 L 125.300781 211.769531 L 132.964844 211.949219 L 140.628906 212.15625 L 148.289062 212.390625 L 155.953125 212.648438 L 163.617188 212.9375 L 171.28125 213.253906 L 178.945312 213.597656 L 186.609375 213.96875 L 194.273438 214.367188 L 201.9375 214.792969 L 209.601562 215.246094 L 217.261719 215.726562 L 224.925781 216.234375 L 232.589844 216.769531 L 240.253906 217.332031 L 247.917969 217.921875 L 255.582031 218.542969 L 263.246094 219.1875 L 270.910156 219.859375 L 278.574219 220.5625 L 286.234375 221.289062 L 293.898438 222.046875 L 301.5625 222.828125 L 309.226562 223.640625 L 316.890625 224.476562 L 324.554688 225.34375 L 332.21875 226.238281 L 339.882812 227.160156 L 347.546875 228.105469 L 355.210938 229.082031 L 362.871094 230.085938 L 370.535156 231.117188 L 378.199219 232.175781 L 385.863281 233.257812 L 393.527344 234.371094 L 401.191406 235.511719 L 408.855469 236.679688 L 416.519531 237.875 L 424.183594 239.09375 L 431.84375 240.34375 L 439.507812 241.621094 L 447.171875 242.921875 L 454.835938 244.253906 L 462.5 245.609375 L 470.164062 246.996094 L 477.828125 248.40625 L 485.492188 249.84375 L 493.15625 251.304688 L 500.816406 252.796875 L 508.480469 254.316406 L 516.144531 255.859375 L 523.808594 257.429688 L 531.472656 259.023438 L 539.136719 260.648438 L 546.800781 262.296875 L 554.464844 263.96875 L 562.128906 265.667969 L 569.789062 267.394531 L 577.453125 269.148438 L 585.117188 270.925781 L 592.78125 272.726562 L 600.445312 274.554688 L 608.109375 276.40625 L 615.773438 278.285156 L 623.4375 280.183594 L 631.101562 282.113281 L 638.761719 284.0625 L 646.425781 286.039062 L 654.089844 288.039062 L 661.753906 290.0625 L 669.417969 292.109375 L 677.082031 294.179688 L 684.746094 296.273438 L 692.410156 298.390625 L 700.074219 300.53125 L 707.734375 302.695312 L 715.398438 304.878906 L 723.0625 307.089844 L 730.726562 309.320312 L 738.390625 311.574219 L 746.054688 313.847656 L 753.71875 316.144531 L 761.382812 318.460938 L 769.046875 320.800781 L 776.710938 323.160156 L 784.371094 325.542969 L 792.035156 327.945312 L 799.699219 330.367188 L 807.363281 332.808594 L 815.027344 335.273438 L 822.691406 337.753906 L 830.355469 340.257812 L 838.019531 342.777344 L 845.683594 345.316406 "/>
<path fill="none" stroke-width="1.5" stroke-linecap="butt" stroke-linejoin="miter" stroke="rgb(50.196081%, 50.196081%, 50.196081%)" stroke-opacity="0.5" stroke-miterlimit="2" d="M 79.316406 121.480469 L 86.980469 122.613281 L 94.644531 123.765625 L 102.308594 124.941406 L 109.972656 126.136719 L 117.636719 127.355469 L 125.300781 128.59375 L 132.964844 129.851562 L 140.628906 131.132812 L 148.289062 132.433594 L 155.953125 133.753906 L 163.617188 135.097656 L 171.28125 136.460938 L 178.945312 137.84375 L 186.609375 139.25 L 194.273438 140.671875 L 201.9375 142.117188 L 209.601562 143.582031 L 217.261719 145.070312 L 224.925781 146.574219 L 232.589844 148.101562 L 240.253906 149.648438 L 247.917969 151.214844 L 255.582031 152.804688 L 263.246094 154.410156 L 270.910156 156.039062 L 278.574219 157.683594 L 286.234375 159.351562 L 293.898438 161.039062 L 301.5625 162.746094 L 309.226562 164.472656 L 316.890625 166.21875 L 324.554688 167.984375 L 332.21875 169.773438 L 339.882812 171.578125 L 347.546875 173.402344 L 355.210938 175.25 L 362.871094 177.113281 L 370.535156 178.996094 L 378.199219 180.902344 L 385.863281 182.824219 L 393.527344 184.769531 L 401.191406 186.730469 L 408.855469 188.710938 L 416.519531 190.710938 L 424.183594 192.734375 L 431.84375 194.773438 L 439.507812 196.832031 L 447.171875 198.90625 L 454.835938 201.003906 L 462.5 203.121094 L 470.164062 205.253906 L 477.828125 207.40625 L 485.492188 209.582031 L 493.15625 211.773438 L 500.816406 213.980469 L 508.480469 216.210938 L 516.144531 218.457031 L 523.808594 220.722656 L 531.472656 223.003906 L 539.136719 225.308594 L 546.800781 227.628906 L 554.464844 229.964844 L 562.128906 232.324219 L 569.789062 234.695312 L 577.453125 237.089844 L 585.117188 239.5 L 592.78125 241.925781 L 600.445312 244.371094 L 608.109375 246.832031 L 615.773438 249.3125 L 623.4375 251.808594 L 631.101562 254.320312 L 638.761719 256.851562 L 646.425781 259.398438 L 654.089844 261.960938 L 661.753906 264.539062 L 669.417969 267.136719 L 677.082031 269.75 L 684.746094 272.375 L 692.410156 275.019531 L 700.074219 277.679688 L 707.734375 280.351562 L 715.398438 283.042969 L 723.0625 285.746094 L 730.726562 288.46875 L 738.390625 291.203125 L 746.054688 293.953125 L 753.71875 296.714844 L 761.382812 299.492188 L 769.046875 302.285156 L 776.710938 305.089844 L 784.371094 307.910156 L 792.035156 310.742188 L 799.699219 313.589844 L 807.363281 316.449219 L 815.027344 319.320312 L 822.691406 322.207031 L 830.355469 325.105469 L 838.019531 328.015625 L 845.683594 330.9375 "/>
<path fill="none" stroke-width="1.5" stroke-linecap="butt" stroke-linejoin="miter" stroke="rgb(50.196081%, 50.196081%, 50.196081%)" stroke-opacity="0.5" stroke-miterlimit="2" d="M 79.316406 121.480469 L 86.980469 122.511719 L 94.644531 123.566406 L 102.308594 124.640625 L 109.972656 125.742188 L 117.636719 126.859375 L 125.300781 128.003906 L 132.964844 129.167969 L 140.628906 130.355469 L 148.289062 131.566406 L 155.953125 132.796875 L 163.617188 134.046875 L 171.28125 135.324219 L 178.945312 136.617188 L 186.609375 137.9375 L 194.273438 139.273438 L 201.9375 140.636719 L 209.601562 142.015625 L 217.261719 143.417969 L 224.925781 144.84375 L 232.589844 146.289062 L 240.253906 147.753906 L 247.917969 149.242188 L 255.582031 150.75 L 263.246094 152.28125 L 270.910156 153.828125 L 278.574219 155.398438 L 286.234375 156.988281 L 293.898438 158.601562 L 301.5625 160.234375 L 309.226562 161.882812 L 316.890625 163.558594 L 324.554688 165.25 L 332.21875 166.960938 L 339.882812 168.691406 L 347.546875 170.445312 L 355.210938 172.214844 L 362.871094 174.007812 L 370.535156 175.816406 L 378.199219 177.648438 L 385.863281 179.496094 L 393.527344 181.363281 L 401.191406 183.25 L 408.855469 185.15625 L 416.519531 187.082031 L 424.183594 189.023438 L 431.84375 190.988281 L 439.507812 192.96875 L 447.171875 194.964844 L 454.835938 196.984375 L 462.5 199.019531 L 470.164062 201.070312 L 477.828125 203.140625 L 485.492188 205.230469 L 493.15625 207.335938 L 500.816406 209.457031 L 508.480469 211.597656 L 516.144531 213.753906 L 523.808594 215.929688 L 531.472656 218.121094 L 539.136719 220.328125 L 546.800781 222.554688 L 554.464844 224.796875 L 562.128906 227.050781 L 569.789062 229.324219 L 577.453125 231.617188 L 585.117188 233.921875 L 592.78125 236.242188 L 600.445312 238.578125 L 608.109375 240.929688 L 615.773438 243.300781 L 623.4375 245.683594 L 631.101562 248.078125 L 638.761719 250.492188 L 646.425781 252.921875 L 654.089844 255.363281 L 661.753906 257.820312 L 669.417969 260.292969 L 677.082031 262.777344 L 684.746094 265.277344 L 692.410156 267.789062 L 700.074219 270.316406 L 707.734375 272.859375 L 715.398438 275.414062 L 723.0625 277.980469 L 730.726562 280.5625 L 738.390625 283.15625 L 746.054688 285.765625 L 753.71875 288.386719 L 761.382812 291.019531 L 769.046875 293.664062 L 776.710938 296.324219 L 784.371094 298.992188 L 792.035156 301.675781 L 799.699219 304.371094 L 807.363281 307.078125 L 815.027344 309.796875 L 822.691406 312.527344 L 830.355469 315.269531 L 838.019531 318.019531 L 845.683594 320.785156 "/>
<path fill="none" stroke-width="1.5" stroke-linecap="butt" stroke-linejoin="miter" stroke="rgb(50.196081%, 50.196081%, 50.196081%)" stroke-opacity="0.5" stroke-miterlimit="2" d="M 79.316406 121.480469 L 86.980469 121.828125 L 94.644531 122.191406 L 102.308594 122.578125 L 109.972656 122.984375 L 117.636719 123.410156 L 125.300781 123.855469 L 132.964844 124.316406 L 140.628906 124.800781 L 148.289062 125.300781 L 155.953125 125.820312 L 163.617188 126.359375 L 171.28125 126.917969 L 178.945312 127.496094 L 186.609375 128.09375 L 194.273438 128.707031 L 201.9375 129.34375 L 209.601562 129.996094 L 217.261719 130.667969 L 224.925781 131.359375 L 232.589844 132.066406 L 240.253906 132.792969 L 247.917969 133.539062 L 255.582031 134.304688 L 263.246094 135.089844 L 270.910156 135.890625 L 278.574219 136.710938 L 286.234375 137.550781 L 293.898438 138.40625 L 301.5625 139.28125 L 309.226562 140.175781 L 316.890625 141.089844 L 324.554688 142.019531 L 332.21875 142.96875 L 339.882812 143.933594 L 347.546875 144.917969 L 355.210938 145.921875 L 362.871094 146.941406 L 370.535156 147.980469 L 378.199219 149.039062 L 385.863281 150.113281 L 393.527344 151.207031 L 401.191406 152.316406 L 408.855469 153.445312 L 416.519531 154.589844 L 424.183594 155.753906 L 431.84375 156.933594 L 439.507812 158.132812 L 447.171875 159.351562 L 454.835938 160.582031 L 462.5 161.835938 L 470.164062 163.101562 L 477.828125 164.390625 L 485.492188 165.691406 L 493.15625 167.800781 L 500.816406 170.640625 L 508.480469 173.492188 L 516.144531 176.355469 L 523.808594 179.222656 L 531.472656 182.101562 L 539.136719 184.988281 L 546.800781 187.886719 L 554.464844 190.792969 L 562.128906 193.703125 L 569.789062 196.625 L 577.453125 199.558594 L 585.117188 202.496094 L 592.78125 205.441406 L 600.445312 208.394531 L 608.109375 211.359375 L 615.773438 214.328125 L 623.4375 217.304688 L 631.101562 220.289062 L 638.761719 223.28125 L 646.425781 226.28125 L 654.089844 229.285156 L 661.753906 232.300781 L 669.417969 235.320312 L 677.082031 238.347656 L 684.746094 241.378906 L 692.410156 244.417969 L 700.074219 247.464844 L 707.734375 250.515625 L 715.398438 253.574219 L 723.0625 256.640625 L 730.726562 259.710938 L 738.390625 262.789062 L 746.054688 265.871094 L 753.71875 268.957031 L 761.382812 272.050781 L 769.046875 275.148438 L 776.710938 278.253906 L 784.371094 281.359375 L 799.699219 287.59375 L 807.363281 290.71875 L 815.027344 293.847656 L 822.691406 296.980469 L 830.355469 300.117188 L 838.019531 303.257812 L 845.683594 306.40625 "/>
<path fill="none" stroke-width="1.5" stroke-linecap="butt" stroke-linejoin="miter" stroke="rgb(50.196081%, 50.196081%, 50.196081%)" stroke-opacity="0.5" stroke-miterlimit="2" d="M 79.316406 121.480469 L 86.980469 121.714844 L 94.644531 121.964844 L 102.308594 122.238281 L 109.972656 122.527344 L 117.636719 122.835938 L 125.300781 123.164062 L 132.964844 123.511719 L 140.628906 123.878906 L 148.289062 124.265625 L 155.953125 124.667969 L 163.617188 125.089844 L 171.28125 125.53125 L 178.945312 125.992188 L 186.609375 126.472656 L 194.273438 126.96875 L 201.9375 127.484375 L 209.601562 128.019531 L 217.261719 128.570312 L 224.925781 129.144531 L 232.589844 129.734375 L 240.253906 130.339844 L 247.917969 130.96875 L 255.582031 131.613281 L 263.246094 132.273438 L 270.910156 132.957031 L 278.574219 133.65625 L 286.234375 134.375 L 293.898438 135.109375 L 301.5625 135.863281 L 309.226562 136.636719 L 316.890625 137.429688 L 324.554688 138.238281 L 332.21875 139.0625 L 339.882812 139.910156 L 347.546875 140.769531 L 355.210938 141.652344 L 362.871094 142.550781 L 370.535156 143.46875 L 378.199219 144.402344 L 385.863281 145.355469 L 393.527344 146.324219 L 401.191406 147.3125 L 408.855469 148.320312 L 416.519531 149.34375 L 424.183594 150.382812 L 431.84375 151.441406 L 439.507812 152.519531 L 447.171875 153.613281 L 454.835938 154.726562 L 462.5 156.527344 L 470.164062 159.332031 L 477.828125 162.144531 L 485.492188 164.96875 L 493.15625 167.011719 L 500.816406 168.347656 L 508.480469 169.703125 L 516.144531 171.074219 L 523.808594 172.460938 L 531.472656 173.867188 L 539.136719 175.289062 L 546.800781 176.726562 L 554.464844 178.183594 L 562.128906 179.652344 L 569.789062 181.140625 L 577.453125 182.644531 L 585.117188 184.164062 L 592.78125 185.703125 L 600.445312 187.253906 L 608.109375 188.820312 L 615.773438 190.40625 L 623.4375 192.007812 L 631.101562 193.621094 L 638.761719 195.253906 L 646.425781 196.898438 L 654.089844 198.5625 L 661.753906 200.238281 L 669.417969 201.933594 L 677.082031 203.640625 L 684.746094 205.363281 L 692.410156 207.097656 L 700.074219 208.851562 L 707.734375 210.617188 L 715.398438 212.398438 L 723.0625 214.195312 L 730.726562 216.003906 L 738.390625 217.828125 L 746.054688 219.667969 L 753.71875 221.519531 L 761.382812 223.382812 L 769.046875 225.261719 L 776.710938 227.15625 L 784.371094 229.0625 L 792.035156 230.984375 L 799.699219 232.914062 L 807.363281 234.863281 L 815.027344 236.820312 L 822.691406 238.792969 L 830.355469 240.777344 L 838.019531 242.773438 L 845.683594 244.785156 "/>
<path fill="none" stroke-width="1.5" stroke-linecap="butt" stroke-linejoin="miter" stroke="rgb(50.196081%, 50.196081%, 50.196081%)" stroke-opacity="0.5" stroke-miterlimit="2" d="M 79.316406 121.480469 L 86.980469 121.265625 L 94.644531 121.070312 L 102.308594 120.894531 L 109.972656 120.738281 L 117.636719 120.601562 L 125.300781 120.480469 L 132.964844 120.382812 L 140.628906 120.304688 L 148.289062 120.246094 L 155.953125 120.207031 L 163.617188 120.183594 L 171.28125 120.183594 L 178.945312 120.203125 L 186.609375 120.242188 L 194.273438 120.300781 L 201.9375 120.378906 L 209.601562 120.480469 L 217.261719 120.597656 L 224.925781 120.738281 L 232.589844 120.894531 L 240.253906 121.074219 L 247.917969 121.273438 L 255.582031 121.492188 L 263.246094 121.734375 L 270.910156 121.992188 L 278.574219 122.273438 L 286.234375 122.574219 L 293.898438 122.894531 L 301.5625 123.238281 L 309.226562 123.601562 L 316.890625 123.984375 L 324.554688 124.386719 L 332.21875 124.8125 L 339.882812 125.257812 L 347.546875 125.722656 L 355.210938 126.207031 L 362.871094 126.714844 L 370.535156 127.246094 L 378.199219 127.792969 L 385.863281 129.0625 L 393.527344 131.761719 L 401.191406 134.46875 L 408.855469 137.1875 L 416.519531 139.921875 L 424.183594 142.664062 L 431.84375 145.414062 L 439.507812 148.175781 L 447.171875 150.949219 L 454.835938 153.734375 L 462.5 155.855469 L 470.164062 157.003906 L 477.828125 158.167969 L 485.492188 159.347656 L 493.15625 160.546875 L 500.816406 161.765625 L 508.480469 163 L 516.144531 164.25 L 523.808594 165.519531 L 531.472656 166.804688 L 539.136719 168.105469 L 546.800781 169.425781 L 554.464844 170.761719 L 562.128906 172.117188 L 569.789062 173.488281 L 577.453125 174.875 L 585.117188 176.277344 L 592.78125 177.699219 L 600.445312 179.136719 L 608.109375 180.589844 L 615.773438 182.058594 L 623.4375 183.546875 L 631.101562 185.050781 L 638.761719 186.570312 L 646.425781 188.105469 L 654.089844 189.65625 L 661.753906 191.222656 L 669.417969 192.804688 L 677.082031 194.40625 L 684.746094 196.019531 L 692.410156 197.652344 L 700.074219 199.296875 L 707.734375 200.960938 L 715.398438 202.636719 L 723.0625 204.332031 L 730.726562 206.039062 L 738.390625 207.761719 L 746.054688 209.5 L 753.71875 211.253906 L 761.382812 213.023438 L 769.046875 214.804688 L 776.710938 216.601562 L 784.371094 218.414062 L 792.035156 220.242188 L 799.699219 222.082031 L 807.363281 223.9375 L 815.027344 225.808594 L 822.691406 227.691406 L 830.355469 229.589844 L 838.019531 231.5 L 845.683594 233.425781 "/>
<path fill="none" stroke-width="1.5" stroke-linecap="butt" stroke-linejoin="miter" stroke="rgb(50.196081%, 50.196081%, 50.196081%)" stroke-opacity="0.5" stroke-miterlimit="2" d="M 79.316406 121.480469 L 86.980469 121.152344 L 94.644531 120.84375 L 102.308594 120.554688 L 109.972656 120.285156 L 117.636719 120.035156 L 125.300781 119.808594 L 132.964844 119.597656 L 140.628906 119.40625 L 148.289062 119.238281 L 155.953125 119.085938 L 163.617188 118.957031 L 171.28125 118.847656 L 178.945312 118.757812 L 186.609375 118.6875 L 194.273438 118.636719 L 201.9375 118.609375 L 209.601562 118.601562 L 217.261719 118.613281 L 224.925781 118.644531 L 232.589844 118.695312 L 240.253906 118.769531 L 247.917969 118.863281 L 255.582031 118.976562 L 263.246094 119.113281 L 270.910156 119.269531 L 278.574219 119.445312 L 286.234375 119.644531 L 293.898438 119.863281 L 301.5625 120.101562 L 309.226562 120.363281 L 316.890625 120.644531 L 324.554688 120.945312 L 332.21875 121.269531 L 339.882812 121.613281 L 347.546875 121.980469 L 355.210938 122.367188 L 362.871094 122.777344 L 370.535156 123.699219 L 378.199219 126.375 L 385.863281 128.363281 L 393.527344 128.953125 L 401.191406 129.566406 L 408.855469 130.199219 L 416.519531 130.851562 L 424.183594 131.527344 L 431.84375 132.222656 L 439.507812 132.941406 L 447.171875 133.675781 L 454.835938 134.4375 L 462.5 135.214844 L 470.164062 136.015625 L 477.828125 136.835938 L 485.492188 137.679688 L 493.15625 138.539062 L 500.816406 139.425781 L 508.480469 140.328125 L 516.144531 141.253906 L 523.808594 142.199219 L 531.472656 143.164062 L 539.136719 144.148438 L 546.800781 145.15625 L 554.464844 146.183594 L 562.128906 147.230469 L 569.789062 148.441406 L 577.453125 150.585938 L 585.117188 152.738281 L 592.78125 154.902344 L 600.445312 157.070312 L 608.109375 159.25 L 615.773438 161.433594 L 623.4375 163.628906 L 631.101562 165.832031 L 638.761719 168.042969 L 646.425781 170.257812 L 654.089844 172.484375 L 661.753906 174.71875 L 669.417969 176.960938 L 677.082031 179.207031 L 684.746094 181.464844 L 692.410156 183.726562 L 700.074219 186 L 707.734375 188.277344 L 715.398438 190.5625 L 723.0625 192.855469 L 730.726562 195.152344 L 738.390625 197.457031 L 746.054688 199.769531 L 753.71875 202.089844 L 761.382812 204.414062 L 769.046875 206.746094 L 776.710938 209.085938 L 784.371094 211.429688 L 792.035156 213.78125 L 799.699219 216.136719 L 807.363281 218.5 L 815.027344 220.871094 L 822.691406 223.246094 L 830.355469 225.625 L 838.019531 228.011719 L 845.683594 230.402344 "/>
<path fill="none" stroke-width="1.5" stroke-linecap="butt" stroke-linejoin="miter" stroke="rgb(50.196081%, 50.196081%, 50.196081%)" stroke-opacity="0.5" stroke-miterlimit="2" d="M 79.316406 121.480469 L 86.980469 120.46875 L 94.644531 119.484375 L 102.308594 118.519531 L 109.972656 117.578125 L 117.636719 116.660156 L 125.300781 115.761719 L 132.964844 114.886719 L 140.628906 114.039062 L 148.289062 113.210938 L 155.953125 112.40625 L 163.617188 111.625 L 171.28125 110.863281 L 178.945312 110.128906 L 186.609375 109.417969 L 194.273438 108.726562 L 201.9375 108.0625 L 209.601562 107.417969 L 217.261719 106.800781 L 224.925781 106.207031 L 232.589844 105.632812 L 240.253906 105.085938 L 247.917969 104.558594 L 255.582031 104.058594 L 263.246094 103.582031 L 270.910156 103.128906 L 278.574219 102.699219 L 286.234375 102.292969 L 293.898438 101.910156 L 301.5625 101.550781 L 309.226562 102.71875 L 316.890625 105.296875 L 324.554688 107.890625 L 332.21875 110.496094 L 339.882812 113.113281 L 347.546875 115.742188 L 355.210938 118.382812 L 362.871094 121.035156 L 370.535156 123.207031 L 378.199219 123.660156 L 385.863281 124.132812 L 393.527344 124.625 L 401.191406 125.140625 L 408.855469 125.679688 L 416.519531 126.238281 L 424.183594 126.816406 L 431.84375 127.417969 L 439.507812 128.042969 L 447.171875 128.6875 L 454.835938 129.351562 L 462.5 130.039062 L 470.164062 130.75 L 477.828125 131.480469 L 485.492188 132.230469 L 493.15625 133.003906 L 500.816406 133.796875 L 508.480469 134.613281 L 516.144531 135.453125 L 523.808594 136.308594 L 531.472656 137.847656 L 539.136719 139.949219 L 546.800781 142.058594 L 554.464844 144.179688 L 562.128906 146.304688 L 569.789062 148.300781 L 577.453125 149.386719 L 585.117188 150.496094 L 592.78125 151.625 L 600.445312 152.769531 L 608.109375 153.9375 L 615.773438 155.421875 L 623.4375 157.503906 L 631.101562 159.589844 L 638.761719 161.683594 L 646.425781 163.78125 L 654.089844 165.886719 L 669.417969 170.113281 L 677.082031 172.238281 L 684.746094 174.367188 L 692.410156 176.5 L 700.074219 178.636719 L 707.734375 180.78125 L 723.0625 185.085938 L 738.390625 189.414062 L 746.054688 191.585938 L 753.71875 193.761719 L 761.382812 195.941406 L 769.046875 198.128906 L 776.710938 200.320312 L 784.371094 202.515625 L 792.035156 204.714844 L 799.699219 206.921875 L 807.363281 209.132812 L 815.027344 211.347656 L 822.691406 213.566406 L 830.355469 215.789062 L 838.019531 218.019531 L 845.683594 220.253906 "/>
<path fill="none" stroke-width="1.5" stroke-linecap="butt" stroke-linejoin="miter" stroke="rgb(50.196081%, 50.196081%, 50.196081%)" stroke-opacity="0.5" stroke-miterlimit="2" d="M 79.316406 121.480469 L 86.980469 120.367188 L 94.644531 119.277344 L 102.308594 118.210938 L 109.972656 117.160156 L 117.636719 116.136719 L 125.300781 115.132812 L 132.964844 114.148438 L 140.628906 113.1875 L 148.289062 112.25 L 155.953125 111.332031 L 163.617188 110.4375 L 171.28125 109.5625 L 178.945312 108.710938 L 186.609375 107.882812 L 194.273438 107.074219 L 201.9375 106.289062 L 209.601562 105.527344 L 217.261719 104.789062 L 224.925781 104.070312 L 232.589844 103.375 L 240.253906 102.699219 L 247.917969 102.050781 L 255.582031 101.421875 L 263.246094 100.816406 L 270.910156 100.234375 L 278.574219 99.675781 L 286.234375 99.136719 L 293.898438 98.621094 L 301.5625 100.148438 L 309.226562 101.214844 L 316.890625 100.90625 L 324.554688 100.621094 L 332.21875 100.355469 L 339.882812 100.117188 L 347.546875 99.902344 L 355.210938 99.714844 L 362.871094 99.546875 L 370.535156 99.40625 L 378.199219 99.289062 L 385.863281 99.679688 L 393.527344 101.601562 L 401.191406 103.535156 L 408.855469 105.476562 L 416.519531 107.429688 L 424.183594 109.390625 L 431.84375 111.363281 L 439.507812 113.34375 L 447.171875 115.335938 L 454.835938 117.335938 L 462.5 119.34375 L 470.164062 121.363281 L 477.828125 123.390625 L 485.492188 125.429688 L 493.15625 127.476562 L 500.816406 129.53125 L 508.480469 131.597656 L 516.144531 133.671875 L 523.808594 135.757812 L 531.472656 137.191406 L 539.136719 138.089844 L 546.800781 139.011719 L 554.464844 139.953125 L 562.128906 141.035156 L 569.789062 143.070312 L 577.453125 145.113281 L 585.117188 147.160156 L 600.445312 151.277344 L 608.109375 153.347656 L 615.773438 155.125 L 623.4375 156.332031 L 631.101562 157.558594 L 638.761719 159.355469 L 646.425781 161.464844 L 654.089844 163.578125 L 661.753906 165.703125 L 669.417969 167.835938 L 677.082031 169.976562 L 684.746094 172.125 L 692.410156 174.28125 L 700.074219 176.445312 L 707.734375 178.617188 L 715.398438 180.800781 L 723.0625 182.988281 L 730.726562 185.1875 L 738.390625 187.390625 L 746.054688 189.605469 L 753.71875 191.824219 L 761.382812 194.054688 L 769.046875 196.289062 L 776.710938 198.53125 L 784.371094 200.78125 L 792.035156 203.039062 L 799.699219 205.304688 L 807.363281 207.578125 L 815.027344 209.855469 L 822.691406 212.144531 L 830.355469 214.4375 L 838.019531 216.738281 L 845.683594 219.046875 "/>
<path fill="none" stroke-width="1.5" stroke-linecap="butt" stroke-linejoin="miter" stroke="rgb(50.196081%, 50.196081%, 50.196081%)" stroke-opacity="0.5" stroke-miterlimit="2" d="M 79.316406 31.683594 L 86.980469 33.832031 L 94.644531 36 L 102.308594 38.183594 L 109.972656 40.382812 L 117.636719 42.597656 L 125.300781 44.828125 L 132.964844 47.070312 L 140.628906 49.332031 L 148.289062 51.609375 L 155.953125 53.902344 L 163.617188 56.207031 L 171.28125 58.527344 L 178.945312 60.867188 L 186.609375 63.214844 L 194.273438 65.582031 L 201.9375 67.960938 L 209.601562 70.355469 L 217.261719 72.761719 L 224.925781 75.1875 L 232.589844 77.621094 L 240.253906 80.070312 L 247.917969 82.535156 L 255.582031 85.011719 L 263.246094 87.503906 L 270.910156 90.003906 L 278.574219 92.523438 L 286.234375 95.050781 L 293.898438 97.59375 L 301.5625 98.132812 L 309.226562 97.664062 L 316.890625 97.21875 L 324.554688 96.796875 L 332.21875 96.394531 L 339.882812 96.019531 L 347.546875 95.667969 L 355.210938 95.335938 L 362.871094 95.03125 L 370.535156 95.863281 L 378.199219 97.765625 L 385.863281 99.195312 L 393.527344 99.125 L 401.191406 100.054688 L 408.855469 101.921875 L 416.519531 103.796875 L 424.183594 105.683594 L 431.84375 107.578125 L 439.507812 109.480469 L 447.171875 111.390625 L 454.835938 113.3125 L 462.5 115.242188 L 470.164062 117.179688 L 477.828125 119.125 L 485.492188 121.078125 L 493.15625 123.039062 L 500.816406 125.007812 L 508.480469 126.988281 L 516.144531 128.972656 L 523.808594 130.964844 L 531.472656 132.964844 L 539.136719 134.972656 L 546.800781 136.984375 L 554.464844 139.007812 L 562.128906 140.917969 L 569.789062 141.902344 L 577.453125 142.910156 L 585.117188 144.851562 L 592.78125 146.898438 L 600.445312 148.953125 L 608.109375 151.015625 L 615.773438 153.085938 L 623.4375 155.167969 L 631.101562 157.257812 L 638.761719 158.804688 L 646.425781 160.066406 L 654.089844 161.351562 L 661.753906 162.652344 L 669.417969 163.976562 L 677.082031 165.3125 L 684.746094 166.671875 L 692.410156 168.050781 L 700.074219 169.445312 L 707.734375 171.125 L 715.398438 173.171875 L 723.0625 175.222656 L 730.726562 177.28125 L 738.390625 179.347656 L 746.054688 181.417969 L 753.71875 183.496094 L 761.382812 185.578125 L 769.046875 187.667969 L 776.710938 189.765625 L 784.371094 191.867188 L 792.035156 193.972656 L 807.363281 198.207031 L 815.027344 200.332031 L 822.691406 202.464844 L 830.355469 204.601562 L 838.019531 206.746094 L 845.683594 208.894531 "/>
<path fill="none" stroke-width="1.5" stroke-linecap="butt" stroke-linejoin="miter" stroke="rgb(50.196081%, 50.196081%, 50.196081%)" stroke-opacity="0.5" stroke-miterlimit="2" d="M 79.316406 31.683594 L 86.980469 33.148438 L 94.644531 34.628906 L 102.308594 36.121094 L 109.972656 37.625 L 117.636719 39.144531 L 125.300781 40.675781 L 132.964844 42.21875 L 140.628906 43.777344 L 148.289062 45.34375 L 155.953125 46.925781 L 163.617188 48.519531 L 171.28125 50.125 L 178.945312 51.742188 L 186.609375 53.375 L 194.273438 55.015625 L 201.9375 56.667969 L 209.601562 58.335938 L 217.261719 60.011719 L 224.925781 61.699219 L 232.589844 63.398438 L 240.253906 65.109375 L 247.917969 66.832031 L 255.582031 68.566406 L 263.246094 70.3125 L 270.910156 72.066406 L 278.574219 73.835938 L 286.234375 75.613281 L 293.898438 77.402344 L 301.5625 79.199219 L 309.226562 81.007812 L 316.890625 82.828125 L 324.554688 84.660156 L 332.21875 86.503906 L 339.882812 88.355469 L 347.546875 90.214844 L 355.210938 92.089844 L 362.871094 93.972656 L 370.535156 94.746094 L 378.199219 94.511719 L 385.863281 96.347656 L 393.527344 98.199219 L 401.191406 99.078125 L 408.855469 100.351562 L 416.519531 102.179688 L 424.183594 104.019531 L 431.84375 105.871094 L 439.507812 107.730469 L 447.171875 109.597656 L 454.835938 111.476562 L 462.5 113.367188 L 470.164062 115.261719 L 477.828125 117.171875 L 485.492188 119.085938 L 493.15625 121.011719 L 500.816406 122.949219 L 508.480469 124.894531 L 516.144531 126.847656 L 523.808594 128.8125 L 531.472656 130.785156 L 539.136719 132.765625 L 546.800781 134.757812 L 554.464844 136.757812 L 562.128906 138.769531 L 569.789062 140.789062 L 577.453125 142.816406 L 585.117188 143.933594 L 592.78125 144.980469 L 600.445312 146.050781 L 608.109375 147.136719 L 615.773438 148.246094 L 623.4375 149.375 L 631.101562 151.015625 L 638.761719 153 L 646.425781 154.984375 L 654.089844 156.980469 L 661.753906 158.980469 L 669.417969 160.988281 L 677.082031 163.003906 L 684.746094 165.023438 L 692.410156 167.050781 L 700.074219 169.085938 L 707.734375 170.855469 L 715.398438 172.289062 L 723.0625 173.738281 L 730.726562 175.203125 L 738.390625 176.6875 L 746.054688 178.1875 L 753.71875 179.707031 L 761.382812 181.238281 L 769.046875 182.792969 L 776.710938 184.359375 L 784.371094 185.945312 L 792.035156 187.546875 L 799.699219 190.144531 L 822.691406 198.019531 L 845.683594 205.871094 "/>
<path fill="none" stroke-width="1.5" stroke-linecap="butt" stroke-linejoin="miter" stroke="rgb(50.196081%, 50.196081%, 50.196081%)" stroke-opacity="0.5" stroke-miterlimit="2" d="M 79.316406 31.683594 L 86.980469 33.046875 L 94.644531 34.425781 L 102.308594 35.820312 L 109.972656 37.230469 L 117.636719 38.652344 L 125.300781 40.085938 L 132.964844 41.535156 L 140.628906 43 L 148.289062 44.476562 L 155.953125 45.96875 L 163.617188 47.472656 L 171.28125 48.988281 L 178.945312 50.519531 L 186.609375 52.0625 L 194.273438 53.617188 L 201.9375 55.1875 L 209.601562 56.765625 L 217.261719 58.363281 L 224.925781 59.96875 L 232.589844 61.585938 L 240.253906 63.21875 L 247.917969 64.859375 L 255.582031 66.515625 L 263.246094 68.179688 L 270.910156 69.859375 L 278.574219 71.550781 L 286.234375 73.25 L 293.898438 74.964844 L 301.5625 76.6875 L 309.226562 78.421875 L 316.890625 80.167969 L 324.554688 81.921875 L 332.21875 83.691406 L 339.882812 85.46875 L 347.546875 87.257812 L 355.210938 89.054688 L 362.871094 90.863281 L 370.535156 92.683594 L 378.199219 94.488281 L 385.863281 94.921875 L 393.527344 96.722656 L 401.191406 98.53125 L 408.855469 99.058594 L 416.519531 99.0625 L 424.183594 100.3125 L 431.84375 102.085938 L 439.507812 103.867188 L 447.171875 105.65625 L 454.835938 107.457031 L 462.5 109.261719 L 470.164062 111.078125 L 477.828125 112.902344 L 485.492188 114.734375 L 493.15625 116.578125 L 500.816406 118.425781 L 508.480469 120.28125 L 516.144531 122.148438 L 523.808594 124.019531 L 531.472656 125.902344 L 539.136719 127.789062 L 546.800781 129.683594 L 554.464844 131.589844 L 562.128906 133.5 L 569.789062 135.417969 L 577.453125 137.34375 L 585.117188 139.273438 L 592.78125 141.214844 L 600.445312 143.160156 L 608.109375 145.113281 L 615.773438 147.074219 L 623.4375 149.042969 L 631.101562 150.523438 L 638.761719 151.691406 L 646.425781 152.878906 L 654.089844 154.089844 L 661.753906 155.316406 L 669.417969 156.5625 L 677.082031 157.832031 L 684.746094 159.117188 L 692.410156 160.421875 L 700.074219 161.746094 L 707.734375 163.089844 L 715.398438 164.453125 L 723.0625 165.832031 L 730.726562 167.230469 L 738.390625 169.042969 L 753.71875 174.332031 L 769.046875 179.613281 L 776.710938 182.246094 L 784.371094 184.882812 L 792.035156 187.515625 L 799.699219 189.164062 L 807.363281 190.796875 L 815.027344 192.445312 L 822.691406 194.109375 L 830.355469 195.789062 L 838.019531 197.484375 L 845.683594 199.191406 "/>
<path fill="none" stroke-width="1.5" stroke-linecap="butt" stroke-linejoin="miter" stroke="rgb(50.196081%, 50.196081%, 50.196081%)" stroke-opacity="0.5" stroke-miterlimit="2" d="M 79.316406 31.683594 L 86.980469 33.035156 L 94.644531 34.398438 L 102.308594 35.777344 L 109.972656 37.167969 L 117.636719 38.570312 L 125.300781 39.988281 L 132.964844 41.417969 L 140.628906 42.855469 L 148.289062 44.308594 L 155.953125 45.773438 L 163.617188 47.25 L 171.28125 48.738281 L 178.945312 50.238281 L 186.609375 51.75 L 194.273438 53.277344 L 201.9375 54.8125 L 209.601562 56.359375 L 217.261719 57.914062 L 224.925781 59.484375 L 232.589844 61.066406 L 240.253906 62.65625 L 247.917969 64.261719 L 255.582031 65.875 L 263.246094 67.496094 L 270.910156 69.132812 L 278.574219 70.78125 L 286.234375 72.4375 L 293.898438 74.105469 L 301.5625 75.78125 L 309.226562 77.46875 L 316.890625 79.167969 L 324.554688 80.878906 L 332.21875 82.597656 L 339.882812 84.328125 L 347.546875 86.066406 L 355.210938 87.820312 L 362.871094 89.578125 L 370.535156 91.347656 L 378.199219 93.128906 L 385.863281 94.25 L 393.527344 94.039062 L 401.191406 95.050781 L 408.855469 96.796875 L 416.519531 98.550781 L 424.183594 99.089844 L 431.84375 99.140625 L 439.507812 99.214844 L 447.171875 99.316406 L 454.835938 99.4375 L 462.5 99.585938 L 470.164062 99.757812 L 477.828125 99.953125 L 485.492188 100.175781 L 493.15625 100.417969 L 500.816406 100.6875 L 508.480469 102.222656 L 516.144531 103.851562 L 523.808594 105.492188 L 531.472656 107.144531 L 539.136719 108.8125 L 546.800781 110.488281 L 554.464844 112.179688 L 562.128906 113.882812 L 569.789062 115.601562 L 577.453125 117.328125 L 585.117188 119.070312 L 592.78125 120.824219 L 600.445312 122.585938 L 608.109375 124.363281 L 615.773438 126.449219 L 631.101562 131.800781 L 638.761719 134.472656 L 669.417969 145.144531 L 677.082031 147.804688 L 684.746094 150.46875 L 692.410156 153.128906 L 700.074219 155.785156 L 707.734375 158.441406 L 723.0625 163.746094 L 730.726562 166.394531 L 738.390625 168.648438 L 746.054688 170.082031 L 753.71875 171.539062 L 761.382812 173.007812 L 769.046875 174.496094 L 776.710938 176.003906 L 784.371094 177.527344 L 792.035156 179.066406 L 799.699219 180.625 L 807.363281 182.199219 L 815.027344 184.382812 L 822.691406 186.917969 L 845.683594 194.511719 "/>
<path fill="none" stroke-width="1.5" stroke-linecap="butt" stroke-linejoin="miter" stroke="rgb(50.196081%, 50.196081%, 50.196081%)" stroke-opacity="0.5" stroke-miterlimit="2" d="M 79.316406 31.683594 L 86.980469 32.933594 L 94.644531 34.199219 L 102.308594 35.476562 L 109.972656 36.773438 L 117.636719 38.078125 L 125.300781 39.398438 L 132.964844 40.734375 L 140.628906 42.082031 L 148.289062 43.441406 L 155.953125 44.816406 L 163.617188 46.203125 L 171.28125 47.601562 L 178.945312 49.015625 L 186.609375 50.441406 L 194.273438 51.878906 L 201.9375 53.328125 L 209.601562 54.789062 L 217.261719 56.265625 L 224.925781 57.753906 L 232.589844 59.253906 L 240.253906 60.761719 L 247.917969 62.285156 L 255.582031 63.820312 L 263.246094 65.367188 L 270.910156 66.925781 L 278.574219 68.496094 L 286.234375 70.074219 L 293.898438 71.667969 L 301.5625 73.269531 L 309.226562 74.882812 L 316.890625 76.507812 L 324.554688 78.140625 L 332.21875 79.785156 L 339.882812 81.441406 L 347.546875 83.109375 L 355.210938 84.785156 L 362.871094 86.472656 L 370.535156 88.167969 L 378.199219 89.875 L 385.863281 91.589844 L 393.527344 93.316406 L 401.191406 93.847656 L 408.855469 93.679688 L 416.519531 93.535156 L 424.183594 93.417969 L 431.84375 93.320312 L 439.507812 93.246094 L 447.171875 93.195312 L 454.835938 93.167969 L 462.5 93.164062 L 470.164062 94.277344 L 477.828125 95.839844 L 485.492188 97.414062 L 493.15625 99.003906 L 500.816406 100.609375 L 508.480469 100.976562 L 516.144531 101.292969 L 523.808594 101.632812 L 531.472656 102.261719 L 539.136719 103.832031 L 546.800781 105.414062 L 554.464844 107.007812 L 562.128906 108.613281 L 569.789062 110.371094 L 577.453125 113.054688 L 585.117188 115.734375 L 592.78125 118.417969 L 600.445312 121.09375 L 608.109375 123.773438 L 615.773438 126.152344 L 623.4375 127.953125 L 631.101562 129.765625 L 638.761719 131.589844 L 646.425781 133.425781 L 654.089844 135.273438 L 661.753906 137.132812 L 669.417969 139.003906 L 677.082031 140.882812 L 684.746094 142.773438 L 692.410156 144.679688 L 700.074219 146.589844 L 707.734375 148.785156 L 715.398438 151.332031 L 723.0625 153.882812 L 746.054688 161.523438 L 776.710938 171.695312 L 784.371094 174.234375 L 799.699219 179.3125 L 807.363281 181.847656 L 815.027344 183.789062 L 822.691406 185.394531 L 830.355469 187.019531 L 838.019531 188.65625 L 845.683594 190.3125 "/>
<path fill="none" stroke-width="1.5" stroke-linecap="butt" stroke-linejoin="miter" stroke="rgb(50.196081%, 50.196081%, 50.196081%)" stroke-opacity="0.5" stroke-miterlimit="2" d="M 79.316406 31.683594 L 86.980469 32.585938 L 94.644531 33.503906 L 102.308594 34.433594 L 109.972656 35.378906 L 117.636719 36.335938 L 125.300781 37.304688 L 132.964844 38.285156 L 140.628906 39.28125 L 148.289062 40.289062 L 155.953125 41.3125 L 163.617188 42.34375 L 171.28125 43.390625 L 178.945312 44.449219 L 186.609375 45.523438 L 194.273438 46.609375 L 201.9375 47.707031 L 209.601562 48.816406 L 217.261719 49.941406 L 224.925781 51.078125 L 232.589844 52.226562 L 240.253906 53.390625 L 247.917969 54.566406 L 255.582031 55.753906 L 263.246094 56.957031 L 270.910156 58.167969 L 278.574219 59.394531 L 286.234375 60.636719 L 293.898438 61.886719 L 301.5625 63.152344 L 309.226562 64.433594 L 316.890625 65.722656 L 324.554688 67.027344 L 332.21875 68.34375 L 339.882812 69.675781 L 347.546875 71.019531 L 355.210938 72.375 L 362.871094 73.746094 L 370.535156 75.125 L 378.199219 76.519531 L 385.863281 77.929688 L 393.527344 79.351562 L 401.191406 80.785156 L 408.855469 82.230469 L 416.519531 83.691406 L 424.183594 85.164062 L 431.84375 86.652344 L 439.507812 88.148438 L 447.171875 89.660156 L 454.835938 91.1875 L 462.5 92.722656 L 470.164062 93.183594 L 477.828125 93.226562 L 485.492188 93.292969 L 493.15625 94.570312 L 500.816406 96.085938 L 508.480469 97.613281 L 516.144531 99.148438 L 523.808594 100.699219 L 531.472656 101.992188 L 539.136719 102.75 L 546.800781 104.34375 L 554.464844 105.953125 L 562.128906 107.6875 L 569.789062 110.230469 L 577.453125 111.855469 L 585.117188 113.492188 L 592.78125 115.140625 L 600.445312 116.796875 L 608.109375 118.464844 L 615.773438 120.140625 L 623.4375 121.828125 L 631.101562 123.527344 L 638.761719 125.785156 L 661.753906 133.460938 L 669.417969 136.015625 L 677.082031 138.574219 L 684.746094 141.125 L 692.410156 143.679688 L 700.074219 146.230469 L 707.734375 148.515625 L 715.398438 150.449219 L 723.0625 152.394531 L 730.726562 154.351562 L 738.390625 156.316406 L 746.054688 158.292969 L 753.71875 160.277344 L 761.382812 162.269531 L 769.046875 164.273438 L 776.710938 166.289062 L 784.371094 168.3125 L 792.035156 170.34375 L 799.699219 172.386719 L 807.363281 174.433594 L 815.027344 176.492188 L 822.691406 178.5625 L 830.355469 180.636719 L 838.019531 182.71875 L 845.683594 184.8125 "/>
<path fill="none" stroke-width="1.5" stroke-linecap="butt" stroke-linejoin="miter" stroke="rgb(50.196081%, 50.196081%, 50.196081%)" stroke-opacity="0.5" stroke-miterlimit="2" d="M 79.316406 31.683594 L 86.980469 32.484375 L 94.644531 33.304688 L 102.308594 34.136719 L 109.972656 34.980469 L 117.636719 35.839844 L 125.300781 36.714844 L 132.964844 37.601562 L 140.628906 38.503906 L 148.289062 39.421875 L 155.953125 40.351562 L 163.617188 41.296875 L 171.28125 42.253906 L 178.945312 43.226562 L 186.609375 44.210938 L 194.273438 45.210938 L 201.9375 46.222656 L 209.601562 47.25 L 217.261719 48.292969 L 224.925781 49.347656 L 232.589844 50.414062 L 240.253906 51.496094 L 247.917969 52.59375 L 255.582031 53.703125 L 263.246094 54.824219 L 270.910156 55.960938 L 278.574219 57.109375 L 286.234375 58.273438 L 293.898438 59.449219 L 301.5625 60.640625 L 309.226562 61.84375 L 316.890625 63.0625 L 324.554688 64.292969 L 332.21875 65.535156 L 339.882812 66.789062 L 347.546875 68.058594 L 355.210938 69.34375 L 362.871094 70.636719 L 370.535156 71.945312 L 378.199219 73.265625 L 385.863281 74.601562 L 393.527344 75.945312 L 401.191406 77.304688 L 408.855469 78.675781 L 416.519531 80.0625 L 424.183594 81.457031 L 431.84375 82.867188 L 439.507812 84.285156 L 447.171875 85.71875 L 454.835938 87.164062 L 462.5 88.621094 L 470.164062 90.089844 L 477.828125 91.570312 L 485.492188 93.066406 L 493.15625 93.46875 L 500.816406 94.984375 L 508.480469 96.507812 L 516.144531 98.050781 L 523.808594 99.605469 L 531.472656 101.171875 L 539.136719 102.378906 L 546.800781 102.789062 L 554.464844 105.003906 L 562.128906 107.570312 L 569.789062 109.203125 L 577.453125 110.851562 L 585.117188 112.507812 L 592.78125 114.179688 L 600.445312 115.867188 L 608.109375 117.5625 L 615.773438 119.273438 L 623.4375 120.996094 L 631.101562 123.226562 L 638.761719 125.234375 L 646.425781 126.949219 L 654.089844 128.675781 L 661.753906 130.410156 L 669.417969 132.15625 L 677.082031 133.910156 L 684.746094 135.675781 L 692.410156 137.449219 L 700.074219 139.230469 L 707.734375 141.023438 L 715.398438 142.820312 L 723.0625 144.628906 L 730.726562 146.445312 L 738.390625 148.277344 L 746.054688 150.1875 L 753.71875 152.109375 L 761.382812 154.039062 L 769.046875 155.980469 L 776.710938 157.933594 L 784.371094 159.894531 L 792.035156 161.863281 L 799.699219 163.847656 L 807.363281 165.835938 L 815.027344 167.835938 L 822.691406 169.847656 L 830.355469 171.867188 L 838.019531 173.894531 L 845.683594 175.933594 "/>
<path fill="none" stroke-width="1.5" stroke-linecap="butt" stroke-linejoin="miter" stroke="rgb(50.196081%, 50.196081%, 50.196081%)" stroke-opacity="0.5" stroke-miterlimit="2" d="M 79.316406 31.683594 L 86.980469 32.472656 L 94.644531 33.277344 L 102.308594 34.09375 L 109.972656 34.925781 L 117.636719 35.769531 L 125.300781 36.628906 L 132.964844 37.5 L 140.628906 38.382812 L 148.289062 39.28125 L 155.953125 40.191406 L 163.617188 41.117188 L 171.28125 42.054688 L 178.945312 43.003906 L 186.609375 43.96875 L 194.273438 44.945312 L 201.9375 45.9375 L 209.601562 46.9375 L 217.261719 47.957031 L 224.925781 48.984375 L 232.589844 50.03125 L 240.253906 51.085938 L 247.917969 52.15625 L 255.582031 53.238281 L 263.246094 54.335938 L 270.910156 55.445312 L 278.574219 56.570312 L 286.234375 57.707031 L 293.898438 58.855469 L 301.5625 60.019531 L 309.226562 61.195312 L 316.890625 62.382812 L 324.554688 63.585938 L 332.21875 64.804688 L 339.882812 66.035156 L 347.546875 67.277344 L 355.210938 68.535156 L 362.871094 69.804688 L 370.535156 71.089844 L 378.199219 72.386719 L 385.863281 73.699219 L 393.527344 75.023438 L 401.191406 76.359375 L 408.855469 77.710938 L 416.519531 79.074219 L 424.183594 80.453125 L 431.84375 81.847656 L 439.507812 83.253906 L 447.171875 84.671875 L 454.835938 86.105469 L 462.5 87.550781 L 470.164062 89.007812 L 477.828125 90.484375 L 485.492188 91.96875 L 493.15625 93.382812 L 500.816406 93.496094 L 508.480469 93.632812 L 516.144531 93.789062 L 523.808594 94.8125 L 531.472656 96.945312 L 539.136719 99.632812 L 546.800781 102.316406 L 554.464844 103.222656 L 562.128906 103.679688 L 569.789062 104.15625 L 577.453125 105.378906 L 585.117188 107.847656 L 592.78125 110.414062 L 623.4375 120.664062 L 631.101562 122.730469 L 638.761719 124.480469 L 646.425781 126.238281 L 654.089844 128.011719 L 661.753906 129.796875 L 669.417969 131.589844 L 677.082031 133.398438 L 684.746094 135.21875 L 692.410156 137.050781 L 700.074219 138.894531 L 707.734375 140.75 L 715.398438 142.613281 L 723.0625 144.492188 L 730.726562 146.378906 L 738.390625 148.273438 L 746.054688 150.105469 L 753.71875 151.949219 L 761.382812 153.796875 L 769.046875 155.65625 L 776.710938 157.523438 L 784.371094 159.394531 L 792.035156 161.277344 L 799.699219 163.167969 L 807.363281 165.066406 L 815.027344 166.96875 L 822.691406 168.882812 L 830.355469 170.800781 L 838.019531 172.726562 L 845.683594 174.660156 "/>
<path fill="none" stroke-width="1.5" stroke-linecap="butt" stroke-linejoin="miter" stroke="rgb(50.196081%, 50.196081%, 50.196081%)" stroke-opacity="0.5" stroke-miterlimit="2" d="M 79.316406 31.683594 L 86.980469 32.371094 L 94.644531 33.078125 L 102.308594 33.796875 L 109.972656 34.53125 L 117.636719 35.277344 L 125.300781 36.039062 L 132.964844 36.816406 L 140.628906 37.609375 L 148.289062 38.414062 L 155.953125 39.234375 L 163.617188 40.066406 L 171.28125 40.917969 L 178.945312 41.777344 L 186.609375 42.65625 L 194.273438 43.546875 L 201.9375 44.453125 L 209.601562 45.371094 L 217.261719 46.304688 L 224.925781 47.253906 L 232.589844 48.214844 L 240.253906 49.191406 L 247.917969 50.183594 L 255.582031 51.1875 L 263.246094 52.207031 L 270.910156 53.238281 L 278.574219 54.285156 L 286.234375 55.34375 L 293.898438 56.417969 L 301.5625 57.503906 L 309.226562 58.605469 L 316.890625 59.722656 L 324.554688 60.851562 L 332.21875 61.992188 L 339.882812 63.148438 L 347.546875 64.320312 L 355.210938 65.503906 L 362.871094 66.699219 L 370.535156 67.910156 L 378.199219 69.132812 L 385.863281 70.367188 L 393.527344 71.617188 L 401.191406 72.878906 L 408.855469 74.15625 L 416.519531 75.445312 L 424.183594 76.746094 L 431.84375 78.0625 L 439.507812 79.390625 L 447.171875 80.730469 L 454.835938 82.082031 L 462.5 83.449219 L 470.164062 84.824219 L 477.828125 86.214844 L 485.492188 87.617188 L 493.15625 89.03125 L 500.816406 90.460938 L 508.480469 91.898438 L 516.144531 93.347656 L 523.808594 94.257812 L 531.472656 96.285156 L 539.136719 97.773438 L 546.800781 99.269531 L 554.464844 100.78125 L 562.128906 102.300781 L 569.789062 103.832031 L 577.453125 105.285156 L 585.117188 106.933594 L 592.78125 108.496094 L 600.445312 110.074219 L 608.109375 111.664062 L 615.773438 113.261719 L 623.4375 114.871094 L 631.101562 116.492188 L 638.761719 118.121094 L 646.425781 119.761719 L 654.089844 121.414062 L 661.753906 123.074219 L 669.417969 124.746094 L 677.082031 126.429688 L 684.746094 128.121094 L 692.410156 129.820312 L 700.074219 131.535156 L 707.734375 133.253906 L 715.398438 134.984375 L 723.0625 136.726562 L 730.726562 138.476562 L 738.390625 140.234375 L 746.054688 142.003906 L 753.71875 143.78125 L 761.382812 145.566406 L 769.046875 147.359375 L 776.710938 149.164062 L 784.371094 150.976562 L 792.035156 152.800781 L 799.699219 154.628906 L 807.363281 156.46875 L 815.027344 158.3125 L 822.691406 160.167969 L 830.355469 162.03125 L 838.019531 163.902344 L 845.683594 165.78125 "/>
<path fill="none" stroke-width="1.5" stroke-linecap="butt" stroke-linejoin="miter" stroke="rgb(50.196081%, 50.196081%, 50.196081%)" stroke-opacity="0.5" stroke-miterlimit="2" d="M 79.316406 31.683594 L 86.980469 32.25 L 94.644531 32.828125 L 102.308594 33.417969 L 109.972656 34.015625 L 117.636719 34.625 L 125.300781 35.25 L 132.964844 35.878906 L 140.628906 36.523438 L 148.289062 37.175781 L 155.953125 37.839844 L 163.617188 38.515625 L 171.28125 39.199219 L 178.945312 39.894531 L 186.609375 40.597656 L 194.273438 41.3125 L 201.9375 42.035156 L 209.601562 42.769531 L 217.261719 43.511719 L 224.925781 44.265625 L 232.589844 45.03125 L 240.253906 45.800781 L 247.917969 46.585938 L 255.582031 47.375 L 263.246094 48.175781 L 270.910156 48.988281 L 278.574219 49.804688 L 286.234375 50.636719 L 293.898438 51.472656 L 301.5625 52.320312 L 309.226562 53.175781 L 316.890625 54.039062 L 324.554688 54.910156 L 332.21875 55.792969 L 339.882812 56.683594 L 347.546875 57.582031 L 355.210938 58.492188 L 362.871094 59.40625 L 370.535156 60.332031 L 378.199219 61.265625 L 385.863281 62.207031 L 393.527344 63.160156 L 401.191406 64.117188 L 408.855469 65.082031 L 416.519531 66.058594 L 424.183594 67.042969 L 431.84375 68.035156 L 439.507812 69.03125 L 447.171875 70.039062 L 454.835938 71.054688 L 462.5 72.75 L 470.164062 75.441406 L 493.15625 83.503906 L 500.816406 86.195312 L 516.144531 91.570312 L 523.808594 93.972656 L 531.472656 94.175781 L 539.136719 94.402344 L 546.800781 95.015625 L 554.464844 97.585938 L 562.128906 100.152344 L 569.789062 102.71875 L 577.453125 104.660156 L 585.117188 105.183594 L 592.78125 105.734375 L 600.445312 106.304688 L 608.109375 106.898438 L 615.773438 107.511719 L 623.4375 108.152344 L 631.101562 108.8125 L 638.761719 109.496094 L 646.425781 110.199219 L 654.089844 110.929688 L 661.753906 111.675781 L 669.417969 112.445312 L 677.082031 113.238281 L 684.746094 114.050781 L 692.410156 114.882812 L 700.074219 116.378906 L 707.734375 118.679688 L 730.726562 125.59375 L 761.382812 134.828125 L 776.710938 139.453125 L 784.371094 141.765625 L 807.363281 148.703125 L 815.027344 151.019531 L 822.691406 153.332031 L 845.683594 160.28125 "/>
<path fill="none" stroke-width="1.5" stroke-linecap="butt" stroke-linejoin="miter" stroke="rgb(50.196081%, 50.196081%, 50.196081%)" stroke-opacity="0.5" stroke-miterlimit="2" d="M 79.316406 31.683594 L 86.980469 31.800781 L 94.644531 31.929688 L 102.308594 32.074219 L 109.972656 32.226562 L 117.636719 32.394531 L 125.300781 32.582031 L 132.964844 32.792969 L 140.628906 33.015625 L 148.289062 33.253906 L 155.953125 33.511719 L 163.617188 33.78125 L 171.28125 34.070312 L 178.945312 34.375 L 186.609375 34.699219 L 194.273438 35.035156 L 201.9375 35.390625 L 209.601562 35.757812 L 217.261719 36.144531 L 224.925781 36.546875 L 232.589844 36.964844 L 240.253906 37.402344 L 247.917969 37.851562 L 255.582031 38.320312 L 263.246094 38.804688 L 270.910156 39.304688 L 278.574219 39.820312 L 286.234375 40.351562 L 293.898438 40.902344 L 301.5625 41.46875 L 309.226562 42.050781 L 316.890625 42.648438 L 324.554688 43.261719 L 332.21875 43.890625 L 339.882812 44.539062 L 347.546875 45.199219 L 355.210938 45.878906 L 362.871094 46.574219 L 370.535156 47.289062 L 378.199219 48.015625 L 385.863281 48.761719 L 393.527344 49.519531 L 401.191406 51.273438 L 408.855469 53.953125 L 424.183594 59.320312 L 431.84375 62.003906 L 439.507812 64.691406 L 447.171875 67.375 L 454.835938 70.0625 L 462.5 72.078125 L 470.164062 73.113281 L 477.828125 74.152344 L 485.492188 75.199219 L 493.15625 77.042969 L 500.816406 79.609375 L 508.480469 82.179688 L 523.808594 87.3125 L 531.472656 89.882812 L 539.136719 92.449219 L 546.800781 94.652344 L 554.464844 94.925781 L 562.128906 95.21875 L 569.789062 95.539062 L 577.453125 95.878906 L 585.117188 96.242188 L 592.78125 96.625 L 600.445312 97.03125 L 608.109375 97.460938 L 615.773438 97.914062 L 623.4375 98.386719 L 631.101562 98.878906 L 638.761719 99.394531 L 646.425781 100.308594 L 654.089844 102.597656 L 669.417969 107.183594 L 684.746094 111.777344 L 692.410156 114.078125 L 700.074219 115.738281 L 707.734375 116.613281 L 715.398438 117.511719 L 723.0625 118.425781 L 730.726562 119.363281 L 738.390625 120.320312 L 746.054688 122.105469 L 769.046875 128.84375 L 776.710938 131.09375 L 784.371094 133.34375 L 807.363281 140.105469 L 830.355469 146.878906 L 838.019531 149.140625 L 845.683594 151.398438 "/>
<path fill="none" stroke-width="1" stroke-linecap="butt" stroke-linejoin="miter" stroke="rgb(0%, 0%, 0%)" stroke-opacity="1" stroke-miterlimit="1.154701" d="M 79.316406 361.5 L 79.316406 366.5 "/>
<path fill="none" stroke-width="1" stroke-linecap="butt" stroke-linejoin="miter" stroke="rgb(0%, 0%, 0%)" stroke-opacity="1" stroke-miterlimit="1.154701" d="M 270.910156 361.5 L 270.910156 366.5 "/>
<path fill="none" stroke-width="1" stroke-linecap="butt" stroke-linejoin="miter" stroke="rgb(0%, 0%, 0%)" stroke-opacity="1" stroke-miterlimit="1.154701" d="M 462.5 361.5 L 462.5 366.5 "/>
<path fill="none" stroke-width="1" stroke-linecap="butt" stroke-linejoin="miter" stroke="rgb(0%, 0%, 0%)" stroke-opacity="1" stroke-miterlimit="1.154701" d="M 654.089844 361.5 L 654.089844 366.5 "/>
<path fill="none" stroke-width="1" stroke-linecap="butt" stroke-linejoin="miter" stroke="rgb(0%, 0%, 0%)" stroke-opacity="1" stroke-miterlimit="1.154701" d="M 845.683594 361.5 L 845.683594 366.5 "/>
<path fill="none" stroke-width="1" stroke-linecap="butt" stroke-linejoin="miter" stroke="rgb(0%, 0%, 0%)" stroke-opacity="1" stroke-miterlimit="1.154701" d="M 40.5 301.074219 L 35.5 301.074219 "/>
<path fill="none" stroke-width="1" stroke-linecap="butt" stroke-linejoin="miter" stroke="rgb(0%, 0%, 0%)" stroke-opacity="1" stroke-miterlimit="1.154701" d="M 40.5 211.277344 L 35.5 211.277344 "/>
<path fill="none" stroke-width="1" stroke-linecap="butt" stroke-linejoin="miter" stroke="rgb(0%, 0%, 0%)" stroke-opacity="1" stroke-miterlimit="1.154701" d="M 40.5 121.480469 L 35.5 121.480469 "/>
<path fill="none" stroke-width="1" stroke-linecap="butt" stroke-linejoin="miter" stroke="rgb(0%, 0%, 0%)" stroke-opacity="1" stroke-miterlimit="1.154701" d="M 40.5 31.683594 L 35.5 31.683594 "/>
<path fill="none" stroke-width="1" stroke-linecap="butt" stroke-linejoin="miter" stroke="rgb(0%, 0%, 0%)" stroke-opacity="1" stroke-miterlimit="1.154701" d="M 40.5 361 L 884.5 361 "/>
<path fill="none" stroke-width="1" stroke-linecap="butt" stroke-linejoin="miter" stroke="rgb(0%, 0%, 0%)" stroke-opacity="1" stroke-miterlimit="1.154701" d="M 41 361.5 L 41 15.5 "/>
<path fill="none" stroke-width="1" stroke-linecap="butt" stroke-linejoin="miter" stroke="rgb(0%, 0%, 0%)" stroke-opacity="1" stroke-miterlimit="1.154701" d="M 40.5 16 L 884.5 16 "/>
<path fill="none" stroke-width="1" stroke-linecap="butt" stroke-linejoin="miter" stroke="rgb(0%, 0%, 0%)" stroke-opacity="1" stroke-miterlimit="1.154701" d="M 884 361.5 L 884 15.5 "/>
</svg>
