<?xml version="1.0" encoding="UTF-8"?>
<svg xmlns="http://www.w3.org/2000/svg" xmlns:xlink="http://www.w3.org/1999/xlink" width="900" height="400" viewBox="0 0 900 400">
<defs>
<g>
<g id="glyph-0-0-f656f083">
<path d="M 7.09375 -4.78125 C 7.09375 -1.515625 5.953125 0.203125 3.84375 0.203125 C 1.71875 0.203125 0.609375 -1.515625 0.609375 -4.859375 C 0.609375 -8.1875 1.703125 -9.921875 3.84375 -9.921875 C 6 -9.921875 7.09375 -8.21875 7.09375 -4.78125 Z M 5.84375 -4.890625 C 5.84375 -7.546875 5.1875 -8.828125 3.84375 -8.828125 C 2.515625 -8.828125 1.859375 -7.5625 1.859375 -4.84375 C 1.859375 -2.125 2.515625 -0.8125 3.828125 -0.8125 C 5.1875 -0.8125 5.84375 -2.078125 5.84375 -4.890625 Z M 5.84375 -4.890625 "/>
</g>
<g id="glyph-0-1-f656f083">
<path d="M 2.671875 0 C 2.671875 0 1.21875 0 1.21875 0 C 1.21875 0 1.21875 -1.453125 1.21875 -1.453125 C 1.21875 -1.453125 2.671875 -1.453125 2.671875 -1.453125 C 2.671875 -1.453125 2.671875 0 2.671875 0 Z M 2.671875 0 "/>
</g>
<g id="glyph-0-2-f656f083">
<path d="M 8.296875 -9.0625 C 8.296875 -9.0625 4.953125 -9.0625 4.953125 -9.0625 C 4.953125 -9.0625 4.953125 0 4.953125 0 C 4.953125 0 3.65625 0 3.65625 0 C 3.65625 0 3.65625 -9.0625 3.65625 -9.0625 C 3.65625 -9.0625 0.296875 -9.0625 0.296875 -9.0625 C 0.296875 -9.0625 0.296875 -10.203125 0.296875 -10.203125 C 0.296875 -10.203125 8.296875 -10.203125 8.296875 -10.203125 C 8.296875 -10.203125 8.296875 -9.0625 8.296875 -9.0625 Z M 8.296875 -9.0625 "/>
</g>
<g id="glyph-0-3-f656f083">
<path d="M 7.15625 -7.015625 C 7.15625 -5.796875 6.4375 -4.765625 5.046875 -4.015625 C 5.046875 -4.015625 3.65625 -3.265625 3.65625 -3.265625 C 2.4375 -2.546875 1.984375 -2.03125 1.859375 -1.21875 C 1.859375 -1.21875 7.078125 -1.21875 7.078125 -1.21875 C 7.078125 -1.21875 7.078125 0 7.078125 0 C 7.078125 0 0.46875 0 0.46875 0 C 0.59375 -2.1875 1.1875 -3.125 3.265625 -4.296875 C 3.265625 -4.296875 4.546875 -5.03125 4.546875 -5.03125 C 5.4375 -5.53125 5.890625 -6.203125 5.890625 -6.984375 C 5.890625 -8.046875 5.046875 -8.84375 3.9375 -8.84375 C 2.71875 -8.84375 2.03125 -8.140625 1.9375 -6.484375 C 1.9375 -6.484375 0.703125 -6.484375 0.703125 -6.484375 C 0.765625 -8.890625 1.953125 -9.921875 3.96875 -9.921875 C 5.859375 -9.921875 7.15625 -8.6875 7.15625 -7.015625 Z M 7.15625 -7.015625 "/>
</g>
<g id="glyph-0-4-f656f083">
<path d="M 7.1875 -3.296875 C 7.1875 -1.1875 5.78125 0.203125 3.78125 0.203125 C 2.015625 0.203125 0.890625 -0.578125 0.484375 -2.546875 C 0.484375 -2.546875 1.71875 -2.546875 1.71875 -2.546875 C 2.015625 -1.421875 2.671875 -0.875 3.75 -0.875 C 5.09375 -0.875 5.921875 -1.6875 5.921875 -3.125 C 5.921875 -4.59375 5.078125 -5.453125 3.75 -5.453125 C 2.984375 -5.453125 2.5 -5.203125 1.9375 -4.515625 C 1.9375 -4.515625 0.796875 -4.515625 0.796875 -4.515625 C 0.796875 -4.515625 1.546875 -9.71875 1.546875 -9.71875 C 1.546875 -9.71875 6.65625 -9.71875 6.65625 -9.71875 C 6.65625 -9.71875 6.65625 -8.5 6.65625 -8.5 C 6.65625 -8.5 2.53125 -8.5 2.53125 -8.5 C 2.53125 -8.5 2.140625 -5.9375 2.140625 -5.9375 C 2.71875 -6.359375 3.28125 -6.53125 3.96875 -6.53125 C 5.875 -6.53125 7.1875 -5.25 7.1875 -3.296875 Z M 7.1875 -3.296875 "/>
</g>
<g id="glyph-0-5-f656f083">
<path d="M 7.28125 -8.6875 C 5.1875 -6.203125 3.796875 -3.203125 3.25 0 C 3.25 0 1.9375 0 1.9375 0 C 2.625 -3.109375 4.03125 -6 6 -8.5 C 6 -8.5 0.640625 -8.5 0.640625 -8.5 C 0.640625 -8.5 0.640625 -9.71875 0.640625 -9.71875 C 0.640625 -9.71875 7.28125 -9.71875 7.28125 -9.71875 C 7.28125 -9.71875 7.28125 -8.6875 7.28125 -8.6875 Z M 7.28125 -8.6875 "/>
</g>
<g id="glyph-0-6-f656f083">
<path d="M 4.859375 0 C 4.859375 0 3.625 0 3.625 0 C 3.625 0 3.625 -7.0625 3.625 -7.0625 C 3.625 -7.0625 1.421875 -7.0625 1.421875 -7.0625 C 1.421875 -7.0625 1.421875 -7.953125 1.421875 -7.953125 C 3.328125 -8.1875 3.609375 -8.40625 4.046875 -9.921875 C 4.046875 -9.921875 4.859375 -9.921875 4.859375 -9.921875 C 4.859375 -9.921875 4.859375 0 4.859375 0 Z M 4.859375 0 "/>
</g>
<g id="glyph-0-7-f656f083">
<path d="M 7.21875 -3.03125 C 7.21875 -3.03125 0.953125 -3.03125 0.953125 -3.03125 C 0.953125 -3.03125 0.953125 -3.96875 0.953125 -3.96875 C 0.953125 -3.96875 7.21875 -3.96875 7.21875 -3.96875 C 7.21875 -3.96875 7.21875 -3.03125 7.21875 -3.03125 Z M 7.21875 -3.03125 "/>
</g>
<g id="glyph-0-8-f656f083">
<path d="M 7.28125 -2.375 C 7.28125 -2.375 5.8125 -2.375 5.8125 -2.375 C 5.8125 -2.375 5.8125 0 5.8125 0 C 5.8125 0 4.578125 0 4.578125 0 C 4.578125 0 4.578125 -2.375 4.578125 -2.375 C 4.578125 -2.375 0.390625 -2.375 0.390625 -2.375 C 0.390625 -2.375 0.390625 -3.6875 0.390625 -3.6875 C 0.390625 -3.6875 4.90625 -9.921875 4.90625 -9.921875 C 4.90625 -9.921875 5.8125 -9.921875 5.8125 -9.921875 C 5.8125 -9.921875 5.8125 -3.484375 5.8125 -3.484375 C 5.8125 -3.484375 7.28125 -3.484375 7.28125 -3.484375 C 7.28125 -3.484375 7.28125 -2.375 7.28125 -2.375 Z M 4.578125 -3.484375 C 4.578125 -3.484375 4.578125 -7.828125 4.578125 -7.828125 C 4.578125 -7.828125 1.46875 -3.484375 1.46875 -3.484375 C 1.46875 -3.484375 4.578125 -3.484375 4.578125 -3.484375 Z M 4.578125 -3.484375 "/>
</g>
<g id="glyph-1-0-f656f083">
<path d="M 7.09375 -4.78125 C 7.09375 -1.515625 5.953125 0.203125 3.84375 0.203125 C 1.71875 0.203125 0.609375 -1.515625 0.609375 -4.859375 C 0.609375 -8.1875 1.703125 -9.921875 3.84375 -9.921875 C 6 -9.921875 7.09375 -8.21875 7.09375 -4.78125 Z M 5.84375 -4.890625 C 5.84375 -7.546875 5.1875 -8.828125 3.84375 -8.828125 C 2.515625 -8.828125 1.859375 -7.5625 1.859375 -4.84375 C 1.859375 -2.125 2.515625 -0.8125 3.828125 -0.8125 C 5.1875 -0.8125 5.84375 -2.078125 5.84375 -4.890625 Z M 5.84375 -4.890625 "/>
</g>
<g id="glyph-2-0-f656f083">
<path d="M 7.21875 -3.03125 C 7.21875 -3.03125 0.953125 -3.03125 0.953125 -3.03125 C 0.953125 -3.03125 0.953125 -3.96875 0.953125 -3.96875 C 0.953125 -3.96875 7.21875 -3.96875 7.21875 -3.96875 C 7.21875 -3.96875 7.21875 -3.03125 7.21875 -3.03125 Z M 7.21875 -3.03125 "/>
</g>
<g id="glyph-2-1-f656f083">
<path d="M 7.078125 -2.890625 C 7.078125 -1.015625 5.765625 0.203125 3.71875 0.203125 C 1.6875 0.203125 0.609375 -0.78125 0.453125 -3 C 0.453125 -3 1.6875 -3 1.6875 -3 C 1.765625 -1.546875 2.421875 -0.875 3.765625 -0.875 C 5.046875 -0.875 5.828125 -1.625 5.828125 -2.875 C 5.828125 -3.96875 5.125 -4.625 3.765625 -4.625 C 3.765625 -4.625 3.09375 -4.625 3.09375 -4.625 C 3.09375 -4.625 3.09375 -5.65625 3.09375 -5.65625 C 5.0625 -5.65625 5.53125 -6.09375 5.53125 -7.15625 C 5.53125 -8.203125 4.875 -8.84375 3.78125 -8.84375 C 2.515625 -8.84375 1.921875 -8.1875 1.890625 -6.71875 C 1.890625 -6.71875 0.65625 -6.71875 0.65625 -6.71875 C 0.703125 -8.828125 1.765625 -9.921875 3.765625 -9.921875 C 5.65625 -9.921875 6.796875 -8.90625 6.796875 -7.203125 C 6.796875 -6.203125 6.328125 -5.5625 5.40625 -5.1875 C 6.59375 -4.78125 7.078125 -4.09375 7.078125 -2.890625 Z M 7.078125 -2.890625 "/>
</g>
</g>
</defs>
<rect x="-90" y="-40" width="1080" height="480" fill="rgb(100%, 100%, 100%)" fill-opacity="1"/>
<path fill-rule="nonzero" fill="rgb(100%, 100%, 100%)" fill-opacity="1" d="M 41 361 L 884 361 L 884 16 L 41 16 Z M 41 361 "/>
<path fill="none" stroke-width="1" stroke-linecap="butt" stroke-linejoin="miter" stroke="rgb(0%, 0%, 0%)" stroke-opacity="0.12" stroke-miterlimit="1.154701" d="M 79.316406 361 L 79.316406 16 "/>
<path fill="none" stroke-width="1" stroke-linecap="butt" stroke-linejoin="miter" stroke="rgb(0%, 0%, 0%)" stroke-opacity="0.12" stroke-miterlimit="1.154701" d="M 270.910156 361 L 270.910156 16 "/>
<path fill="none" stroke-width="1" stroke-linecap="butt" stroke-linejoin="miter" stroke="rgb(0%, 0%, 0%)" stroke-opacity="0.12" stroke-miterlimit="1.154701" d="M 462.5 361 L 462.5 16 "/>
<path fill="none" stroke-width="1" stroke-linecap="butt" stroke-linejoin="miter" stroke="rgb(0%, 0%, 0%)" stroke-opacity="0.12" stroke-miterlimit="1.154701" d="M 654.089844 361 L 654.089844 16 "/>
<path fill="none" stroke-width="1" stroke-linecap="butt" stroke-linejoin="miter" stroke="rgb(0%, 0%, 0%)" stroke-opacity="0.12" stroke-miterlimit="1.154701" d="M 845.683594 361 L 845.683594 16 "/>
<path fill="none" stroke-width="1" stroke-linecap="butt" stroke-linejoin="miter" stroke="rgb(0%, 0%, 0%)" stroke-opacity="0.12" stroke-miterlimit="1.154701" d="M 41 304.582031 L 884 304.582031 "/>
<path fill="none" stroke-width="1" stroke-linecap="butt" stroke-linejoin="miter" stroke="rgb(0%, 0%, 0%)" stroke-opacity="0.12" stroke-miterlimit="1.154701" d="M 41 213.617188 L 884 213.617188 "/>
<path fill="none" stroke-width="1" stroke-linecap="butt" stroke-linejoin="miter" stroke="rgb(0%, 0%, 0%)" stroke-opacity="0.12" stroke-miterlimit="1.154701" d="M 41 122.648438 L 884 122.648438 "/>
<path fill="none" stroke-width="1" stroke-linecap="butt" stroke-linejoin="miter" stroke="rgb(0%, 0%, 0%)" stroke-opacity="0.12" stroke-miterlimit="1.154701" d="M 41 31.683594 L 884 31.683594 "/>
<g fill="rgb(0%, 0%, 0%)" fill-opacity="1">
<use xlink:href="#glyph-0-0-f656f083" x="65.311186" y="382.258001"/>
</g>
<g fill="rgb(0%, 0%, 0%)" fill-opacity="1">
<use xlink:href="#glyph-0-1-f656f083" x="73.095186" y="382.258001"/>
</g>
<g fill="rgb(0%, 0%, 0%)" fill-opacity="1">
<use xlink:href="#glyph-0-0-f656f083" x="76.987185" y="382.258001"/>
</g>
<g fill="rgb(0%, 0%, 0%)" fill-opacity="1">
<use xlink:href="#glyph-0-2-f656f083" x="84.771185" y="382.258001"/>
</g>
<g fill="rgb(0%, 0%, 0%)" fill-opacity="1">
<use xlink:href="#glyph-1-0-f656f083" x="253.010094" y="382.258001"/>
</g>
<g fill="rgb(0%, 0%, 0%)" fill-opacity="1">
<use xlink:href="#glyph-0-1-f656f083" x="260.794095" y="382.258001"/>
</g>
<g fill="rgb(0%, 0%, 0%)" fill-opacity="1">
<use xlink:href="#glyph-0-3-f656f083" x="264.686094" y="382.258001"/>
</g>
<g fill="rgb(0%, 0%, 0%)" fill-opacity="1">
<use xlink:href="#glyph-0-4-f656f083" x="272.470094" y="382.258001"/>
</g>
<g fill="rgb(0%, 0%, 0%)" fill-opacity="1">
<use xlink:href="#glyph-0-2-f656f083" x="280.254094" y="382.258001"/>
</g>
<g fill="rgb(0%, 0%, 0%)" fill-opacity="1">
<use xlink:href="#glyph-0-0-f656f083" x="448.493011" y="382.258001"/>
</g>
<g fill="rgb(0%, 0%, 0%)" fill-opacity="1">
<use xlink:href="#glyph-0-1-f656f083" x="456.277011" y="382.258001"/>
</g>
<g fill="rgb(0%, 0%, 0%)" fill-opacity="1">
<use xlink:href="#glyph-0-4-f656f083" x="460.169011" y="382.258001"/>
</g>
<g fill="rgb(0%, 0%, 0%)" fill-opacity="1">
<use xlink:href="#glyph-0-2-f656f083" x="467.95301" y="382.258001"/>
</g>
<g fill="rgb(0%, 0%, 0%)" fill-opacity="1">
<use xlink:href="#glyph-0-0-f656f083" x="636.191897" y="382.258001"/>
</g>
<g fill="rgb(0%, 0%, 0%)" fill-opacity="1">
<use xlink:href="#glyph-0-1-f656f083" x="643.975897" y="382.258001"/>
</g>
<g fill="rgb(0%, 0%, 0%)" fill-opacity="1">
<use xlink:href="#glyph-0-5-f656f083" x="647.867897" y="382.258001"/>
</g>
<g fill="rgb(0%, 0%, 0%)" fill-opacity="1">
<use xlink:href="#glyph-0-4-f656f083" x="655.651896" y="382.258001"/>
</g>
<g fill="rgb(0%, 0%, 0%)" fill-opacity="1">
<use xlink:href="#glyph-0-2-f656f083" x="663.435897" y="382.258001"/>
</g>
<g fill="rgb(0%, 0%, 0%)" fill-opacity="1">
<use xlink:href="#glyph-0-6-f656f083" x="831.674844" y="382.258001"/>
</g>
<g fill="rgb(0%, 0%, 0%)" fill-opacity="1">
<use xlink:href="#glyph-0-1-f656f083" x="839.458844" y="382.258001"/>
</g>
<g fill="rgb(0%, 0%, 0%)" fill-opacity="1">
<use xlink:href="#glyph-0-0-f656f083" x="843.350844" y="382.258001"/>
</g>
<g fill="rgb(0%, 0%, 0%)" fill-opacity="1">
<use xlink:href="#glyph-0-2-f656f083" x="851.134843" y="382.258001"/>
</g>
<g fill="rgb(0%, 0%, 0%)" fill-opacity="1">
<use xlink:href="#glyph-0-7-f656f083" x="15.040001" y="309.68601"/>
</g>
<g fill="rgb(0%, 0%, 0%)" fill-opacity="1">
<use xlink:href="#glyph-0-4-f656f083" x="23.216001" y="309.68601"/>
</g>
<g fill="rgb(0%, 0%, 0%)" fill-opacity="1">
<use xlink:href="#glyph-0-7-f656f083" x="15.040001" y="218.718956"/>
</g>
<g fill="rgb(0%, 0%, 0%)" fill-opacity="1">
<use xlink:href="#glyph-0-8-f656f083" x="23.216001" y="218.718956"/>
</g>
<g fill="rgb(0%, 0%, 0%)" fill-opacity="1">
<use xlink:href="#glyph-2-0-f656f083" x="15.040001" y="127.751902"/>
</g>
<g fill="rgb(0%, 0%, 0%)" fill-opacity="1">
<use xlink:href="#glyph-2-1-f656f083" x="23.216001" y="127.751902"/>
</g>
<g fill="rgb(0%, 0%, 0%)" fill-opacity="1">
<use xlink:href="#glyph-0-7-f656f083" x="15.040001" y="36.784832"/>
</g>
<g fill="rgb(0%, 0%, 0%)" fill-opacity="1">
<use xlink:href="#glyph-0-3-f656f083" x="23.216001" y="36.784832"/>
</g>
<path fill="none" stroke-width="1.5" stroke-linecap="butt" stroke-linejoin="miter" stroke="rgb(100%, 0%, 100%)" stroke-opacity="1" stroke-miterlimit="2" d="M 79.316406 213.617188 L 86.980469 213.628906 L 94.644531 213.667969 L 102.308594 213.734375 L 109.972656 213.828125 L 117.636719 213.949219 L 125.300781 214.09375 L 132.964844 214.265625 L 140.628906 214.464844 L 148.289062 214.691406 L 155.953125 214.941406 L 163.617188 215.222656 L 171.28125 215.527344 L 178.945312 215.859375 L 186.609375 216.21875 L 194.273438 216.605469 L 201.9375 217.015625 L 209.601562 217.457031 L 217.261719 217.921875 L 224.925781 218.414062 L 232.589844 218.933594 L 240.253906 219.480469 L 247.917969 220.050781 L 255.582031 220.652344 L 263.246094 221.28125 L 270.910156 221.933594 L 278.574219 222.613281 L 286.234375 223.320312 L 293.898438 224.058594 L 301.5625 224.820312 L 309.226562 225.609375 L 316.890625 226.425781 L 324.554688 227.269531 L 332.21875 228.140625 L 339.882812 229.035156 L 347.546875 229.960938 L 355.210938 230.914062 L 362.871094 231.894531 L 370.535156 232.902344 L 378.199219 233.933594 L 385.863281 234.996094 L 393.527344 236.085938 L 401.191406 237.203125 L 408.855469 238.347656 L 416.519531 239.515625 L 424.183594 240.714844 L 431.84375 241.941406 L 439.507812 243.195312 L 447.171875 244.472656 L 454.835938 245.78125 L 462.5 247.117188 L 470.164062 248.476562 L 477.828125 249.867188 L 485.492188 251.28125 L 493.15625 252.722656 L 500.816406 254.195312 L 508.480469 255.691406 L 516.144531 257.210938 L 523.808594 258.761719 L 531.472656 260.339844 L 539.136719 261.941406 L 546.800781 263.570312 L 554.464844 265.222656 L 562.128906 266.90625 L 569.789062 268.609375 L 577.453125 270.34375 L 585.117188 272.101562 L 592.78125 273.882812 L 600.445312 275.691406 L 608.109375 277.523438 L 615.773438 279.378906 L 623.4375 281.261719 L 631.101562 283.167969 L 638.761719 285.097656 L 646.425781 287.050781 L 654.089844 289.027344 L 661.753906 291.027344 L 669.417969 293.050781 L 677.082031 295.097656 L 684.746094 297.167969 L 692.410156 299.257812 L 700.074219 301.371094 L 707.734375 303.503906 L 715.398438 305.660156 L 723.0625 307.839844 L 730.726562 310.035156 L 738.390625 312.253906 L 746.054688 314.492188 L 753.71875 316.753906 L 761.382812 319.03125 L 769.046875 321.328125 L 776.710938 323.644531 L 784.371094 325.980469 L 792.035156 328.335938 L 799.699219 330.710938 L 807.363281 333.101562 L 815.027344 335.511719 L 822.691406 337.9375 L 830.355469 340.378906 L 838.019531 342.839844 L 845.683594 345.316406 "/>
<path fill="none" stroke-width="1.5" stroke-linecap="butt" stroke-linejoin="miter" stroke="rgb(50.196081%, 50.196081%, 50.196081%)" stroke-opacity="0.5" stroke-miterlimit="2" d="M 79.316406 122.648438 L 86.980469 123.9375 L 94.644531 125.246094 L 102.308594 126.578125 L 109.972656 127.929688 L 117.636719 129.304688 L 125.300781 130.695312 L 132.964844 132.109375 L 140.628906 133.542969 L 148.289062 135 L 155.953125 136.472656 L 163.617188 137.96875 L 171.28125 139.480469 L 178.945312 141.015625 L 186.609375 142.570312 L 194.273438 144.144531 L 201.9375 145.738281 L 209.601562 147.347656 L 217.261719 148.980469 L 224.925781 150.628906 L 232.589844 152.300781 L 240.253906 153.988281 L 247.917969 155.695312 L 255.582031 157.417969 L 263.246094 159.164062 L 270.910156 160.921875 L 278.574219 162.703125 L 286.234375 164.5 L 293.898438 166.316406 L 301.5625 168.148438 L 309.226562 170 L 316.890625 171.867188 L 324.554688 173.753906 L 332.21875 175.65625 L 339.882812 177.574219 L 347.546875 179.511719 L 355.210938 181.464844 L 362.871094 183.433594 L 370.535156 185.417969 L 378.199219 187.421875 L 385.863281 189.4375 L 393.527344 191.472656 L 401.191406 193.523438 L 408.855469 195.589844 L 416.519531 197.671875 L 424.183594 199.765625 L 431.84375 201.878906 L 439.507812 204.007812 L 447.171875 206.148438 L 454.835938 208.304688 L 462.5 210.476562 L 470.164062 212.664062 L 477.828125 214.867188 L 485.492188 217.082031 L 493.15625 219.3125 L 500.816406 221.554688 L 508.480469 223.8125 L 516.144531 226.082031 L 523.808594 228.367188 L 531.472656 230.667969 L 539.136719 232.980469 L 546.800781 235.304688 L 554.464844 237.644531 L 562.128906 239.996094 L 569.789062 242.359375 L 577.453125 244.738281 L 585.117188 247.128906 L 592.78125 249.53125 L 600.445312 251.945312 L 608.109375 254.371094 L 615.773438 256.8125 L 623.4375 259.265625 L 631.101562 261.726562 L 638.761719 264.203125 L 646.425781 266.691406 L 654.089844 269.1875 L 661.753906 271.699219 L 669.417969 274.222656 L 677.082031 276.753906 L 684.746094 279.296875 L 692.410156 281.851562 L 700.074219 284.417969 L 707.734375 286.996094 L 715.398438 289.582031 L 723.0625 292.183594 L 730.726562 294.789062 L 738.390625 297.410156 L 746.054688 300.039062 L 753.71875 302.679688 L 761.382812 305.332031 L 769.046875 307.992188 L 776.710938 310.660156 L 784.371094 313.339844 L 792.035156 316.03125 L 799.699219 318.730469 L 807.363281 321.4375 L 815.027344 324.15625 L 822.691406 326.886719 L 830.355469 329.625 L 838.019531 332.371094 L 845.683594 335.125 "/>
<path fill="none" stroke-width="1.5" stroke-linecap="butt" stroke-linejoin="miter" stroke="rgb(50.196081%, 50.196081%, 50.196081%)" stroke-opacity="0.5" stroke-miterlimit="2" d="M 79.316406 122.648438 L 86.980469 123.347656 L 94.644531 124.070312 L 102.308594 124.816406 L 109.972656 125.582031 L 117.636719 126.375 L 125.300781 127.183594 L 132.964844 128.019531 L 140.628906 128.875 L 148.289062 129.757812 L 155.953125 130.65625 L 163.617188 131.582031 L 171.28125 132.527344 L 178.945312 133.5 L 186.609375 134.492188 L 194.273438 135.503906 L 201.9375 136.542969 L 209.601562 137.601562 L 217.261719 138.683594 L 224.925781 139.789062 L 232.589844 140.917969 L 240.253906 142.066406 L 247.917969 143.242188 L 255.582031 144.4375 L 263.246094 145.65625 L 270.910156 146.898438 L 278.574219 148.160156 L 286.234375 149.449219 L 293.898438 150.761719 L 301.5625 152.09375 L 309.226562 153.449219 L 316.890625 154.828125 L 324.554688 156.234375 L 332.21875 157.660156 L 339.882812 159.109375 L 347.546875 160.582031 L 355.210938 162.074219 L 362.871094 163.59375 L 370.535156 165.136719 L 378.199219 166.703125 L 385.863281 168.289062 L 393.527344 169.902344 L 401.191406 171.539062 L 408.855469 173.199219 L 416.519531 174.878906 L 424.183594 176.585938 L 431.84375 178.3125 L 439.507812 180.066406 L 447.171875 181.839844 L 454.835938 183.640625 L 462.5 185.460938 L 470.164062 187.304688 L 477.828125 189.175781 L 485.492188 191.066406 L 493.15625 192.980469 L 500.816406 194.917969 L 508.480469 196.875 L 516.144531 198.859375 L 523.808594 200.863281 L 531.472656 202.890625 L 539.136719 204.941406 L 546.800781 207.015625 L 554.464844 209.109375 L 562.128906 211.226562 L 569.789062 213.363281 L 577.453125 215.523438 L 585.117188 217.707031 L 592.78125 219.910156 L 600.445312 222.132812 L 608.109375 224.378906 L 615.773438 226.640625 L 623.4375 228.929688 L 631.101562 231.234375 L 638.761719 233.5625 L 646.425781 235.90625 L 654.089844 238.273438 L 661.753906 240.65625 L 669.417969 243.0625 L 677.082031 245.484375 L 684.746094 247.925781 L 692.410156 250.382812 L 700.074219 252.859375 L 707.734375 255.355469 L 715.398438 257.867188 L 723.0625 260.394531 L 730.726562 262.941406 L 738.390625 265.503906 L 746.054688 268.082031 L 753.71875 270.675781 L 761.382812 273.285156 L 769.046875 275.910156 L 776.710938 278.550781 L 784.371094 281.207031 L 792.035156 283.875 L 799.699219 286.558594 L 807.363281 289.257812 L 815.027344 291.964844 L 822.691406 294.691406 L 830.355469 297.425781 L 838.019531 300.175781 L 845.683594 302.9375 "/>
<path fill="none" stroke-width="1.5" stroke-linecap="butt" stroke-linejoin="miter" stroke="rgb(50.196081%, 50.196081%, 50.196081%)" stroke-opacity="0.5" stroke-miterlimit="2" d="M 79.316406 122.648438 L 86.980469 123.199219 L 94.644531 123.761719 L 102.308594 124.339844 L 109.972656 124.933594 L 117.636719 125.539062 L 125.300781 126.160156 L 132.964844 126.796875 L 140.628906 127.449219 L 148.289062 128.117188 L 155.953125 128.796875 L 163.617188 129.488281 L 171.28125 130.199219 L 178.945312 130.921875 L 186.609375 131.65625 L 194.273438 132.410156 L 201.9375 133.175781 L 209.601562 133.953125 L 217.261719 134.746094 L 224.925781 135.554688 L 232.589844 136.375 L 240.253906 137.210938 L 247.917969 138.058594 L 255.582031 138.921875 L 263.246094 139.800781 L 270.910156 140.691406 L 278.574219 141.597656 L 286.234375 142.515625 L 293.898438 143.449219 L 301.5625 144.394531 L 309.226562 145.355469 L 316.890625 146.332031 L 324.554688 147.320312 L 332.21875 148.324219 L 339.882812 149.34375 L 347.546875 150.375 L 355.210938 151.421875 L 362.871094 152.484375 L 370.535156 153.558594 L 378.199219 154.648438 L 385.863281 155.753906 L 393.527344 156.875 L 401.191406 158.007812 L 408.855469 159.160156 L 416.519531 160.324219 L 424.183594 161.503906 L 431.84375 162.699219 L 439.507812 163.910156 L 447.171875 165.136719 L 454.835938 166.378906 L 462.5 167.636719 L 470.164062 168.910156 L 477.828125 170.199219 L 485.492188 171.507812 L 493.15625 172.832031 L 500.816406 174.171875 L 508.480469 175.527344 L 516.144531 176.902344 L 523.808594 178.292969 L 531.472656 179.703125 L 539.136719 181.128906 L 546.800781 182.570312 L 554.464844 184.03125 L 562.128906 185.511719 L 569.789062 187.113281 L 577.453125 189.917969 L 585.117188 192.734375 L 592.78125 195.554688 L 600.445312 198.386719 L 608.109375 201.226562 L 615.773438 204.074219 L 623.4375 206.929688 L 631.101562 209.792969 L 638.761719 212.667969 L 646.425781 215.546875 L 654.089844 218.433594 L 661.753906 221.328125 L 669.417969 224.230469 L 677.082031 227.140625 L 684.746094 230.054688 L 692.410156 232.980469 L 700.074219 235.910156 L 707.734375 238.847656 L 715.398438 241.789062 L 723.0625 244.738281 L 730.726562 247.695312 L 738.390625 250.660156 L 746.054688 253.628906 L 753.71875 256.605469 L 761.382812 259.585938 L 769.046875 262.574219 L 776.710938 265.566406 L 784.371094 268.566406 L 792.035156 271.570312 L 799.699219 274.578125 L 807.363281 277.59375 L 815.027344 280.613281 L 830.355469 286.667969 L 845.683594 292.746094 "/>
<path fill="none" stroke-width="1.5" stroke-linecap="butt" stroke-linejoin="miter" stroke="rgb(50.196081%, 50.196081%, 50.196081%)" stroke-opacity="0.5" stroke-miterlimit="2" d="M 79.316406 122.648438 L 86.980469 122.769531 L 94.644531 122.914062 L 102.308594 123.078125 L 109.972656 123.261719 L 117.636719 123.46875 L 125.300781 123.695312 L 132.964844 123.941406 L 140.628906 124.210938 L 148.289062 124.5 L 155.953125 124.8125 L 163.617188 125.144531 L 171.28125 125.496094 L 178.945312 125.871094 L 186.609375 126.265625 L 194.273438 126.679688 L 201.9375 127.117188 L 209.601562 127.574219 L 217.261719 128.050781 L 224.925781 128.550781 L 232.589844 129.070312 L 240.253906 129.613281 L 247.917969 130.171875 L 255.582031 130.757812 L 263.246094 131.359375 L 270.910156 131.984375 L 278.574219 132.632812 L 286.234375 133.296875 L 293.898438 133.984375 L 301.5625 134.695312 L 309.226562 135.421875 L 316.890625 136.175781 L 324.554688 136.945312 L 332.21875 137.738281 L 339.882812 138.550781 L 347.546875 139.386719 L 355.210938 140.238281 L 362.871094 141.117188 L 370.535156 142.011719 L 378.199219 142.929688 L 385.863281 143.867188 L 393.527344 144.824219 L 401.191406 145.804688 L 408.855469 146.804688 L 416.519531 147.824219 L 424.183594 148.867188 L 431.84375 149.925781 L 439.507812 151.007812 L 447.171875 152.109375 L 454.835938 153.230469 L 462.5 154.375 L 470.164062 155.535156 L 477.828125 156.71875 L 485.492188 157.917969 L 493.15625 159.566406 L 500.816406 162.277344 L 508.480469 165 L 516.144531 167.730469 L 523.808594 170.472656 L 531.472656 173.222656 L 539.136719 175.980469 L 546.800781 178.75 L 554.464844 181.53125 L 562.128906 184.316406 L 569.789062 187.011719 L 577.453125 188.527344 L 585.117188 190.0625 L 592.78125 191.617188 L 600.445312 193.1875 L 608.109375 194.777344 L 615.773438 196.386719 L 623.4375 198.015625 L 631.101562 199.664062 L 638.761719 201.332031 L 646.425781 203.019531 L 654.089844 204.726562 L 661.753906 206.449219 L 669.417969 208.195312 L 677.082031 209.957031 L 684.746094 211.742188 L 692.410156 213.542969 L 700.074219 215.367188 L 707.734375 217.207031 L 715.398438 219.066406 L 723.0625 220.945312 L 730.726562 222.84375 L 738.390625 224.757812 L 746.054688 226.691406 L 753.71875 228.644531 L 761.382812 230.617188 L 769.046875 232.605469 L 776.710938 234.613281 L 784.371094 236.636719 L 792.035156 238.679688 L 799.699219 240.738281 L 807.363281 242.816406 L 815.027344 244.910156 L 822.691406 247.019531 L 830.355469 249.144531 L 838.019531 251.289062 L 845.683594 253.445312 "/>
<path fill="none" stroke-width="1.5" stroke-linecap="butt" stroke-linejoin="miter" stroke="rgb(50.196081%, 50.196081%, 50.196081%)" stroke-opacity="0.5" stroke-miterlimit="2" d="M 79.316406 122.648438 L 86.980469 122.546875 L 94.644531 122.46875 L 102.308594 122.410156 L 109.972656 122.371094 L 117.636719 122.355469 L 125.300781 122.359375 L 132.964844 122.382812 L 140.628906 122.429688 L 148.289062 122.496094 L 155.953125 122.585938 L 163.617188 122.695312 L 171.28125 122.828125 L 178.945312 122.980469 L 186.609375 123.152344 L 194.273438 123.347656 L 201.9375 123.5625 L 209.601562 123.800781 L 217.261719 124.058594 L 224.925781 124.335938 L 232.589844 124.636719 L 240.253906 124.960938 L 247.917969 125.304688 L 255.582031 125.667969 L 263.246094 126.054688 L 270.910156 126.460938 L 278.574219 126.890625 L 286.234375 127.339844 L 293.898438 127.808594 L 301.5625 128.300781 L 309.226562 128.816406 L 316.890625 129.351562 L 324.554688 129.90625 L 332.21875 130.484375 L 339.882812 131.082031 L 347.546875 131.703125 L 355.210938 132.34375 L 362.871094 133.007812 L 370.535156 133.691406 L 378.199219 134.394531 L 385.863281 135.121094 L 393.527344 135.867188 L 401.191406 136.636719 L 408.855469 137.421875 L 416.519531 138.234375 L 424.183594 139.0625 L 431.84375 139.910156 L 439.507812 140.878906 L 447.171875 143.515625 L 454.835938 146.164062 L 462.5 148.824219 L 470.164062 151.492188 L 477.828125 154.175781 L 485.492188 156.863281 L 493.15625 159.140625 L 500.816406 160.378906 L 508.480469 161.640625 L 516.144531 162.917969 L 523.808594 164.21875 L 531.472656 165.535156 L 539.136719 166.871094 L 546.800781 168.226562 L 554.464844 169.597656 L 562.128906 170.992188 L 569.789062 172.402344 L 577.453125 173.828125 L 585.117188 175.277344 L 592.78125 176.738281 L 600.445312 178.222656 L 608.109375 179.722656 L 615.773438 181.238281 L 623.4375 182.773438 L 631.101562 184.324219 L 638.761719 185.894531 L 646.425781 187.480469 L 654.089844 189.082031 L 661.753906 190.703125 L 669.417969 192.339844 L 677.082031 193.992188 L 684.746094 195.660156 L 692.410156 197.347656 L 700.074219 199.046875 L 707.734375 200.765625 L 715.398438 202.988281 L 723.0625 205.289062 L 730.726562 207.597656 L 738.390625 209.914062 L 746.054688 212.238281 L 753.71875 214.574219 L 761.382812 216.914062 L 769.046875 219.265625 L 776.710938 221.628906 L 784.371094 223.996094 L 792.035156 226.375 L 799.699219 228.757812 L 807.363281 231.152344 L 815.027344 233.558594 L 822.691406 235.96875 L 830.355469 238.386719 L 838.019531 240.816406 L 845.683594 243.253906 "/>
<path fill="none" stroke-width="1.5" stroke-linecap="butt" stroke-linejoin="miter" stroke="rgb(50.196081%, 50.196081%, 50.196081%)" stroke-opacity="0.5" stroke-miterlimit="2" d="M 79.316406 122.648438 L 86.980469 122.117188 L 94.644531 121.597656 L 102.308594 121.09375 L 109.972656 120.605469 L 117.636719 120.132812 L 125.300781 119.675781 L 132.964844 119.234375 L 140.628906 118.804688 L 148.289062 118.394531 L 155.953125 118 L 163.617188 117.621094 L 171.28125 117.257812 L 178.945312 116.914062 L 186.609375 116.582031 L 194.273438 116.265625 L 201.9375 115.96875 L 209.601562 115.6875 L 217.261719 115.425781 L 224.925781 115.175781 L 232.589844 114.945312 L 240.253906 114.734375 L 247.917969 114.535156 L 255.582031 114.359375 L 263.246094 114.195312 L 270.910156 114.054688 L 278.574219 113.925781 L 286.234375 113.820312 L 293.898438 113.730469 L 301.5625 113.660156 L 309.226562 113.605469 L 316.890625 113.570312 L 324.554688 113.554688 L 332.21875 113.558594 L 339.882812 113.578125 L 347.546875 113.617188 L 355.210938 113.679688 L 362.871094 115.132812 L 370.535156 117.65625 L 378.199219 120.1875 L 385.863281 122.734375 L 393.527344 125.289062 L 401.191406 127.859375 L 408.855469 130.441406 L 416.519531 133.03125 L 424.183594 135.636719 L 431.84375 138.253906 L 439.507812 140.78125 L 447.171875 141.671875 L 454.835938 142.582031 L 462.5 143.511719 L 470.164062 144.464844 L 477.828125 145.433594 L 485.492188 146.421875 L 493.15625 147.429688 L 500.816406 148.457031 L 508.480469 149.503906 L 516.144531 150.566406 L 523.808594 151.648438 L 531.472656 152.75 L 539.136719 153.867188 L 546.800781 155.003906 L 554.464844 156.453125 L 562.128906 158.605469 L 569.789062 160.761719 L 577.453125 162.921875 L 585.117188 165.089844 L 592.78125 167.261719 L 600.445312 169.441406 L 608.109375 171.628906 L 615.773438 173.820312 L 623.4375 176.019531 L 631.101562 178.226562 L 638.761719 180.4375 L 646.425781 182.660156 L 654.089844 184.886719 L 661.753906 187.121094 L 669.417969 189.363281 L 677.082031 191.613281 L 684.746094 193.875 L 692.410156 196.140625 L 700.074219 198.414062 L 707.734375 200.699219 L 715.398438 202.5 L 723.0625 204.25 L 730.726562 206.019531 L 738.390625 207.800781 L 746.054688 209.597656 L 753.71875 211.414062 L 761.382812 213.242188 L 769.046875 215.085938 L 776.710938 216.945312 L 784.371094 218.824219 L 792.035156 220.714844 L 799.699219 222.621094 L 807.363281 224.539062 L 815.027344 226.476562 L 822.691406 228.425781 L 830.355469 230.390625 L 838.019531 232.371094 L 845.683594 234.363281 "/>
<path fill="none" stroke-width="1.5" stroke-linecap="butt" stroke-linejoin="miter" stroke="rgb(50.196081%, 50.196081%, 50.196081%)" stroke-opacity="0.5" stroke-miterlimit="2" d="M 79.316406 122.648438 L 86.980469 121.972656 L 94.644531 121.316406 L 102.308594 120.683594 L 109.972656 120.074219 L 117.636719 119.484375 L 125.300781 118.917969 L 132.964844 118.375 L 140.628906 117.855469 L 148.289062 117.359375 L 155.953125 116.882812 L 163.617188 116.429688 L 171.28125 116 L 178.945312 115.589844 L 186.609375 115.207031 L 194.273438 114.84375 L 201.9375 114.503906 L 209.601562 114.1875 L 217.261719 113.890625 L 224.925781 113.621094 L 232.589844 113.371094 L 240.253906 113.144531 L 247.917969 112.941406 L 255.582031 112.761719 L 263.246094 112.605469 L 270.910156 112.46875 L 278.574219 112.359375 L 286.234375 112.269531 L 293.898438 112.203125 L 301.5625 112.164062 L 309.226562 112.144531 L 316.890625 112.148438 L 324.554688 112.175781 L 332.21875 112.226562 L 339.882812 112.300781 L 347.546875 112.398438 L 355.210938 112.625 L 362.871094 113.757812 L 370.535156 113.859375 L 378.199219 113.976562 L 385.863281 114.117188 L 393.527344 114.277344 L 401.191406 114.457031 L 408.855469 116.402344 L 416.519531 118.476562 L 424.183594 120.554688 L 431.84375 122.636719 L 439.507812 124.722656 L 454.835938 128.902344 L 470.164062 133.097656 L 477.828125 135.199219 L 493.15625 139.417969 L 500.816406 141.53125 L 508.480469 143.648438 L 523.808594 147.898438 L 531.472656 150.03125 L 539.136719 152.167969 L 546.800781 154.308594 L 554.464844 156.15625 L 562.128906 157.324219 L 569.789062 158.511719 L 577.453125 159.710938 L 585.117188 160.929688 L 592.78125 162.160156 L 600.445312 163.410156 L 608.109375 164.671875 L 615.773438 165.949219 L 623.4375 167.238281 L 631.101562 168.539062 L 638.761719 169.855469 L 646.425781 171.1875 L 654.089844 172.527344 L 661.753906 173.878906 L 669.417969 175.242188 L 677.082031 176.621094 L 684.746094 178.003906 L 692.410156 179.941406 L 700.074219 182.097656 L 707.734375 184.257812 L 715.398438 186.425781 L 723.0625 188.597656 L 730.726562 190.773438 L 738.390625 192.957031 L 746.054688 195.144531 L 753.71875 197.339844 L 761.382812 199.542969 L 769.046875 201.75 L 776.710938 203.960938 L 784.371094 206.179688 L 792.035156 208.40625 L 799.699219 210.640625 L 807.363281 212.878906 L 815.027344 215.125 L 822.691406 217.375 L 830.355469 219.632812 L 838.019531 221.898438 L 845.683594 224.171875 "/>
<path fill="none" stroke-width="1.5" stroke-linecap="butt" stroke-linejoin="miter" stroke="rgb(50.196081%, 50.196081%, 50.196081%)" stroke-opacity="0.5" stroke-miterlimit="2" d="M 79.316406 122.648438 L 86.980469 121.382812 L 94.644531 120.136719 L 102.308594 118.910156 L 109.972656 117.707031 L 117.636719 116.523438 L 125.300781 115.367188 L 132.964844 114.226562 L 140.628906 113.113281 L 148.289062 112.019531 L 155.953125 110.945312 L 163.617188 109.898438 L 171.28125 108.871094 L 178.945312 107.867188 L 186.609375 106.886719 L 194.273438 105.925781 L 201.9375 104.992188 L 209.601562 104.078125 L 217.261719 103.1875 L 224.925781 102.320312 L 232.589844 101.480469 L 240.253906 100.660156 L 247.917969 99.863281 L 255.582031 99.089844 L 263.246094 98.339844 L 270.910156 97.617188 L 278.574219 96.914062 L 286.234375 96.238281 L 293.898438 95.585938 L 301.5625 95.421875 L 309.226562 97.839844 L 316.890625 100.273438 L 324.554688 102.71875 L 332.21875 105.175781 L 339.882812 107.644531 L 347.546875 110.128906 L 355.210938 112.519531 L 362.871094 112.660156 L 370.535156 112.828125 L 378.199219 113.019531 L 385.863281 113.230469 L 393.527344 113.464844 L 401.191406 114.328125 L 408.855469 114.660156 L 416.519531 114.886719 L 424.183594 115.136719 L 431.84375 115.414062 L 439.507812 115.722656 L 447.171875 116.066406 L 454.835938 116.449219 L 462.5 117.734375 L 470.164062 119.722656 L 477.828125 121.71875 L 485.492188 123.71875 L 493.15625 125.726562 L 500.816406 127.742188 L 508.480469 129.761719 L 516.144531 131.789062 L 523.808594 133.824219 L 531.472656 135.863281 L 539.136719 137.910156 L 546.800781 139.960938 L 554.464844 142.019531 L 562.128906 144.082031 L 569.789062 146.148438 L 577.453125 148.222656 L 592.78125 152.386719 L 600.445312 154.476562 L 608.109375 156.570312 L 615.773438 158.671875 L 623.4375 160.777344 L 631.101562 162.886719 L 638.761719 165 L 646.425781 167.117188 L 654.089844 169.242188 L 661.753906 171.371094 L 669.417969 173.507812 L 677.082031 175.648438 L 684.746094 177.792969 L 692.410156 179.402344 L 700.074219 180.808594 L 707.734375 182.222656 L 715.398438 183.644531 L 723.0625 185.078125 L 730.726562 186.519531 L 738.390625 187.96875 L 746.054688 189.425781 L 753.71875 190.890625 L 761.382812 192.363281 L 769.046875 193.84375 L 776.710938 195.328125 L 784.371094 196.820312 L 792.035156 198.316406 L 799.699219 199.820312 L 807.363281 201.328125 L 815.027344 202.84375 L 822.691406 204.363281 L 830.355469 206.191406 L 838.019531 208.621094 L 845.683594 211.066406 "/>
<path fill="none" stroke-width="1.5" stroke-linecap="butt" stroke-linejoin="miter" stroke="rgb(50.196081%, 50.196081%, 50.196081%)" stroke-opacity="0.5" stroke-miterlimit="2" d="M 79.316406 31.683594 L 86.980469 33.65625 L 94.644531 35.648438 L 102.308594 37.660156 L 109.972656 39.6875 L 117.636719 41.730469 L 125.300781 43.789062 L 132.964844 45.863281 L 140.628906 47.957031 L 148.289062 50.0625 L 155.953125 52.1875 L 163.617188 54.328125 L 171.28125 56.484375 L 178.945312 58.65625 L 186.609375 60.84375 L 194.273438 63.042969 L 201.9375 65.261719 L 209.601562 67.496094 L 217.261719 69.742188 L 224.925781 72.003906 L 232.589844 74.28125 L 240.253906 76.574219 L 247.917969 78.882812 L 255.582031 81.203125 L 263.246094 83.539062 L 270.910156 85.886719 L 278.574219 88.25 L 286.234375 90.628906 L 293.898438 93.019531 L 301.5625 94.957031 L 309.226562 94.351562 L 316.890625 93.769531 L 324.554688 93.804688 L 332.21875 95.839844 L 347.546875 99.925781 L 355.210938 101.972656 L 362.871094 104.023438 L 370.535156 106.078125 L 385.863281 110.195312 L 393.527344 112.261719 L 401.191406 113.722656 L 408.855469 114.003906 L 416.519531 114.304688 L 424.183594 114.621094 L 431.84375 114.957031 L 439.507812 115.304688 L 447.171875 115.664062 L 454.835938 116.027344 L 462.5 116.867188 L 470.164062 117.320312 L 477.828125 117.804688 L 485.492188 118.316406 L 493.15625 118.855469 L 500.816406 119.421875 L 508.480469 120.011719 L 516.144531 120.625 L 523.808594 121.261719 L 531.472656 123.078125 L 539.136719 124.90625 L 546.800781 126.738281 L 554.464844 128.574219 L 562.128906 130.417969 L 569.789062 132.261719 L 577.453125 134.105469 L 592.78125 137.808594 L 600.445312 139.664062 L 608.109375 141.632812 L 615.773438 143.652344 L 623.4375 145.683594 L 631.101562 147.734375 L 638.761719 149.796875 L 646.425781 151.875 L 654.089844 153.96875 L 661.753906 156.078125 L 669.417969 158.203125 L 677.082031 160.34375 L 684.746094 162.5 L 692.410156 164.667969 L 700.074219 166.855469 L 707.734375 169.054688 L 715.398438 171.273438 L 723.0625 173.503906 L 730.726562 175.746094 L 738.390625 178.007812 L 746.054688 180.28125 L 753.71875 182.570312 L 761.382812 184.871094 L 769.046875 187.1875 L 776.710938 189.519531 L 784.371094 191.863281 L 792.035156 194.21875 L 799.699219 196.589844 L 807.363281 198.96875 L 815.027344 201.363281 L 822.691406 203.773438 L 830.355469 205.886719 L 838.019531 207.417969 L 845.683594 208.953125 "/>
<path fill="none" stroke-width="1.5" stroke-linecap="butt" stroke-linejoin="miter" stroke="rgb(50.196081%, 50.196081%, 50.196081%)" stroke-opacity="0.5" stroke-miterlimit="2" d="M 79.316406 31.683594 L 86.980469 33.507812 L 94.644531 35.339844 L 102.308594 37.183594 L 109.972656 39.035156 L 117.636719 40.894531 L 125.300781 42.765625 L 132.964844 44.644531 L 140.628906 46.527344 L 148.289062 48.421875 L 155.953125 50.324219 L 163.617188 52.234375 L 171.28125 54.152344 L 178.945312 56.078125 L 186.609375 58.007812 L 194.273438 59.949219 L 201.9375 61.894531 L 209.601562 63.847656 L 217.261719 65.804688 L 224.925781 67.769531 L 232.589844 69.742188 L 240.253906 71.71875 L 247.917969 73.699219 L 255.582031 75.6875 L 270.910156 79.679688 L 278.574219 81.683594 L 286.234375 83.695312 L 293.898438 85.707031 L 301.5625 87.726562 L 316.890625 91.773438 L 324.554688 93.214844 L 332.21875 92.683594 L 339.882812 92.175781 L 347.546875 91.695312 L 355.210938 91.238281 L 362.871094 92.65625 L 370.535156 94.53125 L 378.199219 96.414062 L 385.863281 98.308594 L 393.527344 100.214844 L 401.191406 102.125 L 408.855469 104.046875 L 416.519531 105.980469 L 424.183594 107.917969 L 431.84375 109.867188 L 439.507812 111.820312 L 447.171875 113.785156 L 454.835938 115.757812 L 462.5 116.394531 L 470.164062 116.773438 L 477.828125 117.167969 L 485.492188 117.578125 L 493.15625 118 L 500.816406 118.445312 L 508.480469 118.90625 L 516.144531 119.4375 L 523.808594 121.257812 L 531.472656 122.253906 L 539.136719 124.128906 L 546.800781 126.015625 L 554.464844 127.917969 L 562.128906 129.835938 L 569.789062 131.765625 L 577.453125 133.707031 L 585.117188 135.667969 L 592.78125 137.640625 L 600.445312 139.628906 L 608.109375 141.519531 L 623.4375 145.238281 L 631.101562 147.101562 L 638.761719 148.960938 L 669.417969 156.414062 L 677.082031 158.273438 L 684.746094 160.136719 L 700.074219 163.855469 L 707.734375 165.714844 L 715.398438 167.570312 L 723.0625 169.421875 L 730.726562 171.277344 L 753.71875 176.820312 L 761.382812 178.664062 L 769.046875 180.503906 L 776.710938 182.339844 L 784.371094 184.175781 L 799.699219 187.839844 L 807.363281 189.667969 L 815.027344 191.492188 L 822.691406 193.3125 L 830.355469 195.433594 L 838.019531 198.152344 L 845.683594 200.875 "/>
<path fill="none" stroke-width="1.5" stroke-linecap="butt" stroke-linejoin="miter" stroke="rgb(50.196081%, 50.196081%, 50.196081%)" stroke-opacity="0.5" stroke-miterlimit="2" d="M 79.316406 31.683594 L 86.980469 33.078125 L 94.644531 34.492188 L 102.308594 35.921875 L 109.972656 37.363281 L 117.636719 38.824219 L 125.300781 40.296875 L 132.964844 41.785156 L 140.628906 43.289062 L 148.289062 44.808594 L 155.953125 46.34375 L 163.617188 47.890625 L 171.28125 49.449219 L 178.945312 51.027344 L 186.609375 52.617188 L 194.273438 54.21875 L 201.9375 55.835938 L 209.601562 57.464844 L 217.261719 59.109375 L 224.925781 60.765625 L 232.589844 62.4375 L 240.253906 64.121094 L 247.917969 65.816406 L 255.582031 67.523438 L 263.246094 69.242188 L 270.910156 70.976562 L 278.574219 72.71875 L 286.234375 74.476562 L 293.898438 76.246094 L 301.5625 78.023438 L 309.226562 79.816406 L 316.890625 81.617188 L 324.554688 83.429688 L 332.21875 85.253906 L 339.882812 87.089844 L 347.546875 88.933594 L 355.210938 90.789062 L 362.871094 90.804688 L 370.535156 90.394531 L 378.199219 90.011719 L 385.863281 89.65625 L 393.527344 91.253906 L 401.191406 92.957031 L 408.855469 94.667969 L 416.519531 96.386719 L 424.183594 98.113281 L 431.84375 99.851562 L 439.507812 101.59375 L 447.171875 103.347656 L 454.835938 105.109375 L 462.5 106.875 L 470.164062 108.652344 L 477.828125 110.433594 L 485.492188 112.222656 L 493.15625 114.015625 L 500.816406 115.816406 L 508.480469 117.625 L 516.144531 119.390625 L 523.808594 120.394531 L 531.472656 121.925781 L 539.136719 122.613281 L 546.800781 123.320312 L 554.464844 124.050781 L 562.128906 124.808594 L 569.789062 125.585938 L 577.453125 126.386719 L 585.117188 127.210938 L 592.78125 128.054688 L 600.445312 128.921875 L 608.109375 129.8125 L 615.773438 130.722656 L 623.4375 131.65625 L 631.101562 132.609375 L 638.761719 134.355469 L 646.425781 136.335938 L 654.089844 138.328125 L 661.753906 140.332031 L 669.417969 142.347656 L 677.082031 144.375 L 684.746094 146.417969 L 692.410156 148.472656 L 700.074219 150.539062 L 707.734375 152.617188 L 715.398438 155.195312 L 723.0625 157.847656 L 730.726562 160.503906 L 738.390625 163.164062 L 746.054688 165.828125 L 753.71875 168.496094 L 761.382812 171.171875 L 776.710938 176.53125 L 784.371094 179.21875 L 792.035156 181.910156 L 807.363281 187.308594 L 815.027344 190.011719 L 822.691406 192.722656 L 830.355469 195.132812 L 838.019531 196.949219 L 845.683594 198.761719 "/>
<path fill="none" stroke-width="1.5" stroke-linecap="butt" stroke-linejoin="miter" stroke="rgb(50.196081%, 50.196081%, 50.196081%)" stroke-opacity="0.5" stroke-miterlimit="2" d="M 79.316406 31.683594 L 86.980469 32.917969 L 94.644531 34.164062 L 102.308594 35.417969 L 109.972656 36.6875 L 117.636719 37.964844 L 125.300781 39.253906 L 132.964844 40.550781 L 140.628906 41.859375 L 148.289062 43.179688 L 155.953125 44.511719 L 163.617188 45.851562 L 171.28125 47.199219 L 178.945312 48.558594 L 186.609375 49.929688 L 194.273438 51.308594 L 201.9375 52.699219 L 209.601562 54.097656 L 217.261719 55.507812 L 224.925781 56.929688 L 232.589844 58.359375 L 240.253906 59.796875 L 247.917969 61.246094 L 255.582031 62.707031 L 263.246094 64.175781 L 270.910156 65.652344 L 278.574219 67.144531 L 286.234375 68.640625 L 293.898438 70.152344 L 301.5625 71.667969 L 309.226562 73.207031 L 316.890625 74.792969 L 324.554688 76.390625 L 332.21875 78 L 339.882812 79.621094 L 347.546875 81.253906 L 355.210938 82.894531 L 362.871094 84.546875 L 370.535156 86.207031 L 378.199219 87.882812 L 385.863281 89.5625 L 393.527344 90.691406 L 401.191406 92.34375 L 408.855469 94.011719 L 416.519531 95.6875 L 424.183594 97.375 L 431.84375 99.070312 L 439.507812 100.78125 L 447.171875 102.503906 L 454.835938 104.238281 L 462.5 105.980469 L 470.164062 107.738281 L 477.828125 109.507812 L 485.492188 111.292969 L 493.15625 113.085938 L 500.816406 114.894531 L 508.480469 116.714844 L 516.144531 118.546875 L 523.808594 119.890625 L 531.472656 120.414062 L 539.136719 120.953125 L 546.800781 121.515625 L 554.464844 122.09375 L 562.128906 122.695312 L 569.789062 123.316406 L 577.453125 123.957031 L 585.117188 124.617188 L 592.78125 125.300781 L 600.445312 126 L 608.109375 126.71875 L 615.773438 128.5 L 623.4375 130.441406 L 631.101562 132.390625 L 638.761719 133.582031 L 646.425781 134.578125 L 654.089844 135.59375 L 661.753906 136.75 L 669.417969 139.371094 L 684.746094 144.628906 L 692.410156 147.265625 L 700.074219 149.90625 L 707.734375 152.546875 L 715.398438 154.707031 L 723.0625 156.808594 L 730.726562 158.925781 L 738.390625 161.050781 L 746.054688 163.1875 L 753.71875 165.335938 L 761.382812 167.496094 L 769.046875 169.667969 L 776.710938 171.851562 L 784.371094 174.046875 L 792.035156 176.253906 L 799.699219 178.46875 L 807.363281 180.695312 L 815.027344 182.933594 L 822.691406 185.179688 L 830.355469 187.4375 L 838.019531 189.703125 L 845.683594 191.984375 "/>
<path fill="none" stroke-width="1.5" stroke-linecap="butt" stroke-linejoin="miter" stroke="rgb(50.196081%, 50.196081%, 50.196081%)" stroke-opacity="0.5" stroke-miterlimit="2" d="M 79.316406 31.683594 L 86.980469 32.855469 L 94.644531 34.046875 L 102.308594 35.253906 L 109.972656 36.472656 L 117.636719 37.710938 L 125.300781 38.960938 L 132.964844 40.226562 L 140.628906 41.507812 L 148.289062 42.804688 L 155.953125 44.117188 L 163.617188 45.441406 L 171.28125 46.78125 L 178.945312 48.136719 L 186.609375 49.503906 L 194.273438 50.886719 L 201.9375 52.28125 L 209.601562 53.691406 L 217.261719 55.117188 L 224.925781 56.554688 L 232.589844 58.003906 L 240.253906 59.46875 L 247.917969 60.945312 L 255.582031 62.433594 L 263.246094 63.9375 L 270.910156 65.449219 L 278.574219 66.976562 L 286.234375 68.515625 L 293.898438 70.070312 L 301.5625 71.632812 L 309.226562 73.199219 L 316.890625 74.738281 L 324.554688 76.285156 L 332.21875 77.84375 L 339.882812 79.414062 L 347.546875 80.992188 L 355.210938 82.582031 L 362.871094 84.183594 L 370.535156 85.796875 L 378.199219 87.417969 L 385.863281 89.046875 L 393.527344 89.324219 L 401.191406 89.015625 L 408.855469 88.734375 L 416.519531 88.476562 L 424.183594 88.242188 L 431.84375 88.035156 L 439.507812 87.878906 L 447.171875 89.476562 L 454.835938 91.089844 L 462.5 92.71875 L 470.164062 94.363281 L 477.828125 96.027344 L 485.492188 97.703125 L 493.15625 99.394531 L 500.816406 101.101562 L 508.480469 102.828125 L 516.144531 104.566406 L 523.808594 106.320312 L 531.472656 108.089844 L 539.136719 109.871094 L 546.800781 111.671875 L 554.464844 113.484375 L 562.128906 115.3125 L 569.789062 117.15625 L 577.453125 119.011719 L 585.117188 120.882812 L 592.78125 122.765625 L 600.445312 124.664062 L 608.109375 126.574219 L 615.773438 127.457031 L 623.4375 128.214844 L 631.101562 128.992188 L 638.761719 129.789062 L 646.425781 131.515625 L 654.089844 134.128906 L 661.753906 136.632812 L 669.417969 137.6875 L 677.082031 138.765625 L 684.746094 139.863281 L 692.410156 140.976562 L 700.074219 142.113281 L 707.734375 143.265625 L 715.398438 144.441406 L 723.0625 145.632812 L 730.726562 146.839844 L 738.390625 148.066406 L 746.054688 149.3125 L 753.71875 151.265625 L 761.382812 153.796875 L 776.710938 158.867188 L 784.371094 161.40625 L 792.035156 163.945312 L 807.363281 169.03125 L 815.027344 171.578125 L 830.355469 176.679688 L 845.683594 181.789062 "/>
<path fill="none" stroke-width="1.5" stroke-linecap="butt" stroke-linejoin="miter" stroke="rgb(50.196081%, 50.196081%, 50.196081%)" stroke-opacity="0.5" stroke-miterlimit="2" d="M 79.316406 31.683594 L 86.980469 32.492188 L 94.644531 33.316406 L 102.308594 34.160156 L 109.972656 35.019531 L 117.636719 35.894531 L 125.300781 36.785156 L 132.964844 37.695312 L 140.628906 38.621094 L 148.289062 39.566406 L 155.953125 40.527344 L 163.617188 41.503906 L 171.28125 42.496094 L 178.945312 43.507812 L 186.609375 44.535156 L 194.273438 45.578125 L 201.9375 46.640625 L 209.601562 47.71875 L 217.261719 48.8125 L 224.925781 49.925781 L 232.589844 51.054688 L 240.253906 52.199219 L 247.917969 53.359375 L 255.582031 54.539062 L 263.246094 55.734375 L 270.910156 56.949219 L 278.574219 58.179688 L 286.234375 59.425781 L 293.898438 60.6875 L 301.5625 61.96875 L 309.226562 63.265625 L 316.890625 64.578125 L 324.554688 65.910156 L 332.21875 67.257812 L 339.882812 68.621094 L 347.546875 70.003906 L 355.210938 71.402344 L 362.871094 72.816406 L 370.535156 74.246094 L 378.199219 75.695312 L 385.863281 77.160156 L 393.527344 78.644531 L 401.191406 80.140625 L 408.855469 81.65625 L 416.519531 83.1875 L 424.183594 84.734375 L 431.84375 86.300781 L 439.507812 87.855469 L 447.171875 87.699219 L 454.835938 87.566406 L 462.5 87.460938 L 470.164062 87.382812 L 477.828125 87.324219 L 485.492188 87.296875 L 493.15625 87.6875 L 500.816406 89.179688 L 508.480469 90.691406 L 516.144531 92.214844 L 523.808594 93.753906 L 531.472656 95.304688 L 539.136719 96.871094 L 546.800781 98.449219 L 554.464844 100.339844 L 562.128906 102.925781 L 569.789062 105.515625 L 585.117188 110.695312 L 600.445312 115.882812 L 608.109375 118.484375 L 615.773438 121.082031 L 631.101562 126.292969 L 638.761719 128.902344 L 646.425781 130.605469 L 654.089844 131.4375 L 661.753906 132.289062 L 669.417969 133.160156 L 677.082031 134.050781 L 684.746094 134.957031 L 692.410156 135.878906 L 700.074219 136.824219 L 707.734375 137.78125 L 715.398438 138.757812 L 723.0625 141.152344 L 746.054688 148.734375 L 753.71875 150.574219 L 761.382812 151.855469 L 769.046875 153.152344 L 776.710938 154.464844 L 784.371094 155.792969 L 792.035156 157.140625 L 799.699219 158.5 L 807.363281 159.878906 L 815.027344 161.269531 L 822.691406 162.679688 L 830.355469 164.101562 L 838.019531 165.539062 L 845.683594 166.988281 "/>
<path fill="none" stroke-width="1.5" stroke-linecap="butt" stroke-linejoin="miter" stroke="rgb(50.196081%, 50.196081%, 50.196081%)" stroke-opacity="0.5" stroke-miterlimit="2" d="M 79.316406 31.683594 L 86.980469 32.421875 L 94.644531 33.175781 L 102.308594 33.9375 L 109.972656 34.707031 L 117.636719 35.488281 L 125.300781 36.277344 L 132.964844 37.078125 L 140.628906 37.886719 L 148.289062 38.703125 L 155.953125 39.53125 L 163.617188 40.367188 L 171.28125 41.214844 L 178.945312 42.070312 L 186.609375 42.933594 L 194.273438 43.808594 L 201.9375 44.691406 L 209.601562 45.582031 L 217.261719 46.484375 L 224.925781 47.394531 L 232.589844 48.3125 L 240.253906 49.242188 L 247.917969 50.179688 L 255.582031 51.125 L 263.246094 52.078125 L 270.910156 53.042969 L 278.574219 54.015625 L 286.234375 55 L 293.898438 55.988281 L 301.5625 56.988281 L 309.226562 57.996094 L 316.890625 59.011719 L 324.554688 60.039062 L 332.21875 61.074219 L 339.882812 62.117188 L 347.546875 63.167969 L 355.210938 64.226562 L 362.871094 65.296875 L 370.535156 66.375 L 378.199219 67.460938 L 385.863281 68.558594 L 393.527344 69.683594 L 401.191406 70.972656 L 408.855469 72.273438 L 416.519531 73.59375 L 424.183594 74.933594 L 431.84375 76.285156 L 439.507812 77.652344 L 447.171875 79.039062 L 454.835938 80.441406 L 462.5 81.859375 L 470.164062 83.292969 L 477.828125 84.742188 L 485.492188 86.207031 L 493.15625 87.289062 L 500.816406 87.3125 L 508.480469 88.132812 L 516.144531 89.496094 L 523.808594 90.871094 L 531.472656 92.585938 L 539.136719 95.167969 L 546.800781 97.753906 L 554.464844 100.042969 L 562.128906 101.648438 L 569.789062 103.265625 L 577.453125 104.894531 L 585.117188 106.535156 L 592.78125 108.1875 L 600.445312 109.851562 L 608.109375 111.527344 L 615.773438 113.210938 L 623.4375 114.902344 L 631.101562 116.609375 L 638.761719 118.320312 L 646.425781 120.042969 L 654.089844 121.769531 L 661.753906 123.507812 L 669.417969 125.253906 L 677.082031 127.003906 L 684.746094 128.761719 L 692.410156 131.066406 L 700.074219 133.585938 L 707.734375 136.109375 L 715.398438 138.628906 L 723.0625 139.753906 L 730.726562 140.761719 L 738.390625 141.789062 L 746.054688 143.015625 L 753.71875 144.816406 L 769.046875 148.425781 L 776.710938 150.234375 L 784.371094 152.042969 L 799.699219 155.667969 L 830.355469 162.933594 L 838.019531 164.753906 L 845.683594 166.570312 "/>
<path fill="none" stroke-width="1.5" stroke-linecap="butt" stroke-linejoin="miter" stroke="rgb(50.196081%, 50.196081%, 50.196081%)" stroke-opacity="0.5" stroke-miterlimit="2" d="M 79.316406 31.683594 L 86.980469 32.339844 L 94.644531 33.003906 L 102.308594 33.679688 L 109.972656 34.367188 L 117.636719 35.058594 L 125.300781 35.761719 L 132.964844 36.476562 L 140.628906 37.195312 L 148.289062 37.925781 L 155.953125 38.664062 L 163.617188 39.410156 L 171.28125 40.167969 L 178.945312 40.929688 L 186.609375 41.703125 L 194.273438 42.484375 L 201.9375 43.273438 L 209.601562 44.078125 L 217.261719 44.949219 L 224.925781 45.835938 L 232.589844 46.738281 L 240.253906 47.652344 L 247.917969 48.582031 L 255.582031 49.527344 L 263.246094 50.488281 L 270.910156 51.460938 L 278.574219 52.449219 L 286.234375 53.464844 L 293.898438 54.511719 L 301.5625 55.578125 L 309.226562 56.65625 L 316.890625 57.757812 L 324.554688 58.871094 L 332.21875 60.003906 L 339.882812 61.15625 L 347.546875 62.320312 L 355.210938 63.507812 L 362.871094 64.707031 L 370.535156 65.925781 L 378.199219 67.164062 L 393.527344 69.664062 L 401.191406 70.777344 L 408.855469 71.902344 L 416.519531 73.039062 L 424.183594 74.1875 L 431.84375 75.351562 L 439.507812 76.535156 L 447.171875 77.742188 L 454.835938 78.972656 L 462.5 80.230469 L 470.164062 81.507812 L 477.828125 82.804688 L 485.492188 84.117188 L 493.15625 85.441406 L 500.816406 86.78125 L 508.480469 87.355469 L 516.144531 88.261719 L 523.808594 90 L 531.472656 92.253906 L 539.136719 93.648438 L 546.800781 95.054688 L 554.464844 96.472656 L 562.128906 97.898438 L 569.789062 99.335938 L 577.453125 100.78125 L 585.117188 102.238281 L 592.78125 103.703125 L 600.445312 105.175781 L 608.109375 106.660156 L 615.773438 108.15625 L 623.4375 109.65625 L 631.101562 111.167969 L 638.761719 113.464844 L 661.753906 121 L 677.082031 126.03125 L 684.746094 128.550781 L 692.410156 130.527344 L 700.074219 132.296875 L 707.734375 134.070312 L 715.398438 135.851562 L 723.0625 137.636719 L 730.726562 139.425781 L 738.390625 141.21875 L 746.054688 142.832031 L 753.71875 143.890625 L 761.382812 144.96875 L 769.046875 146.058594 L 776.710938 147.164062 L 784.371094 148.285156 L 792.035156 149.421875 L 799.699219 150.574219 L 807.363281 151.738281 L 815.027344 152.917969 L 822.691406 154.113281 L 830.355469 155.320312 L 838.019531 156.542969 L 845.683594 157.777344 "/>
<path fill="none" stroke-width="1.5" stroke-linecap="butt" stroke-linejoin="miter" stroke="rgb(50.196081%, 50.196081%, 50.196081%)" stroke-opacity="0.5" stroke-miterlimit="2" d="M 79.316406 31.683594 L 86.980469 32.28125 L 94.644531 32.894531 L 102.308594 33.527344 L 109.972656 34.175781 L 117.636719 34.839844 L 125.300781 35.523438 L 132.964844 36.21875 L 140.628906 36.933594 L 148.289062 37.664062 L 155.953125 38.414062 L 163.617188 39.175781 L 171.28125 39.953125 L 178.945312 40.746094 L 186.609375 41.558594 L 194.273438 42.382812 L 201.9375 43.222656 L 209.601562 44.070312 L 217.261719 44.875 L 224.925781 45.710938 L 232.589844 46.621094 L 240.253906 47.546875 L 247.917969 48.492188 L 255.582031 49.449219 L 263.246094 50.429688 L 270.910156 51.421875 L 278.574219 52.4375 L 286.234375 53.449219 L 293.898438 54.464844 L 301.5625 55.492188 L 309.226562 56.535156 L 316.890625 57.589844 L 324.554688 58.660156 L 332.21875 59.742188 L 339.882812 60.839844 L 347.546875 61.945312 L 355.210938 63.066406 L 362.871094 64.199219 L 370.535156 65.347656 L 378.199219 66.503906 L 385.863281 67.671875 L 393.527344 68.855469 L 401.191406 70.046875 L 408.855469 71.246094 L 416.519531 72.457031 L 424.183594 73.671875 L 431.84375 74.894531 L 439.507812 76.117188 L 447.171875 77.335938 L 454.835938 78.550781 L 462.5 79.757812 L 470.164062 80.960938 L 485.492188 83.375 L 493.15625 84.589844 L 500.816406 85.804688 L 508.480469 87.03125 L 516.144531 87.425781 L 523.808594 89.496094 L 531.472656 90.742188 L 539.136719 91.992188 L 546.800781 93.25 L 554.464844 94.515625 L 562.128906 95.789062 L 569.789062 97.066406 L 577.453125 98.351562 L 585.117188 99.644531 L 592.78125 100.945312 L 600.445312 102.253906 L 608.109375 103.566406 L 615.773438 105.933594 L 623.4375 108.441406 L 631.101562 110.953125 L 638.761719 112.6875 L 646.425781 114.21875 L 654.089844 115.757812 L 661.753906 117.300781 L 669.417969 118.859375 L 677.082031 120.421875 L 684.746094 121.992188 L 692.410156 123.574219 L 700.074219 125.160156 L 707.734375 126.757812 L 715.398438 128.363281 L 723.0625 129.976562 L 730.726562 131.597656 L 738.390625 133.222656 L 746.054688 134.859375 L 753.71875 136.503906 L 761.382812 138.15625 L 769.046875 139.8125 L 776.710938 141.480469 L 784.371094 143.152344 L 792.035156 144.832031 L 807.363281 148.214844 L 815.027344 149.917969 L 822.691406 151.628906 L 830.355469 153.34375 L 838.019531 155.066406 L 845.683594 156.796875 "/>
<path fill="none" stroke-width="1.5" stroke-linecap="butt" stroke-linejoin="miter" stroke="rgb(50.196081%, 50.196081%, 50.196081%)" stroke-opacity="0.5" stroke-miterlimit="2" d="M 79.316406 31.683594 L 86.980469 32.269531 L 94.644531 32.871094 L 102.308594 33.488281 L 109.972656 34.125 L 117.636719 34.78125 L 125.300781 35.449219 L 132.964844 36.136719 L 140.628906 36.839844 L 148.289062 37.5625 L 155.953125 38.300781 L 163.617188 39.054688 L 171.28125 39.828125 L 178.945312 40.617188 L 186.609375 41.425781 L 194.273438 42.246094 L 201.9375 43.089844 L 209.601562 43.945312 L 217.261719 44.820312 L 224.925781 45.691406 L 232.589844 46.511719 L 240.253906 47.34375 L 247.917969 48.179688 L 255.582031 49.027344 L 263.246094 49.878906 L 270.910156 50.742188 L 278.574219 51.613281 L 286.234375 52.492188 L 293.898438 53.375 L 301.5625 54.269531 L 309.226562 55.171875 L 316.890625 56.082031 L 324.554688 57 L 332.21875 57.925781 L 339.882812 58.859375 L 347.546875 59.800781 L 355.210938 60.75 L 362.871094 61.707031 L 370.535156 62.671875 L 378.199219 63.644531 L 385.863281 64.625 L 393.527344 65.613281 L 401.191406 66.613281 L 408.855469 67.617188 L 416.519531 68.632812 L 424.183594 69.65625 L 431.84375 70.683594 L 439.507812 71.726562 L 447.171875 72.773438 L 454.835938 73.828125 L 462.5 74.894531 L 470.164062 75.96875 L 477.828125 77.050781 L 485.492188 78.144531 L 493.15625 79.671875 L 500.816406 82.253906 L 516.144531 87.417969 L 523.808594 87.519531 L 531.472656 87.640625 L 539.136719 87.785156 L 546.800781 87.957031 L 554.464844 88.40625 L 562.128906 89.597656 L 569.789062 90.902344 L 600.445312 100.917969 L 608.109375 103.425781 L 615.773438 104.890625 L 623.4375 106.21875 L 631.101562 107.550781 L 638.761719 108.894531 L 646.425781 110.242188 L 654.089844 111.597656 L 661.753906 112.960938 L 669.417969 114.328125 L 677.082031 115.703125 L 684.746094 117.085938 L 692.410156 118.476562 L 700.074219 119.871094 L 707.734375 121.273438 L 715.398438 122.679688 L 723.0625 124.097656 L 730.726562 125.519531 L 738.390625 126.945312 L 746.054688 128.5625 L 753.71875 130.746094 L 761.382812 132.917969 L 769.046875 135.085938 L 776.710938 137.246094 L 784.371094 139.402344 L 792.035156 141.546875 L 799.699219 143.6875 L 807.363281 145.820312 L 815.027344 147.945312 L 822.691406 150.066406 L 830.355469 152.175781 L 838.019531 154.28125 L 845.683594 156.378906 "/>
<path fill="none" stroke-width="1.5" stroke-linecap="butt" stroke-linejoin="miter" stroke="rgb(50.196081%, 50.196081%, 50.196081%)" stroke-opacity="0.5" stroke-miterlimit="2" d="M 79.316406 31.683594 L 86.980469 32.117188 L 94.644531 32.558594 L 102.308594 33.011719 L 109.972656 33.476562 L 117.636719 33.945312 L 125.300781 34.425781 L 132.964844 34.917969 L 140.628906 35.414062 L 148.289062 35.921875 L 155.953125 36.4375 L 163.617188 36.964844 L 171.28125 37.496094 L 178.945312 38.039062 L 186.609375 38.589844 L 194.273438 39.152344 L 201.9375 39.71875 L 209.601562 40.296875 L 217.261719 40.882812 L 224.925781 41.476562 L 232.589844 42.078125 L 240.253906 42.691406 L 247.917969 43.308594 L 255.582031 43.9375 L 263.246094 44.574219 L 270.910156 45.21875 L 278.574219 45.871094 L 286.234375 46.53125 L 293.898438 47.199219 L 301.5625 47.878906 L 309.226562 48.5625 L 316.890625 49.257812 L 324.554688 49.960938 L 332.21875 50.671875 L 339.882812 51.390625 L 347.546875 52.117188 L 355.210938 52.851562 L 362.871094 53.597656 L 370.535156 54.351562 L 378.199219 55.109375 L 385.863281 55.878906 L 393.527344 56.65625 L 401.191406 57.441406 L 408.855469 58.238281 L 416.519531 59.039062 L 424.183594 59.851562 L 431.84375 60.667969 L 439.507812 61.59375 L 447.171875 64.179688 L 485.492188 77.089844 L 493.15625 79.246094 L 500.816406 80.355469 L 508.480469 81.476562 L 516.144531 82.609375 L 523.808594 83.746094 L 531.472656 84.898438 L 539.136719 86.058594 L 546.800781 87.226562 L 554.464844 88.148438 L 562.128906 88.402344 L 569.789062 90.800781 L 577.453125 92.011719 L 585.117188 93.238281 L 592.78125 94.472656 L 600.445312 95.71875 L 608.109375 96.976562 L 615.773438 98.246094 L 623.4375 99.527344 L 631.101562 100.824219 L 638.761719 102.128906 L 646.425781 103.449219 L 654.089844 104.78125 L 661.753906 106.125 L 669.417969 107.480469 L 677.082031 108.851562 L 684.746094 110.894531 L 692.410156 113.121094 L 700.074219 115.34375 L 707.734375 117.5625 L 715.398438 119.773438 L 723.0625 121.980469 L 730.726562 124.179688 L 738.390625 126.375 L 746.054688 128.378906 L 753.71875 129.820312 L 761.382812 131.265625 L 769.046875 132.71875 L 776.710938 134.179688 L 784.371094 135.644531 L 792.035156 137.113281 L 807.363281 140.074219 L 815.027344 141.566406 L 822.691406 143.0625 L 830.355469 144.5625 L 838.019531 146.070312 L 845.683594 147.585938 "/>
<path fill="none" stroke-width="1" stroke-linecap="butt" stroke-linejoin="miter" stroke="rgb(0%, 0%, 0%)" stroke-opacity="1" stroke-miterlimit="1.154701" d="M 79.316406 361.5 L 79.316406 366.5 "/>
<path fill="none" stroke-width="1" stroke-linecap="butt" stroke-linejoin="miter" stroke="rgb(0%, 0%, 0%)" stroke-opacity="1" stroke-miterlimit="1.154701" d="M 270.910156 361.5 L 270.910156 366.5 "/>
<path fill="none" stroke-width="1" stroke-linecap="butt" stroke-linejoin="miter" stroke="rgb(0%, 0%, 0%)" stroke-opacity="1" stroke-miterlimit="1.154701" d="M 462.5 361.5 L 462.5 366.5 "/>
<path fill="none" stroke-width="1" stroke-linecap="butt" stroke-linejoin="miter" stroke="rgb(0%, 0%, 0%)" stroke-opacity="1" stroke-miterlimit="1.154701" d="M 654.089844 361.5 L 654.089844 366.5 "/>
<path fill="none" stroke-width="1" stroke-linecap="butt" stroke-linejoin="miter" stroke="rgb(0%, 0%, 0%)" stroke-opacity="1" stroke-miterlimit="1.154701" d="M 845.683594 361.5 L 845.683594 366.5 "/>
<path fill="none" stroke-width="1" stroke-linecap="butt" stroke-linejoin="miter" stroke="rgb(0%, 0%, 0%)" stroke-opacity="1" stroke-miterlimit="1.154701" d="M 40.5 304.582031 L 35.5 304.582031 "/>
<path fill="none" stroke-width="1" stroke-linecap="butt" stroke-linejoin="miter" stroke="rgb(0%, 0%, 0%)" stroke-opacity="1" stroke-miterlimit="1.154701" d="M 40.5 213.617188 L 35.5 213.617188 "/>
<path fill="none" stroke-width="1" stroke-linecap="butt" stroke-linejoin="miter" stroke="rgb(0%, 0%, 0%)" stroke-opacity="1" stroke-miterlimit="1.154701" d="M 40.5 122.648438 L 35.5 122.648438 "/>
<path fill="none" stroke-width="1" stroke-linecap="butt" stroke-linejoin="miter" stroke="rgb(0%, 0%, 0%)" stroke-opacity="1" stroke-miterlimit="1.154701" d="M 40.5 31.683594 L 35.5 31.683594 "/>
<path fill="none" stroke-width="1" stroke-linecap="butt" stroke-linejoin="miter" stroke="rgb(0%, 0%, 0%)" stroke-opacity="1" stroke-miterlimit="1.154701" d="M 40.5 361 L 884.5 361 "/>
<path fill="none" stroke-width="1" stroke-linecap="butt" stroke-linejoin="miter" stroke="rgb(0%, 0%, 0%)" stroke-opacity="1" stroke-miterlimit="1.154701" d="M 41 361.5 L 41 15.5 "/>
<path fill="none" stroke-width="1" stroke-linecap="butt" stroke-linejoin="miter" stroke="rgb(0%, 0%, 0%)" stroke-opacity="1" stroke-miterlimit="1.154701" d="M 40.5 16 L 884.5 16 "/>
<path fill="none" stroke-width="1" stroke-linecap="butt" stroke-linejoin="miter" stroke="rgb(0%, 0%, 0%)" stroke-opacity="1" stroke-miterlimit="1.154701" d="M 884 361.5 L 884 15.5 "/>
</svg>
