<?xml version="1.0" encoding="UTF-8"?>
<svg xmlns="http://www.w3.org/2000/svg" xmlns:xlink="http://www.w3.org/1999/xlink" width="900" height="400" viewBox="0 0 900 400">
<defs>
<g>
<g id="glyph-0-0-837b3456">
<path d="M 7.09375 -4.78125 C 7.09375 -1.515625 5.953125 0.203125 3.84375 0.203125 C 1.71875 0.203125 0.609375 -1.515625 0.609375 -4.859375 C 0.609375 -8.1875 1.703125 -9.921875 3.84375 -9.921875 C 6 -9.921875 7.09375 -8.21875 7.09375 -4.78125 Z M 5.84375 -4.890625 C 5.84375 -7.546875 5.1875 -8.828125 3.84375 -8.828125 C 2.515625 -8.828125 1.859375 -7.5625 1.859375 -4.84375 C 1.859375 -2.125 2.515625 -0.8125 3.828125 -0.8125 C 5.1875 -0.8125 5.84375 -2.078125 5.84375 -4.890625 Z M 5.84375 -4.890625 "/>
</g>
<g id="glyph-0-1-837b3456">
<path d="M 2.671875 0 C 2.671875 0 1.21875 0 1.21875 0 C 1.21875 0 1.21875 -1.453125 1.21875 -1.453125 C 1.21875 -1.453125 2.671875 -1.453125 2.671875 -1.453125 C 2.671875 -1.453125 2.671875 0 2.671875 0 Z M 2.671875 0 "/>
</g>
<g id="glyph-0-2-837b3456">
<path d="M 8.296875 -9.0625 C 8.296875 -9.0625 4.953125 -9.0625 4.953125 -9.0625 C 4.953125 -9.0625 4.953125 0 4.953125 0 C 4.953125 0 3.65625 0 3.65625 0 C 3.65625 0 3.65625 -9.0625 3.65625 -9.0625 C 3.65625 -9.0625 0.296875 -9.0625 0.296875 -9.0625 C 0.296875 -9.0625 0.296875 -10.203125 0.296875 -10.203125 C 0.296875 -10.203125 8.296875 -10.203125 8.296875 -10.203125 C 8.296875 -10.203125 8.296875 -9.0625 8.296875 -9.0625 Z M 8.296875 -9.0625 "/>
</g>
<g id="glyph-0-3-837b3456">
<path d="M 7.15625 -7.015625 C 7.15625 -5.796875 6.4375 -4.765625 5.046875 -4.015625 C 5.046875 -4.015625 3.65625 -3.265625 3.65625 -3.265625 C 2.4375 -2.546875 1.984375 -2.03125 1.859375 -1.21875 C 1.859375 -1.21875 7.078125 -1.21875 7.078125 -1.21875 C 7.078125 -1.21875 7.078125 0 7.078125 0 C 7.078125 0 0.46875 0 0.46875 0 C 0.59375 -2.1875 1.1875 -3.125 3.265625 -4.296875 C 3.265625 -4.296875 4.546875 -5.03125 4.546875 -5.03125 C 5.4375 -5.53125 5.890625 -6.203125 5.890625 -6.984375 C 5.890625 -8.046875 5.046875 -8.84375 3.9375 -8.84375 C 2.71875 -8.84375 2.03125 -8.140625 1.9375 -6.484375 C 1.9375 -6.484375 0.703125 -6.484375 0.703125 -6.484375 C 0.765625 -8.890625 1.953125 -9.921875 3.96875 -9.921875 C 5.859375 -9.921875 7.15625 -8.6875 7.15625 -7.015625 Z M 7.15625 -7.015625 "/>
</g>
<g id="glyph-0-4-837b3456">
<path d="M 7.1875 -3.296875 C 7.1875 -1.1875 5.78125 0.203125 3.78125 0.203125 C 2.015625 0.203125 0.890625 -0.578125 0.484375 -2.546875 C 0.484375 -2.546875 1.71875 -2.546875 1.71875 -2.546875 C 2.015625 -1.421875 2.671875 -0.875 3.75 -0.875 C 5.09375 -0.875 5.921875 -1.6875 5.921875 -3.125 C 5.921875 -4.59375 5.078125 -5.453125 3.75 -5.453125 C 2.984375 -5.453125 2.5 -5.203125 1.9375 -4.515625 C 1.9375 -4.515625 0.796875 -4.515625 0.796875 -4.515625 C 0.796875 -4.515625 1.546875 -9.71875 1.546875 -9.71875 C 1.546875 -9.71875 6.65625 -9.71875 6.65625 -9.71875 C 6.65625 -9.71875 6.65625 -8.5 6.65625 -8.5 C 6.65625 -8.5 2.53125 -8.5 2.53125 -8.5 C 2.53125 -8.5 2.140625 -5.9375 2.140625 -5.9375 C 2.71875 -6.359375 3.28125 -6.53125 3.96875 -6.53125 C 5.875 -6.53125 7.1875 -5.25 7.1875 -3.296875 Z M 7.1875 -3.296875 "/>
</g>
<g id="glyph-0-5-837b3456">
<path d="M 7.28125 -8.6875 C 5.1875 -6.203125 3.796875 -3.203125 3.25 0 C 3.25 0 1.9375 0 1.9375 0 C 2.625 -3.109375 4.03125 -6 6 -8.5 C 6 -8.5 0.640625 -8.5 0.640625 -8.5 C 0.640625 -8.5 0.640625 -9.71875 0.640625 -9.71875 C 0.640625 -9.71875 7.28125 -9.71875 7.28125 -9.71875 C 7.28125 -9.71875 7.28125 -8.6875 7.28125 -8.6875 Z M 7.28125 -8.6875 "/>
</g>
<g id="glyph-0-6-837b3456">
<path d="M 4.859375 0 C 4.859375 0 3.625 0 3.625 0 C 3.625 0 3.625 -7.0625 3.625 -7.0625 C 3.625 -7.0625 1.421875 -7.0625 1.421875 -7.0625 C 1.421875 -7.0625 1.421875 -7.953125 1.421875 -7.953125 C 3.328125 -8.1875 3.609375 -8.40625 4.046875 -9.921875 C 4.046875 -9.921875 4.859375 -9.921875 4.859375 -9.921875 C 4.859375 -9.921875 4.859375 0 4.859375 0 Z M 4.859375 0 "/>
</g>
<g id="glyph-0-7-837b3456">
<path d="M 7.21875 -3.03125 C 7.21875 -3.03125 0.953125 -3.03125 0.953125 -3.03125 C 0.953125 -3.03125 0.953125 -3.96875 0.953125 -3.96875 C 0.953125 -3.96875 7.21875 -3.96875 7.21875 -3.96875 C 7.21875 -3.96875 7.21875 -3.03125 7.21875 -3.03125 Z M 7.21875 -3.03125 "/>
</g>
<g id="glyph-0-8-837b3456">
<path d="M 7.28125 -2.375 C 7.28125 -2.375 5.8125 -2.375 5.8125 -2.375 C 5.8125 -2.375 5.8125 0 5.8125 0 C 5.8125 0 4.578125 0 4.578125 0 C 4.578125 0 4.578125 -2.375 4.578125 -2.375 C 4.578125 -2.375 0.390625 -2.375 0.390625 -2.375 C 0.390625 -2.375 0.390625 -3.6875 0.390625 -3.6875 C 0.390625 -3.6875 4.90625 -9.921875 4.90625 -9.921875 C 4.90625 -9.921875 5.8125 -9.921875 5.8125 -9.921875 C 5.8125 -9.921875 5.8125 -3.484375 5.8125 -3.484375 C 5.8125 -3.484375 7.28125 -3.484375 7.28125 -3.484375 C 7.28125 -3.484375 7.28125 -2.375 7.28125 -2.375 Z M 4.578125 -3.484375 C 4.578125 -3.484375 4.578125 -7.828125 4.578125 -7.828125 C 4.578125 -7.828125 1.46875 -3.484375 1.46875 -3.484375 C 1.46875 -3.484375 4.578125 -3.484375 4.578125 -3.484375 Z M 4.578125 -3.484375 "/>
</g>
<g id="glyph-0-9-837b3456">
<path d="M 7.078125 -2.890625 C 7.078125 -1.015625 5.765625 0.203125 3.71875 0.203125 C 1.6875 0.203125 0.609375 -0.78125 0.453125 -3 C 0.453125 -3 1.6875 -3 1.6875 -3 C 1.765625 -1.546875 2.421875 -0.875 3.765625 -0.875 C 5.046875 -0.875 5.828125 -1.625 5.828125 -2.875 C 5.828125 -3.96875 5.125 -4.625 3.765625 -4.625 C 3.765625 -4.625 3.09375 -4.625 3.09375 -4.625 C 3.09375 -4.625 3.09375 -5.65625 3.09375 -5.65625 C 5.0625 -5.65625 5.53125 -6.09375 5.53125 -7.15625 C 5.53125 -8.203125 4.875 -8.84375 3.78125 -8.84375 C 2.515625 -8.84375 1.921875 -8.1875 1.890625 -6.71875 C 1.890625 -6.71875 0.65625 -6.71875 0.65625 -6.71875 C 0.703125 -8.828125 1.765625 -9.921875 3.765625 -9.921875 C 5.65625 -9.921875 6.796875 -8.90625 6.796875 -7.203125 C 6.796875 -6.203125 6.328125 -5.5625 5.40625 -5.1875 C 6.59375 -4.78125 7.078125 -4.09375 7.078125 -2.890625 Z M 7.078125 -2.890625 "/>
</g>
<g id="glyph-1-0-837b3456">
<path d="M 7.09375 -4.78125 C 7.09375 -1.515625 5.953125 0.203125 3.84375 0.203125 C 1.71875 0.203125 0.609375 -1.515625 0.609375 -4.859375 C 0.609375 -8.1875 1.703125 -9.921875 3.84375 -9.921875 C 6 -9.921875 7.09375 -8.21875 7.09375 -4.78125 Z M 5.84375 -4.890625 C 5.84375 -7.546875 5.1875 -8.828125 3.84375 -8.828125 C 2.515625 -8.828125 1.859375 -7.5625 1.859375 -4.84375 C 1.859375 -2.125 2.515625 -0.8125 3.828125 -0.8125 C 5.1875 -0.8125 5.84375 -2.078125 5.84375 -4.890625 Z M 5.84375 -4.890625 "/>
</g>
</g>
</defs>
<rect x="-90" y="-40" width="1080" height="480" fill="rgb(100%, 100%, 100%)" fill-opacity="1"/>
<path fill-rule="nonzero" fill="rgb(100%, 100%, 100%)" fill-opacity="1" d="M 41 361 L 884 361 L 884 16 L 41 16 Z M 41 361 "/>
<path fill="none" stroke-width="1" stroke-linecap="butt" stroke-linejoin="miter" stroke="rgb(0%, 0%, 0%)" stroke-opacity="0.12" stroke-miterlimit="1.154701" d="M 79.316406 361 L 79.316406 16 "/>
<path fill="none" stroke-width="1" stroke-linecap="butt" stroke-linejoin="miter" stroke="rgb(0%, 0%, 0%)" stroke-opacity="0.12" stroke-miterlimit="1.154701" d="M 270.910156 361 L 270.910156 16 "/>
<path fill="none" stroke-width="1" stroke-linecap="butt" stroke-linejoin="miter" stroke="rgb(0%, 0%, 0%)" stroke-opacity="0.12" stroke-miterlimit="1.154701" d="M 462.5 361 L 462.5 16 "/>
<path fill="none" stroke-width="1" stroke-linecap="butt" stroke-linejoin="miter" stroke="rgb(0%, 0%, 0%)" stroke-opacity="0.12" stroke-miterlimit="1.154701" d="M 654.089844 361 L 654.089844 16 "/>
<path fill="none" stroke-width="1" stroke-linecap="butt" stroke-linejoin="miter" stroke="rgb(0%, 0%, 0%)" stroke-opacity="0.12" stroke-miterlimit="1.154701" d="M 845.683594 361 L 845.683594 16 "/>
<path fill="none" stroke-width="1" stroke-linecap="butt" stroke-linejoin="miter" stroke="rgb(0%, 0%, 0%)" stroke-opacity="0.12" stroke-miterlimit="1.154701" d="M 41 257.125 L 884 257.125 "/>
<path fill="none" stroke-width="1" stroke-linecap="butt" stroke-linejoin="miter" stroke="rgb(0%, 0%, 0%)" stroke-opacity="0.12" stroke-miterlimit="1.154701" d="M 41 144.402344 L 884 144.402344 "/>
<path fill="none" stroke-width="1" stroke-linecap="butt" stroke-linejoin="miter" stroke="rgb(0%, 0%, 0%)" stroke-opacity="0.12" stroke-miterlimit="1.154701" d="M 41 31.683594 L 884 31.683594 "/>
<g fill="rgb(0%, 0%, 0%)" fill-opacity="1">
<use xlink:href="#glyph-0-0-837b3456" x="65.311186" y="382.258001"/>
</g>
<g fill="rgb(0%, 0%, 0%)" fill-opacity="1">
<use xlink:href="#glyph-0-1-837b3456" x="73.095186" y="382.258001"/>
</g>
<g fill="rgb(0%, 0%, 0%)" fill-opacity="1">
<use xlink:href="#glyph-0-0-837b3456" x="76.987185" y="382.258001"/>
</g>
<g fill="rgb(0%, 0%, 0%)" fill-opacity="1">
<use xlink:href="#glyph-0-2-837b3456" x="84.771185" y="382.258001"/>
</g>
<g fill="rgb(0%, 0%, 0%)" fill-opacity="1">
<use xlink:href="#glyph-1-0-837b3456" x="253.010094" y="382.258001"/>
</g>
<g fill="rgb(0%, 0%, 0%)" fill-opacity="1">
<use xlink:href="#glyph-0-1-837b3456" x="260.794095" y="382.258001"/>
</g>
<g fill="rgb(0%, 0%, 0%)" fill-opacity="1">
<use xlink:href="#glyph-0-3-837b3456" x="264.686094" y="382.258001"/>
</g>
<g fill="rgb(0%, 0%, 0%)" fill-opacity="1">
<use xlink:href="#glyph-0-4-837b3456" x="272.470094" y="382.258001"/>
</g>
<g fill="rgb(0%, 0%, 0%)" fill-opacity="1">
<use xlink:href="#glyph-0-2-837b3456" x="280.254094" y="382.258001"/>
</g>
<g fill="rgb(0%, 0%, 0%)" fill-opacity="1">
<use xlink:href="#glyph-0-0-837b3456" x="448.493011" y="382.258001"/>
</g>
<g fill="rgb(0%, 0%, 0%)" fill-opacity="1">
<use xlink:href="#glyph-0-1-837b3456" x="456.277011" y="382.258001"/>
</g>
<g fill="rgb(0%, 0%, 0%)" fill-opacity="1">
<use xlink:href="#glyph-0-4-837b3456" x="460.169011" y="382.258001"/>
</g>
<g fill="rgb(0%, 0%, 0%)" fill-opacity="1">
<use xlink:href="#glyph-0-2-837b3456" x="467.95301" y="382.258001"/>
</g>
<g fill="rgb(0%, 0%, 0%)" fill-opacity="1">
<use xlink:href="#glyph-0-0-837b3456" x="636.191897" y="382.258001"/>
</g>
<g fill="rgb(0%, 0%, 0%)" fill-opacity="1">
<use xlink:href="#glyph-0-1-837b3456" x="643.975897" y="382.258001"/>
</g>
<g fill="rgb(0%, 0%, 0%)" fill-opacity="1">
<use xlink:href="#glyph-0-5-837b3456" x="647.867897" y="382.258001"/>
</g>
<g fill="rgb(0%, 0%, 0%)" fill-opacity="1">
<use xlink:href="#glyph-0-4-837b3456" x="655.651896" y="382.258001"/>
</g>
<g fill="rgb(0%, 0%, 0%)" fill-opacity="1">
<use xlink:href="#glyph-0-2-837b3456" x="663.435897" y="382.258001"/>
</g>
<g fill="rgb(0%, 0%, 0%)" fill-opacity="1">
<use xlink:href="#glyph-0-6-837b3456" x="831.674844" y="382.258001"/>
</g>
<g fill="rgb(0%, 0%, 0%)" fill-opacity="1">
<use xlink:href="#glyph-0-1-837b3456" x="839.458844" y="382.258001"/>
</g>
<g fill="rgb(0%, 0%, 0%)" fill-opacity="1">
<use xlink:href="#glyph-0-0-837b3456" x="843.350844" y="382.258001"/>
</g>
<g fill="rgb(0%, 0%, 0%)" fill-opacity="1">
<use xlink:href="#glyph-0-2-837b3456" x="851.134843" y="382.258001"/>
</g>
<g fill="rgb(0%, 0%, 0%)" fill-opacity="1">
<use xlink:href="#glyph-0-7-837b3456" x="15.040001" y="262.228156"/>
</g>
<g fill="rgb(0%, 0%, 0%)" fill-opacity="1">
<use xlink:href="#glyph-0-8-837b3456" x="23.216001" y="262.228156"/>
</g>
<g fill="rgb(0%, 0%, 0%)" fill-opacity="1">
<use xlink:href="#glyph-0-7-837b3456" x="15.040001" y="149.506494"/>
</g>
<g fill="rgb(0%, 0%, 0%)" fill-opacity="1">
<use xlink:href="#glyph-0-9-837b3456" x="23.216001" y="149.506494"/>
</g>
<g fill="rgb(0%, 0%, 0%)" fill-opacity="1">
<use xlink:href="#glyph-0-7-837b3456" x="15.040001" y="36.784832"/>
</g>
<g fill="rgb(0%, 0%, 0%)" fill-opacity="1">
<use xlink:href="#glyph-0-3-837b3456" x="23.216001" y="36.784832"/>
</g>
<path fill="none" stroke-width="1.5" stroke-linecap="butt" stroke-linejoin="miter" stroke="rgb(100%, 0%, 100%)" stroke-opacity="1" stroke-miterlimit="2" d="M 79.316406 257.125 L 86.980469 257.132812 L 94.644531 257.164062 L 102.308594 257.210938 L 109.972656 257.277344 L 117.636719 257.363281 L 125.300781 257.46875 L 132.964844 257.589844 L 140.628906 257.734375 L 148.289062 257.894531 L 155.953125 258.074219 L 163.617188 258.273438 L 171.28125 258.492188 L 178.945312 258.730469 L 186.609375 258.984375 L 194.273438 259.261719 L 201.9375 259.554688 L 209.601562 259.867188 L 217.261719 260.195312 L 224.925781 260.546875 L 232.589844 260.914062 L 240.253906 261.300781 L 247.917969 261.707031 L 255.582031 262.128906 L 263.246094 262.570312 L 270.910156 263.03125 L 278.574219 263.511719 L 286.234375 264.007812 L 293.898438 264.523438 L 301.5625 265.054688 L 309.226562 265.609375 L 316.890625 266.175781 L 324.554688 266.765625 L 332.21875 267.371094 L 339.882812 267.992188 L 347.546875 268.632812 L 355.210938 269.292969 L 362.871094 269.96875 L 370.535156 270.660156 L 378.199219 271.371094 L 385.863281 272.101562 L 393.527344 272.847656 L 401.191406 273.609375 L 408.855469 274.390625 L 416.519531 275.191406 L 424.183594 276.003906 L 431.84375 276.835938 L 439.507812 277.683594 L 447.171875 278.550781 L 454.835938 279.433594 L 462.5 280.332031 L 470.164062 281.25 L 477.828125 282.183594 L 485.492188 283.132812 L 493.15625 284.097656 L 500.816406 285.078125 L 508.480469 286.078125 L 516.144531 287.09375 L 523.808594 288.125 L 531.472656 289.171875 L 539.136719 290.234375 L 546.800781 291.316406 L 554.464844 292.410156 L 562.128906 293.523438 L 569.789062 294.648438 L 577.453125 295.792969 L 585.117188 296.953125 L 592.78125 298.125 L 600.445312 299.316406 L 608.109375 300.523438 L 615.773438 301.742188 L 623.4375 302.980469 L 631.101562 304.230469 L 638.761719 305.5 L 646.425781 306.78125 L 654.089844 308.082031 L 661.753906 309.394531 L 669.417969 310.722656 L 677.082031 312.066406 L 684.746094 313.421875 L 692.410156 314.796875 L 700.074219 316.183594 L 707.734375 317.585938 L 715.398438 319.003906 L 723.0625 320.4375 L 730.726562 321.882812 L 738.390625 323.347656 L 746.054688 324.820312 L 753.71875 326.3125 L 761.382812 327.820312 L 769.046875 329.339844 L 776.710938 330.871094 L 784.371094 332.421875 L 792.035156 333.984375 L 799.699219 335.5625 L 807.363281 337.152344 L 815.027344 338.757812 L 822.691406 340.375 L 830.355469 342.007812 L 838.019531 343.65625 L 845.683594 345.316406 "/>
<path fill="none" stroke-width="1.5" stroke-linecap="butt" stroke-linejoin="miter" stroke="rgb(50.196081%, 50.196081%, 50.196081%)" stroke-opacity="0.5" stroke-miterlimit="2" d="M 79.316406 144.402344 L 86.980469 145.601562 L 94.644531 146.8125 L 102.308594 148.03125 L 109.972656 149.257812 L 117.636719 150.496094 L 125.300781 151.746094 L 132.964844 153.003906 L 140.628906 154.273438 L 148.289062 155.550781 L 155.953125 156.839844 L 163.617188 158.140625 L 171.28125 159.449219 L 178.945312 160.769531 L 186.609375 162.101562 L 194.273438 163.441406 L 201.9375 164.792969 L 209.601562 166.152344 L 217.261719 167.523438 L 224.925781 168.90625 L 232.589844 170.296875 L 240.253906 171.699219 L 247.917969 173.113281 L 255.582031 174.539062 L 263.246094 175.972656 L 270.910156 177.417969 L 278.574219 178.871094 L 286.234375 180.335938 L 293.898438 181.8125 L 301.5625 183.300781 L 309.226562 184.796875 L 316.890625 186.304688 L 324.554688 187.824219 L 332.21875 189.355469 L 339.882812 190.894531 L 347.546875 192.445312 L 355.210938 194.007812 L 362.871094 195.578125 L 370.535156 197.160156 L 378.199219 198.753906 L 385.863281 200.359375 L 393.527344 201.972656 L 401.191406 203.597656 L 408.855469 205.234375 L 416.519531 206.878906 L 424.183594 208.539062 L 431.84375 210.207031 L 439.507812 211.882812 L 447.171875 213.574219 L 454.835938 215.273438 L 462.5 216.980469 L 470.164062 218.703125 L 477.828125 220.433594 L 485.492188 222.175781 L 493.15625 223.925781 L 500.816406 225.6875 L 508.480469 227.460938 L 516.144531 229.242188 L 523.808594 231.039062 L 531.472656 232.839844 L 539.136719 234.652344 L 546.800781 236.476562 L 554.464844 238.3125 L 562.128906 240.15625 L 569.789062 242.011719 L 577.453125 243.875 L 585.117188 245.75 L 592.78125 247.632812 L 600.445312 249.527344 L 608.109375 251.429688 L 615.773438 253.34375 L 623.4375 255.265625 L 631.101562 257.199219 L 638.761719 259.140625 L 646.425781 261.09375 L 654.089844 263.054688 L 661.753906 265.027344 L 669.417969 267.007812 L 677.082031 268.996094 L 684.746094 270.996094 L 692.410156 273.003906 L 700.074219 275.019531 L 707.734375 277.046875 L 715.398438 279.082031 L 723.0625 281.125 L 730.726562 283.179688 L 738.390625 285.242188 L 746.054688 287.3125 L 753.71875 289.390625 L 761.382812 291.480469 L 769.046875 293.574219 L 776.710938 295.679688 L 784.371094 297.792969 L 792.035156 299.917969 L 799.699219 302.046875 L 807.363281 304.1875 L 815.027344 306.332031 L 822.691406 308.488281 L 830.355469 310.652344 L 838.019531 312.820312 L 845.683594 315 "/>
<path fill="none" stroke-width="1.5" stroke-linecap="butt" stroke-linejoin="miter" stroke="rgb(50.196081%, 50.196081%, 50.196081%)" stroke-opacity="0.5" stroke-miterlimit="2" d="M 79.316406 144.402344 L 86.980469 145.121094 L 94.644531 145.855469 L 102.308594 146.601562 L 109.972656 147.363281 L 117.636719 148.140625 L 125.300781 148.929688 L 132.964844 149.734375 L 140.628906 150.554688 L 148.289062 151.386719 L 155.953125 152.230469 L 163.617188 153.089844 L 171.28125 153.964844 L 178.945312 154.851562 L 186.609375 155.75 L 194.273438 156.664062 L 201.9375 157.589844 L 209.601562 158.527344 L 217.261719 159.480469 L 224.925781 160.445312 L 232.589844 161.421875 L 240.253906 162.414062 L 247.917969 163.417969 L 255.582031 164.429688 L 263.246094 165.457031 L 270.910156 166.496094 L 278.574219 167.546875 L 286.234375 168.609375 L 293.898438 169.683594 L 301.5625 170.769531 L 309.226562 171.867188 L 316.890625 172.976562 L 324.554688 174.097656 L 332.21875 175.226562 L 339.882812 176.367188 L 347.546875 177.519531 L 355.210938 178.683594 L 362.871094 179.859375 L 370.535156 181.042969 L 378.199219 182.238281 L 385.863281 183.441406 L 393.527344 184.65625 L 401.191406 185.882812 L 408.855469 187.117188 L 416.519531 188.359375 L 424.183594 189.613281 L 431.84375 190.878906 L 439.507812 192.148438 L 447.171875 193.433594 L 454.835938 194.722656 L 462.5 196.023438 L 470.164062 197.332031 L 477.828125 198.652344 L 485.492188 199.980469 L 493.15625 201.316406 L 500.816406 202.660156 L 508.480469 204.011719 L 516.144531 205.375 L 523.808594 206.746094 L 531.472656 208.121094 L 539.136719 209.507812 L 546.800781 210.90625 L 554.464844 212.308594 L 562.128906 213.71875 L 569.789062 215.140625 L 577.453125 216.566406 L 585.117188 218.003906 L 592.78125 219.445312 L 600.445312 220.898438 L 608.109375 222.359375 L 615.773438 223.828125 L 623.4375 225.300781 L 631.101562 226.785156 L 638.761719 228.277344 L 646.425781 229.78125 L 654.089844 231.289062 L 661.753906 232.804688 L 669.417969 234.332031 L 677.082031 235.867188 L 684.746094 237.410156 L 692.410156 238.960938 L 700.074219 240.523438 L 707.734375 242.09375 L 715.398438 243.675781 L 723.0625 245.265625 L 730.726562 246.863281 L 738.390625 248.476562 L 746.054688 250.097656 L 753.71875 251.730469 L 761.382812 253.375 L 769.046875 255.03125 L 776.710938 256.699219 L 784.371094 258.382812 L 792.035156 260.078125 L 799.699219 261.789062 L 807.363281 263.515625 L 815.027344 265.257812 L 822.691406 267.011719 L 830.355469 268.785156 L 838.019531 270.578125 L 845.683594 272.382812 "/>
<path fill="none" stroke-width="1.5" stroke-linecap="butt" stroke-linejoin="miter" stroke="rgb(50.196081%, 50.196081%, 50.196081%)" stroke-opacity="0.5" stroke-miterlimit="2" d="M 79.316406 144.402344 L 86.980469 144.855469 L 94.644531 145.320312 L 102.308594 145.808594 L 109.972656 146.308594 L 117.636719 146.828125 L 125.300781 147.367188 L 132.964844 147.921875 L 140.628906 148.496094 L 148.289062 149.085938 L 155.953125 149.691406 L 163.617188 150.316406 L 171.28125 150.957031 L 178.945312 151.617188 L 186.609375 152.292969 L 194.273438 152.984375 L 201.9375 153.695312 L 209.601562 154.425781 L 217.261719 155.167969 L 224.925781 155.929688 L 232.589844 156.707031 L 240.253906 157.503906 L 247.917969 158.316406 L 255.582031 159.144531 L 263.246094 159.992188 L 270.910156 160.855469 L 278.574219 161.734375 L 286.234375 162.628906 L 293.898438 163.542969 L 301.5625 164.46875 L 309.226562 165.414062 L 316.890625 166.375 L 324.554688 167.355469 L 332.21875 168.347656 L 339.882812 169.359375 L 347.546875 170.382812 L 355.210938 171.425781 L 362.871094 172.484375 L 370.535156 173.558594 L 378.199219 174.644531 L 385.863281 175.75 L 393.527344 176.871094 L 401.191406 178.007812 L 408.855469 179.160156 L 416.519531 180.324219 L 424.183594 181.507812 L 431.84375 182.703125 L 439.507812 183.917969 L 447.171875 185.144531 L 454.835938 186.386719 L 462.5 187.640625 L 470.164062 188.914062 L 477.828125 190.199219 L 485.492188 191.5 L 493.15625 192.816406 L 500.816406 194.144531 L 508.480469 195.488281 L 516.144531 196.847656 L 523.808594 198.21875 L 531.472656 199.605469 L 539.136719 201.003906 L 546.800781 202.417969 L 554.464844 203.84375 L 562.128906 205.285156 L 569.789062 206.738281 L 577.453125 208.203125 L 585.117188 209.683594 L 592.78125 211.175781 L 600.445312 212.683594 L 608.109375 214.203125 L 615.773438 215.734375 L 623.4375 217.277344 L 631.101562 218.832031 L 638.761719 220.398438 L 646.425781 221.980469 L 654.089844 223.570312 L 661.753906 225.171875 L 669.417969 226.785156 L 677.082031 228.410156 L 684.746094 230.046875 L 692.410156 231.691406 L 700.074219 233.347656 L 707.734375 235.015625 L 715.398438 236.691406 L 723.0625 238.375 L 730.726562 240.066406 L 738.390625 241.765625 L 746.054688 243.476562 L 753.71875 245.191406 L 761.382812 246.914062 L 769.046875 248.640625 L 776.710938 250.375 L 784.371094 252.113281 L 792.035156 253.855469 L 799.699219 255.601562 L 815.027344 259.101562 L 845.683594 266.117188 "/>
<path fill="none" stroke-width="1.5" stroke-linecap="butt" stroke-linejoin="miter" stroke="rgb(50.196081%, 50.196081%, 50.196081%)" stroke-opacity="0.5" stroke-miterlimit="2" d="M 79.316406 144.402344 L 86.980469 144.546875 L 94.644531 144.707031 L 102.308594 144.882812 L 109.972656 145.074219 L 117.636719 145.277344 L 125.300781 145.5 L 132.964844 145.734375 L 140.628906 145.988281 L 148.289062 146.253906 L 155.953125 146.535156 L 163.617188 146.832031 L 171.28125 147.144531 L 178.945312 147.472656 L 186.609375 147.8125 L 194.273438 148.171875 L 201.9375 148.542969 L 209.601562 148.929688 L 217.261719 149.335938 L 224.925781 149.753906 L 232.589844 150.183594 L 240.253906 150.632812 L 247.917969 151.097656 L 255.582031 151.574219 L 263.246094 152.066406 L 270.910156 152.578125 L 278.574219 153.097656 L 286.234375 153.636719 L 293.898438 154.191406 L 301.5625 154.757812 L 309.226562 155.339844 L 316.890625 155.9375 L 324.554688 156.550781 L 332.21875 157.175781 L 339.882812 157.816406 L 347.546875 158.472656 L 355.210938 159.140625 L 362.871094 159.828125 L 370.535156 160.527344 L 378.199219 161.238281 L 385.863281 161.96875 L 393.527344 162.710938 L 401.191406 163.464844 L 408.855469 164.234375 L 416.519531 165.019531 L 424.183594 165.820312 L 431.84375 166.632812 L 439.507812 167.460938 L 447.171875 168.300781 L 454.835938 169.15625 L 462.5 170.023438 L 470.164062 170.90625 L 477.828125 171.804688 L 485.492188 172.714844 L 493.15625 173.636719 L 500.816406 174.574219 L 508.480469 175.527344 L 516.144531 176.492188 L 523.808594 177.46875 L 531.472656 178.460938 L 539.136719 179.46875 L 546.800781 180.488281 L 554.464844 181.519531 L 562.128906 182.5625 L 569.789062 183.621094 L 577.453125 184.695312 L 585.117188 185.78125 L 592.78125 186.878906 L 600.445312 187.988281 L 608.109375 189.113281 L 615.773438 190.25 L 623.4375 191.402344 L 631.101562 192.566406 L 638.761719 193.742188 L 646.425781 194.929688 L 654.089844 196.132812 L 661.753906 197.347656 L 669.417969 198.574219 L 677.082031 199.816406 L 684.746094 201.070312 L 692.410156 202.335938 L 700.074219 203.613281 L 707.734375 204.90625 L 715.398438 206.207031 L 723.0625 207.523438 L 730.726562 208.851562 L 738.390625 210.371094 L 746.054688 212.585938 L 753.71875 214.808594 L 761.382812 217.035156 L 769.046875 219.269531 L 776.710938 221.507812 L 784.371094 223.757812 L 792.035156 226.011719 L 799.699219 228.277344 L 807.363281 230.550781 L 815.027344 232.832031 L 822.691406 235.125 L 830.355469 237.429688 L 838.019531 239.742188 L 845.683594 242.066406 "/>
<path fill="none" stroke-width="1.5" stroke-linecap="butt" stroke-linejoin="miter" stroke="rgb(50.196081%, 50.196081%, 50.196081%)" stroke-opacity="0.5" stroke-miterlimit="2" d="M 79.316406 144.402344 L 86.980469 144.273438 L 94.644531 144.160156 L 102.308594 144.058594 L 109.972656 143.976562 L 117.636719 143.90625 L 125.300781 143.851562 L 132.964844 143.8125 L 140.628906 143.789062 L 148.289062 143.78125 L 155.953125 143.789062 L 163.617188 143.808594 L 171.28125 143.84375 L 178.945312 143.894531 L 186.609375 143.960938 L 194.273438 144.039062 L 201.9375 144.136719 L 209.601562 144.246094 L 217.261719 144.367188 L 224.925781 144.507812 L 232.589844 144.660156 L 240.253906 144.828125 L 247.917969 145.011719 L 255.582031 145.207031 L 263.246094 145.417969 L 270.910156 145.644531 L 278.574219 145.882812 L 286.234375 146.136719 L 293.898438 146.402344 L 301.5625 146.6875 L 309.226562 146.980469 L 316.890625 147.289062 L 324.554688 147.613281 L 332.21875 147.953125 L 339.882812 148.300781 L 347.546875 148.667969 L 355.210938 149.046875 L 362.871094 149.4375 L 370.535156 149.84375 L 378.199219 150.261719 L 385.863281 150.691406 L 393.527344 151.136719 L 401.191406 151.597656 L 408.855469 152.070312 L 416.519531 152.554688 L 424.183594 153.050781 L 431.84375 153.5625 L 439.507812 154.085938 L 447.171875 154.625 L 454.835938 155.171875 L 462.5 155.734375 L 470.164062 156.308594 L 477.828125 156.898438 L 485.492188 157.5 L 493.15625 158.109375 L 500.816406 158.738281 L 508.480469 159.375 L 516.144531 160.023438 L 523.808594 160.6875 L 531.472656 161.363281 L 539.136719 162.046875 L 546.800781 162.746094 L 554.464844 163.457031 L 562.128906 164.183594 L 569.789062 164.917969 L 577.453125 165.664062 L 585.117188 166.800781 L 592.78125 168.953125 L 608.109375 173.265625 L 615.773438 175.425781 L 631.101562 179.753906 L 638.761719 181.921875 L 646.425781 184.089844 L 654.089844 186.261719 L 661.753906 188.4375 L 677.082031 192.796875 L 684.746094 194.980469 L 692.410156 197.167969 L 700.074219 199.359375 L 707.734375 201.554688 L 715.398438 203.75 L 723.0625 205.953125 L 730.726562 208.160156 L 738.390625 210.195312 L 746.054688 211.546875 L 753.71875 212.914062 L 761.382812 214.292969 L 769.046875 215.679688 L 776.710938 217.085938 L 784.371094 218.5 L 792.035156 219.925781 L 799.699219 222.089844 L 807.363281 224.386719 L 815.027344 226.679688 L 822.691406 228.96875 L 830.355469 231.25 L 838.019531 233.527344 L 845.683594 235.800781 "/>
<path fill="none" stroke-width="1.5" stroke-linecap="butt" stroke-linejoin="miter" stroke="rgb(50.196081%, 50.196081%, 50.196081%)" stroke-opacity="0.5" stroke-miterlimit="2" d="M 79.316406 144.402344 L 86.980469 143.96875 L 94.644531 143.554688 L 102.308594 143.15625 L 109.972656 142.777344 L 117.636719 142.414062 L 125.300781 142.066406 L 132.964844 141.738281 L 140.628906 141.429688 L 148.289062 141.136719 L 155.953125 140.859375 L 163.617188 140.601562 L 171.28125 140.359375 L 178.945312 140.136719 L 186.609375 139.929688 L 194.273438 139.742188 L 201.9375 139.570312 L 209.601562 139.414062 L 217.261719 139.277344 L 224.925781 139.15625 L 232.589844 139.054688 L 240.253906 138.96875 L 247.917969 138.898438 L 255.582031 138.847656 L 263.246094 138.8125 L 270.910156 138.792969 L 278.574219 138.789062 L 286.234375 138.804688 L 293.898438 138.835938 L 301.5625 138.886719 L 309.226562 138.953125 L 316.890625 139.03125 L 324.554688 139.132812 L 332.21875 139.246094 L 339.882812 139.378906 L 347.546875 139.523438 L 355.210938 139.6875 L 362.871094 139.867188 L 370.535156 140.0625 L 378.199219 140.277344 L 385.863281 140.503906 L 393.527344 140.75 L 401.191406 141.007812 L 408.855469 141.285156 L 416.519531 141.574219 L 424.183594 141.882812 L 431.84375 142.207031 L 439.507812 142.542969 L 447.171875 142.898438 L 454.835938 143.265625 L 462.5 143.652344 L 470.164062 144.050781 L 477.828125 144.464844 L 485.492188 144.898438 L 493.15625 145.34375 L 500.816406 145.804688 L 508.480469 146.277344 L 516.144531 147.523438 L 531.472656 151.789062 L 539.136719 153.929688 L 546.800781 156.066406 L 554.464844 158.207031 L 562.128906 160.351562 L 569.789062 162.5 L 577.453125 164.648438 L 585.117188 166.421875 L 592.78125 167.195312 L 600.445312 167.976562 L 608.109375 168.773438 L 615.773438 169.578125 L 623.4375 170.398438 L 631.101562 171.800781 L 638.761719 174.042969 L 646.425781 176.289062 L 661.753906 180.804688 L 669.417969 183.070312 L 684.746094 187.617188 L 692.410156 189.898438 L 700.074219 192.183594 L 707.734375 194.472656 L 715.398438 196.765625 L 730.726562 201.359375 L 738.390625 203.660156 L 776.710938 215.183594 L 784.371094 217.488281 L 792.035156 219.789062 L 799.699219 221.367188 L 807.363281 222.816406 L 815.027344 224.28125 L 822.691406 225.757812 L 830.355469 227.242188 L 838.019531 228.742188 L 845.683594 230.253906 "/>
<path fill="none" stroke-width="1.5" stroke-linecap="butt" stroke-linejoin="miter" stroke="rgb(50.196081%, 50.196081%, 50.196081%)" stroke-opacity="0.5" stroke-miterlimit="2" d="M 79.316406 144.402344 L 86.980469 143.699219 L 94.644531 143.007812 L 102.308594 142.335938 L 109.972656 141.675781 L 117.636719 141.027344 L 125.300781 140.398438 L 132.964844 139.78125 L 140.628906 139.183594 L 148.289062 138.597656 L 155.953125 138.027344 L 163.617188 137.46875 L 171.28125 136.929688 L 178.945312 136.40625 L 186.609375 135.894531 L 194.273438 135.398438 L 201.9375 134.917969 L 209.601562 134.457031 L 217.261719 134.007812 L 224.925781 133.574219 L 232.589844 133.15625 L 240.253906 132.75 L 247.917969 132.363281 L 255.582031 131.992188 L 263.246094 131.632812 L 270.910156 131.292969 L 278.574219 130.96875 L 286.234375 130.65625 L 293.898438 130.359375 L 301.5625 130.082031 L 309.226562 129.816406 L 316.890625 129.566406 L 324.554688 129.332031 L 332.21875 129.113281 L 339.882812 128.910156 L 347.546875 128.722656 L 355.210938 128.546875 L 362.871094 128.390625 L 370.535156 128.246094 L 378.199219 128.121094 L 385.863281 128.007812 L 393.527344 127.910156 L 401.191406 127.828125 L 408.855469 127.761719 L 416.519531 127.707031 L 424.183594 127.671875 L 431.84375 127.648438 L 439.507812 127.640625 L 447.171875 128.453125 L 462.5 132.671875 L 470.164062 134.785156 L 477.828125 136.902344 L 493.15625 141.144531 L 500.816406 143.269531 L 508.480469 145.394531 L 516.144531 146.769531 L 523.808594 147.273438 L 531.472656 147.792969 L 539.136719 148.328125 L 546.800781 148.878906 L 554.464844 149.742188 L 562.128906 151.917969 L 569.789062 154.097656 L 577.453125 156.285156 L 585.117188 158.480469 L 592.78125 160.683594 L 600.445312 162.894531 L 608.109375 165.109375 L 615.773438 167.332031 L 623.4375 169.5625 L 631.101562 171.226562 L 638.761719 172.070312 L 646.425781 172.921875 L 654.089844 173.785156 L 661.753906 174.664062 L 669.417969 175.550781 L 677.082031 176.449219 L 684.746094 177.359375 L 692.410156 178.28125 L 700.074219 179.214844 L 707.734375 180.160156 L 715.398438 181.117188 L 723.0625 182.082031 L 730.726562 183.0625 L 738.390625 184.050781 L 746.054688 185.054688 L 753.71875 186.066406 L 761.382812 187.089844 L 769.046875 188.121094 L 776.710938 189.167969 L 784.371094 190.222656 L 792.035156 191.292969 L 799.699219 192.371094 L 807.363281 193.460938 L 815.027344 194.558594 L 822.691406 195.671875 L 830.355469 196.792969 L 838.019531 197.925781 L 845.683594 199.9375 "/>
<path fill="none" stroke-width="1.5" stroke-linecap="butt" stroke-linejoin="miter" stroke="rgb(50.196081%, 50.196081%, 50.196081%)" stroke-opacity="0.5" stroke-miterlimit="2" d="M 79.316406 144.402344 L 86.980469 143.214844 L 94.644531 142.035156 L 102.308594 140.867188 L 109.972656 139.707031 L 117.636719 138.558594 L 125.300781 137.417969 L 132.964844 136.289062 L 140.628906 135.167969 L 148.289062 134.058594 L 155.953125 132.957031 L 163.617188 131.867188 L 171.28125 130.785156 L 178.945312 129.714844 L 186.609375 128.652344 L 194.273438 127.601562 L 201.9375 126.558594 L 209.601562 125.523438 L 217.261719 124.5 L 224.925781 123.484375 L 232.589844 122.480469 L 240.253906 121.484375 L 247.917969 120.5 L 255.582031 119.523438 L 263.246094 118.554688 L 270.910156 117.597656 L 278.574219 116.652344 L 286.234375 115.710938 L 293.898438 114.78125 L 301.5625 113.863281 L 309.226562 112.953125 L 316.890625 112.050781 L 324.554688 111.160156 L 332.21875 110.277344 L 339.882812 109.40625 L 347.546875 108.542969 L 355.210938 107.6875 L 362.871094 106.84375 L 370.535156 107.542969 L 378.199219 109.617188 L 393.527344 113.78125 L 401.191406 115.867188 L 408.855469 117.957031 L 416.519531 120.050781 L 424.183594 122.148438 L 431.84375 124.246094 L 439.507812 126.347656 L 447.171875 127.648438 L 454.835938 127.671875 L 462.5 127.707031 L 470.164062 127.761719 L 477.828125 128.449219 L 485.492188 130.542969 L 493.15625 132.644531 L 500.816406 134.753906 L 508.480469 136.871094 L 516.144531 138.996094 L 523.808594 141.128906 L 531.472656 143.273438 L 539.136719 145.421875 L 546.800781 147.578125 L 554.464844 149.445312 L 562.128906 150.023438 L 569.789062 150.617188 L 577.453125 151.222656 L 585.117188 151.84375 L 592.78125 152.480469 L 600.445312 153.132812 L 608.109375 153.796875 L 615.773438 154.476562 L 623.4375 155.167969 L 631.101562 155.878906 L 638.761719 156.597656 L 646.425781 157.332031 L 654.089844 158.082031 L 661.753906 158.84375 L 669.417969 159.621094 L 677.082031 160.414062 L 684.746094 161.21875 L 692.410156 162.035156 L 700.074219 162.867188 L 707.734375 164.363281 L 715.398438 166.285156 L 723.0625 168.210938 L 730.726562 170.148438 L 738.390625 172.089844 L 746.054688 174.035156 L 753.71875 175.992188 L 761.382812 177.953125 L 769.046875 179.917969 L 776.710938 181.894531 L 784.371094 183.875 L 792.035156 185.859375 L 799.699219 187.851562 L 807.363281 189.851562 L 815.027344 191.855469 L 822.691406 193.867188 L 830.355469 195.886719 L 838.019531 197.910156 L 845.683594 199.070312 "/>
<path fill="none" stroke-width="1.5" stroke-linecap="butt" stroke-linejoin="miter" stroke="rgb(50.196081%, 50.196081%, 50.196081%)" stroke-opacity="0.5" stroke-miterlimit="2" d="M 79.316406 31.683594 L 86.980469 33.589844 L 94.644531 35.503906 L 102.308594 37.421875 L 109.972656 39.34375 L 117.636719 41.273438 L 132.964844 45.148438 L 140.628906 47.09375 L 148.289062 49.042969 L 155.953125 50.996094 L 163.617188 52.957031 L 171.28125 54.921875 L 178.945312 56.890625 L 186.609375 58.863281 L 194.273438 60.84375 L 201.9375 62.828125 L 209.601562 64.816406 L 217.261719 66.808594 L 224.925781 68.804688 L 232.589844 70.804688 L 240.253906 72.8125 L 247.917969 74.824219 L 263.246094 78.855469 L 270.910156 80.878906 L 278.574219 82.90625 L 286.234375 84.941406 L 293.898438 86.976562 L 301.5625 89.015625 L 309.226562 91.058594 L 316.890625 93.105469 L 324.554688 95.15625 L 332.21875 97.210938 L 339.882812 99.269531 L 347.546875 101.332031 L 355.210938 103.398438 L 362.871094 105.46875 L 370.535156 106.007812 L 378.199219 105.179688 L 385.863281 104.363281 L 393.527344 105.996094 L 401.191406 107.996094 L 408.855469 110 L 416.519531 112.015625 L 424.183594 114.039062 L 431.84375 116.074219 L 439.507812 118.113281 L 447.171875 120.164062 L 454.835938 122.222656 L 462.5 124.289062 L 470.164062 126.367188 L 477.828125 127.828125 L 485.492188 127.90625 L 493.15625 128.003906 L 500.816406 128.113281 L 508.480469 128.238281 L 516.144531 128.378906 L 523.808594 128.535156 L 531.472656 128.703125 L 539.136719 128.886719 L 546.800781 129.082031 L 554.464844 129.292969 L 562.128906 129.519531 L 569.789062 130.984375 L 577.453125 132.777344 L 585.117188 134.574219 L 592.78125 136.382812 L 600.445312 138.199219 L 608.109375 140.019531 L 615.773438 141.851562 L 623.4375 143.6875 L 631.101562 145.53125 L 638.761719 147.382812 L 646.425781 149.242188 L 654.089844 151.109375 L 661.753906 152.980469 L 669.417969 154.859375 L 677.082031 156.746094 L 684.746094 158.640625 L 692.410156 160.542969 L 700.074219 162.449219 L 707.734375 163.710938 L 715.398438 164.570312 L 723.0625 165.441406 L 730.726562 166.328125 L 738.390625 167.226562 L 746.054688 168.75 L 761.382812 172.46875 L 776.710938 176.203125 L 784.371094 178.078125 L 792.035156 179.953125 L 799.699219 181.832031 L 807.363281 183.714844 L 815.027344 185.601562 L 822.691406 187.492188 L 830.355469 189.386719 L 845.683594 193.183594 "/>
<path fill="none" stroke-width="1.5" stroke-linecap="butt" stroke-linejoin="miter" stroke="rgb(50.196081%, 50.196081%, 50.196081%)" stroke-opacity="0.5" stroke-miterlimit="2" d="M 79.316406 31.683594 L 86.980469 33.320312 L 94.644531 34.96875 L 102.308594 36.625 L 109.972656 38.289062 L 117.636719 39.964844 L 125.300781 41.644531 L 132.964844 43.335938 L 140.628906 45.035156 L 148.289062 46.742188 L 155.953125 48.457031 L 163.617188 50.179688 L 171.28125 51.914062 L 178.945312 53.65625 L 186.609375 55.40625 L 194.273438 57.164062 L 201.9375 58.933594 L 209.601562 60.710938 L 217.261719 62.496094 L 224.925781 64.289062 L 232.589844 66.089844 L 240.253906 67.902344 L 247.917969 69.722656 L 255.582031 71.554688 L 263.246094 73.390625 L 270.910156 75.238281 L 278.574219 77.09375 L 286.234375 78.957031 L 293.898438 80.832031 L 301.5625 82.714844 L 309.226562 84.605469 L 316.890625 86.503906 L 324.554688 88.414062 L 332.21875 90.332031 L 339.882812 92.257812 L 347.546875 94.195312 L 355.210938 96.140625 L 362.871094 98.09375 L 370.535156 100.054688 L 378.199219 102.027344 L 385.863281 104.007812 L 393.527344 103.554688 L 401.191406 102.757812 L 408.855469 101.96875 L 416.519531 101.191406 L 424.183594 100.417969 L 431.84375 100.003906 L 439.507812 101.660156 L 447.171875 103.324219 L 454.835938 104.992188 L 462.5 106.671875 L 470.164062 108.359375 L 477.828125 110.054688 L 485.492188 111.757812 L 493.15625 113.46875 L 500.816406 115.183594 L 508.480469 116.910156 L 516.144531 118.640625 L 523.808594 120.382812 L 531.472656 122.128906 L 539.136719 123.886719 L 546.800781 125.648438 L 554.464844 127.417969 L 562.128906 129.199219 L 569.789062 129.761719 L 577.453125 130.015625 L 585.117188 130.734375 L 592.78125 132.496094 L 600.445312 134.265625 L 608.109375 136.039062 L 615.773438 137.816406 L 623.4375 139.597656 L 631.101562 141.386719 L 638.761719 143.179688 L 646.425781 144.976562 L 661.753906 148.585938 L 669.417969 150.398438 L 677.082031 152.214844 L 684.746094 154.035156 L 692.410156 155.859375 L 700.074219 157.6875 L 707.734375 159.523438 L 715.398438 161.359375 L 730.726562 165.046875 L 738.390625 166.898438 L 746.054688 168.136719 L 753.71875 169.0625 L 761.382812 170.003906 L 769.046875 170.953125 L 776.710938 171.917969 L 784.371094 172.898438 L 792.035156 173.886719 L 799.699219 174.890625 L 807.363281 175.910156 L 815.027344 176.9375 L 822.691406 177.980469 L 830.355469 179.039062 L 838.019531 180.105469 L 845.683594 181.1875 "/>
<path fill="none" stroke-width="1.5" stroke-linecap="butt" stroke-linejoin="miter" stroke="rgb(50.196081%, 50.196081%, 50.196081%)" stroke-opacity="0.5" stroke-miterlimit="2" d="M 79.316406 31.683594 L 86.980469 33.015625 L 94.644531 34.355469 L 102.308594 35.703125 L 109.972656 37.054688 L 117.636719 38.414062 L 125.300781 39.777344 L 132.964844 41.148438 L 140.628906 42.527344 L 148.289062 43.910156 L 155.953125 45.300781 L 163.617188 46.695312 L 171.28125 48.101562 L 178.945312 49.511719 L 186.609375 50.925781 L 194.273438 52.351562 L 201.9375 53.78125 L 209.601562 55.21875 L 217.261719 56.660156 L 224.925781 58.109375 L 240.253906 61.03125 L 247.917969 62.503906 L 255.582031 63.980469 L 263.246094 65.46875 L 270.910156 66.960938 L 278.574219 68.460938 L 286.234375 69.964844 L 293.898438 71.480469 L 301.5625 73 L 309.226562 74.53125 L 316.890625 76.066406 L 324.554688 77.609375 L 332.21875 79.160156 L 339.882812 80.71875 L 347.546875 82.285156 L 355.210938 83.855469 L 362.871094 85.4375 L 370.535156 87.023438 L 378.199219 88.621094 L 385.863281 90.222656 L 393.527344 91.835938 L 401.191406 93.453125 L 408.855469 95.078125 L 416.519531 96.710938 L 424.183594 98.351562 L 431.84375 99.660156 L 439.507812 98.90625 L 447.171875 100.023438 L 454.835938 101.675781 L 462.5 103.332031 L 470.164062 104.996094 L 477.828125 106.667969 L 485.492188 108.347656 L 493.15625 110.03125 L 500.816406 111.722656 L 508.480469 113.421875 L 516.144531 115.125 L 523.808594 116.835938 L 531.472656 118.554688 L 539.136719 120.277344 L 546.800781 122.003906 L 554.464844 123.738281 L 562.128906 125.480469 L 569.789062 127.226562 L 577.453125 128.976562 L 585.117188 130.285156 L 592.78125 130.566406 L 600.445312 130.863281 L 608.109375 131.175781 L 615.773438 131.5 L 623.4375 131.839844 L 631.101562 132.191406 L 638.761719 132.558594 L 646.425781 132.941406 L 654.089844 133.335938 L 661.753906 133.742188 L 669.417969 134.164062 L 677.082031 134.601562 L 684.746094 135.050781 L 692.410156 136.488281 L 700.074219 138.050781 L 707.734375 139.621094 L 715.398438 141.195312 L 723.0625 142.773438 L 730.726562 144.355469 L 738.390625 145.945312 L 746.054688 147.542969 L 753.71875 149.144531 L 761.382812 150.75 L 769.046875 152.359375 L 776.710938 153.976562 L 784.371094 155.597656 L 799.699219 158.855469 L 807.363281 160.492188 L 822.691406 163.78125 L 830.355469 165.433594 L 838.019531 167.089844 L 845.683594 168.75 "/>
<path fill="none" stroke-width="1.5" stroke-linecap="butt" stroke-linejoin="miter" stroke="rgb(50.196081%, 50.196081%, 50.196081%)" stroke-opacity="0.5" stroke-miterlimit="2" d="M 79.316406 31.683594 L 86.980469 32.839844 L 94.644531 34.015625 L 102.308594 35.199219 L 109.972656 36.398438 L 117.636719 37.609375 L 125.300781 38.832031 L 132.964844 40.066406 L 140.628906 41.316406 L 148.289062 42.574219 L 155.953125 43.847656 L 163.617188 45.132812 L 171.28125 46.429688 L 178.945312 47.738281 L 186.609375 49.058594 L 194.273438 50.390625 L 201.9375 51.730469 L 209.601562 53.085938 L 217.261719 54.453125 L 224.925781 55.828125 L 232.589844 57.21875 L 240.253906 58.617188 L 247.917969 60.027344 L 255.582031 61.445312 L 263.246094 62.878906 L 270.910156 64.320312 L 278.574219 65.769531 L 286.234375 67.230469 L 293.898438 68.703125 L 301.5625 70.183594 L 309.226562 71.675781 L 316.890625 73.175781 L 324.554688 74.6875 L 332.21875 76.207031 L 339.882812 77.734375 L 347.546875 79.273438 L 355.210938 80.816406 L 362.871094 82.375 L 370.535156 83.9375 L 378.199219 85.511719 L 385.863281 87.089844 L 393.527344 88.679688 L 401.191406 90.277344 L 408.855469 91.882812 L 416.519531 93.496094 L 424.183594 95.117188 L 431.84375 96.746094 L 439.507812 98.382812 L 447.171875 98.164062 L 454.835938 97.433594 L 462.5 96.710938 L 470.164062 95.996094 L 477.828125 95.292969 L 485.492188 96.542969 L 493.15625 97.941406 L 500.816406 99.34375 L 508.480469 100.757812 L 516.144531 102.175781 L 523.808594 103.597656 L 539.136719 106.464844 L 546.800781 107.910156 L 554.464844 109.359375 L 562.128906 110.816406 L 569.789062 112.277344 L 577.453125 113.746094 L 585.117188 115.21875 L 592.78125 116.699219 L 600.445312 118.1875 L 608.109375 119.679688 L 615.773438 121.179688 L 623.4375 122.683594 L 631.101562 124.195312 L 638.761719 125.710938 L 646.425781 127.234375 L 654.089844 128.761719 L 661.753906 130.296875 L 669.417969 131.835938 L 677.082031 133.378906 L 684.746094 134.933594 L 692.410156 135.515625 L 700.074219 135.992188 L 707.734375 136.480469 L 715.398438 136.984375 L 723.0625 137.503906 L 730.726562 138.035156 L 738.390625 138.578125 L 746.054688 139.136719 L 753.71875 139.710938 L 761.382812 140.292969 L 769.046875 141.375 L 776.710938 142.914062 L 784.371094 144.460938 L 792.035156 146.023438 L 799.699219 148.320312 L 815.027344 153.179688 L 822.691406 155.605469 L 838.019531 160.449219 L 845.683594 162.867188 "/>
<path fill="none" stroke-width="1.5" stroke-linecap="butt" stroke-linejoin="miter" stroke="rgb(50.196081%, 50.196081%, 50.196081%)" stroke-opacity="0.5" stroke-miterlimit="2" d="M 79.316406 31.683594 L 86.980469 32.742188 L 94.644531 33.808594 L 102.308594 34.878906 L 109.972656 35.957031 L 117.636719 37.039062 L 125.300781 38.128906 L 132.964844 39.226562 L 140.628906 40.328125 L 148.289062 41.4375 L 155.953125 42.550781 L 163.617188 43.671875 L 171.28125 44.800781 L 178.945312 45.933594 L 186.609375 47.074219 L 194.273438 48.21875 L 201.9375 49.371094 L 209.601562 50.53125 L 217.261719 51.695312 L 224.925781 52.867188 L 232.589844 54.042969 L 240.253906 55.226562 L 247.917969 56.417969 L 255.582031 57.613281 L 263.246094 58.816406 L 270.910156 60.027344 L 278.574219 61.242188 L 286.234375 62.464844 L 293.898438 63.695312 L 301.5625 64.929688 L 309.226562 66.171875 L 316.890625 67.421875 L 324.554688 68.675781 L 332.21875 69.9375 L 339.882812 71.203125 L 347.546875 72.480469 L 355.210938 73.761719 L 362.871094 75.046875 L 370.535156 76.34375 L 378.199219 77.644531 L 385.863281 78.949219 L 393.527344 80.265625 L 401.191406 81.585938 L 408.855469 82.910156 L 416.519531 84.246094 L 424.183594 85.585938 L 431.84375 86.933594 L 439.507812 88.285156 L 447.171875 89.644531 L 454.835938 91.011719 L 462.5 92.382812 L 470.164062 93.761719 L 477.828125 95.148438 L 485.492188 94.597656 L 493.15625 93.910156 L 500.816406 93.234375 L 508.480469 93.460938 L 516.144531 94.773438 L 523.808594 96.089844 L 531.472656 97.414062 L 539.136719 98.742188 L 546.800781 100.074219 L 554.464844 101.414062 L 562.128906 102.761719 L 569.789062 104.113281 L 577.453125 105.46875 L 585.117188 106.832031 L 592.78125 108.199219 L 600.445312 109.570312 L 608.109375 110.949219 L 623.4375 113.722656 L 631.101562 115.121094 L 638.761719 116.519531 L 646.425781 117.929688 L 654.089844 119.34375 L 661.753906 120.761719 L 669.417969 122.1875 L 677.082031 123.617188 L 684.746094 125.054688 L 692.410156 126.5 L 700.074219 127.953125 L 707.734375 129.410156 L 715.398438 130.878906 L 723.0625 132.351562 L 730.726562 133.832031 L 738.390625 135.324219 L 746.054688 136.820312 L 753.71875 138.328125 L 761.382812 139.847656 L 769.046875 140.890625 L 776.710938 141.503906 L 784.371094 143.449219 L 792.035156 145.886719 L 799.699219 147.597656 L 807.363281 149.183594 L 815.027344 150.78125 L 822.691406 152.394531 L 830.355469 154.019531 L 838.019531 155.664062 L 845.683594 157.320312 "/>
<path fill="none" stroke-width="1.5" stroke-linecap="butt" stroke-linejoin="miter" stroke="rgb(50.196081%, 50.196081%, 50.196081%)" stroke-opacity="0.5" stroke-miterlimit="2" d="M 79.316406 31.683594 L 86.980469 32.535156 L 94.644531 33.402344 L 102.308594 34.277344 L 109.972656 35.160156 L 117.636719 36.058594 L 125.300781 36.964844 L 132.964844 37.878906 L 140.628906 38.808594 L 148.289062 39.742188 L 155.953125 40.691406 L 163.617188 41.648438 L 171.28125 42.613281 L 178.945312 43.589844 L 186.609375 44.578125 L 194.273438 45.574219 L 201.9375 46.578125 L 209.601562 47.59375 L 217.261719 48.617188 L 224.925781 49.652344 L 232.589844 50.695312 L 240.253906 51.746094 L 247.917969 52.804688 L 255.582031 53.875 L 263.246094 54.953125 L 270.910156 56.039062 L 278.574219 57.136719 L 286.234375 58.238281 L 293.898438 59.351562 L 301.5625 60.472656 L 309.226562 61.601562 L 316.890625 62.738281 L 324.554688 63.882812 L 332.21875 65.03125 L 339.882812 66.191406 L 347.546875 67.359375 L 355.210938 68.535156 L 362.871094 69.71875 L 370.535156 70.90625 L 378.199219 72.101562 L 385.863281 73.308594 L 393.527344 74.519531 L 401.191406 75.734375 L 408.855469 76.960938 L 416.519531 78.191406 L 424.183594 79.429688 L 431.84375 80.671875 L 439.507812 81.925781 L 447.171875 83.183594 L 454.835938 84.445312 L 462.5 85.714844 L 470.164062 86.992188 L 477.828125 88.273438 L 485.492188 89.5625 L 493.15625 90.855469 L 500.816406 92.15625 L 508.480469 92.566406 L 516.144531 91.910156 L 523.808594 91.261719 L 531.472656 91.460938 L 539.136719 92.746094 L 546.800781 94.042969 L 554.464844 95.34375 L 562.128906 96.65625 L 569.789062 97.976562 L 577.453125 99.304688 L 585.117188 100.640625 L 592.78125 101.988281 L 600.445312 103.34375 L 608.109375 104.703125 L 615.773438 106.074219 L 623.4375 107.457031 L 631.101562 108.84375 L 638.761719 110.238281 L 646.425781 111.644531 L 654.089844 113.058594 L 661.753906 114.476562 L 669.417969 115.90625 L 677.082031 117.34375 L 684.746094 118.789062 L 692.410156 120.242188 L 700.074219 121.703125 L 707.734375 123.171875 L 715.398438 124.648438 L 723.0625 126.132812 L 730.726562 127.621094 L 738.390625 129.121094 L 746.054688 131.238281 L 753.71875 133.6875 L 761.382812 136.128906 L 769.046875 138.574219 L 776.710938 141.011719 L 784.371094 142.128906 L 792.035156 142.765625 L 799.699219 143.417969 L 807.363281 144.082031 L 815.027344 144.757812 L 822.691406 146.234375 L 830.355469 147.84375 L 845.683594 151.054688 "/>
<path fill="none" stroke-width="1.5" stroke-linecap="butt" stroke-linejoin="miter" stroke="rgb(50.196081%, 50.196081%, 50.196081%)" stroke-opacity="0.5" stroke-miterlimit="2" d="M 79.316406 31.683594 L 86.980469 32.4375 L 94.644531 33.203125 L 102.308594 33.976562 L 109.972656 34.757812 L 117.636719 35.546875 L 125.300781 36.347656 L 132.964844 37.152344 L 140.628906 37.96875 L 148.289062 38.792969 L 155.953125 39.625 L 163.617188 40.46875 L 171.28125 41.316406 L 178.945312 42.175781 L 186.609375 43.042969 L 194.273438 43.921875 L 201.9375 44.804688 L 209.601562 45.699219 L 217.261719 46.605469 L 224.925781 47.515625 L 232.589844 48.4375 L 240.253906 49.367188 L 247.917969 50.304688 L 255.582031 51.253906 L 263.246094 52.210938 L 270.910156 53.175781 L 278.574219 54.152344 L 286.234375 55.136719 L 293.898438 56.128906 L 301.5625 57.128906 L 309.226562 58.140625 L 316.890625 59.164062 L 324.554688 60.191406 L 332.21875 61.230469 L 339.882812 62.277344 L 347.546875 63.335938 L 355.210938 64.402344 L 362.871094 65.480469 L 370.535156 66.5625 L 378.199219 67.65625 L 385.863281 68.761719 L 393.527344 69.875 L 401.191406 70.996094 L 408.855469 72.125 L 416.519531 73.265625 L 424.183594 74.414062 L 431.84375 75.574219 L 439.507812 76.742188 L 447.171875 77.917969 L 454.835938 79.105469 L 462.5 80.300781 L 470.164062 81.503906 L 477.828125 82.71875 L 485.492188 83.941406 L 493.15625 85.171875 L 500.816406 86.410156 L 508.480469 87.660156 L 516.144531 88.917969 L 523.808594 90.1875 L 531.472656 90.625 L 539.136719 90.234375 L 546.800781 91.585938 L 554.464844 92.949219 L 562.128906 94.324219 L 569.789062 95.710938 L 577.453125 97.105469 L 585.117188 98.511719 L 592.78125 99.929688 L 600.445312 101.355469 L 608.109375 102.792969 L 615.773438 104.242188 L 623.4375 105.699219 L 631.101562 107.164062 L 638.761719 108.640625 L 646.425781 110.128906 L 654.089844 111.625 L 661.753906 113.128906 L 669.417969 114.640625 L 677.082031 116.164062 L 684.746094 117.695312 L 692.410156 119.230469 L 700.074219 120.777344 L 707.734375 122.332031 L 715.398438 123.894531 L 723.0625 125.460938 L 730.726562 127.035156 L 738.390625 128.792969 L 746.054688 130.628906 L 753.71875 132.140625 L 761.382812 133.664062 L 769.046875 135.191406 L 776.710938 136.726562 L 784.371094 138.269531 L 792.035156 139.820312 L 799.699219 141.40625 L 815.027344 144.625 L 822.691406 146.09375 L 830.355469 147.679688 L 838.019531 149.269531 L 845.683594 150.867188 "/>
<path fill="none" stroke-width="1.5" stroke-linecap="butt" stroke-linejoin="miter" stroke="rgb(50.196081%, 50.196081%, 50.196081%)" stroke-opacity="0.5" stroke-miterlimit="2" d="M 79.316406 31.683594 L 86.980469 32.265625 L 94.644531 32.867188 L 102.308594 33.480469 L 109.972656 34.105469 L 117.636719 34.746094 L 125.300781 35.398438 L 132.964844 36.066406 L 140.628906 36.746094 L 148.289062 37.441406 L 155.953125 38.152344 L 163.617188 38.871094 L 171.28125 39.609375 L 178.945312 40.355469 L 186.609375 41.121094 L 194.273438 41.894531 L 201.9375 42.6875 L 209.601562 43.488281 L 217.261719 44.304688 L 224.925781 45.136719 L 232.589844 45.980469 L 240.253906 46.835938 L 247.917969 47.707031 L 255.582031 48.589844 L 263.246094 49.488281 L 270.910156 50.398438 L 278.574219 51.320312 L 286.234375 52.257812 L 293.898438 53.207031 L 301.5625 54.171875 L 309.226562 55.148438 L 316.890625 56.136719 L 324.554688 57.140625 L 332.21875 58.152344 L 339.882812 59.179688 L 347.546875 60.222656 L 355.210938 61.277344 L 362.871094 62.34375 L 370.535156 63.421875 L 378.199219 64.511719 L 385.863281 65.617188 L 393.527344 66.734375 L 401.191406 67.863281 L 408.855469 69.003906 L 416.519531 70.15625 L 424.183594 71.324219 L 431.84375 72.5 L 439.507812 73.691406 L 447.171875 74.894531 L 454.835938 76.105469 L 462.5 77.332031 L 470.164062 78.570312 L 477.828125 79.820312 L 485.492188 81.082031 L 493.15625 82.355469 L 500.816406 83.640625 L 508.480469 84.9375 L 516.144531 86.246094 L 523.808594 87.5625 L 531.472656 88.894531 L 539.136719 89.996094 L 546.800781 89.375 L 554.464844 88.765625 L 562.128906 88.164062 L 569.789062 87.574219 L 577.453125 86.992188 L 585.117188 87.472656 L 600.445312 89.558594 L 615.773438 91.660156 L 623.4375 92.71875 L 631.101562 94.351562 L 638.761719 96.820312 L 646.425781 99.289062 L 669.417969 106.683594 L 692.410156 114.066406 L 700.074219 116.523438 L 707.734375 118.980469 L 715.398438 121.4375 L 723.0625 123.890625 L 730.726562 126.339844 L 738.390625 128.613281 L 746.054688 130.199219 L 753.71875 131.789062 L 769.046875 134.984375 L 776.710938 136.585938 L 784.371094 138.191406 L 792.035156 139.800781 L 799.699219 141.378906 L 807.363281 142.945312 L 815.027344 144.515625 L 822.691406 145.449219 L 830.355469 146.152344 L 838.019531 146.867188 L 845.683594 147.597656 "/>
<path fill="none" stroke-width="1.5" stroke-linecap="butt" stroke-linejoin="miter" stroke="rgb(50.196081%, 50.196081%, 50.196081%)" stroke-opacity="0.5" stroke-miterlimit="2" d="M 79.316406 31.683594 L 86.980469 32.261719 L 94.644531 32.851562 L 102.308594 33.453125 L 109.972656 34.0625 L 117.636719 34.683594 L 125.300781 35.316406 L 132.964844 35.957031 L 140.628906 36.609375 L 148.289062 37.273438 L 155.953125 37.945312 L 163.617188 38.625 L 171.28125 39.316406 L 178.945312 40.015625 L 186.609375 40.722656 L 194.273438 41.441406 L 201.9375 42.171875 L 209.601562 42.90625 L 217.261719 43.652344 L 224.925781 44.40625 L 232.589844 45.167969 L 240.253906 45.941406 L 247.917969 46.71875 L 255.582031 47.507812 L 263.246094 48.304688 L 270.910156 49.109375 L 278.574219 49.917969 L 286.234375 50.738281 L 293.898438 51.566406 L 301.5625 52.398438 L 309.226562 53.242188 L 316.890625 54.089844 L 324.554688 54.945312 L 332.21875 55.808594 L 339.882812 56.679688 L 347.546875 57.554688 L 355.210938 58.4375 L 362.871094 59.328125 L 370.535156 60.222656 L 378.199219 61.125 L 385.863281 62.035156 L 393.527344 62.949219 L 401.191406 63.867188 L 408.855469 64.792969 L 416.519531 65.722656 L 424.183594 66.660156 L 431.84375 67.605469 L 439.507812 68.550781 L 447.171875 69.503906 L 454.835938 70.460938 L 462.5 71.425781 L 470.164062 72.394531 L 477.828125 73.367188 L 485.492188 74.34375 L 493.15625 75.328125 L 500.816406 76.316406 L 508.480469 77.308594 L 516.144531 78.304688 L 523.808594 79.304688 L 539.136719 81.320312 L 546.800781 82.335938 L 554.464844 83.355469 L 562.128906 84.378906 L 569.789062 85.40625 L 577.453125 86.4375 L 585.117188 86.421875 L 592.78125 85.859375 L 600.445312 85.304688 L 608.109375 86.945312 L 623.4375 91.882812 L 631.101562 93.78125 L 638.761719 94.847656 L 646.425781 95.917969 L 661.753906 98.074219 L 669.417969 99.160156 L 677.082031 100.25 L 684.746094 101.347656 L 692.410156 102.449219 L 700.074219 103.554688 L 707.734375 104.667969 L 715.398438 105.785156 L 723.0625 106.910156 L 730.726562 108.042969 L 738.390625 109.183594 L 746.054688 110.328125 L 753.71875 111.480469 L 761.382812 112.644531 L 769.046875 113.816406 L 776.710938 114.996094 L 784.371094 116.1875 L 792.035156 117.386719 L 799.699219 118.601562 L 807.363281 119.824219 L 815.027344 121.058594 L 822.691406 122.308594 L 830.355469 123.570312 L 838.019531 124.84375 L 845.683594 127.003906 "/>
<path fill="none" stroke-width="1.5" stroke-linecap="butt" stroke-linejoin="miter" stroke="rgb(50.196081%, 50.196081%, 50.196081%)" stroke-opacity="0.5" stroke-miterlimit="2" d="M 79.316406 31.683594 L 86.980469 32.167969 L 94.644531 32.65625 L 102.308594 33.152344 L 109.972656 33.65625 L 117.636719 34.164062 L 125.300781 34.675781 L 132.964844 35.195312 L 140.628906 35.722656 L 148.289062 36.253906 L 155.953125 36.792969 L 163.617188 37.335938 L 171.28125 37.886719 L 178.945312 38.445312 L 186.609375 39.007812 L 194.273438 39.578125 L 201.9375 40.15625 L 209.601562 40.742188 L 217.261719 41.332031 L 224.925781 41.933594 L 232.589844 42.539062 L 240.253906 43.152344 L 247.917969 43.769531 L 255.582031 44.398438 L 263.246094 45.035156 L 270.910156 45.675781 L 278.574219 46.328125 L 286.234375 46.984375 L 293.898438 47.652344 L 301.5625 48.324219 L 309.226562 49.007812 L 316.890625 49.695312 L 324.554688 50.394531 L 332.21875 51.097656 L 339.882812 51.8125 L 347.546875 52.535156 L 355.210938 53.261719 L 362.871094 54 L 370.535156 54.746094 L 378.199219 55.5 L 385.863281 56.265625 L 393.527344 57.035156 L 401.191406 57.816406 L 408.855469 58.601562 L 416.519531 59.398438 L 424.183594 60.203125 L 431.84375 61.019531 L 439.507812 61.839844 L 447.171875 62.671875 L 454.835938 63.507812 L 462.5 64.355469 L 470.164062 65.214844 L 477.828125 66.078125 L 485.492188 66.949219 L 493.15625 67.832031 L 500.816406 68.722656 L 508.480469 69.621094 L 516.144531 70.53125 L 523.808594 71.445312 L 531.472656 72.371094 L 539.136719 73.304688 L 546.800781 74.246094 L 554.464844 75.195312 L 562.128906 76.152344 L 569.789062 77.121094 L 577.453125 78.097656 L 585.117188 79.53125 L 592.78125 82.003906 L 600.445312 84.472656 L 608.109375 84.761719 L 615.773438 84.230469 L 623.4375 84.691406 L 631.101562 85.828125 L 638.761719 86.96875 L 646.425781 88.117188 L 654.089844 89.277344 L 661.753906 90.441406 L 669.417969 91.617188 L 677.082031 92.796875 L 684.746094 93.984375 L 692.410156 95.179688 L 700.074219 96.378906 L 707.734375 97.589844 L 715.398438 98.800781 L 723.0625 100.019531 L 738.390625 102.472656 L 753.71875 104.941406 L 769.046875 107.425781 L 776.710938 108.671875 L 784.371094 109.917969 L 792.035156 111.957031 L 799.699219 114.082031 L 807.363281 116.214844 L 815.027344 118.355469 L 822.691406 120.503906 L 830.355469 122.660156 L 838.019531 124.828125 L 845.683594 126.132812 "/>
<path fill="none" stroke-width="1.5" stroke-linecap="butt" stroke-linejoin="miter" stroke="rgb(50.196081%, 50.196081%, 50.196081%)" stroke-opacity="0.5" stroke-miterlimit="2" d="M 79.316406 31.683594 L 86.980469 31.992188 L 94.644531 32.316406 L 102.308594 32.65625 L 109.972656 33.007812 L 117.636719 33.375 L 125.300781 33.753906 L 132.964844 34.144531 L 140.628906 34.550781 L 148.289062 34.96875 L 155.953125 35.402344 L 163.617188 35.847656 L 171.28125 36.308594 L 178.945312 36.78125 L 186.609375 37.265625 L 194.273438 37.765625 L 201.9375 38.277344 L 209.601562 38.800781 L 217.261719 39.339844 L 224.925781 39.890625 L 232.589844 40.453125 L 240.253906 41.03125 L 247.917969 41.621094 L 255.582031 42.222656 L 263.246094 42.835938 L 270.910156 43.464844 L 278.574219 44.105469 L 286.234375 44.757812 L 293.898438 45.421875 L 301.5625 46.097656 L 309.226562 46.789062 L 316.890625 47.492188 L 324.554688 48.203125 L 332.21875 48.929688 L 339.882812 49.667969 L 347.546875 50.417969 L 355.210938 51.179688 L 362.871094 51.953125 L 370.535156 52.738281 L 378.199219 53.535156 L 385.863281 54.34375 L 393.527344 55.164062 L 401.191406 55.992188 L 408.855469 56.835938 L 416.519531 57.691406 L 424.183594 58.554688 L 431.84375 59.429688 L 439.507812 60.316406 L 447.171875 61.214844 L 454.835938 62.125 L 462.5 63.042969 L 470.164062 63.972656 L 477.828125 64.914062 L 485.492188 65.867188 L 493.15625 66.828125 L 500.816406 67.800781 L 508.480469 68.785156 L 516.144531 69.777344 L 523.808594 70.78125 L 531.472656 71.792969 L 539.136719 72.816406 L 546.800781 73.847656 L 554.464844 74.890625 L 562.128906 75.941406 L 569.789062 77.003906 L 577.453125 78.074219 L 585.117188 79.15625 L 592.78125 80.246094 L 600.445312 81.34375 L 608.109375 82.453125 L 615.773438 83.566406 L 623.4375 84.125 L 631.101562 85.160156 L 638.761719 86.199219 L 646.425781 87.25 L 654.089844 88.308594 L 661.753906 89.375 L 669.417969 90.449219 L 677.082031 91.53125 L 684.746094 92.621094 L 692.410156 93.722656 L 700.074219 94.828125 L 707.734375 95.941406 L 715.398438 97.0625 L 723.0625 98.191406 L 730.726562 99.328125 L 738.390625 100.476562 L 746.054688 101.628906 L 753.71875 102.789062 L 761.382812 103.953125 L 769.046875 105.613281 L 776.710938 107.722656 L 784.371094 109.835938 L 792.035156 111.164062 L 799.699219 112.410156 L 807.363281 113.660156 L 815.027344 114.90625 L 838.019531 118.632812 L 845.683594 120.738281 "/>
<path fill="none" stroke-width="1" stroke-linecap="butt" stroke-linejoin="miter" stroke="rgb(0%, 0%, 0%)" stroke-opacity="1" stroke-miterlimit="1.154701" d="M 79.316406 361.5 L 79.316406 366.5 "/>
<path fill="none" stroke-width="1" stroke-linecap="butt" stroke-linejoin="miter" stroke="rgb(0%, 0%, 0%)" stroke-opacity="1" stroke-miterlimit="1.154701" d="M 270.910156 361.5 L 270.910156 366.5 "/>
<path fill="none" stroke-width="1" stroke-linecap="butt" stroke-linejoin="miter" stroke="rgb(0%, 0%, 0%)" stroke-opacity="1" stroke-miterlimit="1.154701" d="M 462.5 361.5 L 462.5 366.5 "/>
<path fill="none" stroke-width="1" stroke-linecap="butt" stroke-linejoin="miter" stroke="rgb(0%, 0%, 0%)" stroke-opacity="1" stroke-miterlimit="1.154701" d="M 654.089844 361.5 L 654.089844 366.5 "/>
<path fill="none" stroke-width="1" stroke-linecap="butt" stroke-linejoin="miter" stroke="rgb(0%, 0%, 0%)" stroke-opacity="1" stroke-miterlimit="1.154701" d="M 845.683594 361.5 L 845.683594 366.5 "/>
<path fill="none" stroke-width="1" stroke-linecap="butt" stroke-linejoin="miter" stroke="rgb(0%, 0%, 0%)" stroke-opacity="1" stroke-miterlimit="1.154701" d="M 40.5 257.125 L 35.5 257.125 "/>
<path fill="none" stroke-width="1" stroke-linecap="butt" stroke-linejoin="miter" stroke="rgb(0%, 0%, 0%)" stroke-opacity="1" stroke-miterlimit="1.154701" d="M 40.5 144.402344 L 35.5 144.402344 "/>
<path fill="none" stroke-width="1" stroke-linecap="butt" stroke-linejoin="miter" stroke="rgb(0%, 0%, 0%)" stroke-opacity="1" stroke-miterlimit="1.154701" d="M 40.5 31.683594 L 35.5 31.683594 "/>
<path fill="none" stroke-width="1" stroke-linecap="butt" stroke-linejoin="miter" stroke="rgb(0%, 0%, 0%)" stroke-opacity="1" stroke-miterlimit="1.154701" d="M 40.5 361 L 884.5 361 "/>
<path fill="none" stroke-width="1" stroke-linecap="butt" stroke-linejoin="miter" stroke="rgb(0%, 0%, 0%)" stroke-opacity="1" stroke-miterlimit="1.154701" d="M 41 361.5 L 41 15.5 "/>
<path fill="none" stroke-width="1" stroke-linecap="butt" stroke-linejoin="miter" stroke="rgb(0%, 0%, 0%)" stroke-opacity="1" stroke-miterlimit="1.154701" d="M 40.5 16 L 884.5 16 "/>
<path fill="none" stroke-width="1" stroke-linecap="butt" stroke-linejoin="miter" stroke="rgb(0%, 0%, 0%)" stroke-opacity="1" stroke-miterlimit="1.154701" d="M 884 361.5 L 884 15.5 "/>
</svg>
