<?xml version="1.0" encoding="UTF-8"?>
<svg xmlns="http://www.w3.org/2000/svg" xmlns:xlink="http://www.w3.org/1999/xlink" width="900" height="400" viewBox="0 0 900 400">
<defs>
<g>
<g id="glyph-0-0-31fe9bc4">
<path d="M 7.09375 -4.78125 C 7.09375 -1.515625 5.953125 0.203125 3.84375 0.203125 C 1.71875 0.203125 0.609375 -1.515625 0.609375 -4.859375 C 0.609375 -8.1875 1.703125 -9.921875 3.84375 -9.921875 C 6 -9.921875 7.09375 -8.21875 7.09375 -4.78125 Z M 5.84375 -4.890625 C 5.84375 -7.546875 5.1875 -8.828125 3.84375 -8.828125 C 2.515625 -8.828125 1.859375 -7.5625 1.859375 -4.84375 C 1.859375 -2.125 2.515625 -0.8125 3.828125 -0.8125 C 5.1875 -0.8125 5.84375 -2.078125 5.84375 -4.890625 Z M 5.84375 -4.890625 "/>
</g>
<g id="glyph-1-0-31fe9bc4">
<path d="M 2.671875 0 C 2.671875 0 1.21875 0 1.21875 0 C 1.21875 0 1.21875 -1.453125 1.21875 -1.453125 C 1.21875 -1.453125 2.671875 -1.453125 2.671875 -1.453125 C 2.671875 -1.453125 2.671875 0 2.671875 0 Z M 2.671875 0 "/>
</g>
<g id="glyph-1-1-31fe9bc4">
<path d="M 7.09375 -4.78125 C 7.09375 -1.515625 5.953125 0.203125 3.84375 0.203125 C 1.71875 0.203125 0.609375 -1.515625 0.609375 -4.859375 C 0.609375 -8.1875 1.703125 -9.921875 3.84375 -9.921875 C 6 -9.921875 7.09375 -8.21875 7.09375 -4.78125 Z M 5.84375 -4.890625 C 5.84375 -7.546875 5.1875 -8.828125 3.84375 -8.828125 C 2.515625 -8.828125 1.859375 -7.5625 1.859375 -4.84375 C 1.859375 -2.125 2.515625 -0.8125 3.828125 -0.8125 C 5.1875 -0.8125 5.84375 -2.078125 5.84375 -4.890625 Z M 5.84375 -4.890625 "/>
</g>
<g id="glyph-1-2-31fe9bc4">
<path d="M 8.296875 -9.0625 C 8.296875 -9.0625 4.953125 -9.0625 4.953125 -9.0625 C 4.953125 -9.0625 4.953125 0 4.953125 0 C 4.953125 0 3.65625 0 3.65625 0 C 3.65625 0 3.65625 -9.0625 3.65625 -9.0625 C 3.65625 -9.0625 0.296875 -9.0625 0.296875 -9.0625 C 0.296875 -9.0625 0.296875 -10.203125 0.296875 -10.203125 C 0.296875 -10.203125 8.296875 -10.203125 8.296875 -10.203125 C 8.296875 -10.203125 8.296875 -9.0625 8.296875 -9.0625 Z M 8.296875 -9.0625 "/>
</g>
<g id="glyph-1-3-31fe9bc4">
<path d="M 7.15625 -7.015625 C 7.15625 -5.796875 6.4375 -4.765625 5.046875 -4.015625 C 5.046875 -4.015625 3.65625 -3.265625 3.65625 -3.265625 C 2.4375 -2.546875 1.984375 -2.03125 1.859375 -1.21875 C 1.859375 -1.21875 7.078125 -1.21875 7.078125 -1.21875 C 7.078125 -1.21875 7.078125 0 7.078125 0 C 7.078125 0 0.46875 0 0.46875 0 C 0.59375 -2.1875 1.1875 -3.125 3.265625 -4.296875 C 3.265625 -4.296875 4.546875 -5.03125 4.546875 -5.03125 C 5.4375 -5.53125 5.890625 -6.203125 5.890625 -6.984375 C 5.890625 -8.046875 5.046875 -8.84375 3.9375 -8.84375 C 2.71875 -8.84375 2.03125 -8.140625 1.9375 -6.484375 C 1.9375 -6.484375 0.703125 -6.484375 0.703125 -6.484375 C 0.765625 -8.890625 1.953125 -9.921875 3.96875 -9.921875 C 5.859375 -9.921875 7.15625 -8.6875 7.15625 -7.015625 Z M 7.15625 -7.015625 "/>
</g>
<g id="glyph-1-4-31fe9bc4">
<path d="M 7.1875 -3.296875 C 7.1875 -1.1875 5.78125 0.203125 3.78125 0.203125 C 2.015625 0.203125 0.890625 -0.578125 0.484375 -2.546875 C 0.484375 -2.546875 1.71875 -2.546875 1.71875 -2.546875 C 2.015625 -1.421875 2.671875 -0.875 3.75 -0.875 C 5.09375 -0.875 5.921875 -1.6875 5.921875 -3.125 C 5.921875 -4.59375 5.078125 -5.453125 3.75 -5.453125 C 2.984375 -5.453125 2.5 -5.203125 1.9375 -4.515625 C 1.9375 -4.515625 0.796875 -4.515625 0.796875 -4.515625 C 0.796875 -4.515625 1.546875 -9.71875 1.546875 -9.71875 C 1.546875 -9.71875 6.65625 -9.71875 6.65625 -9.71875 C 6.65625 -9.71875 6.65625 -8.5 6.65625 -8.5 C 6.65625 -8.5 2.53125 -8.5 2.53125 -8.5 C 2.53125 -8.5 2.140625 -5.9375 2.140625 -5.9375 C 2.71875 -6.359375 3.28125 -6.53125 3.96875 -6.53125 C 5.875 -6.53125 7.1875 -5.25 7.1875 -3.296875 Z M 7.1875 -3.296875 "/>
</g>
<g id="glyph-1-5-31fe9bc4">
<path d="M 7.28125 -8.6875 C 5.1875 -6.203125 3.796875 -3.203125 3.25 0 C 3.25 0 1.9375 0 1.9375 0 C 2.625 -3.109375 4.03125 -6 6 -8.5 C 6 -8.5 0.640625 -8.5 0.640625 -8.5 C 0.640625 -8.5 0.640625 -9.71875 0.640625 -9.71875 C 0.640625 -9.71875 7.28125 -9.71875 7.28125 -9.71875 C 7.28125 -9.71875 7.28125 -8.6875 7.28125 -8.6875 Z M 7.28125 -8.6875 "/>
</g>
<g id="glyph-1-6-31fe9bc4">
<path d="M 4.859375 0 C 4.859375 0 3.625 0 3.625 0 C 3.625 0 3.625 -7.0625 3.625 -7.0625 C 3.625 -7.0625 1.421875 -7.0625 1.421875 -7.0625 C 1.421875 -7.0625 1.421875 -7.953125 1.421875 -7.953125 C 3.328125 -8.1875 3.609375 -8.40625 4.046875 -9.921875 C 4.046875 -9.921875 4.859375 -9.921875 4.859375 -9.921875 C 4.859375 -9.921875 4.859375 0 4.859375 0 Z M 4.859375 0 "/>
</g>
<g id="glyph-1-7-31fe9bc4">
<path d="M 7.21875 -3.03125 C 7.21875 -3.03125 0.953125 -3.03125 0.953125 -3.03125 C 0.953125 -3.03125 0.953125 -3.96875 0.953125 -3.96875 C 0.953125 -3.96875 7.21875 -3.96875 7.21875 -3.96875 C 7.21875 -3.96875 7.21875 -3.03125 7.21875 -3.03125 Z M 7.21875 -3.03125 "/>
</g>
<g id="glyph-1-8-31fe9bc4">
<path d="M 7.28125 -2.375 C 7.28125 -2.375 5.8125 -2.375 5.8125 -2.375 C 5.8125 -2.375 5.8125 0 5.8125 0 C 5.8125 0 4.578125 0 4.578125 0 C 4.578125 0 4.578125 -2.375 4.578125 -2.375 C 4.578125 -2.375 0.390625 -2.375 0.390625 -2.375 C 0.390625 -2.375 0.390625 -3.6875 0.390625 -3.6875 C 0.390625 -3.6875 4.90625 -9.921875 4.90625 -9.921875 C 4.90625 -9.921875 5.8125 -9.921875 5.8125 -9.921875 C 5.8125 -9.921875 5.8125 -3.484375 5.8125 -3.484375 C 5.8125 -3.484375 7.28125 -3.484375 7.28125 -3.484375 C 7.28125 -3.484375 7.28125 -2.375 7.28125 -2.375 Z M 4.578125 -3.484375 C 4.578125 -3.484375 4.578125 -7.828125 4.578125 -7.828125 C 4.578125 -7.828125 1.46875 -3.484375 1.46875 -3.484375 C 1.46875 -3.484375 4.578125 -3.484375 4.578125 -3.484375 Z M 4.578125 -3.484375 "/>
</g>
<g id="glyph-1-9-31fe9bc4">
<path d="M 7.1875 -3.078125 C 7.1875 -1.140625 5.828125 0.203125 3.9375 0.203125 C 1.671875 0.203125 0.609375 -1.421875 0.609375 -4.515625 C 0.609375 -7.984375 1.84375 -9.921875 4.15625 -9.921875 C 5.671875 -9.921875 6.734375 -8.953125 6.96875 -7.34375 C 6.96875 -7.34375 5.734375 -7.34375 5.734375 -7.34375 C 5.546875 -8.28125 4.9375 -8.828125 4.078125 -8.828125 C 2.65625 -8.828125 1.875 -7.484375 1.859375 -5.0625 C 2.390625 -5.796875 3.15625 -6.171875 4.140625 -6.171875 C 5.921875 -6.171875 7.1875 -4.921875 7.1875 -3.078125 Z M 5.921875 -2.984375 C 5.921875 -4.3125 5.1875 -5.078125 3.984375 -5.078125 C 2.765625 -5.078125 1.9375 -4.28125 1.9375 -3.046875 C 1.9375 -1.78125 2.796875 -0.875 3.953125 -0.875 C 5.078125 -0.875 5.921875 -1.734375 5.921875 -2.984375 Z M 5.921875 -2.984375 "/>
</g>
<g id="glyph-1-10-31fe9bc4">
<path d="M 7.1875 -2.796875 C 7.1875 -1 5.8125 0.203125 3.84375 0.203125 C 1.890625 0.203125 0.515625 -1 0.515625 -2.8125 C 0.515625 -3.90625 1.078125 -4.671875 2.21875 -5.21875 C 1.203125 -5.859375 0.875 -6.359375 0.875 -7.28125 C 0.875 -8.828125 2.09375 -9.921875 3.84375 -9.921875 C 5.609375 -9.921875 6.828125 -8.828125 6.828125 -7.28125 C 6.828125 -6.34375 6.5 -5.84375 5.46875 -5.21875 C 6.625 -4.671875 7.1875 -3.90625 7.1875 -2.796875 Z M 5.578125 -7.25 C 5.578125 -8.21875 4.90625 -8.828125 3.84375 -8.828125 C 2.8125 -8.828125 2.125 -8.21875 2.125 -7.265625 C 2.125 -6.328125 2.8125 -5.71875 3.84375 -5.71875 C 4.890625 -5.71875 5.578125 -6.328125 5.578125 -7.25 Z M 5.921875 -2.78125 C 5.921875 -3.953125 5.078125 -4.671875 3.84375 -4.671875 C 2.625 -4.671875 1.78125 -3.953125 1.78125 -2.78125 C 1.78125 -1.625 2.625 -0.875 3.828125 -0.875 C 5.078125 -0.875 5.921875 -1.609375 5.921875 -2.78125 Z M 5.921875 -2.78125 "/>
</g>
<g id="glyph-2-0-31fe9bc4">
<path d="M 2.671875 0 C 2.671875 0 1.21875 0 1.21875 0 C 1.21875 0 1.21875 -1.453125 1.21875 -1.453125 C 1.21875 -1.453125 2.671875 -1.453125 2.671875 -1.453125 C 2.671875 -1.453125 2.671875 0 2.671875 0 Z M 2.671875 0 "/>
</g>
<g id="glyph-3-0-31fe9bc4">
<path d="M 4.703125 3.21875 C 4.703125 3.171875 4.703125 3.15625 4.6875 3.125 L 2.109375 -3.5 L 4.6875 -10.125 C 4.703125 -10.15625 4.703125 -10.171875 4.703125 -10.21875 C 4.703125 -10.375 4.578125 -10.5 4.421875 -10.5 C 4.3125 -10.5 4.203125 -10.4375 4.15625 -10.3125 L 1.546875 -3.59375 C 1.546875 -3.5625 1.546875 -3.546875 1.546875 -3.5 C 1.546875 -3.453125 1.546875 -3.4375 1.546875 -3.40625 L 4.15625 3.3125 C 4.203125 3.4375 4.3125 3.5 4.421875 3.5 C 4.578125 3.5 4.703125 3.375 4.703125 3.21875 Z M 4.703125 3.21875 "/>
</g>
<g id="glyph-3-1-31fe9bc4">
<path d="M 3.890625 -3.59375 L 1.28125 -10.3125 C 1.25 -10.4375 1.140625 -10.5 1.015625 -10.5 C 0.875 -10.5 0.734375 -10.375 0.734375 -10.21875 C 0.734375 -10.171875 0.734375 -10.15625 0.75 -10.125 L 3.328125 -3.5 L 0.75 3.125 C 0.734375 3.15625 0.734375 3.171875 0.734375 3.21875 C 0.734375 3.375 0.875 3.5 1.015625 3.5 C 1.140625 3.5 1.25 3.4375 1.28125 3.3125 L 3.890625 -3.40625 C 3.90625 -3.4375 3.90625 -3.453125 3.90625 -3.5 C 3.90625 -3.546875 3.90625 -3.5625 3.890625 -3.59375 Z M 3.890625 -3.59375 "/>
</g>
<g id="glyph-3-2-31fe9bc4">
<path d="M 2.21875 3.21875 L 2.21875 -10.21875 C 2.21875 -10.375 2.09375 -10.5 1.953125 -10.5 C 1.796875 -10.5 1.671875 -10.375 1.671875 -10.21875 L 1.671875 3.21875 C 1.671875 3.375 1.796875 3.5 1.953125 3.5 C 2.09375 3.5 2.21875 3.375 2.21875 3.21875 Z M 2.21875 3.21875 "/>
</g>
<g id="glyph-3-3-31fe9bc4">
<path d="M 8.890625 -5.203125 C 8.890625 -5.984375 8.515625 -6.1875 8.28125 -6.1875 C 7.921875 -6.1875 7.578125 -5.828125 7.578125 -5.515625 C 7.578125 -5.328125 7.65625 -5.25 7.78125 -5.140625 C 7.9375 -4.984375 8.28125 -4.625 8.28125 -3.953125 C 8.28125 -3.046875 7.5625 -1.90625 7.0625 -1.40625 C 5.84375 -0.15625 4.9375 -0.15625 4.4375 -0.15625 L 6.75 -9.359375 C 6.765625 -9.40625 6.796875 -9.484375 6.796875 -9.5625 C 6.796875 -9.703125 6.6875 -9.71875 6.625 -9.71875 C 6.484375 -9.71875 6.46875 -9.6875 6.40625 -9.4375 L 4.09375 -0.1875 C 3.03125 -0.3125 2.484375 -0.828125 2.484375 -1.75 C 2.484375 -2.03125 2.484375 -2.390625 3.25 -4.359375 C 3.296875 -4.515625 3.40625 -4.765625 3.40625 -5.046875 C 3.40625 -5.671875 2.953125 -6.1875 2.25 -6.1875 C 0.921875 -6.1875 0.40625 -4.15625 0.40625 -4.03125 C 0.40625 -3.890625 0.578125 -3.890625 0.578125 -3.890625 C 0.71875 -3.890625 0.734375 -3.921875 0.796875 -4.140625 C 1.171875 -5.46875 1.734375 -5.875 2.21875 -5.875 C 2.328125 -5.875 2.5625 -5.875 2.5625 -5.4375 C 2.5625 -5.0625 2.421875 -4.71875 2.234375 -4.234375 C 1.5625 -2.46875 1.5625 -2.09375 1.5625 -1.859375 C 1.5625 -0.53125 2.65625 0.046875 4 0.125 C 3.890625 0.625 3.890625 0.65625 3.703125 1.40625 C 3.65625 1.546875 3.375 2.6875 3.375 2.734375 C 3.375 2.734375 3.375 2.875 3.546875 2.875 C 3.546875 2.875 3.640625 2.875 3.671875 2.8125 C 3.703125 2.78125 3.796875 2.4375 3.84375 2.234375 L 4.375 0.15625 C 4.890625 0.15625 6.125 0.15625 7.4375 -1.34375 C 8.015625 -1.984375 8.296875 -2.609375 8.453125 -3.03125 C 8.578125 -3.375 8.890625 -4.59375 8.890625 -5.203125 Z M 8.890625 -5.203125 "/>
</g>
<g id="glyph-3-4-31fe9bc4">
<path d="M 4.640625 3.328125 C 4.640625 3.296875 4.625 3.25 4.59375 3.21875 C 3.140625 2.125 2.171875 -0.671875 2.171875 -2.90625 L 2.171875 -4.09375 C 2.171875 -6.328125 3.140625 -9.125 4.59375 -10.21875 C 4.625 -10.25 4.640625 -10.296875 4.640625 -10.328125 C 4.640625 -10.40625 4.578125 -10.46875 4.515625 -10.46875 C 4.484375 -10.46875 4.453125 -10.453125 4.421875 -10.4375 C 2.890625 -9.28125 1.40625 -6.484375 1.40625 -4.09375 L 1.40625 -2.90625 C 1.40625 -0.515625 2.890625 2.28125 4.421875 3.4375 C 4.453125 3.453125 4.484375 3.46875 4.515625 3.46875 C 4.578125 3.46875 4.640625 3.40625 4.640625 3.328125 Z M 4.640625 3.328125 "/>
</g>
<g id="glyph-3-5-31fe9bc4">
<path d="M 4.03125 -2.90625 L 4.03125 -4.09375 C 4.03125 -6.484375 2.5625 -9.28125 1.015625 -10.4375 C 1 -10.453125 0.96875 -10.46875 0.9375 -10.46875 C 0.875 -10.46875 0.796875 -10.40625 0.796875 -10.328125 C 0.796875 -10.296875 0.828125 -10.25 0.859375 -10.21875 C 2.3125 -9.125 3.28125 -6.328125 3.28125 -4.09375 L 3.28125 -2.90625 C 3.28125 -0.671875 2.3125 2.125 0.859375 3.21875 C 0.828125 3.25 0.796875 3.296875 0.796875 3.328125 C 0.796875 3.40625 0.875 3.46875 0.9375 3.46875 C 0.96875 3.46875 1 3.453125 1.015625 3.4375 C 2.5625 2.28125 4.03125 -0.515625 4.03125 -2.90625 Z M 4.03125 -2.90625 "/>
</g>
<g id="glyph-3-6-31fe9bc4">
<path d="M 5.859375 0 L 5.859375 -0.4375 L 5.421875 -0.4375 C 4.15625 -0.4375 4.109375 -0.59375 4.109375 -1.109375 L 4.109375 -8.953125 C 4.109375 -9.296875 4.109375 -9.328125 3.796875 -9.328125 C 2.921875 -8.421875 1.6875 -8.421875 1.25 -8.421875 L 1.25 -8 C 1.53125 -8 2.359375 -8 3.078125 -8.359375 L 3.078125 -1.109375 C 3.078125 -0.609375 3.03125 -0.4375 1.78125 -0.4375 L 1.328125 -0.4375 L 1.328125 0 C 1.8125 -0.046875 3.03125 -0.046875 3.59375 -0.046875 C 4.15625 -0.046875 5.375 -0.046875 5.859375 0 Z M 5.859375 0 "/>
</g>
<g id="glyph-3-7-31fe9bc4">
<path d="M 6.4375 -4.484375 C 6.4375 -5.59375 6.375 -6.71875 5.875 -7.75 C 5.234375 -9.09375 4.09375 -9.328125 3.5 -9.328125 C 2.65625 -9.328125 1.640625 -8.953125 1.0625 -7.65625 C 0.609375 -6.6875 0.546875 -5.59375 0.546875 -4.484375 C 0.546875 -3.4375 0.609375 -2.171875 1.171875 -1.109375 C 1.78125 0.03125 2.796875 0.3125 3.484375 0.3125 C 4.234375 0.3125 5.3125 0.015625 5.921875 -1.3125 C 6.375 -2.28125 6.4375 -3.375 6.4375 -4.484375 Z M 5.28125 -4.640625 C 5.28125 -3.59375 5.28125 -2.640625 5.125 -1.75 C 4.90625 -0.421875 4.109375 0 3.484375 0 C 2.9375 0 2.109375 -0.34375 1.859375 -1.6875 C 1.703125 -2.53125 1.703125 -3.828125 1.703125 -4.640625 C 1.703125 -5.546875 1.703125 -6.46875 1.8125 -7.21875 C 2.09375 -8.890625 3.140625 -9.015625 3.484375 -9.015625 C 3.953125 -9.015625 4.875 -8.765625 5.140625 -7.375 C 5.28125 -6.59375 5.28125 -5.53125 5.28125 -4.640625 Z M 5.28125 -4.640625 "/>
</g>
<g id="glyph-4-0-31fe9bc4">
<path d="M 9.640625 -0.25 C 9.640625 -0.4375 9.546875 -0.4375 9.265625 -0.4375 C 8.453125 -0.4375 8.453125 -0.546875 8.453125 -0.671875 C 8.453125 -0.671875 8.453125 -0.78125 8.515625 -1 L 10.40625 -8.5625 C 10.515625 -9.015625 10.625 -9.125 11.515625 -9.125 C 11.796875 -9.125 11.921875 -9.125 11.921875 -9.375 C 11.921875 -9.53125 11.828125 -9.5625 11.734375 -9.5625 C 11.203125 -9.5625 10.625 -9.515625 10.078125 -9.515625 C 9.515625 -9.515625 8.953125 -9.5625 8.40625 -9.5625 C 8.3125 -9.5625 8.140625 -9.5625 8.140625 -9.296875 C 8.140625 -9.125 8.25 -9.125 8.515625 -9.125 C 8.953125 -9.125 9.328125 -9.125 9.328125 -8.890625 C 9.328125 -8.84375 9.328125 -8.8125 9.265625 -8.625 L 8.40625 -5.1875 L 4.578125 -5.1875 L 5.421875 -8.5625 C 5.53125 -9.015625 5.640625 -9.125 6.53125 -9.125 C 6.8125 -9.125 6.9375 -9.125 6.9375 -9.375 C 6.9375 -9.53125 6.84375 -9.5625 6.75 -9.5625 C 6.21875 -9.5625 5.640625 -9.515625 5.09375 -9.515625 C 4.53125 -9.515625 3.96875 -9.5625 3.421875 -9.5625 C 3.328125 -9.5625 3.15625 -9.5625 3.15625 -9.296875 C 3.15625 -9.125 3.265625 -9.125 3.53125 -9.125 C 3.96875 -9.125 4.34375 -9.125 4.34375 -8.890625 C 4.34375 -8.84375 4.34375 -8.8125 4.28125 -8.625 L 2.390625 -1.015625 C 2.28125 -0.546875 2.203125 -0.4375 1.25 -0.4375 C 1.015625 -0.4375 0.875 -0.4375 0.875 -0.171875 C 0.875 0 1.015625 0 1.0625 0 C 1.59375 0 2.171875 -0.046875 2.71875 -0.046875 C 3.28125 -0.046875 3.84375 0 4.390625 0 C 4.5 0 4.65625 0 4.65625 -0.25 C 4.65625 -0.4375 4.5625 -0.4375 4.28125 -0.4375 C 3.46875 -0.4375 3.46875 -0.546875 3.46875 -0.671875 C 3.46875 -0.734375 3.46875 -0.75 3.53125 -0.953125 L 4.46875 -4.765625 L 8.296875 -4.765625 L 7.375 -1.015625 C 7.265625 -0.546875 7.1875 -0.4375 6.234375 -0.4375 C 6 -0.4375 5.859375 -0.4375 5.859375 -0.171875 C 5.859375 0 6 0 6.046875 0 C 6.578125 0 7.15625 -0.046875 7.703125 -0.046875 C 8.265625 -0.046875 8.828125 0 9.375 0 C 9.484375 0 9.640625 0 9.640625 -0.25 Z M 9.640625 -0.25 "/>
</g>
<g id="glyph-4-1-31fe9bc4">
<path d="M 4.984375 -2 C 4.984375 -2.140625 4.875 -2.140625 4.78125 -2.140625 C 4.609375 -2.140625 4.609375 -2.125 4.5 -1.875 C 4.234375 -1.203125 3.6875 -0.15625 2.890625 -0.15625 C 2.5 -0.15625 2.5 -0.5 2.5 -0.734375 C 2.5 -0.828125 2.5 -1.046875 2.609375 -1.4375 L 3.640625 -5.59375 L 4.828125 -5.59375 C 5.0625 -5.59375 5.21875 -5.59375 5.21875 -5.859375 C 5.21875 -6.03125 5.09375 -6.03125 4.875 -6.03125 L 3.75 -6.03125 L 4.265625 -8.109375 C 4.328125 -8.296875 4.328125 -8.328125 4.328125 -8.40625 C 4.328125 -8.6875 4.09375 -8.765625 3.953125 -8.765625 C 3.59375 -8.765625 3.453125 -8.46875 3.40625 -8.265625 L 2.859375 -6.03125 L 1.671875 -6.03125 C 1.421875 -6.03125 1.28125 -6.03125 1.28125 -5.765625 C 1.28125 -5.59375 1.40625 -5.59375 1.625 -5.59375 L 2.75 -5.59375 L 1.734375 -1.578125 C 1.71875 -1.53125 1.671875 -1.296875 1.671875 -1.109375 C 1.671875 -0.40625 2.125 0.15625 2.859375 0.15625 C 4.265625 0.15625 4.984375 -1.9375 4.984375 -2 Z M 4.984375 -2 "/>
</g>
<g id="glyph-4-2-31fe9bc4">
<path d="M 10.84375 -6.625 L 11.265625 -9.125 C 11.28125 -9.1875 11.28125 -9.25 11.28125 -9.3125 C 11.28125 -9.484375 11.15625 -9.484375 10.9375 -9.484375 L 3.75 -9.484375 C 3.46875 -9.484375 3.4375 -9.484375 3.34375 -9.21875 L 2.515625 -6.71875 C 2.453125 -6.53125 2.453125 -6.484375 2.453125 -6.484375 C 2.453125 -6.328125 2.625 -6.328125 2.65625 -6.328125 C 2.71875 -6.328125 2.765625 -6.328125 2.8125 -6.375 C 2.84375 -6.390625 2.859375 -6.40625 3 -6.78125 C 3.65625 -8.75 4.046875 -9.046875 5.859375 -9.046875 L 6.328125 -9.046875 C 6.65625 -9.046875 6.65625 -8.984375 6.65625 -8.890625 C 6.65625 -8.796875 6.625 -8.671875 6.59375 -8.578125 L 4.71875 -1.0625 C 4.59375 -0.578125 4.46875 -0.4375 3.234375 -0.4375 L 3.015625 -0.4375 C 2.765625 -0.4375 2.625 -0.4375 2.625 -0.171875 C 2.625 0 2.78125 0 2.859375 0 C 3.5625 0 4.3125 -0.046875 5.03125 -0.046875 C 5.75 -0.046875 6.515625 0 7.21875 0 C 7.34375 0 7.515625 0 7.515625 -0.28125 C 7.515625 -0.4375 7.375 -0.4375 7.171875 -0.4375 L 6.953125 -0.4375 C 6.734375 -0.4375 6.296875 -0.46875 6.265625 -0.46875 C 5.859375 -0.5 5.796875 -0.5625 5.796875 -0.75 C 5.796875 -0.796875 5.796875 -0.828125 5.859375 -1.015625 L 7.734375 -8.546875 C 7.828125 -8.96875 7.9375 -9 8.046875 -9.015625 C 8.15625 -9.046875 8.546875 -9.046875 8.78125 -9.046875 C 10.234375 -9.046875 10.5625 -8.84375 10.5625 -7.984375 C 10.5625 -7.8125 10.5625 -7.546875 10.421875 -6.71875 C 10.390625 -6.5625 10.390625 -6.515625 10.390625 -6.515625 C 10.390625 -6.328125 10.53125 -6.328125 10.59375 -6.328125 C 10.78125 -6.328125 10.8125 -6.375 10.84375 -6.625 Z M 10.84375 -6.625 "/>
</g>
<g id="glyph-5-0-31fe9bc4">
<path d="M 3.796875 -5.375 C 3.796875 -5.734375 3.453125 -5.921875 3.109375 -5.921875 C 2.28125 -5.921875 2.078125 -4.828125 2.015625 -4.546875 L 1.84375 -3.625 L 1.28125 -3.625 C 1.15625 -3.625 1.0625 -3.625 1.0625 -3.453125 C 1.0625 -3.359375 1.140625 -3.359375 1.265625 -3.359375 L 1.796875 -3.359375 L 1.171875 -0.234375 C 1.078125 0.296875 0.984375 0.640625 0.9375 0.8125 C 0.875 1.09375 0.765625 1.53125 0.46875 1.53125 C 0.375 1.53125 0.21875 1.515625 0.125 1.390625 C 0.375 1.34375 0.5 1.140625 0.5 0.96875 C 0.5 0.796875 0.34375 0.703125 0.203125 0.703125 C 0 0.703125 -0.203125 0.875 -0.203125 1.171875 C -0.203125 1.546875 0.15625 1.71875 0.46875 1.71875 C 1.34375 1.71875 1.6875 -0.046875 1.734375 -0.34375 L 2.328125 -3.359375 L 3.015625 -3.359375 C 3.15625 -3.359375 3.25 -3.359375 3.25 -3.515625 C 3.25 -3.625 3.171875 -3.625 3.03125 -3.625 L 2.375 -3.625 L 2.640625 -4.984375 C 2.71875 -5.296875 2.8125 -5.734375 3.109375 -5.734375 C 3.171875 -5.734375 3.359375 -5.71875 3.46875 -5.59375 C 3.21875 -5.546875 3.09375 -5.34375 3.09375 -5.171875 C 3.09375 -5 3.25 -4.90625 3.375 -4.90625 C 3.59375 -4.90625 3.796875 -5.078125 3.796875 -5.375 Z M 3.796875 -5.375 "/>
</g>
<g id="glyph-6-0-31fe9bc4">
<path d="M 7.09375 -4.78125 C 7.09375 -1.515625 5.953125 0.203125 3.84375 0.203125 C 1.71875 0.203125 0.609375 -1.515625 0.609375 -4.859375 C 0.609375 -8.1875 1.703125 -9.921875 3.84375 -9.921875 C 6 -9.921875 7.09375 -8.21875 7.09375 -4.78125 Z M 5.84375 -4.890625 C 5.84375 -7.546875 5.1875 -8.828125 3.84375 -8.828125 C 2.515625 -8.828125 1.859375 -7.5625 1.859375 -4.84375 C 1.859375 -2.125 2.515625 -0.8125 3.828125 -0.8125 C 5.1875 -0.8125 5.84375 -2.078125 5.84375 -4.890625 Z M 5.84375 -4.890625 "/>
</g>
<g id="glyph-6-1-31fe9bc4">
<path d="M 2.671875 0 C 2.671875 0 1.21875 0 1.21875 0 C 1.21875 0 1.21875 -1.453125 1.21875 -1.453125 C 1.21875 -1.453125 2.671875 -1.453125 2.671875 -1.453125 C 2.671875 -1.453125 2.671875 0 2.671875 0 Z M 2.671875 0 "/>
</g>
<g id="glyph-6-2-31fe9bc4">
<path d="M 7.28125 -8.6875 C 5.1875 -6.203125 3.796875 -3.203125 3.25 0 C 3.25 0 1.9375 0 1.9375 0 C 2.625 -3.109375 4.03125 -6 6 -8.5 C 6 -8.5 0.640625 -8.5 0.640625 -8.5 C 0.640625 -8.5 0.640625 -9.71875 0.640625 -9.71875 C 0.640625 -9.71875 7.28125 -9.71875 7.28125 -9.71875 C 7.28125 -9.71875 7.28125 -8.6875 7.28125 -8.6875 Z M 7.28125 -8.6875 "/>
</g>
<g id="glyph-7-0-31fe9bc4">
<path d="M 7.09375 -4.78125 C 7.09375 -1.515625 5.953125 0.203125 3.84375 0.203125 C 1.71875 0.203125 0.609375 -1.515625 0.609375 -4.859375 C 0.609375 -8.1875 1.703125 -9.921875 3.84375 -9.921875 C 6 -9.921875 7.09375 -8.21875 7.09375 -4.78125 Z M 5.84375 -4.890625 C 5.84375 -7.546875 5.1875 -8.828125 3.84375 -8.828125 C 2.515625 -8.828125 1.859375 -7.5625 1.859375 -4.84375 C 1.859375 -2.125 2.515625 -0.8125 3.828125 -0.8125 C 5.1875 -0.8125 5.84375 -2.078125 5.84375 -4.890625 Z M 5.84375 -4.890625 "/>
</g>
<g id="glyph-7-1-31fe9bc4">
<path d="M 2.671875 0 C 2.671875 0 1.21875 0 1.21875 0 C 1.21875 0 1.21875 -1.453125 1.21875 -1.453125 C 1.21875 -1.453125 2.671875 -1.453125 2.671875 -1.453125 C 2.671875 -1.453125 2.671875 0 2.671875 0 Z M 2.671875 0 "/>
</g>
<g id="glyph-7-2-31fe9bc4">
<path d="M 7.125 -5.1875 C 7.125 -1.765625 5.875 0.203125 3.5625 0.203125 C 2.046875 0.203125 0.984375 -0.75 0.734375 -2.375 C 0.734375 -2.375 1.96875 -2.375 1.96875 -2.375 C 2.171875 -1.421875 2.765625 -0.875 3.640625 -0.875 C 5.046875 -0.875 5.84375 -2.21875 5.859375 -4.640625 C 5.203125 -3.875 4.515625 -3.546875 3.578125 -3.546875 C 1.796875 -3.546875 0.53125 -4.78125 0.53125 -6.640625 C 0.53125 -8.578125 1.890625 -9.921875 3.78125 -9.921875 C 6.046875 -9.921875 7.125 -8.296875 7.125 -5.1875 Z M 5.78125 -6.65625 C 5.78125 -7.953125 4.90625 -8.84375 3.765625 -8.84375 C 2.625 -8.84375 1.796875 -8 1.796875 -6.734375 C 1.796875 -5.40625 2.53125 -4.640625 3.71875 -4.640625 C 4.921875 -4.640625 5.78125 -5.453125 5.78125 -6.65625 Z M 5.78125 -6.65625 "/>
</g>
<g id="glyph-8-0-31fe9bc4">
<path d="M 6.453125 -2.1875 C 6.453125 -2.25 6.421875 -2.296875 6.34375 -2.296875 C 6.09375 -2.296875 5.796875 -2.265625 5.53125 -2.265625 C 5.171875 -2.265625 4.796875 -2.296875 4.4375 -2.296875 C 4.359375 -2.296875 4.25 -2.296875 4.25 -2.125 C 4.25 -2.03125 4.34375 -2.03125 4.46875 -2.03125 L 4.546875 -2.03125 C 4.65625 -2.03125 4.796875 -2.03125 4.90625 -2.015625 C 5.078125 -2 5.140625 -1.984375 5.140625 -1.859375 C 5.140625 -1.828125 5.140625 -1.8125 5.078125 -1.578125 C 4.890625 -0.828125 4.875 -0.734375 4.625 -0.5 C 4.265625 -0.171875 3.796875 -0.078125 3.484375 -0.078125 C 2.6875 -0.078125 2 -0.625 2 -1.75 C 2 -2.234375 2.1875 -3.578125 2.875 -4.5 C 3.453125 -5.28125 4.21875 -5.671875 4.859375 -5.671875 C 5.765625 -5.671875 6.0625 -4.859375 6.0625 -4.125 C 6.0625 -3.90625 6.015625 -3.640625 6.015625 -3.609375 C 6.015625 -3.53125 6.109375 -3.53125 6.140625 -3.53125 C 6.234375 -3.53125 6.265625 -3.53125 6.296875 -3.6875 L 6.8125 -5.71875 C 6.8125 -5.765625 6.828125 -5.8125 6.828125 -5.84375 C 6.828125 -5.84375 6.8125 -5.921875 6.734375 -5.921875 C 6.734375 -5.921875 6.671875 -5.921875 6.59375 -5.828125 L 6.0625 -5.21875 C 5.703125 -5.796875 5.21875 -5.921875 4.796875 -5.921875 C 3.0625 -5.921875 1.265625 -4.03125 1.265625 -2.0625 C 1.265625 -0.703125 2.140625 0.1875 3.328125 0.1875 C 4.109375 0.1875 4.71875 -0.203125 4.953125 -0.515625 C 5.03125 -0.3125 5.21875 -0.015625 5.3125 -0.015625 C 5.375 -0.015625 5.390625 -0.0625 5.40625 -0.15625 L 5.8125 -1.75 C 5.875 -1.953125 5.890625 -2.03125 6.25 -2.03125 C 6.359375 -2.03125 6.453125 -2.03125 6.453125 -2.1875 Z M 6.453125 -2.1875 "/>
</g>
<g id="glyph-8-1-31fe9bc4">
<path d="M 3.796875 -5.375 C 3.796875 -5.734375 3.453125 -5.921875 3.109375 -5.921875 C 2.28125 -5.921875 2.078125 -4.828125 2.015625 -4.546875 L 1.84375 -3.625 L 1.28125 -3.625 C 1.15625 -3.625 1.0625 -3.625 1.0625 -3.453125 C 1.0625 -3.359375 1.140625 -3.359375 1.265625 -3.359375 L 1.796875 -3.359375 L 1.171875 -0.234375 C 1.078125 0.296875 0.984375 0.640625 0.9375 0.8125 C 0.875 1.09375 0.765625 1.53125 0.46875 1.53125 C 0.375 1.53125 0.21875 1.515625 0.125 1.390625 C 0.375 1.34375 0.5 1.140625 0.5 0.96875 C 0.5 0.796875 0.34375 0.703125 0.203125 0.703125 C 0 0.703125 -0.203125 0.875 -0.203125 1.171875 C -0.203125 1.546875 0.15625 1.71875 0.46875 1.71875 C 1.34375 1.71875 1.6875 -0.046875 1.734375 -0.34375 L 2.328125 -3.359375 L 3.015625 -3.359375 C 3.15625 -3.359375 3.25 -3.359375 3.25 -3.515625 C 3.25 -3.625 3.171875 -3.625 3.03125 -3.625 L 2.375 -3.625 L 2.640625 -4.984375 C 2.71875 -5.296875 2.8125 -5.734375 3.109375 -5.734375 C 3.171875 -5.734375 3.359375 -5.71875 3.46875 -5.59375 C 3.21875 -5.546875 3.09375 -5.34375 3.09375 -5.171875 C 3.09375 -5 3.25 -4.90625 3.375 -4.90625 C 3.59375 -4.90625 3.796875 -5.078125 3.796875 -5.375 Z M 3.796875 -5.375 "/>
</g>
<g id="glyph-9-0-31fe9bc4">
<path d="M 3.78125 -1.46875 L 3.5625 -1.46875 C 3.515625 -1.203125 3.46875 -0.84375 3.375 -0.71875 C 3.328125 -0.640625 2.765625 -0.640625 2.578125 -0.640625 L 1.0625 -0.640625 L 1.953125 -1.515625 C 3.265625 -2.671875 3.78125 -3.125 3.78125 -3.96875 C 3.78125 -4.921875 3.015625 -5.59375 2 -5.59375 C 1.046875 -5.59375 0.421875 -4.828125 0.421875 -4.078125 C 0.421875 -3.609375 0.84375 -3.609375 0.859375 -3.609375 C 1.015625 -3.609375 1.296875 -3.703125 1.296875 -4.046875 C 1.296875 -4.265625 1.15625 -4.484375 0.859375 -4.484375 C 0.796875 -4.484375 0.765625 -4.484375 0.75 -4.484375 C 0.9375 -5.03125 1.390625 -5.34375 1.890625 -5.34375 C 2.640625 -5.34375 3.015625 -4.65625 3.015625 -3.96875 C 3.015625 -3.296875 2.59375 -2.625 2.125 -2.109375 L 0.515625 -0.3125 C 0.421875 -0.21875 0.421875 -0.203125 0.421875 0 L 3.53125 0 Z M 3.78125 -1.46875 "/>
</g>
<g id="glyph-10-0-31fe9bc4">
<path d="M 3.859375 -2.6875 C 3.859375 -3.359375 3.828125 -4.03125 3.53125 -4.65625 C 3.140625 -5.46875 2.453125 -5.59375 2.09375 -5.59375 C 1.59375 -5.59375 0.984375 -5.375 0.640625 -4.59375 C 0.375 -4.015625 0.328125 -3.359375 0.328125 -2.6875 C 0.328125 -2.0625 0.359375 -1.296875 0.703125 -0.671875 C 1.0625 0.015625 1.6875 0.1875 2.09375 0.1875 C 2.546875 0.1875 3.1875 0.015625 3.5625 -0.796875 C 3.828125 -1.375 3.859375 -2.03125 3.859375 -2.6875 Z M 3.171875 -2.796875 C 3.171875 -2.15625 3.171875 -1.59375 3.078125 -1.046875 C 2.953125 -0.25 2.46875 0 2.09375 0 C 1.765625 0 1.265625 -0.203125 1.125 -1.015625 C 1.03125 -1.515625 1.03125 -2.296875 1.03125 -2.796875 C 1.03125 -3.328125 1.03125 -3.890625 1.09375 -4.34375 C 1.25 -5.34375 1.890625 -5.40625 2.09375 -5.40625 C 2.375 -5.40625 2.921875 -5.265625 3.078125 -4.4375 C 3.171875 -3.953125 3.171875 -3.328125 3.171875 -2.796875 Z M 3.171875 -2.796875 "/>
</g>
<g id="glyph-10-1-31fe9bc4">
<path d="M 1.609375 -0.453125 C 1.609375 -0.6875 1.40625 -0.890625 1.171875 -0.890625 C 0.921875 -0.890625 0.71875 -0.6875 0.71875 -0.453125 C 0.71875 -0.203125 0.921875 0 1.171875 0 C 1.40625 0 1.609375 -0.203125 1.609375 -0.453125 Z M 1.609375 -0.453125 "/>
</g>
<g id="glyph-10-2-31fe9bc4">
<path d="M 3.78125 -1.46875 L 3.5625 -1.46875 C 3.515625 -1.203125 3.46875 -0.84375 3.375 -0.71875 C 3.328125 -0.640625 2.765625 -0.640625 2.578125 -0.640625 L 1.0625 -0.640625 L 1.953125 -1.515625 C 3.265625 -2.671875 3.78125 -3.125 3.78125 -3.96875 C 3.78125 -4.921875 3.015625 -5.59375 2 -5.59375 C 1.046875 -5.59375 0.421875 -4.828125 0.421875 -4.078125 C 0.421875 -3.609375 0.84375 -3.609375 0.859375 -3.609375 C 1.015625 -3.609375 1.296875 -3.703125 1.296875 -4.046875 C 1.296875 -4.265625 1.15625 -4.484375 0.859375 -4.484375 C 0.796875 -4.484375 0.765625 -4.484375 0.75 -4.484375 C 0.9375 -5.03125 1.390625 -5.34375 1.890625 -5.34375 C 2.640625 -5.34375 3.015625 -4.65625 3.015625 -3.96875 C 3.015625 -3.296875 2.59375 -2.625 2.125 -2.109375 L 0.515625 -0.3125 C 0.421875 -0.21875 0.421875 -0.203125 0.421875 0 L 3.53125 0 Z M 3.78125 -1.46875 "/>
</g>
<g id="glyph-10-3-31fe9bc4">
<path d="M 3.78125 -1.6875 C 3.78125 -2.6875 3.078125 -3.53125 2.171875 -3.53125 C 1.78125 -3.53125 1.40625 -3.390625 1.109375 -3.109375 L 1.109375 -4.734375 C 1.28125 -4.6875 1.5625 -4.625 1.828125 -4.625 C 2.859375 -4.625 3.453125 -5.390625 3.453125 -5.5 C 3.453125 -5.5625 3.421875 -5.59375 3.359375 -5.59375 C 3.359375 -5.59375 3.34375 -5.59375 3.296875 -5.578125 C 3.125 -5.5 2.71875 -5.328125 2.15625 -5.328125 C 1.8125 -5.328125 1.421875 -5.390625 1.03125 -5.5625 C 0.96875 -5.59375 0.9375 -5.59375 0.9375 -5.59375 C 0.84375 -5.59375 0.84375 -5.515625 0.84375 -5.390625 L 0.84375 -2.90625 C 0.84375 -2.75 0.84375 -2.6875 0.96875 -2.6875 C 1.03125 -2.6875 1.046875 -2.703125 1.078125 -2.75 C 1.171875 -2.890625 1.484375 -3.34375 2.15625 -3.34375 C 2.59375 -3.34375 2.8125 -2.953125 2.875 -2.8125 C 3.015625 -2.5 3.03125 -2.171875 3.03125 -1.75 C 3.03125 -1.453125 3.03125 -0.953125 2.828125 -0.59375 C 2.625 -0.265625 2.3125 -0.046875 1.921875 -0.046875 C 1.3125 -0.046875 0.828125 -0.5 0.6875 -0.984375 C 0.71875 -0.984375 0.734375 -0.96875 0.828125 -0.96875 C 1.109375 -0.96875 1.25 -1.1875 1.25 -1.390625 C 1.25 -1.59375 1.109375 -1.796875 0.828125 -1.796875 C 0.71875 -1.796875 0.421875 -1.734375 0.421875 -1.359375 C 0.421875 -0.625 1 0.1875 1.9375 0.1875 C 2.921875 0.1875 3.78125 -0.625 3.78125 -1.6875 Z M 3.78125 -1.6875 "/>
</g>
<g id="glyph-10-4-31fe9bc4">
<path d="M 4.078125 -5.40625 L 2.03125 -5.40625 C 1.015625 -5.40625 0.984375 -5.515625 0.953125 -5.6875 L 0.75 -5.6875 L 0.46875 -3.953125 L 0.6875 -3.953125 C 0.703125 -4.078125 0.78125 -4.609375 0.890625 -4.71875 C 0.953125 -4.765625 1.609375 -4.765625 1.71875 -4.765625 L 3.453125 -4.765625 L 2.515625 -3.4375 C 1.75 -2.296875 1.484375 -1.140625 1.484375 -0.28125 C 1.484375 -0.1875 1.484375 0.1875 1.859375 0.1875 C 2.25 0.1875 2.25 -0.1875 2.25 -0.28125 L 2.25 -0.703125 C 2.25 -1.171875 2.28125 -1.625 2.34375 -2.078125 C 2.375 -2.28125 2.5 -3 2.859375 -3.515625 L 4 -5.125 C 4.078125 -5.21875 4.078125 -5.234375 4.078125 -5.40625 Z M 4.078125 -5.40625 "/>
</g>
<g id="glyph-10-5-31fe9bc4">
<path d="M 3.515625 0 L 3.515625 -0.265625 L 3.25 -0.265625 C 2.5 -0.265625 2.46875 -0.359375 2.46875 -0.671875 L 2.46875 -5.375 C 2.46875 -5.578125 2.46875 -5.59375 2.28125 -5.59375 C 1.75 -5.0625 1.015625 -5.0625 0.75 -5.0625 L 0.75 -4.796875 C 0.921875 -4.796875 1.40625 -4.796875 1.84375 -5.015625 L 1.84375 -0.671875 C 1.84375 -0.359375 1.828125 -0.265625 1.0625 -0.265625 L 0.796875 -0.265625 L 0.796875 0 C 1.09375 -0.03125 1.828125 -0.03125 2.15625 -0.03125 C 2.5 -0.03125 3.234375 -0.03125 3.515625 0 Z M 3.515625 0 "/>
</g>
<g id="glyph-11-0-31fe9bc4">
<path d="M 3.859375 -2.6875 C 3.859375 -3.359375 3.828125 -4.03125 3.53125 -4.65625 C 3.140625 -5.46875 2.453125 -5.59375 2.09375 -5.59375 C 1.59375 -5.59375 0.984375 -5.375 0.640625 -4.59375 C 0.375 -4.015625 0.328125 -3.359375 0.328125 -2.6875 C 0.328125 -2.0625 0.359375 -1.296875 0.703125 -0.671875 C 1.0625 0.015625 1.6875 0.1875 2.09375 0.1875 C 2.546875 0.1875 3.1875 0.015625 3.5625 -0.796875 C 3.828125 -1.375 3.859375 -2.03125 3.859375 -2.6875 Z M 3.171875 -2.796875 C 3.171875 -2.15625 3.171875 -1.59375 3.078125 -1.046875 C 2.953125 -0.25 2.46875 0 2.09375 0 C 1.765625 0 1.265625 -0.203125 1.125 -1.015625 C 1.03125 -1.515625 1.03125 -2.296875 1.03125 -2.796875 C 1.03125 -3.328125 1.03125 -3.890625 1.09375 -4.34375 C 1.25 -5.34375 1.890625 -5.40625 2.09375 -5.40625 C 2.375 -5.40625 2.921875 -5.265625 3.078125 -4.4375 C 3.171875 -3.953125 3.171875 -3.328125 3.171875 -2.796875 Z M 3.171875 -2.796875 "/>
</g>
<g id="glyph-11-1-31fe9bc4">
<path d="M 3.78125 -1.6875 C 3.78125 -2.6875 3.078125 -3.53125 2.171875 -3.53125 C 1.78125 -3.53125 1.40625 -3.390625 1.109375 -3.109375 L 1.109375 -4.734375 C 1.28125 -4.6875 1.5625 -4.625 1.828125 -4.625 C 2.859375 -4.625 3.453125 -5.390625 3.453125 -5.5 C 3.453125 -5.5625 3.421875 -5.59375 3.359375 -5.59375 C 3.359375 -5.59375 3.34375 -5.59375 3.296875 -5.578125 C 3.125 -5.5 2.71875 -5.328125 2.15625 -5.328125 C 1.8125 -5.328125 1.421875 -5.390625 1.03125 -5.5625 C 0.96875 -5.59375 0.9375 -5.59375 0.9375 -5.59375 C 0.84375 -5.59375 0.84375 -5.515625 0.84375 -5.390625 L 0.84375 -2.90625 C 0.84375 -2.75 0.84375 -2.6875 0.96875 -2.6875 C 1.03125 -2.6875 1.046875 -2.703125 1.078125 -2.75 C 1.171875 -2.890625 1.484375 -3.34375 2.15625 -3.34375 C 2.59375 -3.34375 2.8125 -2.953125 2.875 -2.8125 C 3.015625 -2.5 3.03125 -2.171875 3.03125 -1.75 C 3.03125 -1.453125 3.03125 -0.953125 2.828125 -0.59375 C 2.625 -0.265625 2.3125 -0.046875 1.921875 -0.046875 C 1.3125 -0.046875 0.828125 -0.5 0.6875 -0.984375 C 0.71875 -0.984375 0.734375 -0.96875 0.828125 -0.96875 C 1.109375 -0.96875 1.25 -1.1875 1.25 -1.390625 C 1.25 -1.59375 1.109375 -1.796875 0.828125 -1.796875 C 0.71875 -1.796875 0.421875 -1.734375 0.421875 -1.359375 C 0.421875 -0.625 1 0.1875 1.9375 0.1875 C 2.921875 0.1875 3.78125 -0.625 3.78125 -1.6875 Z M 3.78125 -1.6875 "/>
</g>
</g>
</defs>
<rect x="-90" y="-40" width="1080" height="480" fill="rgb(100%, 100%, 100%)" fill-opacity="1"/>
<path fill-rule="nonzero" fill="rgb(100%, 100%, 100%)" fill-opacity="1" d="M 53 361 L 403 361 L 403 37 L 53 37 Z M 53 361 "/>
<path fill-rule="nonzero" fill="rgb(100%, 100%, 100%)" fill-opacity="1" d="M 450 361 L 800 361 L 800 37 L 450 37 Z M 450 361 "/>
<path fill="none" stroke-width="1" stroke-linecap="butt" stroke-linejoin="miter" stroke="rgb(0%, 0%, 0%)" stroke-opacity="0.12" stroke-miterlimit="1.154701" d="M 68.910156 361 L 68.910156 37 "/>
<path fill="none" stroke-width="1" stroke-linecap="butt" stroke-linejoin="miter" stroke="rgb(0%, 0%, 0%)" stroke-opacity="0.12" stroke-miterlimit="1.154701" d="M 148.453125 361 L 148.453125 37 "/>
<path fill="none" stroke-width="1" stroke-linecap="butt" stroke-linejoin="miter" stroke="rgb(0%, 0%, 0%)" stroke-opacity="0.12" stroke-miterlimit="1.154701" d="M 228 361 L 228 37 "/>
<path fill="none" stroke-width="1" stroke-linecap="butt" stroke-linejoin="miter" stroke="rgb(0%, 0%, 0%)" stroke-opacity="0.12" stroke-miterlimit="1.154701" d="M 307.546875 361 L 307.546875 37 "/>
<path fill="none" stroke-width="1" stroke-linecap="butt" stroke-linejoin="miter" stroke="rgb(0%, 0%, 0%)" stroke-opacity="0.12" stroke-miterlimit="1.154701" d="M 387.089844 361 L 387.089844 37 "/>
<path fill="none" stroke-width="1" stroke-linecap="butt" stroke-linejoin="miter" stroke="rgb(0%, 0%, 0%)" stroke-opacity="0.12" stroke-miterlimit="1.154701" d="M 53 287.417969 L 403 287.417969 "/>
<path fill="none" stroke-width="1" stroke-linecap="butt" stroke-linejoin="miter" stroke="rgb(0%, 0%, 0%)" stroke-opacity="0.12" stroke-miterlimit="1.154701" d="M 53 169.574219 L 403 169.574219 "/>
<path fill="none" stroke-width="1" stroke-linecap="butt" stroke-linejoin="miter" stroke="rgb(0%, 0%, 0%)" stroke-opacity="0.12" stroke-miterlimit="1.154701" d="M 53 51.726562 L 403 51.726562 "/>
<path fill="none" stroke-width="1" stroke-linecap="butt" stroke-linejoin="miter" stroke="rgb(0%, 0%, 0%)" stroke-opacity="0.12" stroke-miterlimit="1.154701" d="M 465.910156 361 L 465.910156 37 "/>
<path fill="none" stroke-width="1" stroke-linecap="butt" stroke-linejoin="miter" stroke="rgb(0%, 0%, 0%)" stroke-opacity="0.12" stroke-miterlimit="1.154701" d="M 545.453125 361 L 545.453125 37 "/>
<path fill="none" stroke-width="1" stroke-linecap="butt" stroke-linejoin="miter" stroke="rgb(0%, 0%, 0%)" stroke-opacity="0.12" stroke-miterlimit="1.154701" d="M 625 361 L 625 37 "/>
<path fill="none" stroke-width="1" stroke-linecap="butt" stroke-linejoin="miter" stroke="rgb(0%, 0%, 0%)" stroke-opacity="0.12" stroke-miterlimit="1.154701" d="M 704.546875 361 L 704.546875 37 "/>
<path fill="none" stroke-width="1" stroke-linecap="butt" stroke-linejoin="miter" stroke="rgb(0%, 0%, 0%)" stroke-opacity="0.12" stroke-miterlimit="1.154701" d="M 784.089844 361 L 784.089844 37 "/>
<path fill="none" stroke-width="1" stroke-linecap="butt" stroke-linejoin="miter" stroke="rgb(0%, 0%, 0%)" stroke-opacity="0.12" stroke-miterlimit="1.154701" d="M 450 315.671875 L 800 315.671875 "/>
<path fill="none" stroke-width="1" stroke-linecap="butt" stroke-linejoin="miter" stroke="rgb(0%, 0%, 0%)" stroke-opacity="0.12" stroke-miterlimit="1.154701" d="M 450 249.132812 L 800 249.132812 "/>
<path fill="none" stroke-width="1" stroke-linecap="butt" stroke-linejoin="miter" stroke="rgb(0%, 0%, 0%)" stroke-opacity="0.12" stroke-miterlimit="1.154701" d="M 450 182.59375 L 800 182.59375 "/>
<path fill="none" stroke-width="1" stroke-linecap="butt" stroke-linejoin="miter" stroke="rgb(0%, 0%, 0%)" stroke-opacity="0.12" stroke-miterlimit="1.154701" d="M 450 116.054688 L 800 116.054688 "/>
<path fill="none" stroke-width="1" stroke-linecap="butt" stroke-linejoin="miter" stroke="rgb(0%, 0%, 0%)" stroke-opacity="0.12" stroke-miterlimit="1.154701" d="M 450 49.515625 L 800 49.515625 "/>
<g fill="rgb(0%, 0%, 0%)" fill-opacity="1">
<use xlink:href="#glyph-0-0-31fe9bc4" x="54.902089" y="382.258001"/>
</g>
<g fill="rgb(0%, 0%, 0%)" fill-opacity="1">
<use xlink:href="#glyph-1-0-31fe9bc4" x="62.68609" y="382.258001"/>
<use xlink:href="#glyph-1-1-31fe9bc4" x="66.578089" y="382.258001"/>
<use xlink:href="#glyph-1-2-31fe9bc4" x="74.362089" y="382.258001"/>
</g>
<g fill="rgb(0%, 0%, 0%)" fill-opacity="1">
<use xlink:href="#glyph-1-1-31fe9bc4" x="130.555547" y="382.258001"/>
<use xlink:href="#glyph-1-0-31fe9bc4" x="138.339548" y="382.258001"/>
<use xlink:href="#glyph-1-3-31fe9bc4" x="142.231547" y="382.258001"/>
<use xlink:href="#glyph-1-4-31fe9bc4" x="150.015547" y="382.258001"/>
<use xlink:href="#glyph-1-2-31fe9bc4" x="157.799547" y="382.258001"/>
</g>
<g fill="rgb(0%, 0%, 0%)" fill-opacity="1">
<use xlink:href="#glyph-1-1-31fe9bc4" x="213.993005" y="382.258001"/>
<use xlink:href="#glyph-1-0-31fe9bc4" x="221.777005" y="382.258001"/>
<use xlink:href="#glyph-1-4-31fe9bc4" x="225.669005" y="382.258001"/>
<use xlink:href="#glyph-1-2-31fe9bc4" x="233.453005" y="382.258001"/>
</g>
<g fill="rgb(0%, 0%, 0%)" fill-opacity="1">
<use xlink:href="#glyph-1-1-31fe9bc4" x="289.646448" y="382.258001"/>
<use xlink:href="#glyph-1-0-31fe9bc4" x="297.430448" y="382.258001"/>
<use xlink:href="#glyph-1-5-31fe9bc4" x="301.322447" y="382.258001"/>
<use xlink:href="#glyph-1-4-31fe9bc4" x="309.106447" y="382.258001"/>
<use xlink:href="#glyph-1-2-31fe9bc4" x="316.890448" y="382.258001"/>
</g>
<g fill="rgb(0%, 0%, 0%)" fill-opacity="1">
<use xlink:href="#glyph-1-6-31fe9bc4" x="373.083921" y="382.258001"/>
<use xlink:href="#glyph-1-0-31fe9bc4" x="380.867921" y="382.258001"/>
<use xlink:href="#glyph-1-1-31fe9bc4" x="384.759921" y="382.258001"/>
<use xlink:href="#glyph-1-2-31fe9bc4" x="392.54392" y="382.258001"/>
</g>
<g fill="rgb(0%, 0%, 0%)" fill-opacity="1">
<use xlink:href="#glyph-1-7-31fe9bc4" x="15.364001" y="292.522779"/>
<use xlink:href="#glyph-1-4-31fe9bc4" x="23.540001" y="292.522779"/>
</g>
<g fill="rgb(0%, 0%, 0%)" fill-opacity="1">
<use xlink:href="#glyph-2-0-31fe9bc4" x="31.324" y="292.522779"/>
</g>
<g fill="rgb(0%, 0%, 0%)" fill-opacity="1">
<use xlink:href="#glyph-1-1-31fe9bc4" x="35.216" y="292.522779"/>
</g>
<g fill="rgb(0%, 0%, 0%)" fill-opacity="1">
<use xlink:href="#glyph-1-7-31fe9bc4" x="15.364001" y="174.676537"/>
<use xlink:href="#glyph-1-8-31fe9bc4" x="23.540001" y="174.676537"/>
</g>
<g fill="rgb(0%, 0%, 0%)" fill-opacity="1">
<use xlink:href="#glyph-2-0-31fe9bc4" x="31.324" y="174.676537"/>
</g>
<g fill="rgb(0%, 0%, 0%)" fill-opacity="1">
<use xlink:href="#glyph-1-4-31fe9bc4" x="35.216" y="174.676537"/>
</g>
<g fill="rgb(0%, 0%, 0%)" fill-opacity="1">
<use xlink:href="#glyph-1-7-31fe9bc4" x="15.364001" y="56.830272"/>
<use xlink:href="#glyph-1-8-31fe9bc4" x="23.540001" y="56.830272"/>
</g>
<g fill="rgb(0%, 0%, 0%)" fill-opacity="1">
<use xlink:href="#glyph-2-0-31fe9bc4" x="31.324" y="56.830272"/>
</g>
<g fill="rgb(0%, 0%, 0%)" fill-opacity="1">
<use xlink:href="#glyph-1-1-31fe9bc4" x="35.216" y="56.830272"/>
</g>
<g fill="rgb(0%, 0%, 0%)" fill-opacity="1">
<use xlink:href="#glyph-3-0-31fe9bc4" x="216.063606" y="28.478008"/>
</g>
<g fill="rgb(0%, 0%, 0%)" fill-opacity="1">
<use xlink:href="#glyph-4-0-31fe9bc4" x="221.509606" y="28.478008"/>
</g>
<g fill="rgb(0%, 0%, 0%)" fill-opacity="1">
<use xlink:href="#glyph-5-0-31fe9bc4" x="231.911606" y="31.278008"/>
</g>
<g fill="rgb(0%, 0%, 0%)" fill-opacity="1">
<use xlink:href="#glyph-3-1-31fe9bc4" x="234.490406" y="28.478008"/>
</g>
<path fill="none" stroke-width="1.5" stroke-linecap="butt" stroke-linejoin="miter" stroke="rgb(0%, 44.705883%, 69.803923%)" stroke-opacity="1" stroke-miterlimit="2" d="M 68.910156 51.726562 L 72.089844 51.726562 L 75.273438 51.730469 L 78.453125 51.738281 L 81.636719 51.753906 L 84.816406 51.78125 L 88 51.816406 L 91.183594 51.871094 L 94.363281 51.9375 L 97.546875 52.023438 L 100.726562 52.132812 L 103.910156 52.261719 L 107.089844 52.414062 L 110.273438 52.59375 L 113.453125 52.796875 L 116.636719 53.03125 L 119.816406 53.296875 L 123 53.59375 L 126.183594 53.921875 L 129.363281 54.285156 L 132.546875 54.679688 L 135.726562 55.113281 L 138.910156 55.582031 L 142.089844 56.089844 L 145.273438 56.632812 L 148.453125 57.214844 L 151.636719 57.839844 L 154.816406 58.5 L 158 59.199219 L 161.183594 59.941406 L 164.363281 60.722656 L 167.546875 61.546875 L 170.726562 62.40625 L 173.910156 63.308594 L 177.089844 64.25 L 180.273438 65.234375 L 183.453125 66.253906 L 186.636719 67.3125 L 189.816406 68.410156 L 193 69.542969 L 196.183594 70.714844 L 199.363281 71.921875 L 202.546875 73.164062 L 205.726562 74.441406 L 208.910156 75.75 L 212.089844 77.09375 L 215.273438 78.464844 L 218.453125 79.863281 L 221.636719 81.292969 L 224.816406 82.75 L 228 84.230469 L 231.183594 85.734375 L 234.363281 87.257812 L 237.546875 88.804688 L 240.726562 90.371094 L 243.910156 91.949219 L 247.089844 93.546875 L 250.273438 95.152344 L 253.453125 96.773438 L 256.636719 98.398438 L 259.816406 100.03125 L 263 101.667969 L 266.183594 103.308594 L 269.363281 104.949219 L 272.546875 106.585938 L 275.726562 108.21875 L 278.910156 109.847656 L 282.089844 111.460938 L 285.273438 113.066406 L 288.453125 114.65625 L 291.636719 116.230469 L 294.816406 117.785156 L 298 119.320312 L 301.183594 120.828125 L 304.363281 122.3125 L 307.546875 123.765625 L 310.726562 125.191406 L 313.910156 126.582031 L 317.089844 127.933594 L 320.273438 129.25 L 323.453125 130.523438 L 326.636719 131.753906 L 329.816406 132.9375 L 333 134.074219 L 336.183594 135.164062 L 339.363281 136.199219 L 342.546875 137.179688 L 345.726562 138.105469 L 348.910156 138.96875 L 352.089844 139.777344 L 355.273438 140.519531 L 358.453125 141.199219 L 361.636719 141.8125 L 364.816406 142.359375 L 368 142.835938 L 371.183594 143.246094 L 374.363281 143.582031 L 377.546875 143.84375 L 380.726562 144.03125 L 383.910156 144.148438 L 387.089844 144.183594 "/>
<path fill="none" stroke-width="1.5" stroke-linecap="butt" stroke-linejoin="miter" stroke="rgb(90.196079%, 62.352943%, 0%)" stroke-opacity="1" stroke-miterlimit="2" d="M 68.910156 51.726562 L 72.089844 51.730469 L 75.273438 51.738281 L 78.453125 51.765625 L 81.636719 51.8125 L 84.816406 51.894531 L 88 52.011719 L 91.183594 52.175781 L 94.363281 52.390625 L 97.546875 52.664062 L 100.726562 53 L 103.910156 53.40625 L 107.089844 53.882812 L 110.273438 54.441406 L 113.453125 55.085938 L 116.636719 55.816406 L 119.816406 56.636719 L 123 57.554688 L 126.183594 58.570312 L 129.363281 59.6875 L 132.546875 60.90625 L 135.726562 62.234375 L 138.910156 63.664062 L 142.089844 65.207031 L 145.273438 66.859375 L 148.453125 68.621094 L 151.636719 70.496094 L 154.816406 72.480469 L 158 74.574219 L 161.183594 76.777344 L 164.363281 79.089844 L 167.546875 81.511719 L 170.726562 84.035156 L 173.910156 86.664062 L 177.089844 89.394531 L 180.273438 92.222656 L 183.453125 95.144531 L 186.636719 98.160156 L 189.816406 101.265625 L 193 104.457031 L 196.183594 107.726562 L 199.363281 111.074219 L 202.546875 114.492188 L 205.726562 117.976562 L 208.910156 121.523438 L 212.089844 125.128906 L 215.273438 128.785156 L 218.453125 132.484375 L 221.636719 136.226562 L 224.816406 140.003906 L 228 143.808594 L 231.183594 147.636719 L 234.363281 151.476562 L 237.546875 155.332031 L 240.726562 159.1875 L 243.910156 163.039062 L 247.089844 166.882812 L 250.273438 170.710938 L 253.453125 174.519531 L 256.636719 178.296875 L 259.816406 182.039062 L 263 185.742188 L 266.183594 189.402344 L 269.363281 193.003906 L 272.546875 196.550781 L 275.726562 200.03125 L 278.910156 203.445312 L 282.089844 206.78125 L 285.273438 210.039062 L 288.453125 213.210938 L 291.636719 216.296875 L 294.816406 219.289062 L 298 222.183594 L 301.183594 224.976562 L 304.363281 227.664062 L 307.546875 230.246094 L 310.726562 232.714844 L 313.910156 235.074219 L 317.089844 237.320312 L 320.273438 239.449219 L 323.453125 241.460938 L 326.636719 243.355469 L 329.816406 245.132812 L 333 246.789062 L 336.183594 248.328125 L 339.363281 249.753906 L 342.546875 251.0625 L 345.726562 252.253906 L 348.910156 253.335938 L 352.089844 254.308594 L 355.273438 255.175781 L 358.453125 255.9375 L 361.636719 256.597656 L 364.816406 257.164062 L 368 257.640625 L 371.183594 258.027344 L 374.363281 258.332031 L 377.546875 258.558594 L 380.726562 258.710938 L 383.910156 258.800781 L 387.089844 258.828125 "/>
<path fill="none" stroke-width="1.5" stroke-linecap="butt" stroke-linejoin="miter" stroke="rgb(0%, 61.960787%, 45.09804%)" stroke-opacity="1" stroke-miterlimit="2" d="M 68.910156 51.726562 L 72.089844 51.730469 L 75.273438 51.761719 L 78.453125 51.84375 L 81.636719 51.996094 L 84.816406 52.25 L 88 52.625 L 91.183594 53.136719 L 94.363281 53.808594 L 97.546875 54.65625 L 100.726562 55.695312 L 103.910156 56.945312 L 107.089844 58.417969 L 110.273438 60.121094 L 113.453125 62.066406 L 116.636719 64.265625 L 119.816406 66.722656 L 123 69.441406 L 126.183594 72.429688 L 129.363281 75.6875 L 132.546875 79.214844 L 135.726562 83.007812 L 138.910156 87.066406 L 142.089844 91.386719 L 145.273438 95.960938 L 148.453125 100.78125 L 151.636719 105.839844 L 154.816406 111.121094 L 158 116.621094 L 161.183594 122.324219 L 164.363281 128.214844 L 167.546875 134.28125 L 170.726562 140.5 L 173.910156 146.863281 L 177.089844 153.347656 L 180.273438 159.933594 L 183.453125 166.605469 L 186.636719 173.34375 L 189.816406 180.128906 L 193 186.941406 L 196.183594 193.757812 L 199.363281 200.558594 L 202.546875 207.328125 L 205.726562 214.042969 L 208.910156 220.683594 L 212.089844 227.234375 L 215.273438 233.675781 L 218.453125 239.988281 L 221.636719 246.15625 L 224.816406 252.164062 L 228 257.996094 L 231.183594 263.640625 L 234.363281 269.085938 L 237.546875 274.316406 L 240.726562 279.324219 L 243.910156 284.101562 L 247.089844 288.644531 L 250.273438 292.9375 L 253.453125 296.984375 L 256.636719 300.777344 L 259.816406 304.320312 L 263 307.609375 L 266.183594 310.644531 L 269.363281 313.433594 L 272.546875 315.980469 L 275.726562 318.285156 L 278.910156 320.355469 L 282.089844 322.203125 L 285.273438 323.835938 L 288.453125 325.265625 L 291.636719 326.5 L 294.816406 327.546875 L 298 328.429688 L 301.183594 329.148438 L 304.363281 329.726562 L 307.546875 330.175781 L 310.726562 330.503906 L 313.910156 330.726562 L 317.089844 330.863281 L 320.273438 330.917969 L 323.453125 330.910156 L 326.636719 330.851562 L 329.816406 330.75 L 333 330.621094 L 336.183594 330.46875 L 339.363281 330.308594 L 342.546875 330.144531 L 345.726562 329.988281 L 348.910156 329.839844 L 352.089844 329.703125 L 355.273438 329.589844 L 358.453125 329.492188 L 361.636719 329.421875 L 364.816406 329.367188 L 368 329.335938 L 371.183594 329.320312 L 374.363281 329.320312 L 377.546875 329.332031 L 380.726562 329.347656 L 383.910156 329.363281 L 387.089844 329.367188 "/>
<path fill="none" stroke-width="1.5" stroke-linecap="butt" stroke-linejoin="miter" stroke="rgb(80.000001%, 47.450981%, 65.490198%)" stroke-opacity="1" stroke-miterlimit="2" d="M 68.910156 51.726562 L 72.089844 51.742188 L 75.273438 51.835938 L 78.453125 52.089844 L 81.636719 52.578125 L 84.816406 53.367188 L 88 54.519531 L 91.183594 56.089844 L 94.363281 58.125 L 97.546875 60.667969 L 100.726562 63.75 L 103.910156 67.390625 L 107.089844 71.609375 L 110.273438 76.402344 L 113.453125 81.773438 L 116.636719 87.710938 L 119.816406 94.1875 L 123 101.179688 L 126.183594 108.648438 L 129.363281 116.554688 L 132.546875 124.847656 L 135.726562 133.472656 L 138.910156 142.371094 L 142.089844 151.480469 L 145.273438 160.734375 L 148.453125 170.066406 L 151.636719 179.40625 L 154.816406 188.691406 L 158 197.851562 L 161.183594 206.824219 L 164.363281 215.542969 L 167.546875 223.957031 L 170.726562 232.011719 L 173.910156 239.65625 L 177.089844 246.851562 L 180.273438 253.5625 L 183.453125 259.761719 L 186.636719 265.429688 L 189.816406 270.550781 L 193 275.121094 L 196.183594 279.148438 L 199.363281 282.636719 L 202.546875 285.601562 L 205.726562 288.074219 L 208.910156 290.074219 L 212.089844 291.648438 L 215.273438 292.828125 L 218.453125 293.660156 L 221.636719 294.195312 L 224.816406 294.480469 L 228 294.5625 L 231.183594 294.5 L 234.363281 294.339844 L 237.546875 294.132812 L 240.726562 293.921875 L 243.910156 293.75 L 247.089844 293.664062 L 250.273438 293.695312 L 253.453125 293.871094 L 256.636719 294.21875 L 259.816406 294.757812 L 263 295.496094 L 266.183594 296.449219 L 269.363281 297.609375 L 272.546875 298.976562 L 275.726562 300.535156 L 278.910156 302.28125 L 282.089844 304.183594 L 285.273438 306.230469 L 288.453125 308.390625 L 291.636719 310.636719 L 294.816406 312.941406 L 298 315.273438 L 301.183594 317.601562 L 304.363281 319.902344 L 307.546875 322.148438 L 310.726562 324.3125 L 313.910156 326.375 L 317.089844 328.316406 L 320.273438 330.117188 L 323.453125 331.773438 L 326.636719 333.273438 L 329.816406 334.613281 L 333 335.792969 L 336.183594 336.816406 L 339.363281 337.6875 L 342.546875 338.421875 L 345.726562 339.019531 L 348.910156 339.503906 L 352.089844 339.882812 L 355.273438 340.175781 L 358.453125 340.394531 L 361.636719 340.550781 L 364.816406 340.664062 L 368 340.742188 L 371.183594 340.792969 L 374.363281 340.828125 L 377.546875 340.855469 L 380.726562 340.875 L 383.910156 340.886719 L 387.089844 340.890625 "/>
<path fill="none" stroke-width="1.5" stroke-linecap="butt" stroke-linejoin="miter" stroke="rgb(33.725491%, 70.588237%, 91.37255%)" stroke-opacity="1" stroke-miterlimit="2" d="M 68.910156 51.726562 L 72.089844 51.769531 L 75.273438 52.070312 L 78.453125 52.863281 L 81.636719 54.359375 L 84.816406 56.738281 L 88 60.132812 L 91.183594 64.628906 L 94.363281 70.269531 L 97.546875 77.042969 L 100.726562 84.890625 L 103.910156 93.707031 L 107.089844 103.351562 L 110.273438 113.644531 L 113.453125 124.378906 L 116.636719 135.335938 L 119.816406 146.285156 L 123 157.003906 L 126.183594 167.269531 L 129.363281 176.890625 L 132.546875 185.695312 L 135.726562 193.554688 L 138.910156 200.375 L 142.089844 206.101562 L 145.273438 210.726562 L 148.453125 214.292969 L 151.636719 216.875 L 154.816406 218.589844 L 158 219.585938 L 161.183594 220.03125 L 164.363281 220.117188 L 167.546875 220.035156 L 170.726562 219.972656 L 173.910156 220.121094 L 177.089844 220.636719 L 180.273438 221.65625 L 183.453125 223.289062 L 186.636719 225.597656 L 189.816406 228.617188 L 193 232.34375 L 196.183594 236.726562 L 199.363281 241.691406 L 202.546875 247.132812 L 205.726562 252.921875 L 208.910156 258.917969 L 212.089844 264.964844 L 215.273438 270.917969 L 218.453125 276.636719 L 221.636719 281.996094 L 224.816406 286.894531 L 228 291.25 L 231.183594 295.019531 L 234.363281 298.179688 L 237.546875 300.746094 L 240.726562 302.757812 L 243.910156 304.269531 L 247.089844 305.371094 L 250.273438 306.148438 L 253.453125 306.707031 L 256.636719 307.152344 L 259.816406 307.574219 L 263 308.070312 L 266.183594 308.710938 L 269.363281 309.546875 L 272.546875 310.625 L 275.726562 311.953125 L 278.910156 313.53125 L 282.089844 315.339844 L 285.273438 317.34375 L 288.453125 319.492188 L 291.636719 321.730469 L 294.816406 323.996094 L 298 326.238281 L 301.183594 328.394531 L 304.363281 330.421875 L 307.546875 332.273438 L 310.726562 333.929688 L 313.910156 335.375 L 317.089844 336.597656 L 320.273438 337.613281 L 323.453125 338.429688 L 326.636719 339.078125 L 329.816406 339.585938 L 333 339.980469 L 336.183594 340.296875 L 339.363281 340.558594 L 342.546875 340.796875 L 345.726562 341.03125 L 348.910156 341.28125 L 352.089844 341.546875 L 355.273438 341.839844 L 358.453125 342.15625 L 361.636719 342.488281 L 364.816406 342.828125 L 368 343.164062 L 371.183594 343.480469 L 374.363281 343.761719 L 377.546875 343.996094 L 380.726562 344.167969 L 383.910156 344.273438 L 387.089844 344.308594 "/>
<path fill="none" stroke-width="1.5" stroke-linecap="butt" stroke-linejoin="miter" stroke="rgb(83.529413%, 36.862746%, 0%)" stroke-opacity="1" stroke-miterlimit="2" d="M 68.910156 51.726562 L 72.089844 51.863281 L 75.273438 52.789062 L 78.453125 55.179688 L 81.636719 59.496094 L 84.816406 65.945312 L 88 74.464844 L 91.183594 84.714844 L 94.363281 96.140625 L 97.546875 108.042969 L 100.726562 119.667969 L 103.910156 130.296875 L 107.089844 139.355469 L 110.273438 146.457031 L 113.453125 151.464844 L 116.636719 154.507812 L 119.816406 155.945312 L 123 156.332031 L 126.183594 156.320312 L 129.363281 156.605469 L 132.546875 157.800781 L 135.726562 160.378906 L 138.910156 164.609375 L 142.089844 170.523438 L 145.273438 177.921875 L 148.453125 186.398438 L 151.636719 195.417969 L 154.816406 204.367188 L 158 212.667969 L 161.183594 219.835938 L 164.363281 225.558594 L 167.546875 229.714844 L 170.726562 232.402344 L 173.910156 233.898438 L 177.089844 234.628906 L 180.273438 235.082031 L 183.453125 235.75 L 186.636719 237.058594 L 189.816406 239.289062 L 193 242.578125 L 196.183594 246.878906 L 199.363281 251.988281 L 202.546875 257.601562 L 205.726562 263.339844 L 208.910156 268.832031 L 212.089844 273.757812 L 215.273438 277.894531 L 218.453125 281.148438 L 221.636719 283.550781 L 224.816406 285.246094 L 228 286.46875 L 231.183594 287.480469 L 234.363281 288.554688 L 237.546875 289.914062 L 240.726562 291.714844 L 243.910156 294.015625 L 247.089844 296.792969 L 250.273438 299.9375 L 253.453125 303.28125 L 256.636719 306.636719 L 259.816406 309.816406 L 263 312.660156 L 266.183594 315.066406 L 269.363281 316.996094 L 272.546875 318.464844 L 275.726562 319.550781 L 278.910156 320.375 L 282.089844 321.074219 L 285.273438 321.792969 L 288.453125 322.660156 L 291.636719 323.765625 L 294.816406 325.164062 L 298 326.859375 L 301.183594 328.800781 L 304.363281 330.886719 L 307.546875 332.976562 L 310.726562 334.921875 L 313.910156 336.578125 L 317.089844 337.84375 L 320.273438 338.683594 L 323.453125 339.125 L 326.636719 339.277344 L 329.816406 339.296875 L 333 339.34375 L 336.183594 339.5625 L 339.363281 340.035156 L 342.546875 340.769531 L 345.726562 341.699219 L 348.910156 342.714844 L 352.089844 343.683594 L 355.273438 344.503906 L 358.453125 345.113281 L 361.636719 345.507812 L 364.816406 345.726562 L 368 345.839844 L 371.183594 345.90625 L 374.363281 345.980469 L 377.546875 346.070312 L 380.726562 346.164062 L 383.910156 346.242188 L 387.089844 346.273438 "/>
<g fill="rgb(0%, 0%, 0%)" fill-opacity="1">
<use xlink:href="#glyph-1-1-31fe9bc4" x="451.902099" y="382.258001"/>
<use xlink:href="#glyph-1-0-31fe9bc4" x="459.686099" y="382.258001"/>
<use xlink:href="#glyph-1-1-31fe9bc4" x="463.578099" y="382.258001"/>
<use xlink:href="#glyph-1-2-31fe9bc4" x="471.362099" y="382.258001"/>
</g>
<g fill="rgb(0%, 0%, 0%)" fill-opacity="1">
<use xlink:href="#glyph-1-1-31fe9bc4" x="527.555541" y="382.258001"/>
<use xlink:href="#glyph-1-0-31fe9bc4" x="535.339542" y="382.258001"/>
<use xlink:href="#glyph-1-3-31fe9bc4" x="539.231541" y="382.258001"/>
<use xlink:href="#glyph-1-4-31fe9bc4" x="547.015541" y="382.258001"/>
<use xlink:href="#glyph-1-2-31fe9bc4" x="554.799542" y="382.258001"/>
</g>
<g fill="rgb(0%, 0%, 0%)" fill-opacity="1">
<use xlink:href="#glyph-1-1-31fe9bc4" x="610.993015" y="382.258001"/>
<use xlink:href="#glyph-1-0-31fe9bc4" x="618.777015" y="382.258001"/>
<use xlink:href="#glyph-1-4-31fe9bc4" x="622.669015" y="382.258001"/>
<use xlink:href="#glyph-1-2-31fe9bc4" x="630.453014" y="382.258001"/>
</g>
<g fill="rgb(0%, 0%, 0%)" fill-opacity="1">
<use xlink:href="#glyph-1-1-31fe9bc4" x="686.646488" y="382.258001"/>
<use xlink:href="#glyph-1-0-31fe9bc4" x="694.430488" y="382.258001"/>
<use xlink:href="#glyph-1-5-31fe9bc4" x="698.322488" y="382.258001"/>
<use xlink:href="#glyph-1-4-31fe9bc4" x="706.106487" y="382.258001"/>
<use xlink:href="#glyph-1-2-31fe9bc4" x="713.890488" y="382.258001"/>
</g>
<g fill="rgb(0%, 0%, 0%)" fill-opacity="1">
<use xlink:href="#glyph-1-6-31fe9bc4" x="770.0839" y="382.258001"/>
<use xlink:href="#glyph-1-0-31fe9bc4" x="777.8679" y="382.258001"/>
<use xlink:href="#glyph-1-1-31fe9bc4" x="781.7599" y="382.258001"/>
<use xlink:href="#glyph-1-2-31fe9bc4" x="789.5439" y="382.258001"/>
</g>
<g fill="rgb(0%, 0%, 0%)" fill-opacity="1">
<use xlink:href="#glyph-1-1-31fe9bc4" x="420.540011" y="320.775541"/>
<use xlink:href="#glyph-1-0-31fe9bc4" x="428.324012" y="320.775541"/>
<use xlink:href="#glyph-1-9-31fe9bc4" x="432.216011" y="320.775541"/>
</g>
<g fill="rgb(0%, 0%, 0%)" fill-opacity="1">
<use xlink:href="#glyph-6-0-31fe9bc4" x="420.540011" y="254.23603"/>
<use xlink:href="#glyph-6-1-31fe9bc4" x="428.324012" y="254.23603"/>
<use xlink:href="#glyph-6-2-31fe9bc4" x="432.216011" y="254.23603"/>
</g>
<g fill="rgb(0%, 0%, 0%)" fill-opacity="1">
<use xlink:href="#glyph-1-1-31fe9bc4" x="420.540011" y="187.696511"/>
<use xlink:href="#glyph-1-0-31fe9bc4" x="428.324012" y="187.696511"/>
<use xlink:href="#glyph-1-10-31fe9bc4" x="432.216011" y="187.696511"/>
</g>
<g fill="rgb(0%, 0%, 0%)" fill-opacity="1">
<use xlink:href="#glyph-7-0-31fe9bc4" x="420.540011" y="121.156992"/>
<use xlink:href="#glyph-7-1-31fe9bc4" x="428.324012" y="121.156992"/>
<use xlink:href="#glyph-7-2-31fe9bc4" x="432.216011" y="121.156992"/>
</g>
<g fill="rgb(0%, 0%, 0%)" fill-opacity="1">
<use xlink:href="#glyph-1-6-31fe9bc4" x="420.540011" y="54.617504"/>
<use xlink:href="#glyph-1-0-31fe9bc4" x="428.324012" y="54.617504"/>
<use xlink:href="#glyph-1-1-31fe9bc4" x="432.216011" y="54.617504"/>
</g>
<g fill="rgb(0%, 0%, 0%)" fill-opacity="1">
<use xlink:href="#glyph-3-2-31fe9bc4" x="592.034217" y="28.570409"/>
<use xlink:href="#glyph-3-0-31fe9bc4" x="595.926217" y="28.570409"/>
<use xlink:href="#glyph-3-3-31fe9bc4" x="601.372218" y="28.570409"/>
</g>
<g fill="rgb(0%, 0%, 0%)" fill-opacity="1">
<use xlink:href="#glyph-8-0-31fe9bc4" x="610.486219" y="31.370408"/>
<use xlink:href="#glyph-8-1-31fe9bc4" x="610.486219" y="22.536408"/>
</g>
<g fill="rgb(0%, 0%, 0%)" fill-opacity="1">
<use xlink:href="#glyph-3-2-31fe9bc4" x="616.987817" y="28.570409"/>
<use xlink:href="#glyph-3-3-31fe9bc4" x="620.473818" y="28.570409"/>
<use xlink:href="#glyph-3-4-31fe9bc4" x="629.587818" y="28.570409"/>
</g>
<g fill="rgb(0%, 0%, 0%)" fill-opacity="1">
<use xlink:href="#glyph-4-1-31fe9bc4" x="633.759819" y="28.570409"/>
</g>
<g fill="rgb(0%, 0%, 0%)" fill-opacity="1">
<use xlink:href="#glyph-3-5-31fe9bc4" x="638.981819" y="28.570409"/>
<use xlink:href="#glyph-3-1-31fe9bc4" x="644.427819" y="28.570409"/>
<use xlink:href="#glyph-3-2-31fe9bc4" x="649.873818" y="28.570409"/>
</g>
<g fill="rgb(0%, 0%, 0%)" fill-opacity="1">
<use xlink:href="#glyph-9-0-31fe9bc4" x="653.765816" y="22.536408"/>
</g>
<path fill="none" stroke-width="1.5" stroke-linecap="butt" stroke-linejoin="miter" stroke="rgb(0%, 44.705883%, 69.803923%)" stroke-opacity="1" stroke-miterlimit="2" d="M 465.910156 346.273438 L 469.089844 346.273438 L 472.273438 346.269531 L 475.453125 346.265625 L 478.636719 346.253906 L 481.816406 346.234375 L 485 346.210938 L 488.183594 346.171875 L 491.363281 346.125 L 494.546875 346.0625 L 497.726562 345.988281 L 500.910156 345.898438 L 504.089844 345.789062 L 507.273438 345.664062 L 510.453125 345.519531 L 513.636719 345.351562 L 516.816406 345.167969 L 520 344.957031 L 523.183594 344.726562 L 526.363281 344.46875 L 529.546875 344.191406 L 532.726562 343.882812 L 535.910156 343.550781 L 539.089844 343.195312 L 542.273438 342.808594 L 545.453125 342.394531 L 548.636719 341.953125 L 551.816406 341.484375 L 555 340.984375 L 558.183594 340.457031 L 561.363281 339.902344 L 564.546875 339.316406 L 567.726562 338.699219 L 570.910156 338.054688 L 574.089844 337.382812 L 577.273438 336.679688 L 580.453125 335.945312 L 583.636719 335.183594 L 586.816406 334.394531 L 590 333.578125 L 593.183594 332.730469 L 596.363281 331.859375 L 599.546875 330.957031 L 602.726562 330.03125 L 605.910156 329.078125 L 609.089844 328.101562 L 612.273438 327.097656 L 615.453125 326.074219 L 618.636719 325.027344 L 621.816406 323.957031 L 625 322.867188 L 628.183594 321.757812 L 631.363281 320.628906 L 634.546875 319.484375 L 637.726562 318.320312 L 640.910156 317.144531 L 644.089844 315.953125 L 647.273438 314.75 L 650.453125 313.535156 L 653.636719 312.3125 L 656.816406 311.082031 L 660 309.84375 L 663.183594 308.601562 L 666.363281 307.355469 L 669.546875 306.105469 L 672.726562 304.859375 L 675.910156 303.613281 L 679.089844 302.375 L 682.273438 301.136719 L 685.453125 299.910156 L 688.636719 298.691406 L 691.816406 297.484375 L 695 296.292969 L 698.183594 295.117188 L 701.363281 293.957031 L 704.546875 292.816406 L 707.726562 291.695312 L 710.910156 290.601562 L 714.089844 289.53125 L 717.273438 288.488281 L 720.453125 287.476562 L 723.636719 286.496094 L 726.816406 285.550781 L 730 284.640625 L 733.183594 283.765625 L 736.363281 282.933594 L 739.546875 282.140625 L 742.726562 281.394531 L 745.910156 280.691406 L 749.089844 280.039062 L 752.273438 279.433594 L 755.453125 278.878906 L 758.636719 278.375 L 761.816406 277.929688 L 765 277.535156 L 768.183594 277.199219 L 771.363281 276.921875 L 774.546875 276.707031 L 777.726562 276.550781 L 780.910156 276.457031 L 784.089844 276.421875 "/>
<path fill="none" stroke-width="1.5" stroke-linecap="butt" stroke-linejoin="miter" stroke="rgb(90.196079%, 62.352943%, 0%)" stroke-opacity="1" stroke-miterlimit="2" d="M 465.910156 346.273438 L 469.089844 346.273438 L 472.273438 346.265625 L 475.453125 346.246094 L 478.636719 346.210938 L 481.816406 346.15625 L 485 346.070312 L 488.183594 345.957031 L 491.363281 345.804688 L 494.546875 345.613281 L 497.726562 345.375 L 500.910156 345.089844 L 504.089844 344.753906 L 507.273438 344.359375 L 510.453125 343.902344 L 513.636719 343.386719 L 516.816406 342.804688 L 520 342.15625 L 523.183594 341.433594 L 526.363281 340.640625 L 529.546875 339.773438 L 532.726562 338.824219 L 535.910156 337.800781 L 539.089844 336.695312 L 542.273438 335.511719 L 545.453125 334.242188 L 548.636719 332.890625 L 551.816406 331.457031 L 555 329.9375 L 558.183594 328.335938 L 561.363281 326.644531 L 564.546875 324.875 L 567.726562 323.019531 L 570.910156 321.078125 L 574.089844 319.058594 L 577.273438 316.957031 L 580.453125 314.773438 L 583.636719 312.511719 L 586.816406 310.175781 L 590 307.761719 L 593.183594 305.277344 L 596.363281 302.722656 L 599.546875 300.101562 L 602.726562 297.414062 L 605.910156 294.664062 L 609.089844 291.855469 L 612.273438 288.988281 L 615.453125 286.074219 L 618.636719 283.109375 L 621.816406 280.101562 L 625 277.050781 L 628.183594 273.964844 L 631.363281 270.851562 L 634.546875 267.707031 L 637.726562 264.542969 L 640.910156 261.359375 L 644.089844 258.164062 L 647.273438 254.964844 L 650.453125 251.761719 L 653.636719 248.5625 L 656.816406 245.371094 L 660 242.191406 L 663.183594 239.035156 L 666.363281 235.902344 L 669.546875 232.800781 L 672.726562 229.734375 L 675.910156 226.707031 L 679.089844 223.730469 L 682.273438 220.800781 L 685.453125 217.933594 L 688.636719 215.121094 L 691.816406 212.378906 L 695 209.707031 L 698.183594 207.109375 L 701.363281 204.59375 L 704.546875 202.160156 L 707.726562 199.8125 L 710.910156 197.558594 L 714.089844 195.394531 L 717.273438 193.328125 L 720.453125 191.359375 L 723.636719 189.492188 L 726.816406 187.730469 L 730 186.070312 L 733.183594 184.515625 L 736.363281 183.066406 L 739.546875 181.722656 L 742.726562 180.488281 L 745.910156 179.355469 L 749.089844 178.328125 L 752.273438 177.40625 L 755.453125 176.585938 L 758.636719 175.863281 L 761.816406 175.238281 L 765 174.710938 L 768.183594 174.269531 L 771.363281 173.921875 L 774.546875 173.65625 L 777.726562 173.472656 L 780.910156 173.367188 L 784.089844 173.332031 "/>
<path fill="none" stroke-width="1.5" stroke-linecap="butt" stroke-linejoin="miter" stroke="rgb(0%, 61.960787%, 45.09804%)" stroke-opacity="1" stroke-miterlimit="2" d="M 465.910156 346.273438 L 469.089844 346.269531 L 472.273438 346.25 L 475.453125 346.191406 L 478.636719 346.082031 L 481.816406 345.902344 L 485 345.640625 L 488.183594 345.28125 L 491.363281 344.808594 L 494.546875 344.207031 L 497.726562 343.472656 L 500.910156 342.585938 L 504.089844 341.542969 L 507.273438 340.332031 L 510.453125 338.945312 L 513.636719 337.371094 L 516.816406 335.609375 L 520 333.652344 L 523.183594 331.492188 L 526.363281 329.128906 L 529.546875 326.558594 L 532.726562 323.777344 L 535.910156 320.785156 L 539.089844 317.582031 L 542.273438 314.167969 L 545.453125 310.550781 L 548.636719 306.726562 L 551.816406 302.699219 L 555 298.476562 L 558.183594 294.0625 L 561.363281 289.464844 L 564.546875 284.6875 L 567.726562 279.746094 L 570.910156 274.644531 L 574.089844 269.394531 L 577.273438 264.011719 L 580.453125 258.5 L 583.636719 252.875 L 586.816406 247.15625 L 590 241.351562 L 593.183594 235.476562 L 596.363281 229.550781 L 599.546875 223.585938 L 602.726562 217.597656 L 605.910156 211.609375 L 609.089844 205.628906 L 612.273438 199.679688 L 615.453125 193.777344 L 618.636719 187.9375 L 621.816406 182.179688 L 625 176.511719 L 628.183594 170.957031 L 631.363281 165.527344 L 634.546875 160.238281 L 637.726562 155.101562 L 640.910156 150.128906 L 644.089844 145.332031 L 647.273438 140.722656 L 650.453125 136.308594 L 653.636719 132.09375 L 656.816406 128.089844 L 660 124.296875 L 663.183594 120.71875 L 666.363281 117.363281 L 669.546875 114.222656 L 672.726562 111.296875 L 675.910156 108.589844 L 679.089844 106.09375 L 682.273438 103.800781 L 685.453125 101.710938 L 688.636719 99.8125 L 691.816406 98.097656 L 695 96.5625 L 698.183594 95.1875 L 701.363281 93.972656 L 704.546875 92.898438 L 707.726562 91.957031 L 710.910156 91.140625 L 714.089844 90.429688 L 717.273438 89.820312 L 720.453125 89.296875 L 723.636719 88.847656 L 726.816406 88.464844 L 730 88.140625 L 733.183594 87.859375 L 736.363281 87.617188 L 739.546875 87.40625 L 742.726562 87.214844 L 745.910156 87.046875 L 749.089844 86.886719 L 752.273438 86.738281 L 755.453125 86.59375 L 758.636719 86.457031 L 761.816406 86.324219 L 765 86.199219 L 768.183594 86.082031 L 771.363281 85.972656 L 774.546875 85.882812 L 777.726562 85.808594 L 780.910156 85.757812 L 784.089844 85.742188 "/>
<path fill="none" stroke-width="1.5" stroke-linecap="butt" stroke-linejoin="miter" stroke="rgb(80.000001%, 47.450981%, 65.490198%)" stroke-opacity="1" stroke-miterlimit="2" d="M 465.910156 346.273438 L 469.089844 346.261719 L 472.273438 346.195312 L 475.453125 346.015625 L 478.636719 345.671875 L 481.816406 345.117188 L 485 344.304688 L 488.183594 343.195312 L 491.363281 341.75 L 494.546875 339.941406 L 497.726562 337.742188 L 500.910156 335.128906 L 504.089844 332.089844 L 507.273438 328.609375 L 510.453125 324.683594 L 513.636719 320.308594 L 516.816406 315.496094 L 520 310.25 L 523.183594 304.585938 L 526.363281 298.523438 L 529.546875 292.089844 L 532.726562 285.316406 L 535.910156 278.234375 L 539.089844 270.886719 L 542.273438 263.3125 L 545.453125 255.5625 L 548.636719 247.683594 L 551.816406 239.730469 L 555 231.757812 L 558.183594 223.820312 L 561.363281 215.96875 L 564.546875 208.261719 L 567.726562 200.746094 L 570.910156 193.476562 L 574.089844 186.5 L 577.273438 179.851562 L 580.453125 173.570312 L 583.636719 167.691406 L 586.816406 162.230469 L 590 157.210938 L 593.183594 152.644531 L 596.363281 148.527344 L 599.546875 144.859375 L 602.726562 141.625 L 605.910156 138.816406 L 609.089844 136.398438 L 612.273438 134.351562 L 615.453125 132.636719 L 618.636719 131.214844 L 621.816406 130.050781 L 625 129.097656 L 628.183594 128.3125 L 631.363281 127.652344 L 634.546875 127.074219 L 637.726562 126.535156 L 640.910156 125.992188 L 644.089844 125.417969 L 647.273438 124.769531 L 650.453125 124.023438 L 653.636719 123.148438 L 656.816406 122.132812 L 660 120.960938 L 663.183594 119.613281 L 666.363281 118.09375 L 669.546875 116.402344 L 672.726562 114.539062 L 675.910156 112.511719 L 679.089844 110.339844 L 682.273438 108.035156 L 685.453125 105.617188 L 688.636719 103.113281 L 691.816406 100.542969 L 695 97.933594 L 698.183594 95.3125 L 701.363281 92.707031 L 704.546875 90.136719 L 707.726562 87.632812 L 710.910156 85.210938 L 714.089844 82.898438 L 717.273438 80.707031 L 720.453125 78.652344 L 723.636719 76.75 L 726.816406 75 L 730 73.410156 L 733.183594 71.980469 L 736.363281 70.707031 L 739.546875 69.589844 L 742.726562 68.617188 L 745.910156 67.777344 L 749.089844 67.0625 L 752.273438 66.457031 L 755.453125 65.953125 L 758.636719 65.535156 L 761.816406 65.191406 L 765 64.910156 L 768.183594 64.6875 L 771.363281 64.507812 L 774.546875 64.375 L 777.726562 64.277344 L 780.910156 64.214844 L 784.089844 64.195312 "/>
<path fill="none" stroke-width="1.5" stroke-linecap="butt" stroke-linejoin="miter" stroke="rgb(33.725491%, 70.588237%, 91.37255%)" stroke-opacity="1" stroke-miterlimit="2" d="M 465.910156 346.273438 L 469.089844 346.242188 L 472.273438 346.03125 L 475.453125 345.472656 L 478.636719 344.417969 L 481.816406 342.734375 L 485 340.324219 L 488.183594 337.113281 L 491.363281 333.054688 L 494.546875 328.140625 L 497.726562 322.386719 L 500.910156 315.847656 L 504.089844 308.597656 L 507.273438 300.742188 L 510.453125 292.417969 L 513.636719 283.773438 L 516.816406 274.976562 L 520 266.199219 L 523.183594 257.621094 L 526.363281 249.410156 L 529.546875 241.71875 L 532.726562 234.683594 L 535.910156 228.410156 L 539.089844 222.964844 L 542.273438 218.378906 L 545.453125 214.652344 L 548.636719 211.742188 L 551.816406 209.570312 L 555 208.03125 L 558.183594 206.992188 L 561.363281 206.304688 L 564.546875 205.816406 L 567.726562 205.367188 L 570.910156 204.804688 L 574.089844 203.992188 L 577.273438 202.8125 L 580.453125 201.160156 L 583.636719 198.96875 L 586.816406 196.195312 L 590 192.824219 L 593.183594 188.867188 L 596.363281 184.375 L 599.546875 179.402344 L 602.726562 174.050781 L 605.910156 168.417969 L 609.089844 162.625 L 612.273438 156.792969 L 615.453125 151.046875 L 618.636719 145.5 L 621.816406 140.253906 L 625 135.398438 L 628.183594 130.996094 L 631.363281 127.078125 L 634.546875 123.664062 L 637.726562 120.738281 L 640.910156 118.261719 L 644.089844 116.179688 L 647.273438 114.421875 L 650.453125 112.902344 L 653.636719 111.539062 L 656.816406 110.238281 L 660 108.925781 L 663.183594 107.527344 L 666.363281 105.988281 L 669.546875 104.265625 L 672.726562 102.339844 L 675.910156 100.195312 L 679.089844 97.851562 L 682.273438 95.332031 L 685.453125 92.667969 L 688.636719 89.914062 L 691.816406 87.125 L 695 84.347656 L 698.183594 81.640625 L 701.363281 79.054688 L 704.546875 76.628906 L 707.726562 74.394531 L 710.910156 72.375 L 714.089844 70.578125 L 717.273438 69.003906 L 720.453125 67.636719 L 723.636719 66.460938 L 726.816406 65.449219 L 730 64.570312 L 733.183594 63.796875 L 736.363281 63.097656 L 739.546875 62.445312 L 742.726562 61.816406 L 745.910156 61.195312 L 749.089844 60.570312 L 752.273438 59.941406 L 755.453125 59.304688 L 758.636719 58.675781 L 761.816406 58.0625 L 765 57.484375 L 768.183594 56.957031 L 771.363281 56.5 L 774.546875 56.128906 L 777.726562 55.855469 L 780.910156 55.6875 L 784.089844 55.632812 "/>
<path fill="none" stroke-width="1.5" stroke-linecap="butt" stroke-linejoin="miter" stroke="rgb(83.529413%, 36.862746%, 0%)" stroke-opacity="1" stroke-miterlimit="2" d="M 465.910156 346.273438 L 469.089844 346.175781 L 472.273438 345.523438 L 475.453125 343.839844 L 478.636719 340.777344 L 481.816406 336.167969 L 485 330.015625 L 488.183594 322.511719 L 491.363281 314.011719 L 494.546875 304.988281 L 497.726562 295.996094 L 500.910156 287.582031 L 504.089844 280.234375 L 507.273438 274.296875 L 510.453125 269.929688 L 513.636719 267.089844 L 516.816406 265.53125 L 520 264.851562 L 523.183594 264.554688 L 526.363281 264.101562 L 529.546875 263.011719 L 532.726562 260.894531 L 535.910156 257.496094 L 539.089844 252.734375 L 542.273438 246.707031 L 545.453125 239.660156 L 548.636719 231.972656 L 551.816406 224.101562 L 555 216.519531 L 558.183594 209.664062 L 561.363281 203.847656 L 564.546875 199.25 L 567.726562 195.867188 L 570.910156 193.535156 L 574.089844 191.960938 L 577.273438 190.765625 L 580.453125 189.546875 L 583.636719 187.941406 L 586.816406 185.675781 L 590 182.589844 L 593.183594 178.660156 L 596.363281 173.992188 L 599.546875 168.789062 L 602.726562 163.339844 L 605.910156 157.941406 L 609.089844 152.878906 L 612.273438 148.378906 L 615.453125 144.554688 L 618.636719 141.433594 L 621.816406 138.925781 L 625 136.863281 L 628.183594 135.03125 L 631.363281 133.191406 L 634.546875 131.140625 L 637.726562 128.726562 L 640.910156 125.875 L 644.089844 122.585938 L 647.273438 118.949219 L 650.453125 115.09375 L 653.636719 111.203125 L 656.816406 107.457031 L 660 104.007812 L 663.183594 100.96875 L 666.363281 98.390625 L 669.546875 96.257812 L 672.726562 94.503906 L 675.910156 93.007812 L 679.089844 91.625 L 682.273438 90.207031 L 685.453125 88.628906 L 688.636719 86.796875 L 691.816406 84.660156 L 695 82.238281 L 698.183594 79.589844 L 701.363281 76.832031 L 704.546875 74.109375 L 707.726562 71.582031 L 710.910156 69.382812 L 714.089844 67.601562 L 717.273438 66.269531 L 720.453125 65.335938 L 723.636719 64.691406 L 726.816406 64.1875 L 730 63.652344 L 733.183594 62.964844 L 736.363281 62.042969 L 739.546875 60.882812 L 742.726562 59.546875 L 745.910156 58.136719 L 749.089844 56.777344 L 752.273438 55.574219 L 755.453125 54.589844 L 758.636719 53.84375 L 761.816406 53.300781 L 765 52.90625 L 768.183594 52.597656 L 771.363281 52.339844 L 774.546875 52.109375 L 777.726562 51.914062 L 780.910156 51.777344 L 784.089844 51.726562 "/>
<path fill-rule="nonzero" fill="rgb(100%, 100%, 100%)" fill-opacity="1" stroke-width="1" stroke-linecap="butt" stroke-linejoin="miter" stroke="rgb(0%, 0%, 0%)" stroke-opacity="1" stroke-miterlimit="2" d="M 818 283 L 884 283 L 884 114 L 818 114 Z M 818 283 "/>
<path fill="none" stroke-width="1" stroke-linecap="butt" stroke-linejoin="miter" stroke="rgb(0%, 0%, 0%)" stroke-opacity="1" stroke-miterlimit="1.154701" d="M 68.910156 361.5 L 68.910156 366.5 "/>
<path fill="none" stroke-width="1" stroke-linecap="butt" stroke-linejoin="miter" stroke="rgb(0%, 0%, 0%)" stroke-opacity="1" stroke-miterlimit="1.154701" d="M 148.453125 361.5 L 148.453125 366.5 "/>
<path fill="none" stroke-width="1" stroke-linecap="butt" stroke-linejoin="miter" stroke="rgb(0%, 0%, 0%)" stroke-opacity="1" stroke-miterlimit="1.154701" d="M 228 361.5 L 228 366.5 "/>
<path fill="none" stroke-width="1" stroke-linecap="butt" stroke-linejoin="miter" stroke="rgb(0%, 0%, 0%)" stroke-opacity="1" stroke-miterlimit="1.154701" d="M 307.546875 361.5 L 307.546875 366.5 "/>
<path fill="none" stroke-width="1" stroke-linecap="butt" stroke-linejoin="miter" stroke="rgb(0%, 0%, 0%)" stroke-opacity="1" stroke-miterlimit="1.154701" d="M 387.089844 361.5 L 387.089844 366.5 "/>
<path fill="none" stroke-width="1" stroke-linecap="butt" stroke-linejoin="miter" stroke="rgb(0%, 0%, 0%)" stroke-opacity="1" stroke-miterlimit="1.154701" d="M 52.5 287.417969 L 47.5 287.417969 "/>
<path fill="none" stroke-width="1" stroke-linecap="butt" stroke-linejoin="miter" stroke="rgb(0%, 0%, 0%)" stroke-opacity="1" stroke-miterlimit="1.154701" d="M 52.5 169.574219 L 47.5 169.574219 "/>
<path fill="none" stroke-width="1" stroke-linecap="butt" stroke-linejoin="miter" stroke="rgb(0%, 0%, 0%)" stroke-opacity="1" stroke-miterlimit="1.154701" d="M 52.5 51.726562 L 47.5 51.726562 "/>
<path fill="none" stroke-width="1" stroke-linecap="butt" stroke-linejoin="miter" stroke="rgb(0%, 0%, 0%)" stroke-opacity="1" stroke-miterlimit="1.154701" d="M 465.910156 361.5 L 465.910156 366.5 "/>
<path fill="none" stroke-width="1" stroke-linecap="butt" stroke-linejoin="miter" stroke="rgb(0%, 0%, 0%)" stroke-opacity="1" stroke-miterlimit="1.154701" d="M 545.453125 361.5 L 545.453125 366.5 "/>
<path fill="none" stroke-width="1" stroke-linecap="butt" stroke-linejoin="miter" stroke="rgb(0%, 0%, 0%)" stroke-opacity="1" stroke-miterlimit="1.154701" d="M 625 361.5 L 625 366.5 "/>
<path fill="none" stroke-width="1" stroke-linecap="butt" stroke-linejoin="miter" stroke="rgb(0%, 0%, 0%)" stroke-opacity="1" stroke-miterlimit="1.154701" d="M 704.546875 361.5 L 704.546875 366.5 "/>
<path fill="none" stroke-width="1" stroke-linecap="butt" stroke-linejoin="miter" stroke="rgb(0%, 0%, 0%)" stroke-opacity="1" stroke-miterlimit="1.154701" d="M 784.089844 361.5 L 784.089844 366.5 "/>
<path fill="none" stroke-width="1" stroke-linecap="butt" stroke-linejoin="miter" stroke="rgb(0%, 0%, 0%)" stroke-opacity="1" stroke-miterlimit="1.154701" d="M 449.5 315.671875 L 444.5 315.671875 "/>
<path fill="none" stroke-width="1" stroke-linecap="butt" stroke-linejoin="miter" stroke="rgb(0%, 0%, 0%)" stroke-opacity="1" stroke-miterlimit="1.154701" d="M 449.5 249.132812 L 444.5 249.132812 "/>
<path fill="none" stroke-width="1" stroke-linecap="butt" stroke-linejoin="miter" stroke="rgb(0%, 0%, 0%)" stroke-opacity="1" stroke-miterlimit="1.154701" d="M 449.5 182.59375 L 444.5 182.59375 "/>
<path fill="none" stroke-width="1" stroke-linecap="butt" stroke-linejoin="miter" stroke="rgb(0%, 0%, 0%)" stroke-opacity="1" stroke-miterlimit="1.154701" d="M 449.5 116.054688 L 444.5 116.054688 "/>
<path fill="none" stroke-width="1" stroke-linecap="butt" stroke-linejoin="miter" stroke="rgb(0%, 0%, 0%)" stroke-opacity="1" stroke-miterlimit="1.154701" d="M 449.5 49.515625 L 444.5 49.515625 "/>
<path fill="none" stroke-width="1.5" stroke-linecap="butt" stroke-linejoin="miter" stroke="rgb(0%, 44.705883%, 69.803923%)" stroke-opacity="1" stroke-miterlimit="2" d="M 824.03125 152 L 844.03125 152 "/>
<path fill="none" stroke-width="1.5" stroke-linecap="butt" stroke-linejoin="miter" stroke="rgb(90.196079%, 62.352943%, 0%)" stroke-opacity="1" stroke-miterlimit="2" d="M 824.03125 175 L 844.03125 175 "/>
<path fill="none" stroke-width="1.5" stroke-linecap="butt" stroke-linejoin="miter" stroke="rgb(0%, 61.960787%, 45.09804%)" stroke-opacity="1" stroke-miterlimit="2" d="M 824.03125 198 L 844.03125 198 "/>
<path fill="none" stroke-width="1.5" stroke-linecap="butt" stroke-linejoin="miter" stroke="rgb(80.000001%, 47.450981%, 65.490198%)" stroke-opacity="1" stroke-miterlimit="2" d="M 824.03125 221 L 844.03125 221 "/>
<path fill="none" stroke-width="1.5" stroke-linecap="butt" stroke-linejoin="miter" stroke="rgb(33.725491%, 70.588237%, 91.37255%)" stroke-opacity="1" stroke-miterlimit="2" d="M 824.03125 244 L 844.03125 244 "/>
<path fill="none" stroke-width="1.5" stroke-linecap="butt" stroke-linejoin="miter" stroke="rgb(83.529413%, 36.862746%, 0%)" stroke-opacity="1" stroke-miterlimit="2" d="M 824.03125 267 L 844.03125 267 "/>
<g fill="rgb(0%, 0%, 0%)" fill-opacity="1">
<use xlink:href="#glyph-4-2-31fe9bc4" x="845.98802" y="131.284006"/>
</g>
<g fill="rgb(0%, 0%, 0%)" fill-opacity="1">
<use xlink:href="#glyph-3-6-31fe9bc4" x="849.032445" y="157.044205"/>
<use xlink:href="#glyph-3-7-31fe9bc4" x="856.032446" y="157.044205"/>
</g>
<g fill="rgb(0%, 0%, 0%)" fill-opacity="1">
<use xlink:href="#glyph-10-0-31fe9bc4" x="863.032446" y="151.010206"/>
<use xlink:href="#glyph-10-1-31fe9bc4" x="867.232445" y="151.010206"/>
</g>
<g fill="rgb(0%, 0%, 0%)" fill-opacity="1">
<use xlink:href="#glyph-11-0-31fe9bc4" x="869.567646" y="151.010206"/>
</g>
<g fill="rgb(0%, 0%, 0%)" fill-opacity="1">
<use xlink:href="#glyph-3-6-31fe9bc4" x="849.032421" y="180.044205"/>
<use xlink:href="#glyph-3-7-31fe9bc4" x="856.032421" y="180.044205"/>
</g>
<g fill="rgb(0%, 0%, 0%)" fill-opacity="1">
<use xlink:href="#glyph-10-0-31fe9bc4" x="863.032421" y="174.010205"/>
<use xlink:href="#glyph-10-1-31fe9bc4" x="867.23242" y="174.010205"/>
<use xlink:href="#glyph-10-2-31fe9bc4" x="869.567621" y="174.010205"/>
<use xlink:href="#glyph-10-3-31fe9bc4" x="873.767622" y="174.010205"/>
</g>
<g fill="rgb(0%, 0%, 0%)" fill-opacity="1">
<use xlink:href="#glyph-3-6-31fe9bc4" x="849.032445" y="203.044204"/>
<use xlink:href="#glyph-3-7-31fe9bc4" x="856.032446" y="203.044204"/>
</g>
<g fill="rgb(0%, 0%, 0%)" fill-opacity="1">
<use xlink:href="#glyph-10-0-31fe9bc4" x="863.032446" y="197.010205"/>
<use xlink:href="#glyph-10-1-31fe9bc4" x="867.232445" y="197.010205"/>
</g>
<g fill="rgb(0%, 0%, 0%)" fill-opacity="1">
<use xlink:href="#glyph-11-1-31fe9bc4" x="869.567646" y="197.010205"/>
</g>
<g fill="rgb(0%, 0%, 0%)" fill-opacity="1">
<use xlink:href="#glyph-3-6-31fe9bc4" x="849.032421" y="226.044204"/>
<use xlink:href="#glyph-3-7-31fe9bc4" x="856.032421" y="226.044204"/>
</g>
<g fill="rgb(0%, 0%, 0%)" fill-opacity="1">
<use xlink:href="#glyph-10-0-31fe9bc4" x="863.032421" y="220.010204"/>
<use xlink:href="#glyph-10-1-31fe9bc4" x="867.23242" y="220.010204"/>
<use xlink:href="#glyph-10-4-31fe9bc4" x="869.567621" y="220.010204"/>
<use xlink:href="#glyph-10-3-31fe9bc4" x="873.767622" y="220.010204"/>
</g>
<g fill="rgb(0%, 0%, 0%)" fill-opacity="1">
<use xlink:href="#glyph-3-6-31fe9bc4" x="849.032445" y="249.044203"/>
<use xlink:href="#glyph-3-7-31fe9bc4" x="856.032446" y="249.044203"/>
</g>
<g fill="rgb(0%, 0%, 0%)" fill-opacity="1">
<use xlink:href="#glyph-10-5-31fe9bc4" x="863.032446" y="243.010204"/>
<use xlink:href="#glyph-10-1-31fe9bc4" x="867.232445" y="243.010204"/>
</g>
<g fill="rgb(0%, 0%, 0%)" fill-opacity="1">
<use xlink:href="#glyph-11-0-31fe9bc4" x="869.567646" y="243.010204"/>
</g>
<g fill="rgb(0%, 0%, 0%)" fill-opacity="1">
<use xlink:href="#glyph-3-6-31fe9bc4" x="849.032421" y="272.044203"/>
<use xlink:href="#glyph-3-7-31fe9bc4" x="856.032421" y="272.044203"/>
</g>
<g fill="rgb(0%, 0%, 0%)" fill-opacity="1">
<use xlink:href="#glyph-10-5-31fe9bc4" x="863.032421" y="266.010203"/>
<use xlink:href="#glyph-10-1-31fe9bc4" x="867.23242" y="266.010203"/>
<use xlink:href="#glyph-10-2-31fe9bc4" x="869.567621" y="266.010203"/>
<use xlink:href="#glyph-10-3-31fe9bc4" x="873.767622" y="266.010203"/>
</g>
<path fill="none" stroke-width="1" stroke-linecap="butt" stroke-linejoin="miter" stroke="rgb(0%, 0%, 0%)" stroke-opacity="1" stroke-miterlimit="1.154701" d="M 52.5 361 L 403.5 361 "/>
<path fill="none" stroke-width="1" stroke-linecap="butt" stroke-linejoin="miter" stroke="rgb(0%, 0%, 0%)" stroke-opacity="1" stroke-miterlimit="1.154701" d="M 53 361.5 L 53 36.5 "/>
<path fill="none" stroke-width="1" stroke-linecap="butt" stroke-linejoin="miter" stroke="rgb(0%, 0%, 0%)" stroke-opacity="1" stroke-miterlimit="1.154701" d="M 52.5 37 L 403.5 37 "/>
<path fill="none" stroke-width="1" stroke-linecap="butt" stroke-linejoin="miter" stroke="rgb(0%, 0%, 0%)" stroke-opacity="1" stroke-miterlimit="1.154701" d="M 403 361.5 L 403 36.5 "/>
<path fill="none" stroke-width="1" stroke-linecap="butt" stroke-linejoin="miter" stroke="rgb(0%, 0%, 0%)" stroke-opacity="1" stroke-miterlimit="1.154701" d="M 449.5 361 L 800.5 361 "/>
<path fill="none" stroke-width="1" stroke-linecap="butt" stroke-linejoin="miter" stroke="rgb(0%, 0%, 0%)" stroke-opacity="1" stroke-miterlimit="1.154701" d="M 450 361.5 L 450 36.5 "/>
<path fill="none" stroke-width="1" stroke-linecap="butt" stroke-linejoin="miter" stroke="rgb(0%, 0%, 0%)" stroke-opacity="1" stroke-miterlimit="1.154701" d="M 449.5 37 L 800.5 37 "/>
<path fill="none" stroke-width="1" stroke-linecap="butt" stroke-linejoin="miter" stroke="rgb(0%, 0%, 0%)" stroke-opacity="1" stroke-miterlimit="1.154701" d="M 800 361.5 L 800 36.5 "/>
</svg>
