<?xml version="1.0" encoding="UTF-8"?>
<svg xmlns="http://www.w3.org/2000/svg" xmlns:xlink="http://www.w3.org/1999/xlink" width="900" height="400" viewBox="0 0 900 400">
<defs>
<g>
<g id="glyph-0-0-88e7df13">
<path d="M 7.09375 -4.78125 C 7.09375 -1.515625 5.953125 0.203125 3.84375 0.203125 C 1.71875 0.203125 0.609375 -1.515625 0.609375 -4.859375 C 0.609375 -8.1875 1.703125 -9.921875 3.84375 -9.921875 C 6 -9.921875 7.09375 -8.21875 7.09375 -4.78125 Z M 5.84375 -4.890625 C 5.84375 -7.546875 5.1875 -8.828125 3.84375 -8.828125 C 2.515625 -8.828125 1.859375 -7.5625 1.859375 -4.84375 C 1.859375 -2.125 2.515625 -0.8125 3.828125 -0.8125 C 5.1875 -0.8125 5.84375 -2.078125 5.84375 -4.890625 Z M 5.84375 -4.890625 "/>
</g>
<g id="glyph-0-1-88e7df13">
<path d="M 2.671875 0 C 2.671875 0 1.21875 0 1.21875 0 C 1.21875 0 1.21875 -1.453125 1.21875 -1.453125 C 1.21875 -1.453125 2.671875 -1.453125 2.671875 -1.453125 C 2.671875 -1.453125 2.671875 0 2.671875 0 Z M 2.671875 0 "/>
</g>
<g id="glyph-0-2-88e7df13">
<path d="M 8.296875 -9.0625 C 8.296875 -9.0625 4.953125 -9.0625 4.953125 -9.0625 C 4.953125 -9.0625 4.953125 0 4.953125 0 C 4.953125 0 3.65625 0 3.65625 0 C 3.65625 0 3.65625 -9.0625 3.65625 -9.0625 C 3.65625 -9.0625 0.296875 -9.0625 0.296875 -9.0625 C 0.296875 -9.0625 0.296875 -10.203125 0.296875 -10.203125 C 0.296875 -10.203125 8.296875 -10.203125 8.296875 -10.203125 C 8.296875 -10.203125 8.296875 -9.0625 8.296875 -9.0625 Z M 8.296875 -9.0625 "/>
</g>
<g id="glyph-0-3-88e7df13">
<path d="M 7.15625 -7.015625 C 7.15625 -5.796875 6.4375 -4.765625 5.046875 -4.015625 C 5.046875 -4.015625 3.65625 -3.265625 3.65625 -3.265625 C 2.4375 -2.546875 1.984375 -2.03125 1.859375 -1.21875 C 1.859375 -1.21875 7.078125 -1.21875 7.078125 -1.21875 C 7.078125 -1.21875 7.078125 0 7.078125 0 C 7.078125 0 0.46875 0 0.46875 0 C 0.59375 -2.1875 1.1875 -3.125 3.265625 -4.296875 C 3.265625 -4.296875 4.546875 -5.03125 4.546875 -5.03125 C 5.4375 -5.53125 5.890625 -6.203125 5.890625 -6.984375 C 5.890625 -8.046875 5.046875 -8.84375 3.9375 -8.84375 C 2.71875 -8.84375 2.03125 -8.140625 1.9375 -6.484375 C 1.9375 -6.484375 0.703125 -6.484375 0.703125 -6.484375 C 0.765625 -8.890625 1.953125 -9.921875 3.96875 -9.921875 C 5.859375 -9.921875 7.15625 -8.6875 7.15625 -7.015625 Z M 7.15625 -7.015625 "/>
</g>
<g id="glyph-0-4-88e7df13">
<path d="M 7.1875 -3.296875 C 7.1875 -1.1875 5.78125 0.203125 3.78125 0.203125 C 2.015625 0.203125 0.890625 -0.578125 0.484375 -2.546875 C 0.484375 -2.546875 1.71875 -2.546875 1.71875 -2.546875 C 2.015625 -1.421875 2.671875 -0.875 3.75 -0.875 C 5.09375 -0.875 5.921875 -1.6875 5.921875 -3.125 C 5.921875 -4.59375 5.078125 -5.453125 3.75 -5.453125 C 2.984375 -5.453125 2.5 -5.203125 1.9375 -4.515625 C 1.9375 -4.515625 0.796875 -4.515625 0.796875 -4.515625 C 0.796875 -4.515625 1.546875 -9.71875 1.546875 -9.71875 C 1.546875 -9.71875 6.65625 -9.71875 6.65625 -9.71875 C 6.65625 -9.71875 6.65625 -8.5 6.65625 -8.5 C 6.65625 -8.5 2.53125 -8.5 2.53125 -8.5 C 2.53125 -8.5 2.140625 -5.9375 2.140625 -5.9375 C 2.71875 -6.359375 3.28125 -6.53125 3.96875 -6.53125 C 5.875 -6.53125 7.1875 -5.25 7.1875 -3.296875 Z M 7.1875 -3.296875 "/>
</g>
<g id="glyph-0-5-88e7df13">
<path d="M 7.28125 -8.6875 C 5.1875 -6.203125 3.796875 -3.203125 3.25 0 C 3.25 0 1.9375 0 1.9375 0 C 2.625 -3.109375 4.03125 -6 6 -8.5 C 6 -8.5 0.640625 -8.5 0.640625 -8.5 C 0.640625 -8.5 0.640625 -9.71875 0.640625 -9.71875 C 0.640625 -9.71875 7.28125 -9.71875 7.28125 -9.71875 C 7.28125 -9.71875 7.28125 -8.6875 7.28125 -8.6875 Z M 7.28125 -8.6875 "/>
</g>
<g id="glyph-0-6-88e7df13">
<path d="M 4.859375 0 C 4.859375 0 3.625 0 3.625 0 C 3.625 0 3.625 -7.0625 3.625 -7.0625 C 3.625 -7.0625 1.421875 -7.0625 1.421875 -7.0625 C 1.421875 -7.0625 1.421875 -7.953125 1.421875 -7.953125 C 3.328125 -8.1875 3.609375 -8.40625 4.046875 -9.921875 C 4.046875 -9.921875 4.859375 -9.921875 4.859375 -9.921875 C 4.859375 -9.921875 4.859375 0 4.859375 0 Z M 4.859375 0 "/>
</g>
<g id="glyph-0-7-88e7df13">
<path d="M 7.21875 -3.03125 C 7.21875 -3.03125 0.953125 -3.03125 0.953125 -3.03125 C 0.953125 -3.03125 0.953125 -3.96875 0.953125 -3.96875 C 0.953125 -3.96875 7.21875 -3.96875 7.21875 -3.96875 C 7.21875 -3.96875 7.21875 -3.03125 7.21875 -3.03125 Z M 7.21875 -3.03125 "/>
</g>
<g id="glyph-0-8-88e7df13">
<path d="M 7.28125 -2.375 C 7.28125 -2.375 5.8125 -2.375 5.8125 -2.375 C 5.8125 -2.375 5.8125 0 5.8125 0 C 5.8125 0 4.578125 0 4.578125 0 C 4.578125 0 4.578125 -2.375 4.578125 -2.375 C 4.578125 -2.375 0.390625 -2.375 0.390625 -2.375 C 0.390625 -2.375 0.390625 -3.6875 0.390625 -3.6875 C 0.390625 -3.6875 4.90625 -9.921875 4.90625 -9.921875 C 4.90625 -9.921875 5.8125 -9.921875 5.8125 -9.921875 C 5.8125 -9.921875 5.8125 -3.484375 5.8125 -3.484375 C 5.8125 -3.484375 7.28125 -3.484375 7.28125 -3.484375 C 7.28125 -3.484375 7.28125 -2.375 7.28125 -2.375 Z M 4.578125 -3.484375 C 4.578125 -3.484375 4.578125 -7.828125 4.578125 -7.828125 C 4.578125 -7.828125 1.46875 -3.484375 1.46875 -3.484375 C 1.46875 -3.484375 4.578125 -3.484375 4.578125 -3.484375 Z M 4.578125 -3.484375 "/>
</g>
<g id="glyph-0-9-88e7df13">
<path d="M 7.078125 -2.890625 C 7.078125 -1.015625 5.765625 0.203125 3.71875 0.203125 C 1.6875 0.203125 0.609375 -0.78125 0.453125 -3 C 0.453125 -3 1.6875 -3 1.6875 -3 C 1.765625 -1.546875 2.421875 -0.875 3.765625 -0.875 C 5.046875 -0.875 5.828125 -1.625 5.828125 -2.875 C 5.828125 -3.96875 5.125 -4.625 3.765625 -4.625 C 3.765625 -4.625 3.09375 -4.625 3.09375 -4.625 C 3.09375 -4.625 3.09375 -5.65625 3.09375 -5.65625 C 5.0625 -5.65625 5.53125 -6.09375 5.53125 -7.15625 C 5.53125 -8.203125 4.875 -8.84375 3.78125 -8.84375 C 2.515625 -8.84375 1.921875 -8.1875 1.890625 -6.71875 C 1.890625 -6.71875 0.65625 -6.71875 0.65625 -6.71875 C 0.703125 -8.828125 1.765625 -9.921875 3.765625 -9.921875 C 5.65625 -9.921875 6.796875 -8.90625 6.796875 -7.203125 C 6.796875 -6.203125 6.328125 -5.5625 5.40625 -5.1875 C 6.59375 -4.78125 7.078125 -4.09375 7.078125 -2.890625 Z M 7.078125 -2.890625 "/>
</g>
<g id="glyph-1-0-88e7df13">
<path d="M 2.671875 0 C 2.671875 0 1.21875 0 1.21875 0 C 1.21875 0 1.21875 -1.453125 1.21875 -1.453125 C 1.21875 -1.453125 2.671875 -1.453125 2.671875 -1.453125 C 2.671875 -1.453125 2.671875 0 2.671875 0 Z M 2.671875 0 "/>
</g>
</g>
</defs>
<rect x="-90" y="-40" width="1080" height="480" fill="rgb(100%, 100%, 100%)" fill-opacity="1"/>
<path fill-rule="nonzero" fill="rgb(100%, 100%, 100%)" fill-opacity="1" d="M 53 361 L 884 361 L 884 16 L 53 16 Z M 53 361 "/>
<path fill="none" stroke-width="1" stroke-linecap="butt" stroke-linejoin="miter" stroke="rgb(0%, 0%, 0%)" stroke-opacity="0.12" stroke-miterlimit="1.154701" d="M 90.773438 361 L 90.773438 16 "/>
<path fill="none" stroke-width="1" stroke-linecap="butt" stroke-linejoin="miter" stroke="rgb(0%, 0%, 0%)" stroke-opacity="0.12" stroke-miterlimit="1.154701" d="M 279.636719 361 L 279.636719 16 "/>
<path fill="none" stroke-width="1" stroke-linecap="butt" stroke-linejoin="miter" stroke="rgb(0%, 0%, 0%)" stroke-opacity="0.12" stroke-miterlimit="1.154701" d="M 468.5 361 L 468.5 16 "/>
<path fill="none" stroke-width="1" stroke-linecap="butt" stroke-linejoin="miter" stroke="rgb(0%, 0%, 0%)" stroke-opacity="0.12" stroke-miterlimit="1.154701" d="M 657.363281 361 L 657.363281 16 "/>
<path fill="none" stroke-width="1" stroke-linecap="butt" stroke-linejoin="miter" stroke="rgb(0%, 0%, 0%)" stroke-opacity="0.12" stroke-miterlimit="1.154701" d="M 846.226562 361 L 846.226562 16 "/>
<path fill="none" stroke-width="1" stroke-linecap="butt" stroke-linejoin="miter" stroke="rgb(0%, 0%, 0%)" stroke-opacity="0.12" stroke-miterlimit="1.154701" d="M 53 296.285156 L 884 296.285156 "/>
<path fill="none" stroke-width="1" stroke-linecap="butt" stroke-linejoin="miter" stroke="rgb(0%, 0%, 0%)" stroke-opacity="0.12" stroke-miterlimit="1.154701" d="M 53 230.132812 L 884 230.132812 "/>
<path fill="none" stroke-width="1" stroke-linecap="butt" stroke-linejoin="miter" stroke="rgb(0%, 0%, 0%)" stroke-opacity="0.12" stroke-miterlimit="1.154701" d="M 53 163.984375 L 884 163.984375 "/>
<path fill="none" stroke-width="1" stroke-linecap="butt" stroke-linejoin="miter" stroke="rgb(0%, 0%, 0%)" stroke-opacity="0.12" stroke-miterlimit="1.154701" d="M 53 97.832031 L 884 97.832031 "/>
<path fill="none" stroke-width="1" stroke-linecap="butt" stroke-linejoin="miter" stroke="rgb(0%, 0%, 0%)" stroke-opacity="0.12" stroke-miterlimit="1.154701" d="M 53 31.683594 L 884 31.683594 "/>
<g fill="rgb(0%, 0%, 0%)" fill-opacity="1">
<use xlink:href="#glyph-0-0-88e7df13" x="76.76573" y="382.258001"/>
</g>
<g fill="rgb(0%, 0%, 0%)" fill-opacity="1">
<use xlink:href="#glyph-0-1-88e7df13" x="84.54973" y="382.258001"/>
</g>
<g fill="rgb(0%, 0%, 0%)" fill-opacity="1">
<use xlink:href="#glyph-0-0-88e7df13" x="88.44173" y="382.258001"/>
</g>
<g fill="rgb(0%, 0%, 0%)" fill-opacity="1">
<use xlink:href="#glyph-0-2-88e7df13" x="96.225729" y="382.258001"/>
</g>
<g fill="rgb(0%, 0%, 0%)" fill-opacity="1">
<use xlink:href="#glyph-0-0-88e7df13" x="261.737359" y="382.258001"/>
</g>
<g fill="rgb(0%, 0%, 0%)" fill-opacity="1">
<use xlink:href="#glyph-0-1-88e7df13" x="269.521359" y="382.258001"/>
</g>
<g fill="rgb(0%, 0%, 0%)" fill-opacity="1">
<use xlink:href="#glyph-0-3-88e7df13" x="273.413359" y="382.258001"/>
</g>
<g fill="rgb(0%, 0%, 0%)" fill-opacity="1">
<use xlink:href="#glyph-0-4-88e7df13" x="281.197358" y="382.258001"/>
</g>
<g fill="rgb(0%, 0%, 0%)" fill-opacity="1">
<use xlink:href="#glyph-0-2-88e7df13" x="288.981359" y="382.258001"/>
</g>
<g fill="rgb(0%, 0%, 0%)" fill-opacity="1">
<use xlink:href="#glyph-0-0-88e7df13" x="454.493011" y="382.258001"/>
</g>
<g fill="rgb(0%, 0%, 0%)" fill-opacity="1">
<use xlink:href="#glyph-0-1-88e7df13" x="462.277011" y="382.258001"/>
</g>
<g fill="rgb(0%, 0%, 0%)" fill-opacity="1">
<use xlink:href="#glyph-0-4-88e7df13" x="466.169011" y="382.258001"/>
</g>
<g fill="rgb(0%, 0%, 0%)" fill-opacity="1">
<use xlink:href="#glyph-0-2-88e7df13" x="473.953011" y="382.258001"/>
</g>
<g fill="rgb(0%, 0%, 0%)" fill-opacity="1">
<use xlink:href="#glyph-0-0-88e7df13" x="639.464663" y="382.258001"/>
</g>
<g fill="rgb(0%, 0%, 0%)" fill-opacity="1">
<use xlink:href="#glyph-0-1-88e7df13" x="647.248663" y="382.258001"/>
</g>
<g fill="rgb(0%, 0%, 0%)" fill-opacity="1">
<use xlink:href="#glyph-0-5-88e7df13" x="651.140663" y="382.258001"/>
</g>
<g fill="rgb(0%, 0%, 0%)" fill-opacity="1">
<use xlink:href="#glyph-0-4-88e7df13" x="658.924662" y="382.258001"/>
</g>
<g fill="rgb(0%, 0%, 0%)" fill-opacity="1">
<use xlink:href="#glyph-0-2-88e7df13" x="666.708663" y="382.258001"/>
</g>
<g fill="rgb(0%, 0%, 0%)" fill-opacity="1">
<use xlink:href="#glyph-0-6-88e7df13" x="832.220315" y="382.258001"/>
</g>
<g fill="rgb(0%, 0%, 0%)" fill-opacity="1">
<use xlink:href="#glyph-0-1-88e7df13" x="840.004315" y="382.258001"/>
</g>
<g fill="rgb(0%, 0%, 0%)" fill-opacity="1">
<use xlink:href="#glyph-0-0-88e7df13" x="843.896315" y="382.258001"/>
</g>
<g fill="rgb(0%, 0%, 0%)" fill-opacity="1">
<use xlink:href="#glyph-0-2-88e7df13" x="851.680315" y="382.258001"/>
</g>
<g fill="rgb(0%, 0%, 0%)" fill-opacity="1">
<use xlink:href="#glyph-0-7-88e7df13" x="15.364001" y="301.388067"/>
</g>
<g fill="rgb(0%, 0%, 0%)" fill-opacity="1">
<use xlink:href="#glyph-0-8-88e7df13" x="23.540001" y="301.388067"/>
</g>
<g fill="rgb(0%, 0%, 0%)" fill-opacity="1">
<use xlink:href="#glyph-1-0-88e7df13" x="31.324" y="301.388067"/>
</g>
<g fill="rgb(0%, 0%, 0%)" fill-opacity="1">
<use xlink:href="#glyph-0-0-88e7df13" x="35.216" y="301.388067"/>
</g>
<g fill="rgb(0%, 0%, 0%)" fill-opacity="1">
<use xlink:href="#glyph-0-7-88e7df13" x="15.364001" y="235.237266"/>
</g>
<g fill="rgb(0%, 0%, 0%)" fill-opacity="1">
<use xlink:href="#glyph-0-9-88e7df13" x="23.540001" y="235.237266"/>
</g>
<g fill="rgb(0%, 0%, 0%)" fill-opacity="1">
<use xlink:href="#glyph-1-0-88e7df13" x="31.324" y="235.237266"/>
</g>
<g fill="rgb(0%, 0%, 0%)" fill-opacity="1">
<use xlink:href="#glyph-0-4-88e7df13" x="35.216" y="235.237266"/>
</g>
<g fill="rgb(0%, 0%, 0%)" fill-opacity="1">
<use xlink:href="#glyph-0-7-88e7df13" x="15.364001" y="169.08645"/>
</g>
<g fill="rgb(0%, 0%, 0%)" fill-opacity="1">
<use xlink:href="#glyph-0-9-88e7df13" x="23.540001" y="169.08645"/>
</g>
<g fill="rgb(0%, 0%, 0%)" fill-opacity="1">
<use xlink:href="#glyph-1-0-88e7df13" x="31.324" y="169.08645"/>
</g>
<g fill="rgb(0%, 0%, 0%)" fill-opacity="1">
<use xlink:href="#glyph-0-0-88e7df13" x="35.216" y="169.08645"/>
</g>
<g fill="rgb(0%, 0%, 0%)" fill-opacity="1">
<use xlink:href="#glyph-0-7-88e7df13" x="15.364001" y="102.935648"/>
</g>
<g fill="rgb(0%, 0%, 0%)" fill-opacity="1">
<use xlink:href="#glyph-0-3-88e7df13" x="23.540001" y="102.935648"/>
</g>
<g fill="rgb(0%, 0%, 0%)" fill-opacity="1">
<use xlink:href="#glyph-1-0-88e7df13" x="31.324" y="102.935648"/>
</g>
<g fill="rgb(0%, 0%, 0%)" fill-opacity="1">
<use xlink:href="#glyph-0-4-88e7df13" x="35.216" y="102.935648"/>
</g>
<g fill="rgb(0%, 0%, 0%)" fill-opacity="1">
<use xlink:href="#glyph-0-7-88e7df13" x="15.364001" y="36.784832"/>
</g>
<g fill="rgb(0%, 0%, 0%)" fill-opacity="1">
<use xlink:href="#glyph-0-3-88e7df13" x="23.540001" y="36.784832"/>
</g>
<g fill="rgb(0%, 0%, 0%)" fill-opacity="1">
<use xlink:href="#glyph-1-0-88e7df13" x="31.324" y="36.784832"/>
</g>
<g fill="rgb(0%, 0%, 0%)" fill-opacity="1">
<use xlink:href="#glyph-0-0-88e7df13" x="35.216" y="36.784832"/>
</g>
<path fill="none" stroke-width="1.5" stroke-linecap="butt" stroke-linejoin="miter" stroke="rgb(100%, 0%, 100%)" stroke-opacity="1" stroke-miterlimit="2" d="M 90.773438 296.285156 L 98.328125 296.289062 L 105.882812 296.304688 L 113.4375 296.332031 L 120.992188 296.371094 L 128.546875 296.417969 L 136.101562 296.476562 L 143.65625 296.546875 L 151.210938 296.628906 L 158.761719 296.71875 L 166.316406 296.820312 L 173.871094 296.933594 L 181.425781 297.054688 L 188.980469 297.1875 L 196.535156 297.332031 L 204.089844 297.488281 L 211.644531 297.652344 L 219.199219 297.828125 L 226.753906 298.011719 L 234.308594 298.210938 L 241.863281 298.417969 L 249.417969 298.636719 L 256.972656 298.863281 L 264.527344 299.101562 L 272.082031 299.351562 L 279.636719 299.609375 L 287.191406 299.878906 L 294.746094 300.15625 L 302.300781 300.449219 L 309.855469 300.746094 L 317.410156 301.058594 L 324.964844 301.378906 L 332.519531 301.707031 L 340.074219 302.050781 L 347.628906 302.398438 L 355.183594 302.761719 L 362.734375 303.128906 L 370.289062 303.511719 L 377.84375 303.902344 L 385.398438 304.300781 L 392.953125 304.710938 L 400.507812 305.128906 L 408.0625 305.558594 L 415.617188 305.996094 L 423.171875 306.445312 L 430.726562 306.902344 L 438.28125 307.371094 L 445.835938 307.847656 L 453.390625 308.335938 L 460.945312 308.832031 L 468.5 309.335938 L 476.054688 309.847656 L 483.609375 310.371094 L 491.164062 310.90625 L 498.71875 311.445312 L 506.273438 311.996094 L 513.828125 312.558594 L 521.382812 313.125 L 528.9375 313.703125 L 536.492188 314.289062 L 544.046875 314.882812 L 551.601562 315.488281 L 559.15625 316.101562 L 566.710938 316.722656 L 574.261719 317.351562 L 581.816406 317.992188 L 589.371094 318.636719 L 596.925781 319.292969 L 604.480469 319.957031 L 612.035156 320.628906 L 619.589844 321.308594 L 627.144531 321.996094 L 634.699219 322.695312 L 642.253906 323.398438 L 649.808594 324.113281 L 657.363281 324.832031 L 664.917969 325.5625 L 672.472656 326.300781 L 680.027344 327.042969 L 687.582031 327.796875 L 695.136719 328.558594 L 702.691406 329.324219 L 710.246094 330.101562 L 717.800781 330.882812 L 725.355469 331.675781 L 732.910156 332.472656 L 740.464844 333.277344 L 748.019531 334.09375 L 755.574219 334.914062 L 763.128906 335.742188 L 770.683594 336.578125 L 778.234375 337.417969 L 785.789062 338.269531 L 793.34375 339.125 L 800.898438 339.988281 L 808.453125 340.859375 L 816.007812 341.738281 L 823.5625 342.621094 L 831.117188 343.515625 L 838.671875 344.414062 L 846.226562 345.316406 "/>
<path fill="none" stroke-width="1.5" stroke-linecap="butt" stroke-linejoin="miter" stroke="rgb(50.196081%, 50.196081%, 50.196081%)" stroke-opacity="0.5" stroke-miterlimit="2" d="M 90.773438 163.984375 L 105.882812 166.015625 L 120.992188 168.0625 L 136.101562 170.117188 L 151.210938 172.1875 L 158.761719 173.226562 L 166.316406 174.269531 L 181.425781 176.363281 L 188.980469 177.414062 L 196.535156 178.46875 L 204.089844 179.527344 L 219.199219 181.652344 L 226.753906 182.71875 L 234.308594 183.789062 L 249.417969 185.9375 L 256.972656 187.015625 L 264.527344 188.101562 L 272.082031 189.183594 L 287.191406 191.363281 L 294.746094 192.460938 L 302.300781 193.554688 L 309.855469 194.65625 L 324.964844 196.867188 L 332.519531 197.976562 L 340.074219 199.089844 L 355.183594 201.324219 L 362.734375 202.445312 L 370.289062 203.570312 L 377.84375 204.699219 L 392.953125 206.964844 L 400.507812 208.101562 L 408.0625 209.242188 L 423.171875 211.53125 L 438.28125 213.835938 L 453.390625 216.148438 L 468.5 218.476562 L 476.054688 219.644531 L 491.164062 221.988281 L 506.273438 224.347656 L 521.382812 226.714844 L 536.492188 229.097656 L 544.046875 230.292969 L 551.601562 231.492188 L 566.710938 233.898438 L 574.261719 235.105469 L 581.816406 236.316406 L 589.371094 237.53125 L 604.480469 239.96875 L 612.035156 241.191406 L 619.589844 242.417969 L 634.699219 244.878906 L 642.253906 246.113281 L 649.808594 247.351562 L 657.363281 248.59375 L 672.472656 251.085938 L 680.027344 252.335938 L 687.582031 253.589844 L 702.691406 256.105469 L 725.355469 259.902344 L 732.910156 261.175781 L 748.019531 263.730469 L 763.128906 266.292969 L 770.683594 267.582031 L 778.234375 268.871094 L 785.789062 270.164062 L 793.34375 271.460938 L 808.453125 274.0625 L 816.007812 275.367188 L 823.5625 276.675781 L 831.117188 277.988281 L 846.226562 280.621094 "/>
<path fill="none" stroke-width="1.5" stroke-linecap="butt" stroke-linejoin="miter" stroke="rgb(50.196081%, 50.196081%, 50.196081%)" stroke-opacity="0.5" stroke-miterlimit="2" d="M 90.773438 163.984375 L 98.328125 164.433594 L 105.882812 164.894531 L 113.4375 165.363281 L 120.992188 165.84375 L 128.546875 166.332031 L 136.101562 166.832031 L 143.65625 167.339844 L 151.210938 167.859375 L 158.761719 168.390625 L 166.316406 168.929688 L 173.871094 169.476562 L 181.425781 170.035156 L 188.980469 170.605469 L 196.535156 171.183594 L 204.089844 171.769531 L 211.644531 172.367188 L 219.199219 172.976562 L 226.753906 173.59375 L 234.308594 174.21875 L 241.863281 174.855469 L 249.417969 175.503906 L 256.972656 176.160156 L 264.527344 176.824219 L 272.082031 177.5 L 279.636719 178.183594 L 287.191406 178.878906 L 294.746094 179.582031 L 302.300781 180.296875 L 309.855469 181.019531 L 317.410156 181.75 L 324.964844 182.492188 L 332.519531 183.242188 L 340.074219 184.003906 L 347.628906 184.769531 L 355.183594 185.550781 L 362.734375 186.335938 L 370.289062 187.132812 L 377.84375 187.941406 L 385.398438 188.753906 L 392.953125 189.578125 L 400.507812 190.410156 L 408.0625 191.253906 L 415.617188 192.105469 L 423.171875 192.964844 L 430.726562 193.832031 L 438.28125 194.707031 L 445.835938 195.59375 L 453.390625 196.488281 L 460.945312 197.390625 L 468.5 198.300781 L 476.054688 199.222656 L 483.609375 200.152344 L 491.164062 201.085938 L 498.71875 202.03125 L 506.273438 202.984375 L 513.828125 203.949219 L 521.382812 204.917969 L 528.9375 205.894531 L 536.492188 206.882812 L 544.046875 207.875 L 551.601562 208.878906 L 559.15625 209.886719 L 566.710938 210.90625 L 574.261719 211.929688 L 581.816406 212.964844 L 589.371094 214.003906 L 596.925781 215.054688 L 604.480469 216.109375 L 612.035156 217.175781 L 619.589844 218.246094 L 627.144531 219.324219 L 634.699219 220.414062 L 642.253906 221.507812 L 649.808594 222.605469 L 657.363281 223.714844 L 664.917969 224.832031 L 672.472656 225.953125 L 680.027344 227.082031 L 687.582031 228.21875 L 695.136719 229.363281 L 702.691406 230.515625 L 710.246094 231.671875 L 717.800781 232.835938 L 725.355469 234.007812 L 732.910156 235.1875 L 740.464844 236.371094 L 748.019531 237.5625 L 755.574219 238.761719 L 763.128906 239.964844 L 770.683594 241.175781 L 778.234375 242.394531 L 785.789062 243.617188 L 793.34375 244.847656 L 800.898438 246.082031 L 816.007812 248.574219 L 831.117188 251.089844 L 838.671875 252.359375 L 846.226562 253.632812 "/>
<path fill="none" stroke-width="1.5" stroke-linecap="butt" stroke-linejoin="miter" stroke="rgb(50.196081%, 50.196081%, 50.196081%)" stroke-opacity="0.5" stroke-miterlimit="2" d="M 90.773438 163.984375 L 98.328125 164.398438 L 105.882812 164.824219 L 113.4375 165.261719 L 120.992188 165.707031 L 128.546875 166.160156 L 136.101562 166.625 L 143.65625 167.097656 L 151.210938 167.582031 L 158.761719 168.074219 L 166.316406 168.578125 L 173.871094 169.085938 L 181.425781 169.609375 L 188.980469 170.136719 L 196.535156 170.679688 L 204.089844 171.226562 L 211.644531 171.785156 L 219.199219 172.351562 L 226.753906 172.929688 L 234.308594 173.515625 L 241.863281 174.109375 L 249.417969 174.714844 L 256.972656 175.328125 L 264.527344 175.953125 L 272.082031 176.582031 L 279.636719 177.226562 L 287.191406 177.875 L 294.746094 178.535156 L 302.300781 179.203125 L 309.855469 179.878906 L 317.410156 180.5625 L 324.964844 181.257812 L 332.519531 181.960938 L 340.074219 182.675781 L 347.628906 183.394531 L 355.183594 184.125 L 362.734375 184.863281 L 370.289062 185.609375 L 377.84375 186.363281 L 385.398438 187.128906 L 392.953125 187.898438 L 400.507812 188.679688 L 408.0625 189.46875 L 415.617188 190.265625 L 423.171875 191.070312 L 430.726562 191.886719 L 438.28125 192.707031 L 445.835938 193.535156 L 453.390625 194.375 L 460.945312 195.21875 L 468.5 196.074219 L 476.054688 196.9375 L 483.609375 197.804688 L 491.164062 198.683594 L 498.71875 199.566406 L 506.273438 200.460938 L 513.828125 201.359375 L 521.382812 202.269531 L 528.9375 203.183594 L 536.492188 204.105469 L 544.046875 205.039062 L 551.601562 205.976562 L 559.15625 206.921875 L 566.710938 207.871094 L 574.261719 208.832031 L 581.816406 209.796875 L 589.371094 210.773438 L 596.925781 211.753906 L 604.480469 212.738281 L 612.035156 213.734375 L 619.589844 214.734375 L 627.144531 215.742188 L 634.699219 216.757812 L 642.253906 217.777344 L 649.808594 218.808594 L 657.363281 219.84375 L 664.917969 220.882812 L 672.472656 221.929688 L 680.027344 222.984375 L 687.582031 224.042969 L 702.691406 226.183594 L 710.246094 227.261719 L 717.800781 228.347656 L 725.355469 229.441406 L 732.910156 230.539062 L 740.464844 231.640625 L 748.019531 232.75 L 755.574219 233.863281 L 763.128906 234.984375 L 770.683594 236.113281 L 778.234375 237.246094 L 785.789062 238.382812 L 793.34375 239.527344 L 800.898438 240.675781 L 808.453125 241.832031 L 816.007812 242.992188 L 823.5625 244.15625 L 831.117188 245.328125 L 838.671875 246.503906 L 846.226562 247.683594 "/>
<path fill="none" stroke-width="1.5" stroke-linecap="butt" stroke-linejoin="miter" stroke="rgb(50.196081%, 50.196081%, 50.196081%)" stroke-opacity="0.5" stroke-miterlimit="2" d="M 90.773438 163.984375 L 98.328125 164.136719 L 105.882812 164.300781 L 113.4375 164.472656 L 120.992188 164.65625 L 128.546875 164.847656 L 136.101562 165.046875 L 143.65625 165.257812 L 151.210938 165.480469 L 158.761719 165.710938 L 166.316406 165.949219 L 173.871094 166.199219 L 181.425781 166.457031 L 188.980469 166.726562 L 196.535156 167.003906 L 204.089844 167.289062 L 211.644531 167.585938 L 219.199219 167.890625 L 226.753906 168.207031 L 234.308594 168.53125 L 241.863281 168.867188 L 249.417969 169.207031 L 256.972656 169.5625 L 264.527344 169.921875 L 272.082031 170.292969 L 279.636719 170.675781 L 287.191406 171.0625 L 294.746094 171.460938 L 302.300781 171.867188 L 309.855469 172.285156 L 317.410156 172.710938 L 324.964844 173.144531 L 332.519531 173.589844 L 340.074219 174.039062 L 347.628906 174.5 L 355.183594 174.972656 L 362.734375 175.449219 L 370.289062 175.9375 L 377.84375 176.433594 L 385.398438 176.9375 L 392.953125 177.449219 L 400.507812 177.972656 L 408.0625 178.503906 L 415.617188 179.042969 L 423.171875 179.589844 L 430.726562 180.144531 L 438.28125 180.707031 L 445.835938 181.28125 L 453.390625 181.859375 L 460.945312 182.449219 L 468.5 183.042969 L 476.054688 183.648438 L 483.609375 184.261719 L 491.164062 184.878906 L 498.71875 185.507812 L 506.273438 186.144531 L 513.828125 186.789062 L 521.382812 187.441406 L 528.9375 188.097656 L 536.492188 188.765625 L 544.046875 189.441406 L 551.601562 190.121094 L 559.15625 190.8125 L 566.710938 191.507812 L 574.261719 192.214844 L 581.816406 192.925781 L 589.371094 193.644531 L 596.925781 194.367188 L 604.480469 195.101562 L 612.035156 195.84375 L 619.589844 196.589844 L 627.144531 197.34375 L 634.699219 198.105469 L 642.253906 198.875 L 649.808594 199.648438 L 657.363281 200.429688 L 664.917969 201.21875 L 672.472656 202.011719 L 687.582031 203.621094 L 695.136719 204.4375 L 702.691406 205.257812 L 710.246094 206.085938 L 717.800781 206.921875 L 725.355469 207.761719 L 732.910156 208.609375 L 740.464844 209.460938 L 748.019531 210.320312 L 755.574219 211.183594 L 763.128906 212.054688 L 770.683594 212.933594 L 778.234375 213.816406 L 785.789062 214.707031 L 793.34375 215.601562 L 800.898438 216.5 L 808.453125 217.40625 L 816.007812 218.320312 L 823.5625 219.238281 L 831.117188 220.160156 L 838.671875 221.089844 L 846.226562 222.023438 "/>
<path fill="none" stroke-width="1.5" stroke-linecap="butt" stroke-linejoin="miter" stroke="rgb(50.196081%, 50.196081%, 50.196081%)" stroke-opacity="0.5" stroke-miterlimit="2" d="M 90.773438 163.984375 L 98.328125 163.839844 L 105.882812 163.707031 L 113.4375 163.582031 L 120.992188 163.464844 L 128.546875 163.359375 L 136.101562 163.265625 L 143.65625 163.179688 L 151.210938 163.101562 L 158.761719 163.035156 L 166.316406 162.980469 L 173.871094 162.929688 L 181.425781 162.894531 L 188.980469 162.863281 L 196.535156 162.847656 L 204.089844 162.835938 L 211.644531 162.835938 L 219.199219 162.847656 L 226.753906 162.867188 L 234.308594 162.894531 L 241.863281 162.933594 L 249.417969 162.980469 L 256.972656 163.035156 L 264.527344 163.101562 L 272.082031 163.179688 L 279.636719 163.261719 L 287.191406 163.355469 L 294.746094 163.460938 L 302.300781 163.574219 L 309.855469 163.695312 L 317.410156 163.828125 L 324.964844 163.964844 L 332.519531 164.117188 L 340.074219 164.273438 L 347.628906 164.441406 L 355.183594 164.617188 L 362.734375 164.804688 L 370.289062 165 L 377.84375 165.203125 L 385.398438 165.414062 L 392.953125 165.632812 L 400.507812 165.863281 L 408.0625 166.101562 L 415.617188 166.351562 L 423.171875 166.605469 L 430.726562 166.871094 L 438.28125 167.144531 L 445.835938 167.425781 L 453.390625 167.714844 L 460.945312 168.015625 L 468.5 168.320312 L 476.054688 168.636719 L 483.609375 168.960938 L 491.164062 169.292969 L 498.71875 169.632812 L 506.273438 169.980469 L 513.828125 170.335938 L 521.382812 170.699219 L 528.9375 171.074219 L 536.492188 171.453125 L 544.046875 171.839844 L 551.601562 172.238281 L 559.15625 172.640625 L 566.710938 173.054688 L 574.261719 173.472656 L 581.816406 173.902344 L 589.371094 174.335938 L 596.925781 174.777344 L 604.480469 175.226562 L 612.035156 175.6875 L 619.589844 176.152344 L 627.144531 176.625 L 634.699219 177.101562 L 642.253906 177.589844 L 649.808594 178.085938 L 657.363281 178.585938 L 664.917969 179.09375 L 680.027344 180.132812 L 687.582031 180.664062 L 695.136719 181.203125 L 702.691406 181.746094 L 710.246094 182.296875 L 717.800781 182.855469 L 725.355469 183.417969 L 732.910156 183.988281 L 740.464844 184.566406 L 748.019531 185.152344 L 755.574219 185.742188 L 763.128906 186.339844 L 770.683594 186.945312 L 778.234375 187.554688 L 785.789062 188.171875 L 793.34375 188.796875 L 800.898438 189.425781 L 808.453125 190.0625 L 816.007812 190.707031 L 823.5625 191.355469 L 831.117188 192.007812 L 846.226562 193.335938 "/>
<path fill="none" stroke-width="1.5" stroke-linecap="butt" stroke-linejoin="miter" stroke="rgb(50.196081%, 50.196081%, 50.196081%)" stroke-opacity="0.5" stroke-miterlimit="2" d="M 90.773438 163.984375 L 98.328125 163.578125 L 105.882812 163.179688 L 113.4375 162.792969 L 120.992188 162.414062 L 128.546875 162.042969 L 136.101562 161.683594 L 143.65625 161.335938 L 151.210938 160.996094 L 158.761719 160.664062 L 166.316406 160.34375 L 173.871094 160.03125 L 181.425781 159.730469 L 188.980469 159.4375 L 196.535156 159.15625 L 204.089844 158.882812 L 211.644531 158.617188 L 219.199219 158.363281 L 226.753906 158.117188 L 234.308594 157.882812 L 241.863281 157.65625 L 249.417969 157.4375 L 256.972656 157.230469 L 264.527344 157.03125 L 272.082031 156.84375 L 279.636719 156.664062 L 287.191406 156.492188 L 294.746094 156.332031 L 302.300781 156.179688 L 309.855469 156.035156 L 317.410156 155.902344 L 324.964844 155.777344 L 332.519531 155.660156 L 340.074219 155.554688 L 347.628906 155.457031 L 355.183594 155.367188 L 362.734375 155.289062 L 370.289062 155.214844 L 377.84375 155.15625 L 385.398438 155.101562 L 392.953125 155.058594 L 400.507812 155.019531 L 408.0625 154.992188 L 415.617188 154.976562 L 423.171875 154.964844 L 430.726562 154.964844 L 438.28125 154.972656 L 445.835938 154.988281 L 453.390625 155.011719 L 460.945312 155.042969 L 468.5 155.085938 L 476.054688 155.136719 L 483.609375 155.191406 L 491.164062 155.257812 L 498.71875 155.332031 L 506.273438 155.414062 L 513.828125 155.503906 L 521.382812 155.601562 L 528.9375 155.710938 L 536.492188 155.824219 L 544.046875 155.945312 L 551.601562 156.074219 L 559.15625 156.214844 L 566.710938 156.359375 L 574.261719 156.511719 L 581.816406 156.671875 L 589.371094 156.84375 L 596.925781 157.019531 L 604.480469 157.203125 L 612.035156 157.394531 L 619.589844 157.589844 L 627.144531 157.796875 L 634.699219 158.011719 L 642.253906 158.230469 L 649.808594 158.457031 L 657.363281 158.691406 L 664.917969 158.933594 L 672.472656 159.183594 L 680.027344 159.441406 L 687.582031 159.703125 L 695.136719 159.972656 L 702.691406 160.25 L 710.246094 160.535156 L 717.800781 160.824219 L 725.355469 162.238281 L 740.464844 165.542969 L 748.019531 167.199219 L 770.683594 172.179688 L 778.234375 173.847656 L 793.34375 177.183594 L 800.898438 178.855469 L 816.007812 182.207031 L 831.117188 185.566406 L 846.226562 188.933594 "/>
<path fill="none" stroke-width="1.5" stroke-linecap="butt" stroke-linejoin="miter" stroke="rgb(50.196081%, 50.196081%, 50.196081%)" stroke-opacity="0.5" stroke-miterlimit="2" d="M 90.773438 163.984375 L 98.328125 163.542969 L 105.882812 163.113281 L 113.4375 162.691406 L 120.992188 162.28125 L 128.546875 161.882812 L 136.101562 161.492188 L 143.65625 161.109375 L 151.210938 160.742188 L 158.761719 160.378906 L 166.316406 160.027344 L 173.871094 159.6875 L 181.425781 159.355469 L 188.980469 159.035156 L 196.535156 158.722656 L 204.089844 158.417969 L 211.644531 158.128906 L 219.199219 157.84375 L 226.753906 157.570312 L 234.308594 157.308594 L 241.863281 157.054688 L 249.417969 156.808594 L 256.972656 156.574219 L 264.527344 156.351562 L 272.082031 156.136719 L 279.636719 155.929688 L 287.191406 155.734375 L 294.746094 155.546875 L 302.300781 155.367188 L 309.855469 155.199219 L 317.410156 155.039062 L 324.964844 154.890625 L 332.519531 154.75 L 340.074219 154.621094 L 347.628906 154.496094 L 355.183594 154.382812 L 362.734375 154.28125 L 370.289062 154.183594 L 377.84375 154.097656 L 385.398438 154.023438 L 392.953125 153.953125 L 400.507812 153.894531 L 408.0625 153.84375 L 415.617188 153.804688 L 423.171875 153.769531 L 430.726562 153.746094 L 438.28125 153.730469 L 445.835938 153.722656 L 453.390625 153.726562 L 460.945312 153.734375 L 468.5 153.753906 L 476.054688 153.78125 L 483.609375 153.816406 L 491.164062 153.859375 L 498.71875 153.910156 L 506.273438 153.972656 L 513.828125 154.039062 L 521.382812 154.117188 L 528.9375 154.199219 L 536.492188 154.292969 L 544.046875 154.394531 L 551.601562 154.5 L 559.15625 154.617188 L 566.710938 154.738281 L 574.261719 154.871094 L 581.816406 155.011719 L 589.371094 155.15625 L 596.925781 155.3125 L 604.480469 155.472656 L 612.035156 155.640625 L 619.589844 155.816406 L 627.144531 156 L 634.699219 156.191406 L 642.253906 156.390625 L 649.808594 156.597656 L 657.363281 156.808594 L 664.917969 157.027344 L 672.472656 157.253906 L 680.027344 157.488281 L 687.582031 157.730469 L 695.136719 157.976562 L 702.691406 158.230469 L 710.246094 158.941406 L 717.800781 160.589844 L 725.355469 161.121094 L 732.910156 161.425781 L 740.464844 161.738281 L 748.019531 162.386719 L 755.574219 163.960938 L 770.683594 167.117188 L 778.234375 168.699219 L 793.34375 171.863281 L 816.007812 176.621094 L 831.117188 179.800781 L 846.226562 182.988281 "/>
<path fill="none" stroke-width="1.5" stroke-linecap="butt" stroke-linejoin="miter" stroke="rgb(50.196081%, 50.196081%, 50.196081%)" stroke-opacity="0.5" stroke-miterlimit="2" d="M 90.773438 163.984375 L 105.882812 161.960938 L 120.992188 159.953125 L 128.546875 158.953125 L 136.101562 157.957031 L 151.210938 155.972656 L 158.761719 154.988281 L 173.871094 153.019531 L 188.980469 151.066406 L 196.535156 150.09375 L 204.089844 149.125 L 219.199219 147.195312 L 226.753906 146.234375 L 234.308594 145.277344 L 241.863281 144.324219 L 256.972656 142.425781 L 264.527344 141.480469 L 272.082031 140.539062 L 287.191406 138.664062 L 294.746094 137.730469 L 302.300781 136.800781 L 309.855469 135.875 L 324.964844 134.03125 L 332.519531 133.113281 L 347.628906 131.285156 L 355.183594 130.378906 L 362.734375 129.472656 L 377.84375 127.667969 L 392.953125 125.878906 L 400.507812 124.988281 L 408.0625 124.101562 L 423.171875 122.335938 L 430.726562 121.457031 L 445.835938 119.707031 L 460.945312 117.972656 L 468.5 117.109375 L 483.609375 115.390625 L 491.164062 114.535156 L 498.71875 113.753906 L 506.273438 115.335938 L 521.382812 118.507812 L 528.9375 120.097656 L 544.046875 123.285156 L 559.15625 126.480469 L 566.710938 128.082031 L 574.261719 129.683594 L 581.816406 131.292969 L 589.371094 132.898438 L 596.925781 134.511719 L 604.480469 136.121094 L 619.589844 139.355469 L 634.699219 142.597656 L 649.808594 145.847656 L 664.917969 149.105469 L 672.472656 150.742188 L 680.027344 152.375 L 702.691406 157.296875 L 710.246094 158.492188 L 717.800781 158.761719 L 725.355469 159.035156 L 732.910156 159.316406 L 740.464844 160.8125 L 748.019531 162.054688 L 755.574219 162.378906 L 763.128906 162.707031 L 770.683594 163.046875 L 778.234375 163.390625 L 785.789062 163.738281 L 793.34375 164.09375 L 800.898438 164.457031 L 808.453125 164.824219 L 816.007812 165.199219 L 823.5625 165.582031 L 831.117188 165.96875 L 838.671875 166.363281 L 846.226562 166.761719 "/>
<path fill="none" stroke-width="1.5" stroke-linecap="butt" stroke-linejoin="miter" stroke="rgb(50.196081%, 50.196081%, 50.196081%)" stroke-opacity="0.5" stroke-miterlimit="2" d="M 90.773438 31.683594 L 98.328125 33.140625 L 105.882812 34.601562 L 113.4375 36.066406 L 120.992188 37.535156 L 128.546875 39 L 143.65625 41.945312 L 151.210938 43.421875 L 158.761719 44.898438 L 173.871094 47.859375 L 181.425781 49.34375 L 196.535156 52.320312 L 211.644531 55.304688 L 226.753906 58.296875 L 234.308594 59.796875 L 249.417969 62.804688 L 256.972656 64.3125 L 279.636719 68.847656 L 287.191406 70.363281 L 302.300781 73.402344 L 309.855469 74.925781 L 324.964844 77.980469 L 340.074219 81.042969 L 355.183594 84.113281 L 362.734375 85.652344 L 377.84375 88.738281 L 392.953125 91.832031 L 400.507812 93.382812 L 415.617188 96.492188 L 430.726562 99.609375 L 438.28125 101.171875 L 460.945312 105.871094 L 483.609375 110.59375 L 491.164062 112.171875 L 498.71875 113.683594 L 506.273438 112.835938 L 513.828125 114.335938 L 521.382812 115.859375 L 528.9375 117.386719 L 536.492188 118.917969 L 544.046875 120.445312 L 551.601562 121.980469 L 559.15625 123.511719 L 566.710938 125.046875 L 574.261719 126.585938 L 589.371094 129.664062 L 604.480469 132.75 L 627.144531 137.390625 L 642.253906 140.492188 L 657.363281 143.601562 L 680.027344 148.277344 L 702.691406 152.964844 L 710.246094 154.53125 L 717.800781 156.101562 L 725.355469 157.667969 L 732.910156 159.238281 L 740.464844 159.605469 L 748.019531 159.898438 L 755.574219 160.199219 L 763.128906 160.507812 L 770.683594 160.820312 L 778.234375 161.140625 L 785.789062 161.464844 L 793.34375 161.796875 L 800.898438 162.136719 L 808.453125 162.480469 L 816.007812 162.832031 L 831.117188 163.550781 L 838.671875 163.921875 L 846.226562 164.296875 "/>
<path fill="none" stroke-width="1.5" stroke-linecap="butt" stroke-linejoin="miter" stroke="rgb(50.196081%, 50.196081%, 50.196081%)" stroke-opacity="0.5" stroke-miterlimit="2" d="M 90.773438 31.683594 L 105.882812 34.535156 L 113.4375 35.964844 L 136.101562 40.265625 L 143.65625 41.703125 L 151.210938 43.144531 L 158.761719 44.582031 L 181.425781 48.917969 L 196.535156 51.816406 L 211.644531 54.722656 L 234.308594 59.09375 L 241.863281 60.554688 L 264.527344 64.949219 L 272.082031 66.417969 L 279.636719 67.890625 L 287.191406 69.359375 L 294.746094 70.835938 L 302.300781 72.308594 L 309.855469 73.789062 L 317.410156 75.265625 L 324.964844 76.746094 L 347.628906 81.199219 L 355.183594 82.6875 L 362.734375 84.179688 L 385.398438 88.65625 L 392.953125 90.15625 L 400.507812 91.652344 L 408.0625 93.152344 L 430.726562 97.664062 L 445.835938 100.679688 L 468.5 105.214844 L 476.054688 106.730469 L 498.71875 111.289062 L 506.273438 112.8125 L 513.828125 111.992188 L 521.382812 111.148438 L 528.9375 110.308594 L 544.046875 108.636719 L 551.601562 107.808594 L 559.15625 107.40625 L 566.710938 108.683594 L 574.261719 109.96875 L 581.816406 111.25 L 589.371094 112.535156 L 604.480469 115.113281 L 627.144531 118.992188 L 642.253906 121.585938 L 649.808594 122.886719 L 657.363281 124.191406 L 664.917969 125.492188 L 672.472656 126.800781 L 680.027344 128.105469 L 687.582031 129.417969 L 695.136719 130.726562 L 702.691406 132.039062 L 717.800781 134.671875 L 725.355469 135.992188 L 732.910156 137.308594 L 755.574219 141.28125 L 770.683594 143.9375 L 778.234375 145.269531 L 785.789062 146.601562 L 808.453125 150.609375 L 816.007812 151.949219 L 838.671875 155.980469 L 846.226562 157.328125 "/>
<path fill="none" stroke-width="1.5" stroke-linecap="butt" stroke-linejoin="miter" stroke="rgb(50.196081%, 50.196081%, 50.196081%)" stroke-opacity="0.5" stroke-miterlimit="2" d="M 90.773438 31.683594 L 98.328125 32.84375 L 105.882812 34.007812 L 120.992188 36.34375 L 136.101562 38.6875 L 151.210938 41.039062 L 158.761719 42.21875 L 166.316406 43.398438 L 181.425781 45.765625 L 196.535156 48.140625 L 211.644531 50.523438 L 234.308594 54.109375 L 241.863281 55.3125 L 249.417969 56.511719 L 256.972656 57.714844 L 272.082031 60.128906 L 294.746094 63.761719 L 302.300781 64.976562 L 324.964844 68.632812 L 332.519531 69.855469 L 355.183594 73.535156 L 362.734375 74.765625 L 385.398438 78.46875 L 400.507812 80.945312 L 415.617188 83.429688 L 430.726562 85.921875 L 445.835938 88.421875 L 468.5 92.183594 L 476.054688 93.445312 L 483.609375 94.703125 L 491.164062 95.964844 L 513.828125 99.761719 L 528.9375 102.300781 L 536.492188 103.574219 L 544.046875 104.851562 L 551.601562 106.125 L 559.15625 106.980469 L 566.710938 106.152344 L 574.261719 105.332031 L 581.816406 104.773438 L 589.371094 106.140625 L 596.925781 107.511719 L 604.480469 108.894531 L 612.035156 110.28125 L 619.589844 111.671875 L 627.144531 113.070312 L 634.699219 114.476562 L 642.253906 115.886719 L 649.808594 117.300781 L 657.363281 118.722656 L 664.917969 120.152344 L 672.472656 121.585938 L 680.027344 123.023438 L 687.582031 124.46875 L 695.136719 125.917969 L 702.691406 127.375 L 710.246094 128.835938 L 717.800781 130.300781 L 725.355469 131.773438 L 732.910156 133.25 L 748.019531 136.21875 L 755.574219 137.710938 L 770.683594 140.710938 L 778.234375 142.21875 L 785.789062 143.730469 L 800.898438 146.769531 L 808.453125 148.296875 L 816.007812 149.828125 L 823.5625 151.363281 L 831.117188 152.902344 L 838.671875 154.449219 L 846.226562 156 "/>
<path fill="none" stroke-width="1.5" stroke-linecap="butt" stroke-linejoin="miter" stroke="rgb(50.196081%, 50.196081%, 50.196081%)" stroke-opacity="0.5" stroke-miterlimit="2" d="M 90.773438 31.683594 L 98.328125 32.546875 L 105.882812 33.414062 L 113.4375 34.292969 L 120.992188 35.179688 L 128.546875 36.074219 L 136.101562 36.980469 L 143.65625 37.890625 L 151.210938 38.8125 L 158.761719 39.746094 L 166.316406 40.683594 L 173.871094 41.632812 L 181.425781 42.589844 L 188.980469 43.554688 L 196.535156 44.527344 L 204.089844 45.511719 L 211.644531 46.5 L 219.199219 47.5 L 226.753906 48.507812 L 234.308594 49.523438 L 241.863281 50.550781 L 249.417969 51.582031 L 256.972656 52.625 L 264.527344 53.675781 L 272.082031 54.734375 L 279.636719 55.800781 L 287.191406 56.875 L 294.746094 57.957031 L 302.300781 59.050781 L 309.855469 60.148438 L 317.410156 61.257812 L 324.964844 62.371094 L 332.519531 63.496094 L 340.074219 64.625 L 347.628906 65.765625 L 355.183594 66.914062 L 362.734375 68.070312 L 370.289062 69.230469 L 377.84375 70.402344 L 385.398438 71.582031 L 392.953125 72.769531 L 400.507812 73.960938 L 408.0625 75.164062 L 415.617188 76.371094 L 423.171875 77.589844 L 430.726562 78.8125 L 438.28125 80.042969 L 445.835938 81.28125 L 453.390625 82.527344 L 460.945312 83.78125 L 468.5 85.042969 L 476.054688 86.308594 L 483.609375 87.582031 L 498.71875 90.152344 L 506.273438 91.449219 L 513.828125 92.75 L 528.9375 95.375 L 536.492188 96.699219 L 544.046875 98.027344 L 551.601562 99.363281 L 559.15625 100.707031 L 566.710938 102.054688 L 574.261719 103.410156 L 581.816406 104.511719 L 589.371094 103.699219 L 596.925781 102.882812 L 604.480469 102.074219 L 619.589844 100.464844 L 627.144531 99.664062 L 634.699219 99.289062 L 642.253906 100.304688 L 649.808594 101.324219 L 664.917969 103.371094 L 680.027344 105.425781 L 687.582031 106.457031 L 702.691406 108.527344 L 717.800781 110.605469 L 732.910156 112.691406 L 740.464844 113.738281 L 755.574219 115.839844 L 770.683594 117.949219 L 778.234375 119.007812 L 785.789062 120.070312 L 793.34375 121.324219 L 800.898438 122.59375 L 816.007812 125.15625 L 823.5625 126.445312 L 831.117188 127.738281 L 838.671875 129.035156 L 846.226562 130.339844 "/>
<path fill="none" stroke-width="1.5" stroke-linecap="butt" stroke-linejoin="miter" stroke="rgb(50.196081%, 50.196081%, 50.196081%)" stroke-opacity="0.5" stroke-miterlimit="2" d="M 90.773438 31.683594 L 98.328125 32.542969 L 120.992188 35.15625 L 136.101562 36.90625 L 151.210938 38.664062 L 158.761719 39.546875 L 166.316406 40.429688 L 181.425781 42.203125 L 196.535156 43.984375 L 211.644531 45.773438 L 226.753906 47.570312 L 241.863281 49.375 L 249.417969 50.28125 L 272.082031 53.011719 L 279.636719 53.925781 L 294.746094 55.761719 L 317.410156 58.527344 L 324.964844 59.457031 L 332.519531 60.382812 L 340.074219 61.316406 L 347.628906 62.246094 L 355.183594 63.183594 L 362.734375 64.121094 L 370.289062 65.058594 L 377.84375 66 L 400.507812 68.835938 L 408.0625 69.785156 L 423.171875 71.691406 L 438.28125 73.605469 L 445.835938 74.566406 L 468.5 77.460938 L 476.054688 78.429688 L 491.164062 80.375 L 506.273438 82.328125 L 513.828125 83.308594 L 536.492188 86.261719 L 544.046875 87.25 L 559.15625 89.234375 L 566.710938 90.230469 L 574.261719 91.226562 L 581.816406 92.226562 L 604.480469 95.238281 L 612.035156 96.25 L 619.589844 97.257812 L 627.144531 98.273438 L 634.699219 98.863281 L 642.253906 98.070312 L 649.808594 98.144531 L 657.363281 99.3125 L 664.917969 100.488281 L 672.472656 101.667969 L 680.027344 102.855469 L 687.582031 104.046875 L 695.136719 105.246094 L 702.691406 106.449219 L 710.246094 107.660156 L 717.800781 108.875 L 725.355469 110.09375 L 732.910156 111.320312 L 740.464844 112.550781 L 748.019531 113.789062 L 755.574219 115.03125 L 770.683594 117.53125 L 778.234375 118.789062 L 785.789062 120.054688 L 793.34375 121.132812 L 808.453125 123.265625 L 816.007812 124.335938 L 831.117188 126.484375 L 846.226562 128.640625 "/>
<path fill="none" stroke-width="1.5" stroke-linecap="butt" stroke-linejoin="miter" stroke="rgb(50.196081%, 50.196081%, 50.196081%)" stroke-opacity="0.5" stroke-miterlimit="2" d="M 90.773438 31.683594 L 98.328125 32.285156 L 105.882812 32.890625 L 113.4375 33.503906 L 120.992188 34.125 L 128.546875 34.757812 L 136.101562 35.402344 L 143.65625 36.050781 L 151.210938 36.710938 L 158.761719 37.378906 L 166.316406 38.058594 L 173.871094 38.742188 L 181.425781 39.4375 L 188.980469 40.140625 L 196.535156 40.851562 L 204.089844 41.574219 L 211.644531 42.300781 L 219.199219 43.039062 L 226.753906 43.785156 L 234.308594 44.542969 L 241.863281 45.304688 L 249.417969 46.078125 L 256.972656 46.855469 L 264.527344 47.644531 L 272.082031 48.445312 L 279.636719 49.25 L 287.191406 50.0625 L 294.746094 50.886719 L 302.300781 51.714844 L 309.855469 52.554688 L 317.410156 53.402344 L 324.964844 54.257812 L 332.519531 55.121094 L 340.074219 55.992188 L 347.628906 56.875 L 355.183594 57.761719 L 362.734375 58.65625 L 370.289062 59.5625 L 377.84375 60.472656 L 385.398438 61.390625 L 392.953125 62.320312 L 400.507812 63.253906 L 408.0625 64.195312 L 415.617188 65.148438 L 423.171875 66.105469 L 430.726562 67.070312 L 438.28125 68.042969 L 445.835938 69.023438 L 453.390625 70.011719 L 460.945312 71.007812 L 468.5 72.011719 L 476.054688 73.019531 L 483.609375 74.039062 L 491.164062 75.0625 L 498.71875 76.09375 L 506.273438 77.132812 L 513.828125 78.179688 L 521.382812 79.230469 L 528.9375 80.292969 L 536.492188 81.359375 L 544.046875 82.429688 L 551.601562 83.511719 L 559.15625 84.597656 L 566.710938 85.691406 L 574.261719 86.792969 L 581.816406 87.898438 L 589.371094 89.011719 L 596.925781 90.128906 L 612.035156 92.386719 L 619.589844 93.527344 L 627.144531 94.671875 L 634.699219 95.824219 L 642.253906 96.980469 L 649.808594 97.277344 L 657.363281 96.488281 L 664.917969 96.539062 L 672.472656 97.644531 L 680.027344 98.753906 L 687.582031 99.871094 L 695.136719 100.992188 L 702.691406 102.117188 L 710.246094 103.25 L 717.800781 104.386719 L 725.355469 105.527344 L 732.910156 106.671875 L 740.464844 107.820312 L 748.019531 108.976562 L 755.574219 110.136719 L 763.128906 111.300781 L 770.683594 112.46875 L 778.234375 113.640625 L 793.34375 116 L 800.898438 117.1875 L 808.453125 118.378906 L 816.007812 119.574219 L 831.117188 121.972656 L 838.671875 123.179688 L 846.226562 124.390625 "/>
<path fill="none" stroke-width="1.5" stroke-linecap="butt" stroke-linejoin="miter" stroke="rgb(50.196081%, 50.196081%, 50.196081%)" stroke-opacity="0.5" stroke-miterlimit="2" d="M 90.773438 31.683594 L 98.328125 32.28125 L 105.882812 32.886719 L 136.101562 35.324219 L 143.65625 35.941406 L 151.210938 36.554688 L 158.761719 37.175781 L 166.316406 37.792969 L 173.871094 38.414062 L 181.425781 39.039062 L 188.980469 39.675781 L 196.535156 40.347656 L 204.089844 41.03125 L 211.644531 41.71875 L 219.199219 42.417969 L 226.753906 43.125 L 234.308594 43.835938 L 241.863281 44.558594 L 249.417969 45.289062 L 256.972656 46.027344 L 264.527344 46.773438 L 272.082031 47.527344 L 279.636719 48.289062 L 287.191406 49.058594 L 294.746094 49.835938 L 302.300781 50.621094 L 309.855469 51.414062 L 317.410156 52.21875 L 324.964844 53.027344 L 332.519531 53.839844 L 340.074219 54.664062 L 347.628906 55.496094 L 355.183594 56.335938 L 362.734375 57.183594 L 370.289062 58.035156 L 377.84375 58.898438 L 385.398438 59.765625 L 392.953125 60.640625 L 400.507812 61.523438 L 408.0625 62.414062 L 415.617188 63.308594 L 423.171875 64.214844 L 430.726562 65.125 L 438.28125 66.042969 L 445.835938 66.96875 L 453.390625 67.898438 L 460.945312 68.839844 L 468.5 69.785156 L 476.054688 70.734375 L 483.609375 71.695312 L 491.164062 72.660156 L 498.71875 73.628906 L 506.273438 74.609375 L 513.828125 75.59375 L 521.382812 76.582031 L 528.9375 77.582031 L 536.492188 78.585938 L 544.046875 79.59375 L 551.601562 80.609375 L 559.15625 81.628906 L 566.710938 82.660156 L 574.261719 83.691406 L 581.816406 84.730469 L 589.371094 85.777344 L 596.925781 86.828125 L 604.480469 87.886719 L 612.035156 88.949219 L 619.589844 90.015625 L 627.144531 91.089844 L 634.699219 92.167969 L 642.253906 93.253906 L 649.808594 94.34375 L 657.363281 95.4375 L 664.917969 95.703125 L 672.472656 94.917969 L 680.027344 94.136719 L 687.582031 93.359375 L 702.691406 91.8125 L 710.246094 91.042969 L 717.800781 90.277344 L 725.355469 89.515625 L 732.910156 90.128906 L 748.019531 91.691406 L 763.128906 93.261719 L 770.683594 94.050781 L 778.234375 94.84375 L 793.34375 96.429688 L 816.007812 98.832031 L 823.5625 99.636719 L 838.671875 101.253906 L 846.226562 102.066406 "/>
<path fill="none" stroke-width="1.5" stroke-linecap="butt" stroke-linejoin="miter" stroke="rgb(50.196081%, 50.196081%, 50.196081%)" stroke-opacity="0.5" stroke-miterlimit="2" d="M 90.773438 31.683594 L 98.328125 32.25 L 105.882812 32.824219 L 113.4375 33.402344 L 120.992188 33.992188 L 128.546875 34.589844 L 136.101562 35.195312 L 143.65625 35.808594 L 151.210938 36.433594 L 158.761719 37.066406 L 166.316406 37.707031 L 173.871094 38.355469 L 181.425781 39.011719 L 188.980469 39.664062 L 204.089844 40.921875 L 219.199219 42.1875 L 234.308594 43.460938 L 256.972656 45.382812 L 264.527344 46.03125 L 272.082031 46.675781 L 279.636719 47.328125 L 287.191406 47.976562 L 294.746094 48.632812 L 302.300781 49.285156 L 324.964844 51.265625 L 340.074219 52.59375 L 347.628906 53.261719 L 355.183594 53.933594 L 362.734375 54.605469 L 370.289062 55.277344 L 377.84375 55.953125 L 400.507812 57.992188 L 408.0625 58.679688 L 415.617188 59.363281 L 423.171875 60.054688 L 430.726562 60.742188 L 438.28125 61.4375 L 445.835938 62.128906 L 468.5 64.226562 L 476.054688 64.929688 L 491.164062 66.34375 L 513.828125 68.476562 L 536.492188 70.632812 L 551.601562 72.078125 L 559.15625 72.808594 L 566.710938 73.535156 L 574.261719 74.265625 L 589.371094 75.734375 L 596.925781 76.472656 L 619.589844 78.699219 L 627.144531 79.445312 L 642.253906 80.945312 L 657.363281 82.453125 L 664.917969 83.210938 L 687.582031 85.496094 L 695.136719 86.265625 L 702.691406 87.03125 L 725.355469 89.351562 L 732.910156 88.757812 L 740.464844 88.777344 L 748.019531 89.535156 L 763.128906 91.058594 L 770.683594 91.824219 L 778.234375 92.59375 L 785.789062 93.523438 L 793.34375 94.519531 L 800.898438 95.523438 L 808.453125 96.53125 L 816.007812 97.542969 L 823.5625 98.5625 L 831.117188 99.585938 L 838.671875 100.617188 L 846.226562 101.652344 "/>
<path fill="none" stroke-width="1.5" stroke-linecap="butt" stroke-linejoin="miter" stroke="rgb(50.196081%, 50.196081%, 50.196081%)" stroke-opacity="0.5" stroke-miterlimit="2" d="M 90.773438 31.683594 L 98.328125 32.246094 L 105.882812 32.820312 L 113.4375 33.398438 L 120.992188 33.972656 L 128.546875 34.550781 L 143.65625 35.714844 L 151.210938 36.300781 L 158.761719 36.890625 L 166.316406 37.476562 L 181.425781 38.664062 L 196.535156 39.859375 L 211.644531 41.0625 L 219.199219 41.667969 L 234.308594 42.886719 L 249.417969 44.113281 L 264.527344 45.347656 L 272.082031 45.96875 L 287.191406 47.21875 L 302.300781 48.476562 L 317.410156 49.742188 L 324.964844 50.378906 L 340.074219 51.660156 L 355.183594 52.949219 L 362.734375 53.597656 L 370.289062 54.246094 L 377.84375 54.898438 L 400.507812 56.867188 L 408.0625 57.527344 L 415.617188 58.191406 L 423.171875 58.859375 L 430.726562 59.523438 L 445.835938 60.867188 L 468.5 62.894531 L 491.164062 64.945312 L 506.273438 66.320312 L 513.828125 67.011719 L 528.9375 68.402344 L 544.046875 69.800781 L 551.601562 70.503906 L 566.710938 71.917969 L 574.261719 72.625 L 581.816406 73.335938 L 596.925781 74.765625 L 612.035156 76.203125 L 619.589844 76.925781 L 642.253906 79.105469 L 649.808594 79.835938 L 664.917969 81.304688 L 680.027344 82.78125 L 695.136719 84.265625 L 702.691406 85.011719 L 717.800781 86.511719 L 732.910156 88.019531 L 740.464844 88 L 748.019531 88.621094 L 755.574219 89.589844 L 763.128906 90.566406 L 770.683594 91.546875 L 778.234375 92.53125 L 785.789062 93.363281 L 808.453125 95.683594 L 831.117188 98.027344 L 838.671875 98.8125 L 846.226562 99.601562 "/>
<path fill="none" stroke-width="1.5" stroke-linecap="butt" stroke-linejoin="miter" stroke="rgb(50.196081%, 50.196081%, 50.196081%)" stroke-opacity="0.5" stroke-miterlimit="2" d="M 90.773438 31.683594 L 98.328125 31.984375 L 105.882812 32.292969 L 113.4375 32.609375 L 120.992188 32.9375 L 128.546875 33.273438 L 136.101562 33.617188 L 143.65625 33.972656 L 151.210938 34.335938 L 158.761719 34.707031 L 166.316406 35.085938 L 173.871094 35.476562 L 181.425781 35.875 L 188.980469 36.28125 L 196.535156 36.695312 L 204.089844 37.121094 L 211.644531 37.550781 L 219.199219 37.996094 L 226.753906 38.445312 L 234.308594 38.902344 L 241.863281 39.371094 L 249.417969 39.847656 L 256.972656 40.332031 L 264.527344 40.824219 L 272.082031 41.328125 L 279.636719 41.839844 L 287.191406 42.355469 L 294.746094 42.886719 L 302.300781 43.421875 L 309.855469 43.964844 L 317.410156 44.519531 L 324.964844 45.078125 L 332.519531 45.648438 L 340.074219 46.226562 L 347.628906 46.8125 L 355.183594 47.40625 L 362.734375 48.011719 L 370.289062 48.621094 L 377.84375 49.242188 L 385.398438 49.867188 L 392.953125 50.503906 L 400.507812 51.144531 L 408.0625 51.796875 L 415.617188 52.457031 L 423.171875 53.121094 L 430.726562 53.796875 L 438.28125 54.480469 L 445.835938 55.171875 L 453.390625 55.867188 L 460.945312 56.574219 L 468.5 57.289062 L 476.054688 58.007812 L 483.609375 58.738281 L 491.164062 59.472656 L 498.71875 60.21875 L 506.273438 60.96875 L 513.828125 61.726562 L 521.382812 62.492188 L 528.9375 63.265625 L 536.492188 64.046875 L 544.046875 64.832031 L 551.601562 65.625 L 559.15625 66.429688 L 566.710938 67.238281 L 574.261719 68.050781 L 581.816406 68.875 L 589.371094 69.703125 L 596.925781 70.539062 L 604.480469 71.382812 L 612.035156 72.230469 L 619.589844 73.089844 L 627.144531 73.953125 L 634.699219 74.820312 L 642.253906 75.695312 L 649.808594 76.578125 L 657.363281 77.46875 L 664.917969 78.363281 L 672.472656 79.265625 L 680.027344 80.175781 L 687.582031 81.089844 L 695.136719 82.007812 L 710.246094 83.867188 L 717.800781 84.808594 L 725.355469 85.753906 L 732.910156 86.703125 L 740.464844 87.660156 L 748.019531 87.246094 L 755.574219 86.492188 L 763.128906 85.746094 L 770.683594 86.480469 L 778.234375 87.382812 L 785.789062 88.289062 L 793.34375 89.199219 L 800.898438 90.113281 L 816.007812 91.957031 L 823.5625 92.886719 L 838.671875 94.761719 L 846.226562 95.703125 "/>
<path fill="none" stroke-width="1.5" stroke-linecap="butt" stroke-linejoin="miter" stroke="rgb(50.196081%, 50.196081%, 50.196081%)" stroke-opacity="0.5" stroke-miterlimit="2" d="M 90.773438 31.683594 L 98.328125 31.949219 L 105.882812 32.226562 L 113.4375 32.507812 L 120.992188 32.800781 L 128.546875 33.101562 L 136.101562 33.414062 L 143.65625 33.730469 L 151.210938 34.058594 L 158.761719 34.390625 L 166.316406 34.734375 L 173.871094 35.085938 L 181.425781 35.445312 L 188.980469 35.816406 L 196.535156 36.191406 L 204.089844 36.578125 L 211.644531 36.96875 L 219.199219 37.371094 L 226.753906 37.78125 L 234.308594 38.199219 L 241.863281 38.625 L 249.417969 39.058594 L 256.972656 39.503906 L 264.527344 39.953125 L 272.082031 40.410156 L 279.636719 40.878906 L 287.191406 41.351562 L 294.746094 41.835938 L 302.300781 42.328125 L 309.855469 42.824219 L 317.410156 43.332031 L 324.964844 43.847656 L 332.519531 44.367188 L 340.074219 44.898438 L 347.628906 45.4375 L 355.183594 45.980469 L 362.734375 46.535156 L 370.289062 47.097656 L 377.84375 47.664062 L 385.398438 48.242188 L 392.953125 48.824219 L 400.507812 49.414062 L 408.0625 50.011719 L 415.617188 50.617188 L 423.171875 51.230469 L 430.726562 51.851562 L 438.28125 52.480469 L 445.835938 53.113281 L 453.390625 53.753906 L 460.945312 54.402344 L 468.5 55.058594 L 476.054688 55.722656 L 483.609375 56.394531 L 491.164062 57.070312 L 498.71875 57.753906 L 506.273438 58.441406 L 513.828125 59.140625 L 521.382812 59.84375 L 528.9375 60.554688 L 536.492188 61.269531 L 551.601562 62.722656 L 559.15625 63.460938 L 566.710938 64.203125 L 574.261719 64.953125 L 581.816406 65.707031 L 589.371094 66.46875 L 596.925781 67.238281 L 604.480469 68.011719 L 612.035156 68.789062 L 627.144531 70.367188 L 642.253906 71.96875 L 657.363281 73.59375 L 672.472656 75.242188 L 680.027344 76.074219 L 687.582031 76.914062 L 695.136719 77.757812 L 702.691406 78.605469 L 710.246094 79.460938 L 717.800781 80.320312 L 725.355469 81.183594 L 732.910156 82.054688 L 740.464844 82.929688 L 748.019531 83.808594 L 755.574219 84.695312 L 763.128906 85.585938 L 770.683594 85 L 778.234375 84.257812 L 793.34375 82.78125 L 800.898438 82.046875 L 808.453125 81.5 L 816.007812 83.460938 L 823.5625 85.417969 L 846.226562 91.300781 "/>
<path fill="none" stroke-width="1" stroke-linecap="butt" stroke-linejoin="miter" stroke="rgb(0%, 0%, 0%)" stroke-opacity="1" stroke-miterlimit="1.154701" d="M 90.773438 361.5 L 90.773438 366.5 "/>
<path fill="none" stroke-width="1" stroke-linecap="butt" stroke-linejoin="miter" stroke="rgb(0%, 0%, 0%)" stroke-opacity="1" stroke-miterlimit="1.154701" d="M 279.636719 361.5 L 279.636719 366.5 "/>
<path fill="none" stroke-width="1" stroke-linecap="butt" stroke-linejoin="miter" stroke="rgb(0%, 0%, 0%)" stroke-opacity="1" stroke-miterlimit="1.154701" d="M 468.5 361.5 L 468.5 366.5 "/>
<path fill="none" stroke-width="1" stroke-linecap="butt" stroke-linejoin="miter" stroke="rgb(0%, 0%, 0%)" stroke-opacity="1" stroke-miterlimit="1.154701" d="M 657.363281 361.5 L 657.363281 366.5 "/>
<path fill="none" stroke-width="1" stroke-linecap="butt" stroke-linejoin="miter" stroke="rgb(0%, 0%, 0%)" stroke-opacity="1" stroke-miterlimit="1.154701" d="M 846.226562 361.5 L 846.226562 366.5 "/>
<path fill="none" stroke-width="1" stroke-linecap="butt" stroke-linejoin="miter" stroke="rgb(0%, 0%, 0%)" stroke-opacity="1" stroke-miterlimit="1.154701" d="M 52.5 296.285156 L 47.5 296.285156 "/>
<path fill="none" stroke-width="1" stroke-linecap="butt" stroke-linejoin="miter" stroke="rgb(0%, 0%, 0%)" stroke-opacity="1" stroke-miterlimit="1.154701" d="M 52.5 230.132812 L 47.5 230.132812 "/>
<path fill="none" stroke-width="1" stroke-linecap="butt" stroke-linejoin="miter" stroke="rgb(0%, 0%, 0%)" stroke-opacity="1" stroke-miterlimit="1.154701" d="M 52.5 163.984375 L 47.5 163.984375 "/>
<path fill="none" stroke-width="1" stroke-linecap="butt" stroke-linejoin="miter" stroke="rgb(0%, 0%, 0%)" stroke-opacity="1" stroke-miterlimit="1.154701" d="M 52.5 97.832031 L 47.5 97.832031 "/>
<path fill="none" stroke-width="1" stroke-linecap="butt" stroke-linejoin="miter" stroke="rgb(0%, 0%, 0%)" stroke-opacity="1" stroke-miterlimit="1.154701" d="M 52.5 31.683594 L 47.5 31.683594 "/>
<path fill="none" stroke-width="1" stroke-linecap="butt" stroke-linejoin="miter" stroke="rgb(0%, 0%, 0%)" stroke-opacity="1" stroke-miterlimit="1.154701" d="M 52.5 361 L 884.5 361 "/>
<path fill="none" stroke-width="1" stroke-linecap="butt" stroke-linejoin="miter" stroke="rgb(0%, 0%, 0%)" stroke-opacity="1" stroke-miterlimit="1.154701" d="M 53 361.5 L 53 15.5 "/>
<path fill="none" stroke-width="1" stroke-linecap="butt" stroke-linejoin="miter" stroke="rgb(0%, 0%, 0%)" stroke-opacity="1" stroke-miterlimit="1.154701" d="M 52.5 16 L 884.5 16 "/>
<path fill="none" stroke-width="1" stroke-linecap="butt" stroke-linejoin="miter" stroke="rgb(0%, 0%, 0%)" stroke-opacity="1" stroke-miterlimit="1.154701" d="M 884 361.5 L 884 15.5 "/>
</svg>
