<?xml version="1.0" encoding="UTF-8"?>
<svg xmlns="http://www.w3.org/2000/svg" xmlns:xlink="http://www.w3.org/1999/xlink" width="900" height="400" viewBox="0 0 900 400">
<defs>
<g>
<g id="glyph-0-0-242d3c4d">
<path d="M 7.09375 -4.78125 C 7.09375 -1.515625 5.953125 0.203125 3.84375 0.203125 C 1.71875 0.203125 0.609375 -1.515625 0.609375 -4.859375 C 0.609375 -8.1875 1.703125 -9.921875 3.84375 -9.921875 C 6 -9.921875 7.09375 -8.21875 7.09375 -4.78125 Z M 5.84375 -4.890625 C 5.84375 -7.546875 5.1875 -8.828125 3.84375 -8.828125 C 2.515625 -8.828125 1.859375 -7.5625 1.859375 -4.84375 C 1.859375 -2.125 2.515625 -0.8125 3.828125 -0.8125 C 5.1875 -0.8125 5.84375 -2.078125 5.84375 -4.890625 Z M 5.84375 -4.890625 "/>
</g>
<g id="glyph-0-1-242d3c4d">
<path d="M 2.671875 0 C 2.671875 0 1.21875 0 1.21875 0 C 1.21875 0 1.21875 -1.453125 1.21875 -1.453125 C 1.21875 -1.453125 2.671875 -1.453125 2.671875 -1.453125 C 2.671875 -1.453125 2.671875 0 2.671875 0 Z M 2.671875 0 "/>
</g>
<g id="glyph-0-2-242d3c4d">
<path d="M 8.296875 -9.0625 C 8.296875 -9.0625 4.953125 -9.0625 4.953125 -9.0625 C 4.953125 -9.0625 4.953125 0 4.953125 0 C 4.953125 0 3.65625 0 3.65625 0 C 3.65625 0 3.65625 -9.0625 3.65625 -9.0625 C 3.65625 -9.0625 0.296875 -9.0625 0.296875 -9.0625 C 0.296875 -9.0625 0.296875 -10.203125 0.296875 -10.203125 C 0.296875 -10.203125 8.296875 -10.203125 8.296875 -10.203125 C 8.296875 -10.203125 8.296875 -9.0625 8.296875 -9.0625 Z M 8.296875 -9.0625 "/>
</g>
<g id="glyph-0-3-242d3c4d">
<path d="M 7.15625 -7.015625 C 7.15625 -5.796875 6.4375 -4.765625 5.046875 -4.015625 C 5.046875 -4.015625 3.65625 -3.265625 3.65625 -3.265625 C 2.4375 -2.546875 1.984375 -2.03125 1.859375 -1.21875 C 1.859375 -1.21875 7.078125 -1.21875 7.078125 -1.21875 C 7.078125 -1.21875 7.078125 0 7.078125 0 C 7.078125 0 0.46875 0 0.46875 0 C 0.59375 -2.1875 1.1875 -3.125 3.265625 -4.296875 C 3.265625 -4.296875 4.546875 -5.03125 4.546875 -5.03125 C 5.4375 -5.53125 5.890625 -6.203125 5.890625 -6.984375 C 5.890625 -8.046875 5.046875 -8.84375 3.9375 -8.84375 C 2.71875 -8.84375 2.03125 -8.140625 1.9375 -6.484375 C 1.9375 -6.484375 0.703125 -6.484375 0.703125 -6.484375 C 0.765625 -8.890625 1.953125 -9.921875 3.96875 -9.921875 C 5.859375 -9.921875 7.15625 -8.6875 7.15625 -7.015625 Z M 7.15625 -7.015625 "/>
</g>
<g id="glyph-0-4-242d3c4d">
<path d="M 7.1875 -3.296875 C 7.1875 -1.1875 5.78125 0.203125 3.78125 0.203125 C 2.015625 0.203125 0.890625 -0.578125 0.484375 -2.546875 C 0.484375 -2.546875 1.71875 -2.546875 1.71875 -2.546875 C 2.015625 -1.421875 2.671875 -0.875 3.75 -0.875 C 5.09375 -0.875 5.921875 -1.6875 5.921875 -3.125 C 5.921875 -4.59375 5.078125 -5.453125 3.75 -5.453125 C 2.984375 -5.453125 2.5 -5.203125 1.9375 -4.515625 C 1.9375 -4.515625 0.796875 -4.515625 0.796875 -4.515625 C 0.796875 -4.515625 1.546875 -9.71875 1.546875 -9.71875 C 1.546875 -9.71875 6.65625 -9.71875 6.65625 -9.71875 C 6.65625 -9.71875 6.65625 -8.5 6.65625 -8.5 C 6.65625 -8.5 2.53125 -8.5 2.53125 -8.5 C 2.53125 -8.5 2.140625 -5.9375 2.140625 -5.9375 C 2.71875 -6.359375 3.28125 -6.53125 3.96875 -6.53125 C 5.875 -6.53125 7.1875 -5.25 7.1875 -3.296875 Z M 7.1875 -3.296875 "/>
</g>
<g id="glyph-0-5-242d3c4d">
<path d="M 7.28125 -8.6875 C 5.1875 -6.203125 3.796875 -3.203125 3.25 0 C 3.25 0 1.9375 0 1.9375 0 C 2.625 -3.109375 4.03125 -6 6 -8.5 C 6 -8.5 0.640625 -8.5 0.640625 -8.5 C 0.640625 -8.5 0.640625 -9.71875 0.640625 -9.71875 C 0.640625 -9.71875 7.28125 -9.71875 7.28125 -9.71875 C 7.28125 -9.71875 7.28125 -8.6875 7.28125 -8.6875 Z M 7.28125 -8.6875 "/>
</g>
<g id="glyph-0-6-242d3c4d">
<path d="M 4.859375 0 C 4.859375 0 3.625 0 3.625 0 C 3.625 0 3.625 -7.0625 3.625 -7.0625 C 3.625 -7.0625 1.421875 -7.0625 1.421875 -7.0625 C 1.421875 -7.0625 1.421875 -7.953125 1.421875 -7.953125 C 3.328125 -8.1875 3.609375 -8.40625 4.046875 -9.921875 C 4.046875 -9.921875 4.859375 -9.921875 4.859375 -9.921875 C 4.859375 -9.921875 4.859375 0 4.859375 0 Z M 4.859375 0 "/>
</g>
<g id="glyph-0-7-242d3c4d">
<path d="M 7.21875 -3.03125 C 7.21875 -3.03125 0.953125 -3.03125 0.953125 -3.03125 C 0.953125 -3.03125 0.953125 -3.96875 0.953125 -3.96875 C 0.953125 -3.96875 7.21875 -3.96875 7.21875 -3.96875 C 7.21875 -3.96875 7.21875 -3.03125 7.21875 -3.03125 Z M 7.21875 -3.03125 "/>
</g>
<g id="glyph-0-8-242d3c4d">
<path d="M 7.28125 -2.375 C 7.28125 -2.375 5.8125 -2.375 5.8125 -2.375 C 5.8125 -2.375 5.8125 0 5.8125 0 C 5.8125 0 4.578125 0 4.578125 0 C 4.578125 0 4.578125 -2.375 4.578125 -2.375 C 4.578125 -2.375 0.390625 -2.375 0.390625 -2.375 C 0.390625 -2.375 0.390625 -3.6875 0.390625 -3.6875 C 0.390625 -3.6875 4.90625 -9.921875 4.90625 -9.921875 C 4.90625 -9.921875 5.8125 -9.921875 5.8125 -9.921875 C 5.8125 -9.921875 5.8125 -3.484375 5.8125 -3.484375 C 5.8125 -3.484375 7.28125 -3.484375 7.28125 -3.484375 C 7.28125 -3.484375 7.28125 -2.375 7.28125 -2.375 Z M 4.578125 -3.484375 C 4.578125 -3.484375 4.578125 -7.828125 4.578125 -7.828125 C 4.578125 -7.828125 1.46875 -3.484375 1.46875 -3.484375 C 1.46875 -3.484375 4.578125 -3.484375 4.578125 -3.484375 Z M 4.578125 -3.484375 "/>
</g>
<g id="glyph-0-9-242d3c4d">
<path d="M 7.078125 -2.890625 C 7.078125 -1.015625 5.765625 0.203125 3.71875 0.203125 C 1.6875 0.203125 0.609375 -0.78125 0.453125 -3 C 0.453125 -3 1.6875 -3 1.6875 -3 C 1.765625 -1.546875 2.421875 -0.875 3.765625 -0.875 C 5.046875 -0.875 5.828125 -1.625 5.828125 -2.875 C 5.828125 -3.96875 5.125 -4.625 3.765625 -4.625 C 3.765625 -4.625 3.09375 -4.625 3.09375 -4.625 C 3.09375 -4.625 3.09375 -5.65625 3.09375 -5.65625 C 5.0625 -5.65625 5.53125 -6.09375 5.53125 -7.15625 C 5.53125 -8.203125 4.875 -8.84375 3.78125 -8.84375 C 2.515625 -8.84375 1.921875 -8.1875 1.890625 -6.71875 C 1.890625 -6.71875 0.65625 -6.71875 0.65625 -6.71875 C 0.703125 -8.828125 1.765625 -9.921875 3.765625 -9.921875 C 5.65625 -9.921875 6.796875 -8.90625 6.796875 -7.203125 C 6.796875 -6.203125 6.328125 -5.5625 5.40625 -5.1875 C 6.59375 -4.78125 7.078125 -4.09375 7.078125 -2.890625 Z M 7.078125 -2.890625 "/>
</g>
<g id="glyph-1-0-242d3c4d">
<path d="M 7.09375 -4.78125 C 7.09375 -1.515625 5.953125 0.203125 3.84375 0.203125 C 1.71875 0.203125 0.609375 -1.515625 0.609375 -4.859375 C 0.609375 -8.1875 1.703125 -9.921875 3.84375 -9.921875 C 6 -9.921875 7.09375 -8.21875 7.09375 -4.78125 Z M 5.84375 -4.890625 C 5.84375 -7.546875 5.1875 -8.828125 3.84375 -8.828125 C 2.515625 -8.828125 1.859375 -7.5625 1.859375 -4.84375 C 1.859375 -2.125 2.515625 -0.8125 3.828125 -0.8125 C 5.1875 -0.8125 5.84375 -2.078125 5.84375 -4.890625 Z M 5.84375 -4.890625 "/>
</g>
</g>
</defs>
<rect x="-90" y="-40" width="1080" height="480" fill="rgb(100%, 100%, 100%)" fill-opacity="1"/>
<path fill-rule="nonzero" fill="rgb(100%, 100%, 100%)" fill-opacity="1" d="M 41 361 L 884 361 L 884 16 L 41 16 Z M 41 361 "/>
<path fill="none" stroke-width="1" stroke-linecap="butt" stroke-linejoin="miter" stroke="rgb(0%, 0%, 0%)" stroke-opacity="0.12" stroke-miterlimit="1.154701" d="M 79.316406 361 L 79.316406 16 "/>
<path fill="none" stroke-width="1" stroke-linecap="butt" stroke-linejoin="miter" stroke="rgb(0%, 0%, 0%)" stroke-opacity="0.12" stroke-miterlimit="1.154701" d="M 270.910156 361 L 270.910156 16 "/>
<path fill="none" stroke-width="1" stroke-linecap="butt" stroke-linejoin="miter" stroke="rgb(0%, 0%, 0%)" stroke-opacity="0.12" stroke-miterlimit="1.154701" d="M 462.5 361 L 462.5 16 "/>
<path fill="none" stroke-width="1" stroke-linecap="butt" stroke-linejoin="miter" stroke="rgb(0%, 0%, 0%)" stroke-opacity="0.12" stroke-miterlimit="1.154701" d="M 654.089844 361 L 654.089844 16 "/>
<path fill="none" stroke-width="1" stroke-linecap="butt" stroke-linejoin="miter" stroke="rgb(0%, 0%, 0%)" stroke-opacity="0.12" stroke-miterlimit="1.154701" d="M 845.683594 361 L 845.683594 16 "/>
<path fill="none" stroke-width="1" stroke-linecap="butt" stroke-linejoin="miter" stroke="rgb(0%, 0%, 0%)" stroke-opacity="0.12" stroke-miterlimit="1.154701" d="M 41 276.558594 L 884 276.558594 "/>
<path fill="none" stroke-width="1" stroke-linecap="butt" stroke-linejoin="miter" stroke="rgb(0%, 0%, 0%)" stroke-opacity="0.12" stroke-miterlimit="1.154701" d="M 41 154.121094 L 884 154.121094 "/>
<path fill="none" stroke-width="1" stroke-linecap="butt" stroke-linejoin="miter" stroke="rgb(0%, 0%, 0%)" stroke-opacity="0.12" stroke-miterlimit="1.154701" d="M 41 31.683594 L 884 31.683594 "/>
<g fill="rgb(0%, 0%, 0%)" fill-opacity="1">
<use xlink:href="#glyph-0-0-242d3c4d" x="65.311186" y="382.258001"/>
<use xlink:href="#glyph-0-1-242d3c4d" x="73.095186" y="382.258001"/>
<use xlink:href="#glyph-0-0-242d3c4d" x="76.987185" y="382.258001"/>
<use xlink:href="#glyph-0-2-242d3c4d" x="84.771185" y="382.258001"/>
</g>
<g fill="rgb(0%, 0%, 0%)" fill-opacity="1">
<use xlink:href="#glyph-1-0-242d3c4d" x="253.010094" y="382.258001"/>
</g>
<g fill="rgb(0%, 0%, 0%)" fill-opacity="1">
<use xlink:href="#glyph-0-1-242d3c4d" x="260.794095" y="382.258001"/>
<use xlink:href="#glyph-0-3-242d3c4d" x="264.686094" y="382.258001"/>
<use xlink:href="#glyph-0-4-242d3c4d" x="272.470094" y="382.258001"/>
<use xlink:href="#glyph-0-2-242d3c4d" x="280.254094" y="382.258001"/>
</g>
<g fill="rgb(0%, 0%, 0%)" fill-opacity="1">
<use xlink:href="#glyph-0-0-242d3c4d" x="448.493011" y="382.258001"/>
<use xlink:href="#glyph-0-1-242d3c4d" x="456.277011" y="382.258001"/>
<use xlink:href="#glyph-0-4-242d3c4d" x="460.169011" y="382.258001"/>
<use xlink:href="#glyph-0-2-242d3c4d" x="467.95301" y="382.258001"/>
</g>
<g fill="rgb(0%, 0%, 0%)" fill-opacity="1">
<use xlink:href="#glyph-0-0-242d3c4d" x="636.191897" y="382.258001"/>
<use xlink:href="#glyph-0-1-242d3c4d" x="643.975897" y="382.258001"/>
<use xlink:href="#glyph-0-5-242d3c4d" x="647.867897" y="382.258001"/>
<use xlink:href="#glyph-0-4-242d3c4d" x="655.651896" y="382.258001"/>
<use xlink:href="#glyph-0-2-242d3c4d" x="663.435897" y="382.258001"/>
</g>
<g fill="rgb(0%, 0%, 0%)" fill-opacity="1">
<use xlink:href="#glyph-0-6-242d3c4d" x="831.674844" y="382.258001"/>
<use xlink:href="#glyph-0-1-242d3c4d" x="839.458844" y="382.258001"/>
<use xlink:href="#glyph-0-0-242d3c4d" x="843.350844" y="382.258001"/>
<use xlink:href="#glyph-0-2-242d3c4d" x="851.134843" y="382.258001"/>
</g>
<g fill="rgb(0%, 0%, 0%)" fill-opacity="1">
<use xlink:href="#glyph-0-7-242d3c4d" x="15.040001" y="281.660033"/>
<use xlink:href="#glyph-0-8-242d3c4d" x="23.216001" y="281.660033"/>
</g>
<g fill="rgb(0%, 0%, 0%)" fill-opacity="1">
<use xlink:href="#glyph-0-7-242d3c4d" x="15.040001" y="159.222436"/>
<use xlink:href="#glyph-0-9-242d3c4d" x="23.216001" y="159.222436"/>
</g>
<g fill="rgb(0%, 0%, 0%)" fill-opacity="1">
<use xlink:href="#glyph-0-7-242d3c4d" x="15.040001" y="36.784832"/>
<use xlink:href="#glyph-0-3-242d3c4d" x="23.216001" y="36.784832"/>
</g>
<path fill="none" stroke-width="1.5" stroke-linecap="butt" stroke-linejoin="miter" stroke="rgb(100%, 0%, 100%)" stroke-opacity="1" stroke-miterlimit="2" d="M 79.316406 276.558594 L 86.980469 276.566406 L 94.644531 276.585938 L 102.308594 276.625 L 109.972656 276.675781 L 117.636719 276.742188 L 125.300781 276.824219 L 132.964844 276.921875 L 140.628906 277.035156 L 148.289062 277.164062 L 155.953125 277.304688 L 163.617188 277.460938 L 171.28125 277.632812 L 178.945312 277.820312 L 186.609375 278.019531 L 194.273438 278.234375 L 201.9375 278.464844 L 209.601562 278.710938 L 217.261719 278.972656 L 224.925781 279.246094 L 232.589844 279.535156 L 240.253906 279.839844 L 247.917969 280.160156 L 255.582031 280.492188 L 263.246094 280.839844 L 270.910156 281.199219 L 278.574219 281.578125 L 286.234375 281.96875 L 293.898438 282.371094 L 301.5625 282.792969 L 309.226562 283.226562 L 316.890625 283.671875 L 324.554688 284.136719 L 332.21875 284.609375 L 339.882812 285.101562 L 347.546875 285.605469 L 355.210938 286.121094 L 362.871094 286.652344 L 370.535156 287.199219 L 378.199219 287.757812 L 385.863281 288.332031 L 393.527344 288.917969 L 401.191406 289.519531 L 408.855469 290.132812 L 416.519531 290.757812 L 424.183594 291.398438 L 431.84375 292.050781 L 439.507812 292.71875 L 447.171875 293.398438 L 454.835938 294.09375 L 462.5 294.800781 L 470.164062 295.519531 L 477.828125 296.25 L 485.492188 296.996094 L 493.15625 297.753906 L 500.816406 298.523438 L 508.480469 299.308594 L 516.144531 300.105469 L 523.808594 300.914062 L 531.472656 301.734375 L 539.136719 302.566406 L 546.800781 303.414062 L 554.464844 304.269531 L 562.128906 305.140625 L 569.789062 306.023438 L 577.453125 306.917969 L 585.117188 307.824219 L 592.78125 308.742188 L 600.445312 309.671875 L 608.109375 310.617188 L 615.773438 311.570312 L 623.4375 312.535156 L 631.101562 313.511719 L 638.761719 314.5 L 646.425781 315.5 L 654.089844 316.511719 L 661.753906 317.535156 L 669.417969 318.570312 L 677.082031 319.613281 L 684.746094 320.671875 L 692.410156 321.738281 L 700.074219 322.816406 L 707.734375 323.90625 L 715.398438 325.007812 L 723.0625 326.117188 L 730.726562 327.242188 L 738.390625 328.375 L 746.054688 329.515625 L 753.71875 330.671875 L 761.382812 331.835938 L 769.046875 333.007812 L 776.710938 334.195312 L 784.371094 335.390625 L 792.035156 336.597656 L 799.699219 337.8125 L 807.363281 339.039062 L 815.027344 340.273438 L 822.691406 341.519531 L 830.355469 342.777344 L 838.019531 344.042969 L 845.683594 345.316406 "/>
<path fill="none" stroke-width="1.5" stroke-linecap="butt" stroke-linejoin="miter" stroke="rgb(50.196081%, 50.196081%, 50.196081%)" stroke-opacity="0.5" stroke-miterlimit="2" d="M 79.316406 154.121094 L 86.980469 155.144531 L 94.644531 156.175781 L 102.308594 157.214844 L 109.972656 158.257812 L 125.300781 160.367188 L 132.964844 161.433594 L 140.628906 162.503906 L 148.289062 163.582031 L 155.953125 164.667969 L 163.617188 165.757812 L 171.28125 166.855469 L 178.945312 167.957031 L 186.609375 169.066406 L 194.273438 170.183594 L 201.9375 171.308594 L 209.601562 172.4375 L 217.261719 173.574219 L 224.925781 174.71875 L 232.589844 175.867188 L 240.253906 177.023438 L 247.917969 178.1875 L 255.582031 179.355469 L 263.246094 180.53125 L 270.910156 181.714844 L 278.574219 182.902344 L 286.234375 184.097656 L 293.898438 185.296875 L 301.5625 186.507812 L 309.226562 187.722656 L 316.890625 188.941406 L 332.21875 191.402344 L 339.882812 192.644531 L 347.546875 193.890625 L 355.210938 195.144531 L 362.871094 196.40625 L 370.535156 197.671875 L 378.199219 198.945312 L 385.863281 200.222656 L 393.527344 201.507812 L 401.191406 202.800781 L 408.855469 204.101562 L 416.519531 205.40625 L 424.183594 206.71875 L 431.84375 208.035156 L 439.507812 209.359375 L 447.171875 210.691406 L 454.835938 212.027344 L 462.5 213.371094 L 470.164062 214.71875 L 485.492188 217.4375 L 493.15625 218.808594 L 500.816406 220.183594 L 508.480469 221.566406 L 516.144531 222.953125 L 523.808594 224.347656 L 531.472656 225.746094 L 546.800781 228.566406 L 554.464844 229.988281 L 562.128906 231.414062 L 569.789062 232.847656 L 577.453125 234.285156 L 585.117188 235.730469 L 592.78125 237.179688 L 600.445312 238.636719 L 608.109375 240.101562 L 615.773438 241.570312 L 623.4375 243.046875 L 631.101562 244.53125 L 638.761719 246.019531 L 646.425781 247.511719 L 654.089844 249.015625 L 661.753906 250.523438 L 669.417969 252.035156 L 677.082031 253.554688 L 684.746094 255.082031 L 692.410156 256.613281 L 700.074219 258.152344 L 707.734375 259.699219 L 715.398438 261.253906 L 723.0625 262.8125 L 730.726562 264.382812 L 738.390625 265.960938 L 746.054688 267.558594 L 753.71875 269.1875 L 761.382812 270.855469 L 769.046875 272.554688 L 776.710938 274.269531 L 784.371094 275.996094 L 792.035156 277.730469 L 799.699219 279.476562 L 807.363281 281.226562 L 815.027344 282.984375 L 822.691406 284.75 L 830.355469 286.523438 L 838.019531 288.304688 L 845.683594 290.089844 "/>
<path fill="none" stroke-width="1.5" stroke-linecap="butt" stroke-linejoin="miter" stroke="rgb(50.196081%, 50.196081%, 50.196081%)" stroke-opacity="0.5" stroke-miterlimit="2" d="M 79.316406 154.121094 L 86.980469 154.957031 L 94.644531 155.808594 L 102.308594 156.667969 L 109.972656 157.542969 L 117.636719 158.425781 L 125.300781 159.324219 L 132.964844 160.234375 L 140.628906 161.152344 L 148.289062 162.085938 L 155.953125 163.03125 L 163.617188 163.988281 L 171.28125 164.953125 L 178.945312 165.933594 L 186.609375 166.925781 L 194.273438 167.925781 L 201.9375 168.941406 L 209.601562 169.964844 L 217.261719 171.003906 L 224.925781 172.050781 L 232.589844 173.113281 L 240.253906 174.183594 L 247.917969 175.265625 L 255.582031 176.359375 L 263.246094 177.464844 L 270.910156 178.582031 L 278.574219 179.710938 L 286.234375 180.847656 L 293.898438 182 L 301.5625 183.160156 L 309.226562 184.332031 L 316.890625 185.515625 L 324.554688 186.710938 L 332.21875 187.914062 L 339.882812 189.132812 L 347.546875 190.359375 L 355.210938 191.59375 L 362.871094 192.84375 L 370.535156 194.101562 L 378.199219 195.371094 L 385.863281 196.648438 L 393.527344 197.9375 L 401.191406 199.238281 L 408.855469 200.550781 L 416.519531 201.871094 L 424.183594 203.199219 L 431.84375 204.542969 L 439.507812 205.890625 L 447.171875 207.253906 L 454.835938 208.625 L 462.5 210.003906 L 470.164062 211.394531 L 477.828125 212.792969 L 485.492188 214.203125 L 493.15625 215.621094 L 500.816406 217.050781 L 508.480469 218.488281 L 516.144531 219.9375 L 523.808594 221.394531 L 531.472656 222.859375 L 539.136719 224.335938 L 546.800781 225.820312 L 554.464844 227.3125 L 562.128906 228.8125 L 569.789062 230.324219 L 577.453125 231.84375 L 585.117188 233.371094 L 592.78125 234.910156 L 600.445312 236.457031 L 608.109375 238.011719 L 615.773438 239.574219 L 623.4375 241.144531 L 631.101562 242.722656 L 638.761719 244.3125 L 646.425781 245.90625 L 654.089844 247.511719 L 661.753906 249.121094 L 669.417969 250.742188 L 677.082031 252.371094 L 684.746094 254.003906 L 692.410156 255.648438 L 700.074219 257.296875 L 707.734375 258.957031 L 715.398438 260.621094 L 723.0625 262.289062 L 730.726562 263.964844 L 738.390625 265.644531 L 746.054688 267.316406 L 753.71875 268.972656 L 761.382812 270.601562 L 769.046875 272.214844 L 776.710938 273.824219 L 784.371094 275.433594 L 792.035156 277.046875 L 799.699219 278.667969 L 807.363281 280.292969 L 815.027344 281.921875 L 822.691406 283.558594 L 830.355469 285.199219 L 838.019531 286.847656 L 845.683594 288.5 "/>
<path fill="none" stroke-width="1.5" stroke-linecap="butt" stroke-linejoin="miter" stroke="rgb(50.196081%, 50.196081%, 50.196081%)" stroke-opacity="0.5" stroke-miterlimit="2" d="M 79.316406 154.121094 L 86.980469 154.433594 L 94.644531 154.757812 L 102.308594 155.097656 L 109.972656 155.449219 L 117.636719 155.816406 L 125.300781 156.191406 L 132.964844 156.582031 L 140.628906 156.980469 L 148.289062 157.398438 L 155.953125 157.824219 L 163.617188 158.261719 L 171.28125 158.714844 L 178.945312 159.175781 L 186.609375 159.652344 L 194.273438 160.140625 L 201.9375 160.644531 L 209.601562 161.15625 L 217.261719 161.679688 L 224.925781 162.21875 L 232.589844 162.765625 L 240.253906 163.328125 L 247.917969 163.902344 L 255.582031 164.484375 L 263.246094 165.082031 L 270.910156 165.691406 L 278.574219 166.3125 L 286.234375 166.945312 L 293.898438 167.585938 L 301.5625 168.242188 L 309.226562 168.910156 L 316.890625 169.585938 L 324.554688 170.277344 L 332.21875 170.976562 L 339.882812 171.691406 L 347.546875 172.414062 L 355.210938 173.148438 L 362.871094 173.894531 L 370.535156 174.652344 L 378.199219 175.417969 L 385.863281 176.199219 L 393.527344 176.988281 L 401.191406 177.789062 L 408.855469 178.597656 L 416.519531 179.417969 L 424.183594 180.25 L 431.84375 181.09375 L 439.507812 181.945312 L 447.171875 182.808594 L 454.835938 183.683594 L 462.5 184.566406 L 470.164062 185.460938 L 477.828125 186.363281 L 485.492188 187.277344 L 493.15625 188.199219 L 500.816406 189.132812 L 508.480469 190.074219 L 516.144531 191.027344 L 523.808594 191.988281 L 531.472656 192.960938 L 539.136719 193.941406 L 546.800781 194.929688 L 554.464844 195.929688 L 562.128906 196.9375 L 569.789062 197.953125 L 577.453125 198.980469 L 585.117188 200.015625 L 592.78125 201.058594 L 600.445312 202.113281 L 608.109375 203.171875 L 615.773438 204.242188 L 623.4375 205.320312 L 631.101562 206.410156 L 638.761719 207.503906 L 646.425781 208.609375 L 654.089844 209.71875 L 661.753906 210.839844 L 669.417969 211.96875 L 677.082031 213.105469 L 684.746094 214.246094 L 692.410156 215.398438 L 700.074219 216.558594 L 707.734375 217.726562 L 715.398438 218.902344 L 723.0625 220.082031 L 730.726562 221.273438 L 738.390625 222.472656 L 746.054688 223.675781 L 753.71875 224.886719 L 761.382812 226.105469 L 769.046875 227.332031 L 776.710938 228.566406 L 784.371094 229.804688 L 792.035156 231.054688 L 799.699219 232.308594 L 807.363281 233.566406 L 815.027344 234.835938 L 822.691406 236.109375 L 830.355469 237.390625 L 838.019531 238.675781 L 845.683594 239.972656 "/>
<path fill="none" stroke-width="1.5" stroke-linecap="butt" stroke-linejoin="miter" stroke="rgb(50.196081%, 50.196081%, 50.196081%)" stroke-opacity="0.5" stroke-miterlimit="2" d="M 79.316406 154.121094 L 86.980469 154.136719 L 94.644531 154.164062 L 102.308594 154.207031 L 109.972656 154.265625 L 117.636719 154.335938 L 125.300781 154.421875 L 132.964844 154.523438 L 140.628906 154.636719 L 148.289062 154.765625 L 155.953125 154.90625 L 163.617188 155.0625 L 171.28125 155.234375 L 178.945312 155.417969 L 186.609375 155.621094 L 194.273438 155.832031 L 201.9375 156.0625 L 209.601562 156.304688 L 217.261719 156.558594 L 224.925781 156.828125 L 232.589844 157.113281 L 240.253906 157.414062 L 247.917969 157.726562 L 255.582031 158.054688 L 263.246094 158.394531 L 270.910156 158.75 L 278.574219 159.121094 L 286.234375 159.503906 L 293.898438 159.902344 L 301.5625 160.3125 L 309.226562 160.738281 L 316.890625 161.175781 L 324.554688 161.628906 L 332.21875 162.097656 L 339.882812 162.578125 L 347.546875 163.070312 L 355.210938 163.578125 L 362.871094 164.097656 L 370.535156 164.632812 L 378.199219 165.183594 L 385.863281 165.742188 L 393.527344 166.316406 L 401.191406 166.90625 L 408.855469 167.507812 L 416.519531 168.121094 L 424.183594 168.75 L 431.84375 169.390625 L 439.507812 170.042969 L 447.171875 170.707031 L 454.835938 171.386719 L 462.5 172.078125 L 470.164062 172.785156 L 477.828125 173.5 L 485.492188 174.230469 L 493.15625 174.972656 L 500.816406 175.726562 L 508.480469 176.492188 L 516.144531 177.273438 L 523.808594 178.066406 L 531.472656 178.867188 L 539.136719 179.683594 L 546.800781 180.511719 L 554.464844 181.351562 L 562.128906 182.203125 L 569.789062 183.066406 L 577.453125 183.941406 L 585.117188 184.828125 L 592.78125 185.726562 L 600.445312 186.636719 L 608.109375 187.558594 L 615.773438 188.492188 L 623.4375 189.4375 L 631.101562 190.394531 L 638.761719 191.359375 L 646.425781 192.339844 L 654.089844 193.328125 L 661.753906 194.328125 L 669.417969 195.339844 L 677.082031 196.363281 L 684.746094 197.394531 L 692.410156 198.441406 L 700.074219 199.496094 L 707.734375 200.558594 L 715.398438 201.636719 L 723.0625 202.722656 L 730.726562 203.816406 L 738.390625 204.925781 L 746.054688 206.042969 L 753.71875 207.488281 L 761.382812 209.621094 L 769.046875 211.757812 L 776.710938 213.898438 L 784.371094 216.039062 L 792.035156 218.183594 L 807.363281 222.480469 L 815.027344 224.632812 L 822.691406 226.789062 L 838.019531 231.109375 L 845.683594 233.273438 "/>
<path fill="none" stroke-width="1.5" stroke-linecap="butt" stroke-linejoin="miter" stroke="rgb(50.196081%, 50.196081%, 50.196081%)" stroke-opacity="0.5" stroke-miterlimit="2" d="M 79.316406 154.121094 L 86.980469 154.117188 L 94.644531 154.128906 L 102.308594 154.15625 L 109.972656 154.195312 L 117.636719 154.246094 L 125.300781 154.3125 L 132.964844 154.394531 L 140.628906 154.488281 L 148.289062 154.59375 L 155.953125 154.714844 L 163.617188 154.847656 L 171.28125 154.992188 L 178.945312 155.152344 L 186.609375 155.324219 L 194.273438 155.511719 L 201.9375 155.710938 L 209.601562 155.921875 L 217.261719 156.144531 L 224.925781 156.382812 L 232.589844 156.632812 L 240.253906 156.894531 L 247.917969 157.171875 L 255.582031 157.460938 L 263.246094 157.761719 L 270.910156 158.074219 L 278.574219 158.402344 L 286.234375 158.738281 L 293.898438 159.089844 L 301.5625 159.453125 L 309.226562 159.828125 L 316.890625 160.21875 L 324.554688 160.617188 L 332.21875 161.03125 L 339.882812 161.453125 L 347.546875 161.890625 L 355.210938 162.339844 L 362.871094 162.800781 L 370.535156 163.273438 L 378.199219 163.757812 L 385.863281 164.253906 L 393.527344 164.761719 L 401.191406 165.28125 L 408.855469 165.8125 L 416.519531 166.355469 L 424.183594 166.910156 L 431.84375 167.476562 L 439.507812 168.054688 L 447.171875 168.644531 L 454.835938 169.242188 L 462.5 169.855469 L 470.164062 170.476562 L 477.828125 171.109375 L 485.492188 171.753906 L 493.15625 172.410156 L 500.816406 173.078125 L 508.480469 173.753906 L 516.144531 174.441406 L 523.808594 175.140625 L 531.472656 175.847656 L 539.136719 176.570312 L 546.800781 177.300781 L 554.464844 178.039062 L 562.128906 178.792969 L 569.789062 179.554688 L 577.453125 180.324219 L 585.117188 181.109375 L 592.78125 181.898438 L 600.445312 182.703125 L 608.109375 183.515625 L 615.773438 184.335938 L 623.4375 185.167969 L 631.101562 186.011719 L 638.761719 186.863281 L 646.425781 187.726562 L 654.089844 188.597656 L 661.753906 189.476562 L 669.417969 190.367188 L 677.082031 191.265625 L 684.746094 192.175781 L 692.410156 193.09375 L 700.074219 194.023438 L 707.734375 194.960938 L 715.398438 196.863281 L 730.726562 201.105469 L 738.390625 203.230469 L 746.054688 205.359375 L 753.71875 207.171875 L 761.382812 208.308594 L 769.046875 209.457031 L 776.710938 210.613281 L 784.371094 211.78125 L 792.035156 212.960938 L 799.699219 214.148438 L 807.363281 215.347656 L 815.027344 216.554688 L 822.691406 217.769531 L 830.355469 218.996094 L 838.019531 220.234375 L 845.683594 221.480469 "/>
<path fill="none" stroke-width="1.5" stroke-linecap="butt" stroke-linejoin="miter" stroke="rgb(50.196081%, 50.196081%, 50.196081%)" stroke-opacity="0.5" stroke-miterlimit="2" d="M 79.316406 154.121094 L 86.980469 153.816406 L 94.644531 153.53125 L 102.308594 153.253906 L 109.972656 152.992188 L 117.636719 152.738281 L 125.300781 152.5 L 132.964844 152.277344 L 140.628906 152.0625 L 148.289062 151.863281 L 155.953125 151.675781 L 163.617188 151.503906 L 171.28125 151.339844 L 178.945312 151.191406 L 186.609375 151.054688 L 194.273438 150.929688 L 201.9375 150.820312 L 209.601562 150.71875 L 217.261719 150.632812 L 224.925781 150.558594 L 232.589844 150.5 L 240.253906 150.449219 L 247.917969 150.414062 L 255.582031 150.390625 L 263.246094 150.378906 L 270.910156 150.378906 L 278.574219 150.394531 L 286.234375 150.417969 L 293.898438 150.457031 L 301.5625 150.507812 L 309.226562 150.570312 L 316.890625 150.644531 L 324.554688 150.730469 L 332.21875 150.832031 L 339.882812 150.941406 L 347.546875 151.066406 L 355.210938 151.203125 L 362.871094 151.347656 L 370.535156 151.507812 L 378.199219 151.679688 L 385.863281 151.863281 L 393.527344 152.058594 L 401.191406 152.265625 L 408.855469 152.484375 L 416.519531 152.710938 L 424.183594 152.953125 L 431.84375 153.207031 L 439.507812 153.472656 L 447.171875 153.746094 L 454.835938 154.035156 L 462.5 154.335938 L 470.164062 154.644531 L 477.828125 154.964844 L 485.492188 155.296875 L 493.15625 155.640625 L 500.816406 155.996094 L 508.480469 156.363281 L 516.144531 156.738281 L 523.808594 157.125 L 531.472656 157.523438 L 539.136719 157.933594 L 546.800781 158.355469 L 554.464844 158.785156 L 562.128906 159.226562 L 569.789062 159.679688 L 577.453125 160.140625 L 585.117188 161.277344 L 600.445312 165.417969 L 615.773438 169.574219 L 623.4375 171.65625 L 631.101562 173.742188 L 638.761719 175.828125 L 646.425781 177.917969 L 654.089844 180.011719 L 669.417969 184.207031 L 677.082031 186.308594 L 684.746094 188.414062 L 700.074219 192.632812 L 707.734375 194.746094 L 715.398438 195.90625 L 723.0625 196.859375 L 730.726562 197.824219 L 738.390625 198.796875 L 746.054688 199.78125 L 753.71875 200.773438 L 761.382812 201.769531 L 769.046875 202.78125 L 776.710938 203.796875 L 784.371094 204.824219 L 792.035156 205.859375 L 799.699219 206.902344 L 807.363281 207.953125 L 815.027344 209.011719 L 822.691406 210.082031 L 830.355469 211.15625 L 838.019531 212.242188 L 845.683594 213.335938 "/>
<path fill="none" stroke-width="1.5" stroke-linecap="butt" stroke-linejoin="miter" stroke="rgb(50.196081%, 50.196081%, 50.196081%)" stroke-opacity="0.5" stroke-miterlimit="2" d="M 79.316406 154.121094 L 86.980469 153.292969 L 94.644531 152.480469 L 102.308594 151.675781 L 109.972656 150.886719 L 117.636719 150.109375 L 125.300781 149.339844 L 132.964844 148.585938 L 140.628906 147.84375 L 148.289062 147.113281 L 155.953125 146.390625 L 163.617188 145.683594 L 171.28125 144.988281 L 178.945312 144.304688 L 186.609375 143.632812 L 194.273438 142.972656 L 201.9375 142.324219 L 209.601562 141.6875 L 217.261719 141.0625 L 224.925781 140.445312 L 232.589844 139.84375 L 240.253906 139.253906 L 247.917969 138.675781 L 255.582031 138.109375 L 263.246094 137.554688 L 270.910156 137.007812 L 278.574219 136.476562 L 286.234375 135.953125 L 293.898438 135.445312 L 301.5625 134.945312 L 309.226562 134.457031 L 316.890625 133.984375 L 324.554688 133.519531 L 332.21875 133.0625 L 339.882812 132.621094 L 347.546875 132.191406 L 355.210938 131.769531 L 362.871094 131.359375 L 370.535156 130.960938 L 378.199219 130.574219 L 385.863281 130.199219 L 393.527344 129.832031 L 401.191406 129.476562 L 408.855469 129.132812 L 416.519531 128.800781 L 424.183594 128.476562 L 431.84375 128.164062 L 439.507812 127.863281 L 447.171875 127.570312 L 454.835938 127.289062 L 462.5 128.574219 L 477.828125 132.621094 L 493.15625 136.675781 L 500.816406 138.710938 L 508.480469 140.746094 L 516.144531 142.785156 L 523.808594 144.828125 L 539.136719 148.921875 L 546.800781 150.972656 L 554.464844 153.027344 L 562.128906 155.085938 L 569.789062 157.148438 L 577.453125 159.210938 L 585.117188 160.613281 L 592.78125 161.097656 L 600.445312 161.589844 L 608.109375 162.09375 L 615.773438 162.609375 L 623.4375 163.132812 L 631.101562 163.667969 L 638.761719 164.210938 L 646.425781 164.765625 L 654.089844 165.332031 L 661.753906 165.90625 L 669.417969 166.492188 L 677.082031 167.085938 L 684.746094 167.6875 L 692.410156 168.300781 L 700.074219 168.925781 L 707.734375 169.558594 L 715.398438 170.199219 L 723.0625 170.851562 L 730.726562 171.511719 L 738.390625 172.183594 L 746.054688 172.863281 L 753.71875 173.550781 L 761.382812 174.25 L 769.046875 174.957031 L 776.710938 175.675781 L 784.371094 176.398438 L 792.035156 177.132812 L 799.699219 177.878906 L 807.363281 178.628906 L 815.027344 179.390625 L 822.691406 180.160156 L 830.355469 181.136719 L 838.019531 182.941406 L 845.683594 184.742188 "/>
<path fill="none" stroke-width="1.5" stroke-linecap="butt" stroke-linejoin="miter" stroke="rgb(50.196081%, 50.196081%, 50.196081%)" stroke-opacity="0.5" stroke-miterlimit="2" d="M 79.316406 154.121094 L 86.980469 153.101562 L 94.644531 152.089844 L 102.308594 151.082031 L 109.972656 150.085938 L 117.636719 149.09375 L 125.300781 148.105469 L 132.964844 147.125 L 140.628906 146.152344 L 148.289062 145.1875 L 155.953125 144.226562 L 163.617188 143.273438 L 171.28125 142.328125 L 178.945312 141.386719 L 186.609375 140.453125 L 194.273438 139.527344 L 201.9375 138.609375 L 209.601562 137.695312 L 217.261719 136.785156 L 224.925781 135.886719 L 232.589844 134.992188 L 240.253906 134.105469 L 247.917969 133.222656 L 255.582031 132.347656 L 263.246094 131.480469 L 270.910156 130.617188 L 278.574219 129.761719 L 286.234375 128.914062 L 293.898438 128.070312 L 309.226562 126.40625 L 316.890625 125.585938 L 324.554688 124.769531 L 332.21875 123.957031 L 339.882812 123.15625 L 347.546875 122.359375 L 355.210938 121.570312 L 362.871094 120.785156 L 370.535156 120.007812 L 378.199219 119.238281 L 385.863281 118.472656 L 393.527344 117.714844 L 401.191406 116.960938 L 408.855469 116.21875 L 416.519531 116.515625 L 424.183594 118.519531 L 431.84375 120.523438 L 439.507812 122.53125 L 447.171875 124.542969 L 454.835938 126.558594 L 462.5 127.019531 L 470.164062 126.757812 L 477.828125 126.507812 L 485.492188 126.269531 L 493.15625 126.039062 L 500.816406 125.820312 L 508.480469 125.609375 L 516.144531 125.410156 L 523.808594 125.21875 L 531.472656 125.039062 L 539.136719 124.871094 L 546.800781 124.710938 L 554.464844 124.558594 L 562.128906 124.417969 L 569.789062 124.777344 L 577.453125 126.347656 L 592.78125 129.496094 L 608.109375 132.660156 L 615.773438 134.246094 L 631.101562 137.425781 L 638.761719 139.023438 L 646.425781 140.621094 L 661.753906 143.824219 L 677.082031 147.042969 L 684.746094 148.65625 L 692.410156 150.273438 L 700.074219 151.894531 L 707.734375 153.519531 L 715.398438 155.144531 L 723.0625 156.777344 L 730.726562 158.414062 L 738.390625 160.058594 L 746.054688 161.71875 L 753.71875 163.402344 L 761.382812 165.128906 L 769.046875 166.875 L 776.710938 168.640625 L 784.371094 170.410156 L 792.035156 172.1875 L 799.699219 173.96875 L 815.027344 177.546875 L 822.691406 179.339844 L 830.355469 180.941406 L 838.019531 181.726562 L 845.683594 183.152344 "/>
<path fill="none" stroke-width="1.5" stroke-linecap="butt" stroke-linejoin="miter" stroke="rgb(50.196081%, 50.196081%, 50.196081%)" stroke-opacity="0.5" stroke-miterlimit="2" d="M 79.316406 31.683594 L 86.980469 33.539062 L 102.308594 37.257812 L 109.972656 39.125 L 125.300781 42.867188 L 132.964844 44.742188 L 140.628906 46.625 L 148.289062 48.507812 L 163.617188 52.28125 L 171.28125 54.175781 L 186.609375 57.972656 L 194.273438 59.875 L 201.9375 61.78125 L 209.601562 63.691406 L 217.261719 65.605469 L 224.925781 67.523438 L 240.253906 71.367188 L 247.917969 73.292969 L 255.582031 75.222656 L 263.246094 77.15625 L 270.910156 79.09375 L 278.574219 81.035156 L 286.234375 82.980469 L 293.898438 84.925781 L 301.5625 86.875 L 309.226562 88.828125 L 316.890625 90.785156 L 332.21875 94.707031 L 347.546875 98.644531 L 355.210938 100.617188 L 362.871094 102.59375 L 378.199219 106.554688 L 393.527344 110.53125 L 401.191406 112.523438 L 408.855469 114.519531 L 416.519531 115.480469 L 424.183594 114.746094 L 431.84375 114.019531 L 439.507812 113.300781 L 447.171875 112.589844 L 454.835938 111.882812 L 462.5 111.179688 L 470.164062 110.488281 L 477.828125 109.800781 L 485.492188 109.117188 L 493.15625 109.253906 L 500.816406 110.789062 L 516.144531 113.875 L 523.808594 115.421875 L 531.472656 116.972656 L 539.136719 118.527344 L 554.464844 121.644531 L 562.128906 123.210938 L 569.789062 124.289062 L 577.453125 124.164062 L 585.117188 125.5625 L 592.78125 127.226562 L 600.445312 128.894531 L 608.109375 130.566406 L 615.773438 132.246094 L 623.4375 133.929688 L 631.101562 135.621094 L 638.761719 137.316406 L 646.425781 139.015625 L 654.089844 140.71875 L 661.753906 142.425781 L 669.417969 144.140625 L 677.082031 145.859375 L 684.746094 147.582031 L 692.410156 149.308594 L 700.074219 151.039062 L 707.734375 152.773438 L 715.398438 154.511719 L 738.390625 159.738281 L 746.054688 161.476562 L 753.71875 163.1875 L 761.382812 164.871094 L 769.046875 166.535156 L 776.710938 168.195312 L 784.371094 169.847656 L 792.035156 171.503906 L 799.699219 173.164062 L 807.363281 174.820312 L 830.355469 179.8125 L 838.019531 181.480469 L 845.683594 182.523438 "/>
<path fill="none" stroke-width="1.5" stroke-linecap="butt" stroke-linejoin="miter" stroke="rgb(50.196081%, 50.196081%, 50.196081%)" stroke-opacity="0.5" stroke-miterlimit="2" d="M 79.316406 31.683594 L 86.980469 33.011719 L 94.644531 34.347656 L 102.308594 35.6875 L 117.636719 38.382812 L 125.300781 39.734375 L 132.964844 41.089844 L 140.628906 42.453125 L 148.289062 43.816406 L 155.953125 45.183594 L 163.617188 46.558594 L 178.945312 49.316406 L 194.273438 52.089844 L 201.9375 53.484375 L 209.601562 54.882812 L 217.261719 56.285156 L 224.925781 57.6875 L 232.589844 59.097656 L 240.253906 60.511719 L 255.582031 63.347656 L 263.246094 64.773438 L 270.910156 66.203125 L 278.574219 67.636719 L 286.234375 69.074219 L 293.898438 70.511719 L 301.5625 71.957031 L 316.890625 74.855469 L 324.554688 76.3125 L 339.882812 79.234375 L 355.210938 82.171875 L 362.871094 83.644531 L 378.199219 86.605469 L 385.863281 88.089844 L 393.527344 89.578125 L 401.191406 91.070312 L 408.855469 92.566406 L 416.519531 94.066406 L 424.183594 95.570312 L 431.84375 97.074219 L 447.171875 100.097656 L 462.5 103.136719 L 470.164062 104.660156 L 477.828125 106.1875 L 485.492188 107.71875 L 493.15625 108.445312 L 500.816406 107.773438 L 508.480469 109.253906 L 516.144531 110.859375 L 523.808594 112.46875 L 531.472656 114.085938 L 539.136719 115.707031 L 546.800781 117.335938 L 554.464844 118.96875 L 562.128906 120.609375 L 569.789062 122.253906 L 577.453125 123.90625 L 585.117188 124.054688 L 592.78125 123.949219 L 600.445312 123.855469 L 608.109375 123.773438 L 615.773438 123.695312 L 623.4375 123.628906 L 631.101562 123.574219 L 638.761719 123.527344 L 646.425781 124.351562 L 654.089844 125.832031 L 661.753906 127.316406 L 669.417969 128.804688 L 684.746094 131.804688 L 692.410156 133.316406 L 700.074219 134.832031 L 707.734375 136.351562 L 715.398438 137.878906 L 723.0625 139.414062 L 730.726562 140.957031 L 738.390625 142.511719 L 746.054688 144.085938 L 753.71875 145.6875 L 761.382812 147.328125 L 769.046875 149 L 776.710938 150.6875 L 784.371094 152.386719 L 792.035156 154.097656 L 799.699219 155.8125 L 807.363281 157.535156 L 815.027344 159.265625 L 822.691406 161.003906 L 830.355469 162.746094 L 838.019531 164.496094 L 845.683594 166.253906 "/>
<path fill="none" stroke-width="1.5" stroke-linecap="butt" stroke-linejoin="miter" stroke="rgb(50.196081%, 50.196081%, 50.196081%)" stroke-opacity="0.5" stroke-miterlimit="2" d="M 79.316406 31.683594 L 86.980469 32.824219 L 94.644531 33.980469 L 102.308594 35.144531 L 109.972656 36.316406 L 117.636719 37.5 L 125.300781 38.691406 L 132.964844 39.890625 L 140.628906 41.101562 L 148.289062 42.320312 L 155.953125 43.550781 L 163.617188 44.789062 L 171.28125 46.035156 L 178.945312 47.292969 L 186.609375 48.558594 L 194.273438 49.832031 L 201.9375 51.117188 L 209.601562 52.410156 L 217.261719 53.710938 L 224.925781 55.023438 L 232.589844 56.34375 L 240.253906 57.671875 L 247.917969 59.007812 L 255.582031 60.355469 L 263.246094 61.710938 L 270.910156 63.074219 L 278.574219 64.445312 L 286.234375 65.824219 L 293.898438 67.214844 L 301.5625 68.609375 L 309.226562 70.015625 L 316.890625 71.429688 L 324.554688 72.851562 L 332.21875 74.28125 L 339.882812 75.722656 L 347.546875 77.167969 L 355.210938 78.621094 L 362.871094 80.082031 L 370.535156 81.554688 L 378.199219 83.03125 L 385.863281 84.515625 L 393.527344 86.007812 L 401.191406 87.507812 L 408.855469 89.015625 L 416.519531 90.53125 L 424.183594 92.054688 L 431.84375 93.582031 L 439.507812 95.117188 L 447.171875 96.664062 L 454.835938 98.214844 L 462.5 99.769531 L 470.164062 101.335938 L 477.828125 102.90625 L 485.492188 104.484375 L 493.15625 106.066406 L 500.816406 107.660156 L 508.480469 107.113281 L 516.144531 106.457031 L 523.808594 105.808594 L 531.472656 105.164062 L 539.136719 104.527344 L 546.800781 105.667969 L 554.464844 107.070312 L 562.128906 108.476562 L 569.789062 109.890625 L 577.453125 111.308594 L 585.117188 112.734375 L 592.78125 114.164062 L 600.445312 115.601562 L 608.109375 117.046875 L 615.773438 118.496094 L 623.4375 119.949219 L 631.101562 121.410156 L 638.761719 122.878906 L 646.425781 123.488281 L 654.089844 124.328125 L 661.753906 125.914062 L 669.417969 127.511719 L 677.082031 129.117188 L 684.746094 130.730469 L 692.410156 132.347656 L 700.074219 133.972656 L 707.734375 135.609375 L 715.398438 137.246094 L 723.0625 138.890625 L 738.390625 142.195312 L 746.054688 143.84375 L 753.71875 145.472656 L 761.382812 147.074219 L 769.046875 148.660156 L 776.710938 150.242188 L 784.371094 151.824219 L 799.699219 155.003906 L 807.363281 156.601562 L 815.027344 158.203125 L 822.691406 159.808594 L 830.355469 161.421875 L 838.019531 163.039062 L 845.683594 164.660156 "/>
<path fill="none" stroke-width="1.5" stroke-linecap="butt" stroke-linejoin="miter" stroke="rgb(50.196081%, 50.196081%, 50.196081%)" stroke-opacity="0.5" stroke-miterlimit="2" d="M 79.316406 31.683594 L 86.980469 32.714844 L 94.644531 33.753906 L 102.308594 34.796875 L 109.972656 35.847656 L 125.300781 37.964844 L 132.964844 39.03125 L 140.628906 40.105469 L 148.289062 41.183594 L 155.953125 42.269531 L 163.617188 43.359375 L 171.28125 44.457031 L 178.945312 45.558594 L 186.609375 46.667969 L 194.273438 47.78125 L 201.9375 48.902344 L 209.601562 50.03125 L 217.261719 51.164062 L 224.925781 52.300781 L 232.589844 53.445312 L 240.253906 54.597656 L 247.917969 55.753906 L 255.582031 56.917969 L 263.246094 58.085938 L 270.910156 59.261719 L 278.574219 60.445312 L 286.234375 61.632812 L 293.898438 62.828125 L 301.5625 64.027344 L 309.226562 65.234375 L 316.890625 66.445312 L 324.554688 67.664062 L 332.21875 68.890625 L 339.882812 70.121094 L 347.546875 71.359375 L 355.210938 72.601562 L 362.871094 73.851562 L 370.535156 75.105469 L 378.199219 76.367188 L 385.863281 77.636719 L 393.527344 78.910156 L 401.191406 80.191406 L 408.855469 81.476562 L 416.519531 82.769531 L 424.183594 84.066406 L 431.84375 85.371094 L 439.507812 86.683594 L 447.171875 88 L 454.835938 89.320312 L 462.5 90.648438 L 470.164062 91.984375 L 485.492188 94.671875 L 493.15625 96.027344 L 500.816406 97.386719 L 508.480469 98.75 L 516.144531 100.121094 L 523.808594 101.5 L 531.472656 102.882812 L 539.136719 104.273438 L 546.800781 103.898438 L 554.464844 104.394531 L 562.128906 105.875 L 569.789062 107.367188 L 577.453125 108.867188 L 585.117188 110.378906 L 592.78125 111.894531 L 600.445312 113.421875 L 608.109375 114.953125 L 615.773438 116.496094 L 623.4375 118.046875 L 631.101562 119.605469 L 638.761719 121.171875 L 646.425781 122.746094 L 654.089844 123.457031 L 661.753906 123.4375 L 669.417969 123.832031 L 677.082031 125.207031 L 684.746094 126.585938 L 692.410156 127.96875 L 700.074219 129.359375 L 707.734375 130.75 L 715.398438 132.148438 L 723.0625 133.554688 L 730.726562 134.964844 L 738.390625 136.386719 L 746.054688 137.824219 L 753.71875 139.289062 L 761.382812 140.792969 L 769.046875 142.324219 L 776.710938 143.871094 L 784.371094 145.429688 L 792.035156 146.992188 L 807.363281 150.140625 L 815.027344 151.722656 L 822.691406 153.3125 L 830.355469 154.90625 L 838.019531 156.503906 L 845.683594 158.109375 "/>
<path fill="none" stroke-width="1.5" stroke-linecap="butt" stroke-linejoin="miter" stroke="rgb(50.196081%, 50.196081%, 50.196081%)" stroke-opacity="0.5" stroke-miterlimit="2" d="M 79.316406 31.683594 L 86.980469 32.699219 L 94.644531 33.71875 L 102.308594 34.746094 L 109.972656 35.777344 L 117.636719 36.8125 L 125.300781 37.855469 L 132.964844 38.902344 L 140.628906 39.957031 L 148.289062 41.011719 L 155.953125 42.074219 L 171.28125 44.214844 L 178.945312 45.292969 L 186.609375 46.375 L 194.273438 47.460938 L 201.9375 48.550781 L 209.601562 49.648438 L 217.261719 50.75 L 224.925781 51.855469 L 232.589844 52.964844 L 240.253906 54.078125 L 247.917969 55.199219 L 255.582031 56.324219 L 263.246094 57.453125 L 270.910156 58.585938 L 278.574219 59.726562 L 286.234375 60.867188 L 293.898438 62.015625 L 301.5625 63.167969 L 309.226562 64.324219 L 324.554688 66.652344 L 332.21875 67.824219 L 339.882812 69 L 347.546875 70.179688 L 355.210938 71.363281 L 362.871094 72.550781 L 370.535156 73.746094 L 378.199219 74.945312 L 385.863281 76.148438 L 393.527344 77.355469 L 401.191406 78.566406 L 408.855469 79.78125 L 416.519531 81.003906 L 424.183594 82.230469 L 431.84375 83.460938 L 439.507812 84.695312 L 447.171875 85.933594 L 454.835938 87.175781 L 462.5 88.425781 L 470.164062 89.679688 L 477.828125 90.9375 L 485.492188 92.199219 L 493.15625 93.464844 L 500.816406 94.734375 L 516.144531 97.289062 L 523.808594 98.574219 L 531.472656 99.996094 L 539.136719 101.453125 L 546.800781 102.917969 L 554.464844 103.757812 L 562.128906 105.0625 L 569.789062 106.375 L 577.453125 107.691406 L 585.117188 109.011719 L 592.78125 110.335938 L 608.109375 113 L 623.4375 115.679688 L 631.101562 117.027344 L 638.761719 118.378906 L 654.089844 121.097656 L 661.753906 122.460938 L 669.417969 123.425781 L 677.082031 124.019531 L 684.746094 125.507812 L 692.410156 127.003906 L 700.074219 128.503906 L 707.734375 130.007812 L 715.398438 131.515625 L 723.0625 133.03125 L 730.726562 134.550781 L 738.390625 136.066406 L 746.054688 137.578125 L 753.71875 139.074219 L 761.382812 140.539062 L 769.046875 141.984375 L 776.710938 143.425781 L 784.371094 144.867188 L 792.035156 146.308594 L 807.363281 149.207031 L 815.027344 150.660156 L 822.691406 152.117188 L 838.019531 155.046875 L 845.683594 156.515625 "/>
<path fill="none" stroke-width="1.5" stroke-linecap="butt" stroke-linejoin="miter" stroke="rgb(50.196081%, 50.196081%, 50.196081%)" stroke-opacity="0.5" stroke-miterlimit="2" d="M 79.316406 31.683594 L 86.980469 32.527344 L 94.644531 33.386719 L 102.308594 34.253906 L 109.972656 35.132812 L 117.636719 36.019531 L 125.300781 36.921875 L 132.964844 37.832031 L 140.628906 38.753906 L 148.289062 39.6875 L 155.953125 40.632812 L 163.617188 41.589844 L 171.28125 42.554688 L 178.945312 43.535156 L 186.609375 44.523438 L 194.273438 45.523438 L 201.9375 46.535156 L 209.601562 47.558594 L 217.261719 48.589844 L 224.925781 49.636719 L 232.589844 50.691406 L 240.253906 51.757812 L 247.917969 52.835938 L 255.582031 53.921875 L 263.246094 55.023438 L 270.910156 56.132812 L 278.574219 57.253906 L 286.234375 58.386719 L 293.898438 59.527344 L 301.5625 60.679688 L 309.226562 61.84375 L 316.890625 63.019531 L 324.554688 64.207031 L 332.21875 65.402344 L 339.882812 66.605469 L 347.546875 67.824219 L 355.210938 69.050781 L 362.871094 70.289062 L 370.535156 71.535156 L 378.199219 72.792969 L 385.863281 74.0625 L 393.527344 75.339844 L 401.191406 76.625 L 408.855469 77.925781 L 416.519531 79.234375 L 424.183594 80.550781 L 431.84375 81.878906 L 439.507812 83.214844 L 447.171875 84.5625 L 454.835938 85.917969 L 462.5 87.285156 L 470.164062 88.660156 L 477.828125 90.042969 L 485.492188 91.4375 L 493.15625 92.839844 L 500.816406 94.253906 L 508.480469 95.675781 L 516.144531 97.105469 L 523.808594 98.546875 L 531.472656 99.863281 L 539.136719 101.15625 L 546.800781 102.453125 L 554.464844 103.273438 L 562.128906 102.65625 L 569.789062 103.855469 L 577.453125 105.25 L 585.117188 106.65625 L 592.78125 108.066406 L 600.445312 109.484375 L 608.109375 110.910156 L 615.773438 112.339844 L 623.4375 113.777344 L 631.101562 115.222656 L 638.761719 116.671875 L 646.425781 118.128906 L 654.089844 119.59375 L 661.753906 121.0625 L 669.417969 122.539062 L 677.082031 123.421875 L 684.746094 123.429688 L 692.410156 123.441406 L 700.074219 123.464844 L 707.734375 123.496094 L 715.398438 123.535156 L 723.0625 123.585938 L 730.726562 123.644531 L 738.390625 123.707031 L 746.054688 123.78125 L 753.71875 123.863281 L 761.382812 123.953125 L 769.046875 124.054688 L 776.710938 124.160156 L 784.371094 124.273438 L 792.035156 124.398438 L 799.699219 124.527344 L 807.363281 124.667969 L 815.027344 124.8125 L 822.691406 124.96875 L 830.355469 125.128906 L 838.019531 125.988281 L 845.683594 127.925781 "/>
<path fill="none" stroke-width="1.5" stroke-linecap="butt" stroke-linejoin="miter" stroke="rgb(50.196081%, 50.196081%, 50.196081%)" stroke-opacity="0.5" stroke-miterlimit="2" d="M 79.316406 31.683594 L 86.980469 32.511719 L 94.644531 33.351562 L 102.308594 34.199219 L 109.972656 35.058594 L 117.636719 35.929688 L 125.300781 36.8125 L 132.964844 37.703125 L 140.628906 38.605469 L 148.289062 39.519531 L 155.953125 40.441406 L 163.617188 41.371094 L 171.28125 42.316406 L 178.945312 43.265625 L 186.609375 44.230469 L 194.273438 45.203125 L 201.9375 46.183594 L 209.601562 47.175781 L 217.261719 48.175781 L 224.925781 49.1875 L 232.589844 50.210938 L 240.253906 51.238281 L 247.917969 52.28125 L 255.582031 53.328125 L 263.246094 54.386719 L 270.910156 55.457031 L 278.574219 56.535156 L 286.234375 57.621094 L 293.898438 58.71875 L 301.5625 59.824219 L 309.226562 60.9375 L 316.890625 62.058594 L 324.554688 63.191406 L 332.21875 64.335938 L 339.882812 65.484375 L 347.546875 66.644531 L 355.210938 67.8125 L 362.871094 68.988281 L 370.535156 70.175781 L 378.199219 71.371094 L 385.863281 72.570312 L 393.527344 73.785156 L 401.191406 75.003906 L 408.855469 76.230469 L 416.519531 77.46875 L 424.183594 78.714844 L 431.84375 79.964844 L 439.507812 81.226562 L 447.171875 82.496094 L 454.835938 83.773438 L 462.5 85.058594 L 470.164062 86.351562 L 477.828125 87.652344 L 485.492188 88.960938 L 493.15625 90.277344 L 500.816406 91.601562 L 508.480469 92.933594 L 516.144531 94.273438 L 523.808594 95.621094 L 531.472656 96.976562 L 539.136719 98.335938 L 546.800781 99.707031 L 554.464844 101.082031 L 562.128906 102.464844 L 569.789062 102.042969 L 577.453125 101.4375 L 585.117188 100.839844 L 592.78125 100.246094 L 600.445312 99.660156 L 608.109375 99.082031 L 615.773438 98.507812 L 623.4375 97.9375 L 631.101562 97.375 L 638.761719 96.820312 L 646.425781 96.777344 L 654.089844 97.832031 L 661.753906 98.890625 L 677.082031 101.023438 L 684.746094 102.097656 L 692.410156 103.175781 L 700.074219 104.261719 L 707.734375 105.351562 L 715.398438 106.445312 L 723.0625 107.546875 L 730.726562 108.652344 L 738.390625 109.769531 L 746.054688 110.90625 L 753.71875 112.070312 L 761.382812 113.273438 L 769.046875 114.503906 L 776.710938 115.75 L 784.371094 117.003906 L 792.035156 118.269531 L 799.699219 119.542969 L 807.363281 120.820312 L 815.027344 122.101562 L 822.691406 123.390625 L 830.355469 124.6875 L 838.019531 125.742188 L 845.683594 127.296875 "/>
<path fill="none" stroke-width="1.5" stroke-linecap="butt" stroke-linejoin="miter" stroke="rgb(50.196081%, 50.196081%, 50.196081%)" stroke-opacity="0.5" stroke-miterlimit="2" d="M 79.316406 31.683594 L 86.980469 32.398438 L 94.644531 33.117188 L 102.308594 33.84375 L 109.972656 34.574219 L 125.300781 36.042969 L 132.964844 36.785156 L 140.628906 37.53125 L 148.289062 38.285156 L 155.953125 39.039062 L 163.617188 39.796875 L 178.945312 41.328125 L 186.609375 42.101562 L 194.273438 42.878906 L 201.9375 43.660156 L 209.601562 44.445312 L 217.261719 45.238281 L 224.925781 46.03125 L 232.589844 46.828125 L 240.253906 47.632812 L 247.917969 48.441406 L 255.582031 49.253906 L 263.246094 50.070312 L 270.910156 50.890625 L 278.574219 51.71875 L 286.234375 52.546875 L 293.898438 53.382812 L 301.5625 54.222656 L 309.226562 55.066406 L 316.890625 55.914062 L 324.554688 56.765625 L 332.21875 57.625 L 347.546875 59.351562 L 355.210938 60.222656 L 362.871094 61.101562 L 370.535156 61.980469 L 385.863281 63.753906 L 393.527344 64.648438 L 401.191406 65.546875 L 416.519531 67.359375 L 424.183594 68.273438 L 431.84375 69.191406 L 439.507812 70.113281 L 447.171875 71.039062 L 454.835938 71.96875 L 462.5 72.90625 L 470.164062 73.847656 L 477.828125 74.792969 L 485.492188 75.742188 L 493.15625 76.695312 L 500.816406 77.65625 L 508.480469 78.617188 L 516.144531 79.585938 L 531.472656 81.539062 L 546.800781 83.507812 L 554.464844 84.5 L 562.128906 85.5 L 569.789062 86.5 L 577.453125 87.507812 L 585.117188 88.519531 L 592.78125 89.535156 L 600.445312 90.554688 L 615.773438 92.609375 L 623.4375 93.644531 L 631.101562 94.683594 L 638.761719 95.730469 L 646.425781 96.273438 L 654.089844 96.328125 L 661.753906 97.492188 L 669.417969 98.664062 L 677.082031 99.839844 L 684.746094 101.023438 L 692.410156 102.210938 L 700.074219 103.40625 L 707.734375 104.605469 L 715.398438 105.8125 L 723.0625 107.023438 L 738.390625 109.453125 L 746.054688 110.664062 L 753.71875 111.855469 L 761.382812 113.015625 L 769.046875 114.164062 L 776.710938 115.300781 L 784.371094 116.441406 L 792.035156 117.585938 L 807.363281 119.882812 L 815.027344 121.039062 L 822.691406 122.199219 L 830.355469 123.5625 L 838.019531 125.300781 L 845.683594 125.703125 "/>
<path fill="none" stroke-width="1.5" stroke-linecap="butt" stroke-linejoin="miter" stroke="rgb(50.196081%, 50.196081%, 50.196081%)" stroke-opacity="0.5" stroke-miterlimit="2" d="M 79.316406 31.683594 L 86.980469 32.210938 L 94.644531 32.75 L 102.308594 33.296875 L 109.972656 33.855469 L 117.636719 34.421875 L 125.300781 35 L 132.964844 35.585938 L 140.628906 36.183594 L 148.289062 36.789062 L 155.953125 37.402344 L 163.617188 38.027344 L 171.28125 38.660156 L 178.945312 39.304688 L 186.609375 39.957031 L 194.273438 40.621094 L 201.9375 41.292969 L 209.601562 41.972656 L 217.261719 42.664062 L 224.925781 43.363281 L 232.589844 44.074219 L 240.253906 44.792969 L 247.917969 45.523438 L 255.582031 46.257812 L 263.246094 47.003906 L 270.910156 47.761719 L 278.574219 48.527344 L 286.234375 49.300781 L 293.898438 50.082031 L 301.5625 50.875 L 309.226562 51.675781 L 316.890625 52.488281 L 324.554688 53.308594 L 332.21875 54.136719 L 339.882812 54.972656 L 347.546875 55.820312 L 355.210938 56.675781 L 362.871094 57.539062 L 370.535156 58.410156 L 378.199219 59.289062 L 385.863281 60.179688 L 393.527344 61.078125 L 401.191406 61.984375 L 408.855469 62.898438 L 416.519531 63.824219 L 424.183594 64.753906 L 431.84375 65.695312 L 439.507812 66.644531 L 447.171875 67.601562 L 454.835938 68.566406 L 462.5 69.539062 L 470.164062 70.519531 L 477.828125 71.507812 L 485.492188 72.503906 L 493.15625 73.511719 L 500.816406 74.523438 L 508.480469 75.542969 L 516.144531 76.570312 L 523.808594 77.605469 L 531.472656 78.652344 L 539.136719 79.703125 L 546.800781 80.761719 L 554.464844 81.824219 L 562.128906 82.898438 L 569.789062 83.980469 L 577.453125 85.066406 L 585.117188 86.160156 L 600.445312 88.371094 L 608.109375 89.488281 L 615.773438 90.613281 L 623.4375 91.742188 L 631.101562 92.878906 L 638.761719 94.023438 L 646.425781 95.171875 L 654.089844 95.730469 L 661.753906 95.191406 L 669.417969 94.660156 L 677.082031 94.136719 L 692.410156 93.105469 L 700.074219 93.234375 L 707.734375 94.378906 L 715.398438 95.527344 L 723.0625 96.6875 L 730.726562 97.851562 L 738.390625 99.023438 L 746.054688 100.203125 L 753.71875 101.707031 L 776.710938 108.269531 L 784.371094 110.453125 L 799.699219 114.828125 L 822.691406 121.378906 L 830.355469 123.363281 L 838.019531 124.53125 L 845.683594 125.480469 "/>
<path fill="none" stroke-width="1.5" stroke-linecap="butt" stroke-linejoin="miter" stroke="rgb(50.196081%, 50.196081%, 50.196081%)" stroke-opacity="0.5" stroke-miterlimit="2" d="M 79.316406 31.683594 L 86.980469 32.003906 L 94.644531 32.335938 L 102.308594 32.683594 L 109.972656 33.039062 L 117.636719 33.40625 L 125.300781 33.789062 L 132.964844 34.179688 L 140.628906 34.582031 L 148.289062 35 L 155.953125 35.425781 L 163.617188 35.867188 L 171.28125 36.316406 L 178.945312 36.777344 L 186.609375 37.253906 L 194.273438 37.738281 L 201.9375 38.238281 L 209.601562 38.746094 L 217.261719 39.269531 L 224.925781 39.800781 L 232.589844 40.34375 L 240.253906 40.902344 L 247.917969 41.46875 L 255.582031 42.046875 L 263.246094 42.640625 L 270.910156 43.242188 L 278.574219 43.855469 L 286.234375 44.480469 L 293.898438 45.117188 L 301.5625 45.761719 L 309.226562 46.421875 L 316.890625 47.089844 L 324.554688 47.773438 L 332.21875 48.464844 L 339.882812 49.167969 L 347.546875 49.878906 L 355.210938 50.605469 L 362.871094 51.339844 L 370.535156 52.085938 L 378.199219 52.84375 L 385.863281 53.609375 L 393.527344 54.386719 L 401.191406 55.175781 L 408.855469 55.972656 L 416.519531 56.78125 L 424.183594 57.601562 L 431.84375 58.429688 L 439.507812 59.269531 L 447.171875 60.117188 L 454.835938 60.976562 L 462.5 61.84375 L 470.164062 62.722656 L 477.828125 63.613281 L 485.492188 64.511719 L 493.15625 65.417969 L 500.816406 66.335938 L 508.480469 67.261719 L 516.144531 68.195312 L 523.808594 69.140625 L 531.472656 70.09375 L 539.136719 71.058594 L 546.800781 72.027344 L 554.464844 73.011719 L 562.128906 74 L 569.789062 74.996094 L 577.453125 76.003906 L 585.117188 77.019531 L 592.78125 78.046875 L 600.445312 79.078125 L 608.109375 80.117188 L 615.773438 81.167969 L 623.4375 82.226562 L 631.101562 83.292969 L 638.761719 84.363281 L 646.425781 85.445312 L 654.089844 86.535156 L 661.753906 87.632812 L 669.417969 88.738281 L 677.082031 89.851562 L 684.746094 90.972656 L 692.410156 92.101562 L 700.074219 92.601562 L 707.734375 92.101562 L 715.398438 91.609375 L 723.0625 92.949219 L 730.726562 95.136719 L 738.390625 97.328125 L 746.054688 99.515625 L 753.71875 101.386719 L 761.382812 102.578125 L 769.046875 103.777344 L 776.710938 104.984375 L 784.371094 106.199219 L 792.035156 107.417969 L 799.699219 108.644531 L 807.363281 109.875 L 815.027344 111.113281 L 822.691406 112.359375 L 830.355469 113.613281 L 838.019531 114.871094 L 845.683594 116.132812 "/>
<path fill="none" stroke-width="1.5" stroke-linecap="butt" stroke-linejoin="miter" stroke="rgb(50.196081%, 50.196081%, 50.196081%)" stroke-opacity="0.5" stroke-miterlimit="2" d="M 79.316406 31.683594 L 86.980469 31.984375 L 94.644531 32.300781 L 102.308594 32.628906 L 109.972656 32.96875 L 117.636719 33.316406 L 125.300781 33.679688 L 132.964844 34.050781 L 140.628906 34.433594 L 148.289062 34.828125 L 155.953125 35.234375 L 163.617188 35.648438 L 171.28125 36.074219 L 178.945312 36.511719 L 186.609375 36.957031 L 194.273438 37.417969 L 201.9375 37.886719 L 209.601562 38.363281 L 217.261719 38.855469 L 224.925781 39.355469 L 232.589844 39.863281 L 240.253906 40.382812 L 247.917969 40.914062 L 255.582031 41.453125 L 263.246094 42.003906 L 270.910156 42.566406 L 278.574219 43.136719 L 286.234375 43.714844 L 293.898438 44.304688 L 301.5625 44.902344 L 309.226562 45.511719 L 316.890625 46.132812 L 324.554688 46.761719 L 332.21875 47.398438 L 339.882812 48.042969 L 347.546875 48.699219 L 355.210938 49.367188 L 362.871094 50.042969 L 370.535156 50.726562 L 378.199219 51.417969 L 385.863281 52.121094 L 393.527344 52.832031 L 401.191406 53.550781 L 408.855469 54.28125 L 416.519531 55.019531 L 424.183594 55.765625 L 431.84375 56.519531 L 439.507812 57.28125 L 447.171875 58.054688 L 454.835938 58.832031 L 462.5 59.621094 L 470.164062 60.417969 L 477.828125 61.222656 L 485.492188 62.035156 L 493.15625 62.855469 L 500.816406 63.683594 L 508.480469 64.519531 L 516.144531 65.363281 L 523.808594 66.214844 L 531.472656 67.074219 L 539.136719 67.941406 L 546.800781 68.816406 L 554.464844 69.699219 L 562.128906 70.585938 L 569.789062 71.484375 L 577.453125 72.386719 L 585.117188 73.296875 L 592.78125 74.214844 L 600.445312 75.140625 L 608.109375 76.074219 L 615.773438 77.011719 L 623.4375 77.957031 L 631.101562 78.910156 L 638.761719 79.867188 L 646.425781 80.832031 L 654.089844 81.804688 L 661.753906 82.78125 L 669.417969 83.765625 L 677.082031 84.753906 L 692.410156 86.753906 L 700.074219 87.765625 L 707.734375 88.777344 L 715.398438 90.757812 L 723.0625 91.121094 L 730.726562 91.859375 L 738.390625 92.894531 L 746.054688 93.9375 L 753.71875 94.988281 L 761.382812 96.042969 L 769.046875 97.101562 L 776.710938 98.167969 L 784.371094 99.238281 L 799.699219 101.394531 L 815.027344 103.574219 L 822.691406 104.671875 L 830.355469 105.773438 L 838.019531 107.300781 L 845.683594 109.433594 "/>
<path fill="none" stroke-width="1" stroke-linecap="butt" stroke-linejoin="miter" stroke="rgb(0%, 0%, 0%)" stroke-opacity="1" stroke-miterlimit="1.154701" d="M 79.316406 361.5 L 79.316406 366.5 "/>
<path fill="none" stroke-width="1" stroke-linecap="butt" stroke-linejoin="miter" stroke="rgb(0%, 0%, 0%)" stroke-opacity="1" stroke-miterlimit="1.154701" d="M 270.910156 361.5 L 270.910156 366.5 "/>
<path fill="none" stroke-width="1" stroke-linecap="butt" stroke-linejoin="miter" stroke="rgb(0%, 0%, 0%)" stroke-opacity="1" stroke-miterlimit="1.154701" d="M 462.5 361.5 L 462.5 366.5 "/>
<path fill="none" stroke-width="1" stroke-linecap="butt" stroke-linejoin="miter" stroke="rgb(0%, 0%, 0%)" stroke-opacity="1" stroke-miterlimit="1.154701" d="M 654.089844 361.5 L 654.089844 366.5 "/>
<path fill="none" stroke-width="1" stroke-linecap="butt" stroke-linejoin="miter" stroke="rgb(0%, 0%, 0%)" stroke-opacity="1" stroke-miterlimit="1.154701" d="M 845.683594 361.5 L 845.683594 366.5 "/>
<path fill="none" stroke-width="1" stroke-linecap="butt" stroke-linejoin="miter" stroke="rgb(0%, 0%, 0%)" stroke-opacity="1" stroke-miterlimit="1.154701" d="M 40.5 276.558594 L 35.5 276.558594 "/>
<path fill="none" stroke-width="1" stroke-linecap="butt" stroke-linejoin="miter" stroke="rgb(0%, 0%, 0%)" stroke-opacity="1" stroke-miterlimit="1.154701" d="M 40.5 154.121094 L 35.5 154.121094 "/>
<path fill="none" stroke-width="1" stroke-linecap="butt" stroke-linejoin="miter" stroke="rgb(0%, 0%, 0%)" stroke-opacity="1" stroke-miterlimit="1.154701" d="M 40.5 31.683594 L 35.5 31.683594 "/>
<path fill="none" stroke-width="1" stroke-linecap="butt" stroke-linejoin="miter" stroke="rgb(0%, 0%, 0%)" stroke-opacity="1" stroke-miterlimit="1.154701" d="M 40.5 361 L 884.5 361 "/>
<path fill="none" stroke-width="1" stroke-linecap="butt" stroke-linejoin="miter" stroke="rgb(0%, 0%, 0%)" stroke-opacity="1" stroke-miterlimit="1.154701" d="M 41 361.5 L 41 15.5 "/>
<path fill="none" stroke-width="1" stroke-linecap="butt" stroke-linejoin="miter" stroke="rgb(0%, 0%, 0%)" stroke-opacity="1" stroke-miterlimit="1.154701" d="M 40.5 16 L 884.5 16 "/>
<path fill="none" stroke-width="1" stroke-linecap="butt" stroke-linejoin="miter" stroke="rgb(0%, 0%, 0%)" stroke-opacity="1" stroke-miterlimit="1.154701" d="M 884 361.5 L 884 15.5 "/>
</svg>
