<?xml version="1.0" encoding="UTF-8"?>
<svg xmlns="http://www.w3.org/2000/svg" xmlns:xlink="http://www.w3.org/1999/xlink" width="900" height="400" viewBox="0 0 900 400">
<defs>
<g>
<g id="glyph-0-0-44672a74">
<path d="M 7.09375 -4.78125 C 7.09375 -1.515625 5.953125 0.203125 3.84375 0.203125 C 1.71875 0.203125 0.609375 -1.515625 0.609375 -4.859375 C 0.609375 -8.1875 1.703125 -9.921875 3.84375 -9.921875 C 6 -9.921875 7.09375 -8.21875 7.09375 -4.78125 Z M 5.84375 -4.890625 C 5.84375 -7.546875 5.1875 -8.828125 3.84375 -8.828125 C 2.515625 -8.828125 1.859375 -7.5625 1.859375 -4.84375 C 1.859375 -2.125 2.515625 -0.8125 3.828125 -0.8125 C 5.1875 -0.8125 5.84375 -2.078125 5.84375 -4.890625 Z M 5.84375 -4.890625 "/>
</g>
<g id="glyph-0-1-44672a74">
<path d="M 2.671875 0 C 2.671875 0 1.21875 0 1.21875 0 C 1.21875 0 1.21875 -1.453125 1.21875 -1.453125 C 1.21875 -1.453125 2.671875 -1.453125 2.671875 -1.453125 C 2.671875 -1.453125 2.671875 0 2.671875 0 Z M 2.671875 0 "/>
</g>
<g id="glyph-0-2-44672a74">
<path d="M 8.296875 -9.0625 C 8.296875 -9.0625 4.953125 -9.0625 4.953125 -9.0625 C 4.953125 -9.0625 4.953125 0 4.953125 0 C 4.953125 0 3.65625 0 3.65625 0 C 3.65625 0 3.65625 -9.0625 3.65625 -9.0625 C 3.65625 -9.0625 0.296875 -9.0625 0.296875 -9.0625 C 0.296875 -9.0625 0.296875 -10.203125 0.296875 -10.203125 C 0.296875 -10.203125 8.296875 -10.203125 8.296875 -10.203125 C 8.296875 -10.203125 8.296875 -9.0625 8.296875 -9.0625 Z M 8.296875 -9.0625 "/>
</g>
<g id="glyph-0-3-44672a74">
<path d="M 7.15625 -7.015625 C 7.15625 -5.796875 6.4375 -4.765625 5.046875 -4.015625 C 5.046875 -4.015625 3.65625 -3.265625 3.65625 -3.265625 C 2.4375 -2.546875 1.984375 -2.03125 1.859375 -1.21875 C 1.859375 -1.21875 7.078125 -1.21875 7.078125 -1.21875 C 7.078125 -1.21875 7.078125 0 7.078125 0 C 7.078125 0 0.46875 0 0.46875 0 C 0.59375 -2.1875 1.1875 -3.125 3.265625 -4.296875 C 3.265625 -4.296875 4.546875 -5.03125 4.546875 -5.03125 C 5.4375 -5.53125 5.890625 -6.203125 5.890625 -6.984375 C 5.890625 -8.046875 5.046875 -8.84375 3.9375 -8.84375 C 2.71875 -8.84375 2.03125 -8.140625 1.9375 -6.484375 C 1.9375 -6.484375 0.703125 -6.484375 0.703125 -6.484375 C 0.765625 -8.890625 1.953125 -9.921875 3.96875 -9.921875 C 5.859375 -9.921875 7.15625 -8.6875 7.15625 -7.015625 Z M 7.15625 -7.015625 "/>
</g>
<g id="glyph-0-4-44672a74">
<path d="M 7.1875 -3.296875 C 7.1875 -1.1875 5.78125 0.203125 3.78125 0.203125 C 2.015625 0.203125 0.890625 -0.578125 0.484375 -2.546875 C 0.484375 -2.546875 1.71875 -2.546875 1.71875 -2.546875 C 2.015625 -1.421875 2.671875 -0.875 3.75 -0.875 C 5.09375 -0.875 5.921875 -1.6875 5.921875 -3.125 C 5.921875 -4.59375 5.078125 -5.453125 3.75 -5.453125 C 2.984375 -5.453125 2.5 -5.203125 1.9375 -4.515625 C 1.9375 -4.515625 0.796875 -4.515625 0.796875 -4.515625 C 0.796875 -4.515625 1.546875 -9.71875 1.546875 -9.71875 C 1.546875 -9.71875 6.65625 -9.71875 6.65625 -9.71875 C 6.65625 -9.71875 6.65625 -8.5 6.65625 -8.5 C 6.65625 -8.5 2.53125 -8.5 2.53125 -8.5 C 2.53125 -8.5 2.140625 -5.9375 2.140625 -5.9375 C 2.71875 -6.359375 3.28125 -6.53125 3.96875 -6.53125 C 5.875 -6.53125 7.1875 -5.25 7.1875 -3.296875 Z M 7.1875 -3.296875 "/>
</g>
<g id="glyph-0-5-44672a74">
<path d="M 7.28125 -8.6875 C 5.1875 -6.203125 3.796875 -3.203125 3.25 0 C 3.25 0 1.9375 0 1.9375 0 C 2.625 -3.109375 4.03125 -6 6 -8.5 C 6 -8.5 0.640625 -8.5 0.640625 -8.5 C 0.640625 -8.5 0.640625 -9.71875 0.640625 -9.71875 C 0.640625 -9.71875 7.28125 -9.71875 7.28125 -9.71875 C 7.28125 -9.71875 7.28125 -8.6875 7.28125 -8.6875 Z M 7.28125 -8.6875 "/>
</g>
<g id="glyph-0-6-44672a74">
<path d="M 4.859375 0 C 4.859375 0 3.625 0 3.625 0 C 3.625 0 3.625 -7.0625 3.625 -7.0625 C 3.625 -7.0625 1.421875 -7.0625 1.421875 -7.0625 C 1.421875 -7.0625 1.421875 -7.953125 1.421875 -7.953125 C 3.328125 -8.1875 3.609375 -8.40625 4.046875 -9.921875 C 4.046875 -9.921875 4.859375 -9.921875 4.859375 -9.921875 C 4.859375 -9.921875 4.859375 0 4.859375 0 Z M 4.859375 0 "/>
</g>
<g id="glyph-0-7-44672a74">
<path d="M 7.21875 -3.03125 C 7.21875 -3.03125 0.953125 -3.03125 0.953125 -3.03125 C 0.953125 -3.03125 0.953125 -3.96875 0.953125 -3.96875 C 0.953125 -3.96875 7.21875 -3.96875 7.21875 -3.96875 C 7.21875 -3.96875 7.21875 -3.03125 7.21875 -3.03125 Z M 7.21875 -3.03125 "/>
</g>
<g id="glyph-0-8-44672a74">
<path d="M 7.28125 -2.375 C 7.28125 -2.375 5.8125 -2.375 5.8125 -2.375 C 5.8125 -2.375 5.8125 0 5.8125 0 C 5.8125 0 4.578125 0 4.578125 0 C 4.578125 0 4.578125 -2.375 4.578125 -2.375 C 4.578125 -2.375 0.390625 -2.375 0.390625 -2.375 C 0.390625 -2.375 0.390625 -3.6875 0.390625 -3.6875 C 0.390625 -3.6875 4.90625 -9.921875 4.90625 -9.921875 C 4.90625 -9.921875 5.8125 -9.921875 5.8125 -9.921875 C 5.8125 -9.921875 5.8125 -3.484375 5.8125 -3.484375 C 5.8125 -3.484375 7.28125 -3.484375 7.28125 -3.484375 C 7.28125 -3.484375 7.28125 -2.375 7.28125 -2.375 Z M 4.578125 -3.484375 C 4.578125 -3.484375 4.578125 -7.828125 4.578125 -7.828125 C 4.578125 -7.828125 1.46875 -3.484375 1.46875 -3.484375 C 1.46875 -3.484375 4.578125 -3.484375 4.578125 -3.484375 Z M 4.578125 -3.484375 "/>
</g>
<g id="glyph-0-9-44672a74">
<path d="M 7.078125 -2.890625 C 7.078125 -1.015625 5.765625 0.203125 3.71875 0.203125 C 1.6875 0.203125 0.609375 -0.78125 0.453125 -3 C 0.453125 -3 1.6875 -3 1.6875 -3 C 1.765625 -1.546875 2.421875 -0.875 3.765625 -0.875 C 5.046875 -0.875 5.828125 -1.625 5.828125 -2.875 C 5.828125 -3.96875 5.125 -4.625 3.765625 -4.625 C 3.765625 -4.625 3.09375 -4.625 3.09375 -4.625 C 3.09375 -4.625 3.09375 -5.65625 3.09375 -5.65625 C 5.0625 -5.65625 5.53125 -6.09375 5.53125 -7.15625 C 5.53125 -8.203125 4.875 -8.84375 3.78125 -8.84375 C 2.515625 -8.84375 1.921875 -8.1875 1.890625 -6.71875 C 1.890625 -6.71875 0.65625 -6.71875 0.65625 -6.71875 C 0.703125 -8.828125 1.765625 -9.921875 3.765625 -9.921875 C 5.65625 -9.921875 6.796875 -8.90625 6.796875 -7.203125 C 6.796875 -6.203125 6.328125 -5.5625 5.40625 -5.1875 C 6.59375 -4.78125 7.078125 -4.09375 7.078125 -2.890625 Z M 7.078125 -2.890625 "/>
</g>
<g id="glyph-1-0-44672a74">
<path d="M 7.09375 -4.78125 C 7.09375 -1.515625 5.953125 0.203125 3.84375 0.203125 C 1.71875 0.203125 0.609375 -1.515625 0.609375 -4.859375 C 0.609375 -8.1875 1.703125 -9.921875 3.84375 -9.921875 C 6 -9.921875 7.09375 -8.21875 7.09375 -4.78125 Z M 5.84375 -4.890625 C 5.84375 -7.546875 5.1875 -8.828125 3.84375 -8.828125 C 2.515625 -8.828125 1.859375 -7.5625 1.859375 -4.84375 C 1.859375 -2.125 2.515625 -0.8125 3.828125 -0.8125 C 5.1875 -0.8125 5.84375 -2.078125 5.84375 -4.890625 Z M 5.84375 -4.890625 "/>
</g>
</g>
</defs>
<rect x="-90" y="-40" width="1080" height="480" fill="rgb(100%, 100%, 100%)" fill-opacity="1"/>
<path fill-rule="nonzero" fill="rgb(100%, 100%, 100%)" fill-opacity="1" d="M 41 361 L 884 361 L 884 16 L 41 16 Z M 41 361 "/>
<path fill="none" stroke-width="1" stroke-linecap="butt" stroke-linejoin="miter" stroke="rgb(0%, 0%, 0%)" stroke-opacity="0.12" stroke-miterlimit="1.154701" d="M 79.316406 361 L 79.316406 16 "/>
<path fill="none" stroke-width="1" stroke-linecap="butt" stroke-linejoin="miter" stroke="rgb(0%, 0%, 0%)" stroke-opacity="0.12" stroke-miterlimit="1.154701" d="M 270.910156 361 L 270.910156 16 "/>
<path fill="none" stroke-width="1" stroke-linecap="butt" stroke-linejoin="miter" stroke="rgb(0%, 0%, 0%)" stroke-opacity="0.12" stroke-miterlimit="1.154701" d="M 462.5 361 L 462.5 16 "/>
<path fill="none" stroke-width="1" stroke-linecap="butt" stroke-linejoin="miter" stroke="rgb(0%, 0%, 0%)" stroke-opacity="0.12" stroke-miterlimit="1.154701" d="M 654.089844 361 L 654.089844 16 "/>
<path fill="none" stroke-width="1" stroke-linecap="butt" stroke-linejoin="miter" stroke="rgb(0%, 0%, 0%)" stroke-opacity="0.12" stroke-miterlimit="1.154701" d="M 845.683594 361 L 845.683594 16 "/>
<path fill="none" stroke-width="1" stroke-linecap="butt" stroke-linejoin="miter" stroke="rgb(0%, 0%, 0%)" stroke-opacity="0.12" stroke-miterlimit="1.154701" d="M 41 312.761719 L 884 312.761719 "/>
<path fill="none" stroke-width="1" stroke-linecap="butt" stroke-linejoin="miter" stroke="rgb(0%, 0%, 0%)" stroke-opacity="0.12" stroke-miterlimit="1.154701" d="M 41 219.070312 L 884 219.070312 "/>
<path fill="none" stroke-width="1" stroke-linecap="butt" stroke-linejoin="miter" stroke="rgb(0%, 0%, 0%)" stroke-opacity="0.12" stroke-miterlimit="1.154701" d="M 41 125.375 L 884 125.375 "/>
<path fill="none" stroke-width="1" stroke-linecap="butt" stroke-linejoin="miter" stroke="rgb(0%, 0%, 0%)" stroke-opacity="0.12" stroke-miterlimit="1.154701" d="M 41 31.683594 L 884 31.683594 "/>
<g fill="rgb(0%, 0%, 0%)" fill-opacity="1">
<use xlink:href="#glyph-0-0-44672a74" x="65.311186" y="382.258001"/>
</g>
<g fill="rgb(0%, 0%, 0%)" fill-opacity="1">
<use xlink:href="#glyph-0-1-44672a74" x="73.095186" y="382.258001"/>
</g>
<g fill="rgb(0%, 0%, 0%)" fill-opacity="1">
<use xlink:href="#glyph-0-0-44672a74" x="76.987185" y="382.258001"/>
</g>
<g fill="rgb(0%, 0%, 0%)" fill-opacity="1">
<use xlink:href="#glyph-0-2-44672a74" x="84.771185" y="382.258001"/>
</g>
<g fill="rgb(0%, 0%, 0%)" fill-opacity="1">
<use xlink:href="#glyph-1-0-44672a74" x="253.010094" y="382.258001"/>
</g>
<g fill="rgb(0%, 0%, 0%)" fill-opacity="1">
<use xlink:href="#glyph-0-1-44672a74" x="260.794095" y="382.258001"/>
</g>
<g fill="rgb(0%, 0%, 0%)" fill-opacity="1">
<use xlink:href="#glyph-0-3-44672a74" x="264.686094" y="382.258001"/>
</g>
<g fill="rgb(0%, 0%, 0%)" fill-opacity="1">
<use xlink:href="#glyph-0-4-44672a74" x="272.470094" y="382.258001"/>
</g>
<g fill="rgb(0%, 0%, 0%)" fill-opacity="1">
<use xlink:href="#glyph-0-2-44672a74" x="280.254094" y="382.258001"/>
</g>
<g fill="rgb(0%, 0%, 0%)" fill-opacity="1">
<use xlink:href="#glyph-0-0-44672a74" x="448.493011" y="382.258001"/>
</g>
<g fill="rgb(0%, 0%, 0%)" fill-opacity="1">
<use xlink:href="#glyph-0-1-44672a74" x="456.277011" y="382.258001"/>
</g>
<g fill="rgb(0%, 0%, 0%)" fill-opacity="1">
<use xlink:href="#glyph-0-4-44672a74" x="460.169011" y="382.258001"/>
</g>
<g fill="rgb(0%, 0%, 0%)" fill-opacity="1">
<use xlink:href="#glyph-0-2-44672a74" x="467.95301" y="382.258001"/>
</g>
<g fill="rgb(0%, 0%, 0%)" fill-opacity="1">
<use xlink:href="#glyph-0-0-44672a74" x="636.191897" y="382.258001"/>
</g>
<g fill="rgb(0%, 0%, 0%)" fill-opacity="1">
<use xlink:href="#glyph-0-1-44672a74" x="643.975897" y="382.258001"/>
</g>
<g fill="rgb(0%, 0%, 0%)" fill-opacity="1">
<use xlink:href="#glyph-0-5-44672a74" x="647.867897" y="382.258001"/>
</g>
<g fill="rgb(0%, 0%, 0%)" fill-opacity="1">
<use xlink:href="#glyph-0-4-44672a74" x="655.651896" y="382.258001"/>
</g>
<g fill="rgb(0%, 0%, 0%)" fill-opacity="1">
<use xlink:href="#glyph-0-2-44672a74" x="663.435897" y="382.258001"/>
</g>
<g fill="rgb(0%, 0%, 0%)" fill-opacity="1">
<use xlink:href="#glyph-0-6-44672a74" x="831.674844" y="382.258001"/>
</g>
<g fill="rgb(0%, 0%, 0%)" fill-opacity="1">
<use xlink:href="#glyph-0-1-44672a74" x="839.458844" y="382.258001"/>
</g>
<g fill="rgb(0%, 0%, 0%)" fill-opacity="1">
<use xlink:href="#glyph-0-0-44672a74" x="843.350844" y="382.258001"/>
</g>
<g fill="rgb(0%, 0%, 0%)" fill-opacity="1">
<use xlink:href="#glyph-0-2-44672a74" x="851.134843" y="382.258001"/>
</g>
<g fill="rgb(0%, 0%, 0%)" fill-opacity="1">
<use xlink:href="#glyph-0-7-44672a74" x="15.040001" y="317.865591"/>
</g>
<g fill="rgb(0%, 0%, 0%)" fill-opacity="1">
<use xlink:href="#glyph-0-4-44672a74" x="23.216001" y="317.865591"/>
</g>
<g fill="rgb(0%, 0%, 0%)" fill-opacity="1">
<use xlink:href="#glyph-0-7-44672a74" x="15.040001" y="224.172004"/>
</g>
<g fill="rgb(0%, 0%, 0%)" fill-opacity="1">
<use xlink:href="#glyph-0-8-44672a74" x="23.216001" y="224.172004"/>
</g>
<g fill="rgb(0%, 0%, 0%)" fill-opacity="1">
<use xlink:href="#glyph-0-7-44672a74" x="15.040001" y="130.478403"/>
</g>
<g fill="rgb(0%, 0%, 0%)" fill-opacity="1">
<use xlink:href="#glyph-0-9-44672a74" x="23.216001" y="130.478403"/>
</g>
<g fill="rgb(0%, 0%, 0%)" fill-opacity="1">
<use xlink:href="#glyph-0-7-44672a74" x="15.040001" y="36.784832"/>
</g>
<g fill="rgb(0%, 0%, 0%)" fill-opacity="1">
<use xlink:href="#glyph-0-3-44672a74" x="23.216001" y="36.784832"/>
</g>
<path fill="none" stroke-width="1.5" stroke-linecap="butt" stroke-linejoin="miter" stroke="rgb(100%, 0%, 100%)" stroke-opacity="1" stroke-miterlimit="2" d="M 79.316406 219.070312 L 86.980469 219.082031 L 94.644531 219.117188 L 102.308594 219.179688 L 109.972656 219.265625 L 117.636719 219.375 L 125.300781 219.511719 L 132.964844 219.671875 L 140.628906 219.855469 L 148.289062 220.066406 L 155.953125 220.300781 L 163.617188 220.558594 L 171.28125 220.84375 L 178.945312 221.148438 L 186.609375 221.484375 L 194.273438 221.839844 L 201.9375 222.222656 L 209.601562 222.632812 L 217.261719 223.0625 L 224.925781 223.519531 L 232.589844 224.003906 L 240.253906 224.511719 L 247.917969 225.042969 L 255.582031 225.601562 L 263.246094 226.183594 L 270.910156 226.792969 L 278.574219 227.425781 L 286.234375 228.085938 L 293.898438 228.769531 L 301.5625 229.476562 L 309.226562 230.210938 L 316.890625 230.972656 L 324.554688 231.757812 L 332.21875 232.570312 L 339.882812 233.410156 L 347.546875 234.273438 L 355.210938 235.160156 L 362.871094 236.074219 L 370.535156 237.015625 L 378.199219 237.984375 L 385.863281 238.976562 L 393.527344 239.996094 L 401.191406 241.039062 L 408.855469 242.109375 L 416.519531 243.207031 L 424.183594 244.332031 L 431.84375 245.480469 L 439.507812 246.65625 L 447.171875 247.859375 L 454.835938 249.089844 L 462.5 250.34375 L 470.164062 251.625 L 477.828125 252.933594 L 485.492188 254.269531 L 493.15625 255.628906 L 500.816406 257.015625 L 508.480469 258.429688 L 516.144531 259.871094 L 523.808594 261.335938 L 531.472656 262.832031 L 539.136719 264.351562 L 546.800781 265.894531 L 554.464844 267.46875 L 562.128906 269.066406 L 569.789062 270.691406 L 577.453125 272.339844 L 585.117188 274.015625 L 592.78125 275.71875 L 600.445312 277.445312 L 608.109375 279.199219 L 615.773438 280.980469 L 623.4375 282.785156 L 631.101562 284.613281 L 638.761719 286.46875 L 646.425781 288.351562 L 654.089844 290.253906 L 661.753906 292.183594 L 669.417969 294.136719 L 677.082031 296.117188 L 684.746094 298.117188 L 692.410156 300.144531 L 700.074219 302.195312 L 707.734375 304.269531 L 715.398438 306.363281 L 723.0625 308.484375 L 730.726562 310.628906 L 738.390625 312.792969 L 746.054688 314.980469 L 753.71875 317.1875 L 761.382812 319.417969 L 769.046875 321.671875 L 776.710938 323.945312 L 784.371094 326.238281 L 792.035156 328.554688 L 799.699219 330.890625 L 807.363281 333.246094 L 815.027344 335.621094 L 822.691406 338.019531 L 830.355469 340.433594 L 838.019531 342.867188 L 845.683594 345.316406 "/>
<path fill="none" stroke-width="1.5" stroke-linecap="butt" stroke-linejoin="miter" stroke="rgb(50.196081%, 50.196081%, 50.196081%)" stroke-opacity="0.5" stroke-miterlimit="2" d="M 79.316406 125.375 L 86.980469 126.699219 L 94.644531 128.042969 L 102.308594 129.40625 L 109.972656 130.789062 L 117.636719 132.1875 L 125.300781 133.605469 L 132.964844 135.042969 L 140.628906 136.496094 L 148.289062 137.96875 L 155.953125 139.460938 L 163.617188 140.96875 L 171.28125 142.496094 L 178.945312 144.042969 L 186.609375 145.605469 L 194.273438 147.1875 L 201.9375 148.785156 L 209.601562 150.402344 L 217.261719 152.035156 L 224.925781 153.683594 L 232.589844 155.351562 L 240.253906 157.035156 L 247.917969 158.738281 L 255.582031 160.457031 L 263.246094 162.191406 L 270.910156 163.945312 L 278.574219 165.714844 L 286.234375 167.5 L 293.898438 169.300781 L 301.5625 171.121094 L 309.226562 172.953125 L 316.890625 174.804688 L 324.554688 176.671875 L 332.21875 178.554688 L 339.882812 180.453125 L 347.546875 182.371094 L 355.210938 184.300781 L 362.871094 186.246094 L 370.535156 188.207031 L 378.199219 190.1875 L 385.863281 192.179688 L 393.527344 194.1875 L 401.191406 196.210938 L 408.855469 198.25 L 416.519531 200.300781 L 424.183594 202.371094 L 431.84375 204.453125 L 439.507812 206.550781 L 447.171875 208.664062 L 454.835938 210.789062 L 462.5 212.933594 L 470.164062 215.089844 L 477.828125 217.257812 L 485.492188 219.441406 L 493.15625 221.640625 L 500.816406 223.855469 L 508.480469 226.082031 L 516.144531 228.320312 L 523.808594 230.574219 L 531.472656 232.84375 L 539.136719 235.125 L 546.800781 237.417969 L 554.464844 239.726562 L 562.128906 242.046875 L 569.789062 244.382812 L 577.453125 246.730469 L 585.117188 249.089844 L 592.78125 251.464844 L 600.445312 253.851562 L 608.109375 256.25 L 615.773438 258.660156 L 623.4375 261.085938 L 631.101562 263.523438 L 638.761719 265.972656 L 646.425781 268.433594 L 654.089844 270.90625 L 661.753906 273.390625 L 669.417969 275.890625 L 677.082031 278.398438 L 684.746094 280.917969 L 692.410156 283.453125 L 700.074219 285.996094 L 707.734375 288.554688 L 715.398438 291.121094 L 723.0625 293.699219 L 730.726562 296.289062 L 738.390625 298.890625 L 746.054688 301.503906 L 753.71875 304.125 L 761.382812 306.761719 L 769.046875 309.40625 L 776.710938 312.058594 L 784.371094 314.726562 L 792.035156 317.402344 L 799.699219 320.089844 L 807.363281 322.785156 L 815.027344 325.492188 L 822.691406 328.210938 L 830.355469 330.9375 L 838.019531 333.675781 L 845.683594 336.421875 "/>
<path fill="none" stroke-width="1.5" stroke-linecap="butt" stroke-linejoin="miter" stroke="rgb(50.196081%, 50.196081%, 50.196081%)" stroke-opacity="0.5" stroke-miterlimit="2" d="M 79.316406 125.375 L 86.980469 126.011719 L 94.644531 126.664062 L 102.308594 127.335938 L 109.972656 128.023438 L 117.636719 128.734375 L 125.300781 129.457031 L 132.964844 130.203125 L 140.628906 130.964844 L 148.289062 131.742188 L 155.953125 132.542969 L 163.617188 133.355469 L 171.28125 134.191406 L 178.945312 135.042969 L 186.609375 135.914062 L 194.273438 136.804688 L 201.9375 137.710938 L 209.601562 138.636719 L 217.261719 139.582031 L 224.925781 140.546875 L 232.589844 141.527344 L 240.253906 142.527344 L 247.917969 143.546875 L 255.582031 144.585938 L 263.246094 145.640625 L 270.910156 146.714844 L 278.574219 147.808594 L 286.234375 148.921875 L 293.898438 150.050781 L 301.5625 151.203125 L 309.226562 152.371094 L 316.890625 153.558594 L 324.554688 154.765625 L 332.21875 155.992188 L 339.882812 157.238281 L 347.546875 158.5 L 355.210938 159.78125 L 362.871094 161.085938 L 370.535156 162.40625 L 378.199219 163.746094 L 385.863281 165.101562 L 393.527344 166.480469 L 401.191406 167.878906 L 408.855469 169.292969 L 416.519531 170.726562 L 424.183594 172.183594 L 431.84375 173.65625 L 439.507812 175.148438 L 447.171875 176.65625 L 454.835938 178.1875 L 462.5 179.734375 L 470.164062 181.304688 L 477.828125 182.890625 L 485.492188 184.496094 L 493.15625 186.121094 L 500.816406 187.761719 L 508.480469 189.421875 L 516.144531 191.101562 L 523.808594 192.800781 L 531.472656 194.515625 L 539.136719 196.25 L 546.800781 198.003906 L 554.464844 199.777344 L 562.128906 201.566406 L 569.789062 203.371094 L 577.453125 205.195312 L 585.117188 207.039062 L 592.78125 208.898438 L 600.445312 210.777344 L 608.109375 212.671875 L 615.773438 214.582031 L 623.4375 216.507812 L 631.101562 218.453125 L 638.761719 220.417969 L 646.425781 222.394531 L 654.089844 224.386719 L 661.753906 226.398438 L 669.417969 228.421875 L 677.082031 230.464844 L 684.746094 232.523438 L 692.410156 234.59375 L 700.074219 236.679688 L 707.734375 238.78125 L 715.398438 240.898438 L 723.0625 243.027344 L 730.726562 245.171875 L 738.390625 247.332031 L 746.054688 249.503906 L 753.71875 251.6875 L 761.382812 253.886719 L 769.046875 256.097656 L 776.710938 258.320312 L 784.371094 260.558594 L 792.035156 262.804688 L 799.699219 265.066406 L 807.363281 267.339844 L 815.027344 269.621094 L 822.691406 271.914062 L 830.355469 274.222656 L 838.019531 276.539062 L 845.683594 278.863281 "/>
<path fill="none" stroke-width="1.5" stroke-linecap="butt" stroke-linejoin="miter" stroke="rgb(50.196081%, 50.196081%, 50.196081%)" stroke-opacity="0.5" stroke-miterlimit="2" d="M 79.316406 125.375 L 86.980469 125.804688 L 94.644531 126.253906 L 102.308594 126.722656 L 109.972656 127.203125 L 117.636719 127.703125 L 125.300781 128.21875 L 132.964844 128.753906 L 140.628906 129.300781 L 148.289062 129.867188 L 155.953125 130.449219 L 163.617188 131.046875 L 171.28125 131.660156 L 178.945312 132.289062 L 186.609375 132.9375 L 194.273438 133.597656 L 201.9375 134.273438 L 209.601562 134.964844 L 217.261719 135.671875 L 224.925781 136.394531 L 232.589844 137.132812 L 240.253906 137.882812 L 247.917969 138.648438 L 255.582031 139.433594 L 263.246094 140.226562 L 270.910156 141.039062 L 278.574219 141.867188 L 286.234375 142.707031 L 293.898438 143.558594 L 301.5625 144.429688 L 309.226562 145.3125 L 316.890625 146.210938 L 324.554688 147.125 L 332.21875 148.050781 L 339.882812 148.992188 L 347.546875 149.949219 L 355.210938 150.917969 L 362.871094 151.902344 L 370.535156 152.902344 L 378.199219 153.914062 L 385.863281 154.941406 L 393.527344 155.984375 L 401.191406 157.039062 L 408.855469 158.113281 L 416.519531 159.199219 L 424.183594 160.300781 L 431.84375 161.417969 L 439.507812 162.546875 L 447.171875 163.695312 L 454.835938 164.859375 L 462.5 166.035156 L 470.164062 167.230469 L 477.828125 168.441406 L 485.492188 169.667969 L 493.15625 170.910156 L 500.816406 172.171875 L 508.480469 173.449219 L 516.144531 174.742188 L 523.808594 176.054688 L 531.472656 177.386719 L 539.136719 178.738281 L 546.800781 180.105469 L 554.464844 181.496094 L 562.128906 182.902344 L 569.789062 184.332031 L 577.453125 185.78125 L 585.117188 187.253906 L 592.78125 188.746094 L 600.445312 190.261719 L 608.109375 191.800781 L 615.773438 193.363281 L 623.4375 194.949219 L 631.101562 197.363281 L 638.761719 199.917969 L 646.425781 202.476562 L 654.089844 205.039062 L 661.753906 207.605469 L 677.082031 212.746094 L 692.410156 217.902344 L 700.074219 220.484375 L 707.734375 223.066406 L 715.398438 225.652344 L 723.0625 228.242188 L 738.390625 233.429688 L 753.71875 238.625 L 761.382812 241.226562 L 776.710938 246.4375 L 784.371094 249.042969 L 792.035156 251.652344 L 799.699219 254.265625 L 807.363281 256.875 L 830.355469 264.726562 L 845.683594 269.96875 "/>
<path fill="none" stroke-width="1.5" stroke-linecap="butt" stroke-linejoin="miter" stroke="rgb(50.196081%, 50.196081%, 50.196081%)" stroke-opacity="0.5" stroke-miterlimit="2" d="M 79.316406 125.375 L 86.980469 125.445312 L 94.644531 125.539062 L 102.308594 125.648438 L 109.972656 125.78125 L 117.636719 125.929688 L 125.300781 126.101562 L 132.964844 126.292969 L 140.628906 126.503906 L 148.289062 126.738281 L 155.953125 126.988281 L 163.617188 127.265625 L 171.28125 127.558594 L 178.945312 127.875 L 186.609375 128.214844 L 194.273438 128.574219 L 201.9375 128.953125 L 209.601562 129.355469 L 217.261719 129.78125 L 224.925781 130.226562 L 232.589844 130.695312 L 240.253906 131.1875 L 247.917969 131.699219 L 255.582031 132.234375 L 263.246094 132.792969 L 270.910156 133.375 L 278.574219 133.976562 L 286.234375 134.601562 L 293.898438 135.25 L 301.5625 135.921875 L 309.226562 136.613281 L 316.890625 137.332031 L 324.554688 138.070312 L 332.21875 138.832031 L 339.882812 139.617188 L 347.546875 140.425781 L 355.210938 141.253906 L 362.871094 142.109375 L 370.535156 142.984375 L 378.199219 143.882812 L 385.863281 144.804688 L 393.527344 145.75 L 401.191406 146.71875 L 408.855469 147.707031 L 416.519531 148.71875 L 424.183594 149.753906 L 431.84375 150.8125 L 439.507812 151.894531 L 447.171875 152.996094 L 454.835938 154.117188 L 462.5 155.265625 L 470.164062 156.429688 L 477.828125 157.621094 L 485.492188 158.828125 L 493.15625 160.058594 L 500.816406 161.308594 L 508.480469 162.582031 L 516.144531 163.871094 L 523.808594 165.179688 L 531.472656 166.511719 L 539.136719 167.859375 L 546.800781 169.527344 L 554.464844 172.035156 L 562.128906 174.546875 L 569.789062 177.0625 L 577.453125 179.585938 L 585.117188 182.113281 L 592.78125 184.644531 L 600.445312 187.179688 L 608.109375 189.71875 L 615.773438 192.261719 L 623.4375 194.808594 L 631.101562 196.558594 L 638.761719 198.195312 L 646.425781 199.855469 L 654.089844 201.542969 L 661.753906 203.253906 L 669.417969 204.992188 L 677.082031 206.757812 L 684.746094 208.546875 L 692.410156 210.367188 L 700.074219 212.210938 L 707.734375 214.082031 L 715.398438 215.980469 L 723.0625 217.902344 L 730.726562 219.855469 L 738.390625 221.832031 L 746.054688 223.832031 L 753.71875 225.863281 L 761.382812 227.914062 L 769.046875 229.992188 L 776.710938 232.09375 L 784.371094 234.222656 L 792.035156 236.371094 L 799.699219 238.546875 L 807.363281 240.742188 L 815.027344 242.960938 L 822.691406 245.203125 L 830.355469 247.464844 L 838.019531 249.746094 L 845.683594 252.050781 "/>
<path fill="none" stroke-width="1.5" stroke-linecap="butt" stroke-linejoin="miter" stroke="rgb(50.196081%, 50.196081%, 50.196081%)" stroke-opacity="0.5" stroke-miterlimit="2" d="M 79.316406 125.375 L 86.980469 125.324219 L 94.644531 125.289062 L 102.308594 125.277344 L 109.972656 125.28125 L 117.636719 125.304688 L 125.300781 125.347656 L 132.964844 125.410156 L 140.628906 125.488281 L 148.289062 125.589844 L 155.953125 125.703125 L 163.617188 125.839844 L 171.28125 125.992188 L 178.945312 126.160156 L 186.609375 126.351562 L 194.273438 126.554688 L 201.9375 126.78125 L 209.601562 127.023438 L 217.261719 127.28125 L 224.925781 127.558594 L 232.589844 127.851562 L 240.253906 128.164062 L 247.917969 128.496094 L 255.582031 128.84375 L 263.246094 129.207031 L 270.910156 129.589844 L 278.574219 129.992188 L 286.234375 130.410156 L 293.898438 130.847656 L 301.5625 131.300781 L 309.226562 131.773438 L 316.890625 132.261719 L 324.554688 132.769531 L 332.21875 133.296875 L 339.882812 133.839844 L 347.546875 134.402344 L 355.210938 134.984375 L 362.871094 135.585938 L 370.535156 136.203125 L 378.199219 136.839844 L 385.863281 137.492188 L 393.527344 138.167969 L 401.191406 138.859375 L 408.855469 139.570312 L 416.519531 140.300781 L 424.183594 141.050781 L 431.84375 141.820312 L 439.507812 142.605469 L 447.171875 143.414062 L 454.835938 144.238281 L 462.5 145.085938 L 470.164062 145.949219 L 477.828125 147.214844 L 485.492188 149.671875 L 493.15625 152.132812 L 500.816406 154.597656 L 516.144531 159.550781 L 531.472656 164.527344 L 539.136719 167.027344 L 546.800781 169.222656 L 554.464844 170.609375 L 562.128906 172.007812 L 569.789062 173.425781 L 577.453125 174.859375 L 585.117188 176.308594 L 592.78125 177.769531 L 600.445312 179.246094 L 608.109375 180.738281 L 615.773438 182.242188 L 623.4375 183.757812 L 631.101562 185.285156 L 638.761719 186.824219 L 646.425781 188.375 L 654.089844 189.933594 L 661.753906 191.503906 L 669.417969 193.082031 L 677.082031 194.671875 L 684.746094 196.265625 L 692.410156 197.867188 L 700.074219 199.480469 L 707.734375 201.097656 L 715.398438 202.722656 L 723.0625 204.355469 L 730.726562 205.996094 L 738.390625 207.929688 L 746.054688 210.355469 L 753.71875 212.800781 L 761.382812 215.253906 L 769.046875 217.726562 L 776.710938 220.210938 L 784.371094 222.707031 L 792.035156 225.21875 L 799.699219 227.742188 L 807.363281 230.28125 L 815.027344 232.832031 L 822.691406 235.394531 L 830.355469 237.96875 L 838.019531 240.554688 L 845.683594 243.15625 "/>
<path fill="none" stroke-width="1.5" stroke-linecap="butt" stroke-linejoin="miter" stroke="rgb(50.196081%, 50.196081%, 50.196081%)" stroke-opacity="0.5" stroke-miterlimit="2" d="M 79.316406 125.375 L 86.980469 124.960938 L 94.644531 124.566406 L 102.308594 124.1875 L 109.972656 123.828125 L 117.636719 123.484375 L 125.300781 123.160156 L 132.964844 122.855469 L 140.628906 122.566406 L 148.289062 122.300781 L 155.953125 122.050781 L 163.617188 121.820312 L 171.28125 121.609375 L 178.945312 121.417969 L 186.609375 121.246094 L 194.273438 121.09375 L 201.9375 120.960938 L 209.601562 120.847656 L 217.261719 120.753906 L 224.925781 120.679688 L 232.589844 120.628906 L 240.253906 120.597656 L 247.917969 120.585938 L 255.582031 120.597656 L 263.246094 120.628906 L 270.910156 120.679688 L 278.574219 120.753906 L 286.234375 120.851562 L 293.898438 120.96875 L 301.5625 121.105469 L 309.226562 121.265625 L 316.890625 121.449219 L 324.554688 121.652344 L 332.21875 121.878906 L 339.882812 122.128906 L 347.546875 122.402344 L 355.210938 122.695312 L 362.871094 123.015625 L 370.535156 123.355469 L 378.199219 123.71875 L 385.863281 124.105469 L 393.527344 124.515625 L 401.191406 124.949219 L 408.855469 125.433594 L 416.519531 127.824219 L 424.183594 130.222656 L 431.84375 132.628906 L 439.507812 135.042969 L 447.171875 137.460938 L 454.835938 139.890625 L 462.5 142.324219 L 470.164062 144.765625 L 477.828125 146.835938 L 485.492188 147.738281 L 493.15625 148.664062 L 500.816406 149.605469 L 508.480469 150.570312 L 516.144531 151.554688 L 523.808594 152.558594 L 531.472656 153.578125 L 539.136719 154.621094 L 546.800781 155.683594 L 554.464844 156.765625 L 562.128906 157.867188 L 569.789062 158.992188 L 577.453125 160.171875 L 585.117188 162.328125 L 592.78125 164.492188 L 600.445312 166.664062 L 608.109375 168.847656 L 615.773438 171.042969 L 623.4375 173.25 L 631.101562 175.46875 L 638.761719 177.695312 L 646.425781 179.9375 L 654.089844 182.191406 L 661.753906 184.460938 L 669.417969 186.742188 L 677.082031 189.039062 L 684.746094 191.347656 L 692.410156 193.671875 L 700.074219 196.011719 L 707.734375 198.367188 L 715.398438 200.734375 L 723.0625 203.117188 L 730.726562 205.515625 L 738.390625 207.644531 L 746.054688 209.300781 L 753.71875 210.960938 L 761.382812 212.628906 L 769.046875 214.308594 L 776.710938 215.992188 L 784.371094 217.683594 L 792.035156 219.378906 L 799.699219 221.085938 L 807.363281 222.800781 L 815.027344 224.523438 L 822.691406 226.253906 L 830.355469 227.992188 L 838.019531 229.738281 L 845.683594 231.492188 "/>
<path fill="none" stroke-width="1.5" stroke-linecap="butt" stroke-linejoin="miter" stroke="rgb(50.196081%, 50.196081%, 50.196081%)" stroke-opacity="0.5" stroke-miterlimit="2" d="M 79.316406 125.375 L 86.980469 124.757812 L 94.644531 124.15625 L 102.308594 123.578125 L 109.972656 123.011719 L 117.636719 122.464844 L 125.300781 121.9375 L 132.964844 121.429688 L 140.628906 120.933594 L 148.289062 120.460938 L 155.953125 120.003906 L 163.617188 119.566406 L 171.28125 119.144531 L 178.945312 118.742188 L 186.609375 118.355469 L 194.273438 117.988281 L 201.9375 117.640625 L 209.601562 117.308594 L 217.261719 116.996094 L 224.925781 116.699219 L 232.589844 116.421875 L 240.253906 116.164062 L 247.917969 115.925781 L 255.582031 115.703125 L 263.246094 115.5 L 270.910156 115.3125 L 278.574219 115.148438 L 286.234375 115 L 293.898438 114.867188 L 301.5625 114.757812 L 309.226562 114.664062 L 316.890625 114.59375 L 324.554688 114.539062 L 332.21875 114.503906 L 339.882812 114.488281 L 347.546875 114.488281 L 355.210938 114.511719 L 362.871094 114.554688 L 370.535156 114.613281 L 378.199219 115.949219 L 385.863281 118.304688 L 393.527344 120.671875 L 401.191406 123.046875 L 408.855469 125.40625 L 416.519531 125.882812 L 424.183594 126.386719 L 431.84375 126.917969 L 439.507812 127.46875 L 447.171875 128.042969 L 454.835938 128.640625 L 462.5 129.265625 L 470.164062 130.695312 L 477.828125 132.765625 L 493.15625 136.921875 L 500.816406 139.007812 L 508.480469 141.097656 L 523.808594 145.292969 L 531.472656 147.398438 L 539.136719 149.511719 L 546.800781 151.628906 L 554.464844 153.753906 L 562.128906 155.886719 L 569.789062 158.023438 L 577.453125 160.132812 L 585.117188 161.292969 L 592.78125 162.472656 L 600.445312 163.675781 L 608.109375 164.894531 L 615.773438 166.136719 L 623.4375 167.394531 L 631.101562 168.671875 L 638.761719 169.96875 L 646.425781 171.285156 L 654.089844 172.621094 L 661.753906 173.976562 L 669.417969 175.347656 L 677.082031 176.953125 L 684.746094 179.066406 L 692.410156 181.175781 L 700.074219 183.28125 L 707.734375 185.382812 L 715.398438 187.480469 L 730.726562 191.660156 L 746.054688 195.824219 L 761.382812 199.972656 L 776.710938 204.105469 L 784.371094 206.167969 L 799.699219 210.285156 L 815.027344 214.394531 L 845.683594 222.597656 "/>
<path fill="none" stroke-width="1.5" stroke-linecap="butt" stroke-linejoin="miter" stroke="rgb(50.196081%, 50.196081%, 50.196081%)" stroke-opacity="0.5" stroke-miterlimit="2" d="M 79.316406 125.375 L 86.980469 124.070312 L 94.644531 122.78125 L 102.308594 121.515625 L 109.972656 120.265625 L 117.636719 119.039062 L 125.300781 117.828125 L 132.964844 116.640625 L 140.628906 115.46875 L 148.289062 114.320312 L 155.953125 113.1875 L 163.617188 112.078125 L 171.28125 110.988281 L 178.945312 109.917969 L 186.609375 108.867188 L 194.273438 107.835938 L 201.9375 106.828125 L 209.601562 105.839844 L 217.261719 104.871094 L 224.925781 103.925781 L 232.589844 103 L 240.253906 102.09375 L 247.917969 101.207031 L 255.582031 100.34375 L 263.246094 99.503906 L 270.910156 98.683594 L 278.574219 97.886719 L 286.234375 97.109375 L 293.898438 96.351562 L 301.5625 95.617188 L 309.226562 95.113281 L 316.890625 97.390625 L 324.554688 99.679688 L 332.21875 101.976562 L 339.882812 104.28125 L 347.546875 106.597656 L 355.210938 108.921875 L 362.871094 111.253906 L 370.535156 113.597656 L 378.199219 114.695312 L 385.863281 114.792969 L 393.527344 114.914062 L 401.191406 115.054688 L 408.855469 115.214844 L 416.519531 116.292969 L 424.183594 118.339844 L 431.84375 120.390625 L 439.507812 122.441406 L 454.835938 126.558594 L 462.5 128.625 L 470.164062 129.914062 L 477.828125 130.585938 L 485.492188 131.28125 L 493.15625 132 L 500.816406 132.746094 L 508.480469 133.515625 L 516.144531 134.308594 L 523.808594 135.125 L 531.472656 136.523438 L 539.136719 138.632812 L 546.800781 140.746094 L 562.128906 144.988281 L 569.789062 147.117188 L 577.453125 149.246094 L 585.117188 151.378906 L 608.109375 157.789062 L 615.773438 159.921875 L 631.101562 164.195312 L 638.761719 166.328125 L 654.089844 170.585938 L 661.753906 172.710938 L 669.417969 174.832031 L 677.082031 176.742188 L 684.746094 178.148438 L 692.410156 179.578125 L 700.074219 181.023438 L 707.734375 182.488281 L 715.398438 183.96875 L 723.0625 185.46875 L 730.726562 186.984375 L 738.390625 188.519531 L 746.054688 190.066406 L 753.71875 191.632812 L 761.382812 193.214844 L 769.046875 194.816406 L 776.710938 196.429688 L 784.371094 198.058594 L 792.035156 199.703125 L 799.699219 201.363281 L 807.363281 203.039062 L 815.027344 204.730469 L 822.691406 206.433594 L 830.355469 208.148438 L 838.019531 209.882812 L 845.683594 211.625 "/>
<path fill="none" stroke-width="1.5" stroke-linecap="butt" stroke-linejoin="miter" stroke="rgb(50.196081%, 50.196081%, 50.196081%)" stroke-opacity="0.5" stroke-miterlimit="2" d="M 79.316406 31.683594 L 86.980469 33.628906 L 94.644531 35.589844 L 102.308594 37.5625 L 109.972656 39.546875 L 117.636719 41.542969 L 125.300781 43.550781 L 132.964844 45.570312 L 140.628906 47.601562 L 148.289062 49.648438 L 155.953125 51.703125 L 163.617188 53.769531 L 171.28125 55.847656 L 178.945312 57.9375 L 186.609375 60.039062 L 194.273438 62.148438 L 201.9375 64.273438 L 209.601562 66.40625 L 217.261719 68.554688 L 224.925781 70.710938 L 232.589844 72.875 L 240.253906 75.054688 L 247.917969 77.242188 L 255.582031 79.441406 L 263.246094 81.648438 L 270.910156 83.867188 L 278.574219 86.097656 L 286.234375 88.335938 L 293.898438 90.585938 L 301.5625 92.84375 L 309.226562 94.90625 L 316.890625 94.21875 L 324.554688 93.550781 L 332.21875 94.035156 L 339.882812 96.039062 L 347.546875 98.046875 L 355.210938 100.058594 L 362.871094 102.074219 L 370.535156 104.09375 L 378.199219 106.117188 L 385.863281 108.144531 L 393.527344 110.175781 L 401.191406 112.210938 L 408.855469 114.25 L 416.519531 115.394531 L 424.183594 115.59375 L 431.84375 115.8125 L 439.507812 116.050781 L 447.171875 116.3125 L 454.835938 116.59375 L 462.5 117.851562 L 470.164062 119.894531 L 477.828125 121.945312 L 485.492188 124.003906 L 493.15625 126.070312 L 500.816406 128.148438 L 508.480469 130.230469 L 516.144531 132.320312 L 523.808594 134.417969 L 531.472656 135.964844 L 539.136719 136.832031 L 546.800781 137.722656 L 554.464844 138.636719 L 562.128906 139.578125 L 569.789062 140.539062 L 577.453125 141.527344 L 585.117188 142.539062 L 592.78125 143.574219 L 600.445312 144.632812 L 608.109375 145.71875 L 615.773438 146.824219 L 623.4375 147.957031 L 631.101562 149.109375 L 638.761719 150.289062 L 646.425781 151.492188 L 654.089844 153.273438 L 661.753906 155.183594 L 669.417969 157.101562 L 677.082031 159.023438 L 684.746094 160.953125 L 692.410156 162.886719 L 700.074219 164.828125 L 707.734375 166.773438 L 715.398438 168.726562 L 723.0625 170.683594 L 730.726562 172.648438 L 738.390625 174.617188 L 746.054688 176.589844 L 753.71875 178.570312 L 769.046875 182.546875 L 776.710938 184.542969 L 784.371094 186.546875 L 792.035156 188.550781 L 799.699219 190.5625 L 807.363281 192.578125 L 822.691406 196.625 L 830.355469 198.65625 L 838.019531 200.691406 L 845.683594 202.730469 "/>
<path fill="none" stroke-width="1.5" stroke-linecap="butt" stroke-linejoin="miter" stroke="rgb(50.196081%, 50.196081%, 50.196081%)" stroke-opacity="0.5" stroke-miterlimit="2" d="M 79.316406 31.683594 L 86.980469 33.425781 L 94.644531 35.179688 L 102.308594 36.945312 L 109.972656 38.726562 L 117.636719 40.511719 L 125.300781 42.3125 L 132.964844 44.121094 L 140.628906 45.941406 L 148.289062 47.769531 L 155.953125 49.609375 L 163.617188 51.460938 L 171.28125 53.316406 L 178.945312 55.183594 L 186.609375 57.058594 L 194.273438 58.941406 L 201.9375 60.835938 L 209.601562 62.734375 L 217.261719 64.640625 L 224.925781 66.558594 L 232.589844 68.480469 L 240.253906 70.410156 L 247.917969 72.34375 L 255.582031 74.289062 L 263.246094 76.238281 L 270.910156 78.191406 L 278.574219 80.152344 L 286.234375 82.121094 L 293.898438 84.09375 L 301.5625 86.070312 L 309.226562 88.054688 L 316.890625 90.042969 L 324.554688 92.039062 L 332.21875 92.90625 L 339.882812 92.28125 L 347.546875 91.683594 L 355.210938 91.105469 L 362.871094 92.28125 L 370.535156 94.175781 L 378.199219 96.085938 L 385.863281 98.007812 L 393.527344 99.941406 L 401.191406 101.886719 L 408.855469 103.847656 L 416.519531 105.816406 L 424.183594 107.792969 L 431.84375 109.785156 L 439.507812 111.785156 L 447.171875 113.796875 L 454.835938 115.820312 L 462.5 116.894531 L 470.164062 117.214844 L 477.828125 117.558594 L 485.492188 117.917969 L 493.15625 118.300781 L 500.816406 118.707031 L 508.480469 119.128906 L 516.144531 120.003906 L 523.808594 121.792969 L 531.472656 123.589844 L 539.136719 125.394531 L 546.800781 127.207031 L 554.464844 129.023438 L 562.128906 130.851562 L 569.789062 132.683594 L 577.453125 134.519531 L 585.117188 136.367188 L 592.78125 138.21875 L 600.445312 140.078125 L 608.109375 141.945312 L 615.773438 143.816406 L 623.4375 145.695312 L 631.101562 147.578125 L 638.761719 149.472656 L 646.425781 151.367188 L 654.089844 152.714844 L 661.753906 153.960938 L 669.417969 155.234375 L 677.082031 156.527344 L 684.746094 157.84375 L 692.410156 159.179688 L 700.074219 160.539062 L 707.734375 161.921875 L 715.398438 163.324219 L 723.0625 164.75 L 730.726562 166.199219 L 738.390625 167.664062 L 746.054688 169.152344 L 753.71875 170.664062 L 761.382812 172.191406 L 769.046875 173.742188 L 776.710938 175.3125 L 784.371094 176.898438 L 792.035156 178.507812 L 799.699219 180.132812 L 807.363281 181.78125 L 815.027344 183.445312 L 822.691406 185.125 L 830.355469 186.828125 L 838.019531 188.542969 L 845.683594 190.277344 "/>
<path fill="none" stroke-width="1.5" stroke-linecap="butt" stroke-linejoin="miter" stroke="rgb(50.196081%, 50.196081%, 50.196081%)" stroke-opacity="0.5" stroke-miterlimit="2" d="M 79.316406 31.683594 L 86.980469 33.066406 L 94.644531 34.464844 L 102.308594 35.875 L 109.972656 37.300781 L 117.636719 38.742188 L 125.300781 40.195312 L 132.964844 41.664062 L 140.628906 43.144531 L 148.289062 44.640625 L 155.953125 46.152344 L 163.617188 47.675781 L 171.28125 49.214844 L 178.945312 50.769531 L 186.609375 52.335938 L 194.273438 53.917969 L 201.9375 55.515625 L 209.601562 57.125 L 217.261719 58.75 L 224.925781 60.390625 L 232.589844 62.046875 L 240.253906 63.714844 L 247.917969 65.394531 L 255.582031 67.09375 L 263.246094 68.800781 L 270.910156 70.527344 L 278.574219 72.265625 L 286.234375 74.015625 L 293.898438 75.785156 L 301.5625 77.5625 L 309.226562 79.355469 L 316.890625 81.164062 L 324.554688 82.984375 L 332.21875 84.816406 L 339.882812 86.664062 L 347.546875 88.523438 L 355.210938 90.394531 L 362.871094 90.550781 L 370.535156 90.015625 L 378.199219 89.507812 L 385.863281 90.695312 L 393.527344 92.359375 L 401.191406 94.03125 L 408.855469 95.707031 L 416.519531 97.394531 L 424.183594 99.089844 L 431.84375 100.792969 L 439.507812 102.5 L 447.171875 104.21875 L 454.835938 105.941406 L 462.5 107.675781 L 470.164062 109.414062 L 477.828125 111.160156 L 485.492188 112.914062 L 493.15625 114.675781 L 500.816406 116.445312 L 508.480469 118.222656 L 516.144531 119.574219 L 523.808594 120.042969 L 531.472656 120.527344 L 539.136719 121.035156 L 546.800781 121.566406 L 554.464844 122.113281 L 562.128906 122.683594 L 569.789062 123.277344 L 577.453125 123.886719 L 585.117188 124.519531 L 592.78125 125.171875 L 600.445312 125.847656 L 608.109375 126.539062 L 615.773438 127.253906 L 623.4375 128.675781 L 631.101562 130.398438 L 638.761719 132.140625 L 646.425781 133.898438 L 654.089844 135.675781 L 661.753906 137.46875 L 669.417969 139.277344 L 677.082031 141.105469 L 684.746094 142.949219 L 692.410156 144.8125 L 700.074219 146.695312 L 707.734375 148.59375 L 715.398438 150.511719 L 723.0625 152.449219 L 730.726562 154.398438 L 738.390625 156.371094 L 746.054688 158.355469 L 753.71875 160.359375 L 761.382812 162.382812 L 769.046875 164.417969 L 776.710938 166.46875 L 784.371094 168.539062 L 792.035156 170.621094 L 799.699219 172.71875 L 807.363281 174.832031 L 815.027344 176.960938 L 822.691406 179.097656 L 830.355469 181.253906 L 838.019531 183.417969 L 845.683594 185.597656 "/>
<path fill="none" stroke-width="1.5" stroke-linecap="butt" stroke-linejoin="miter" stroke="rgb(50.196081%, 50.196081%, 50.196081%)" stroke-opacity="0.5" stroke-miterlimit="2" d="M 79.316406 31.683594 L 86.980469 32.941406 L 94.644531 34.214844 L 102.308594 35.503906 L 109.972656 36.804688 L 117.636719 38.117188 L 125.300781 39.441406 L 132.964844 40.78125 L 140.628906 42.128906 L 148.289062 43.492188 L 155.953125 44.867188 L 163.617188 46.25 L 171.28125 47.648438 L 178.945312 49.054688 L 186.609375 50.472656 L 194.273438 51.902344 L 201.9375 53.339844 L 209.601562 54.792969 L 217.261719 56.25 L 224.925781 57.722656 L 232.589844 59.199219 L 240.253906 60.691406 L 247.917969 62.191406 L 255.582031 63.699219 L 263.246094 65.214844 L 270.910156 66.742188 L 278.574219 68.28125 L 286.234375 69.824219 L 293.898438 71.378906 L 301.5625 72.941406 L 309.226562 74.515625 L 316.890625 76.09375 L 324.554688 77.683594 L 332.21875 79.28125 L 339.882812 80.886719 L 347.546875 82.503906 L 355.210938 84.125 L 362.871094 85.753906 L 370.535156 87.394531 L 378.199219 89.042969 L 385.863281 89.019531 L 393.527344 88.558594 L 401.191406 88.117188 L 408.855469 87.699219 L 416.519531 87.304688 L 424.183594 88.152344 L 431.84375 89.589844 L 439.507812 91.039062 L 447.171875 92.492188 L 454.835938 93.957031 L 462.5 95.429688 L 470.164062 96.910156 L 477.828125 98.398438 L 485.492188 99.894531 L 493.15625 101.402344 L 500.816406 102.917969 L 508.480469 104.441406 L 516.144531 105.976562 L 523.808594 107.519531 L 531.472656 109.074219 L 539.136719 110.640625 L 546.800781 112.214844 L 554.464844 113.804688 L 562.128906 115.402344 L 569.789062 117.015625 L 577.453125 118.636719 L 585.117188 120.273438 L 592.78125 121.925781 L 600.445312 123.589844 L 608.109375 125.269531 L 615.773438 126.964844 L 623.4375 127.992188 L 631.101562 128.746094 L 638.761719 129.789062 L 646.425781 131.574219 L 654.089844 133.367188 L 661.753906 135.167969 L 669.417969 136.984375 L 677.082031 138.808594 L 684.746094 140.644531 L 692.410156 142.488281 L 700.074219 144.34375 L 707.734375 146.207031 L 715.398438 148.082031 L 723.0625 149.964844 L 730.726562 151.859375 L 738.390625 153.765625 L 746.054688 155.675781 L 753.71875 157.601562 L 761.382812 159.53125 L 769.046875 161.472656 L 776.710938 163.425781 L 784.371094 165.386719 L 792.035156 167.355469 L 799.699219 169.332031 L 807.363281 171.320312 L 815.027344 173.3125 L 822.691406 175.320312 L 830.355469 177.332031 L 838.019531 179.351562 L 845.683594 181.382812 "/>
<path fill="none" stroke-width="1.5" stroke-linecap="butt" stroke-linejoin="miter" stroke="rgb(50.196081%, 50.196081%, 50.196081%)" stroke-opacity="0.5" stroke-miterlimit="2" d="M 79.316406 31.683594 L 86.980469 32.734375 L 94.644531 33.800781 L 102.308594 34.875 L 109.972656 35.964844 L 117.636719 37.058594 L 125.300781 38.164062 L 132.964844 39.28125 L 140.628906 40.410156 L 148.289062 41.542969 L 155.953125 42.691406 L 163.617188 43.847656 L 171.28125 45.011719 L 178.945312 46.183594 L 186.609375 47.367188 L 194.273438 48.558594 L 201.9375 49.761719 L 209.601562 50.972656 L 217.261719 52.191406 L 224.925781 53.417969 L 232.589844 54.65625 L 240.253906 55.898438 L 247.917969 57.152344 L 255.582031 58.414062 L 263.246094 59.683594 L 270.910156 60.960938 L 278.574219 62.25 L 286.234375 63.542969 L 293.898438 64.84375 L 301.5625 66.15625 L 309.226562 67.472656 L 316.890625 68.796875 L 324.554688 70.128906 L 332.21875 71.472656 L 339.882812 72.820312 L 347.546875 74.175781 L 355.210938 75.539062 L 362.871094 76.910156 L 370.535156 78.289062 L 378.199219 79.675781 L 385.863281 81.070312 L 393.527344 82.46875 L 401.191406 83.878906 L 408.855469 85.296875 L 416.519531 86.71875 L 424.183594 86.9375 L 431.84375 86.589844 L 439.507812 87.363281 L 447.171875 88.847656 L 454.835938 90.34375 L 462.5 91.855469 L 470.164062 93.375 L 477.828125 94.910156 L 485.492188 96.457031 L 493.15625 98.011719 L 500.816406 99.582031 L 508.480469 101.164062 L 516.144531 102.757812 L 523.808594 104.363281 L 531.472656 105.976562 L 539.136719 107.605469 L 546.800781 109.246094 L 554.464844 110.894531 L 562.128906 112.558594 L 569.789062 114.230469 L 577.453125 115.917969 L 585.117188 117.613281 L 592.78125 119.320312 L 600.445312 121.039062 L 608.109375 122.765625 L 615.773438 124.507812 L 623.4375 126.257812 L 631.101562 128.019531 L 638.761719 129.523438 L 646.425781 130.316406 L 654.089844 131.132812 L 661.753906 131.96875 L 669.417969 132.824219 L 677.082031 133.699219 L 684.746094 134.59375 L 692.410156 135.507812 L 700.074219 136.441406 L 707.734375 137.394531 L 715.398438 138.363281 L 723.0625 139.351562 L 730.726562 140.542969 L 738.390625 142.46875 L 746.054688 144.878906 L 753.71875 147.296875 L 761.382812 149.722656 L 769.046875 152.152344 L 776.710938 154.585938 L 784.371094 157.023438 L 792.035156 159.46875 L 799.699219 161.917969 L 807.363281 164.371094 L 815.027344 166.828125 L 830.355469 171.757812 L 838.019531 174.226562 L 845.683594 176.699219 "/>
<path fill="none" stroke-width="1.5" stroke-linecap="butt" stroke-linejoin="miter" stroke="rgb(50.196081%, 50.196081%, 50.196081%)" stroke-opacity="0.5" stroke-miterlimit="2" d="M 79.316406 31.683594 L 86.980469 32.582031 L 94.644531 33.492188 L 102.308594 34.414062 L 109.972656 35.347656 L 117.636719 36.296875 L 125.300781 37.253906 L 132.964844 38.226562 L 140.628906 39.207031 L 148.289062 40.203125 L 155.953125 41.210938 L 163.617188 42.230469 L 171.28125 43.265625 L 178.945312 44.308594 L 186.609375 45.367188 L 194.273438 46.4375 L 201.9375 47.519531 L 209.601562 48.617188 L 217.261719 49.722656 L 224.925781 50.84375 L 232.589844 51.976562 L 240.253906 53.125 L 247.917969 54.28125 L 255.582031 55.453125 L 263.246094 56.636719 L 270.910156 57.832031 L 278.574219 59.042969 L 286.234375 60.265625 L 293.898438 61.5 L 301.5625 62.746094 L 309.226562 64.007812 L 316.890625 65.28125 L 324.554688 66.566406 L 332.21875 67.867188 L 339.882812 69.175781 L 347.546875 70.5 L 355.210938 71.835938 L 362.871094 73.1875 L 370.535156 74.546875 L 378.199219 75.921875 L 385.863281 77.308594 L 393.527344 78.707031 L 401.191406 80.117188 L 408.855469 81.542969 L 416.519531 82.980469 L 424.183594 84.425781 L 431.84375 85.886719 L 439.507812 86.265625 L 447.171875 85.964844 L 454.835938 85.6875 L 462.5 85.4375 L 470.164062 86.109375 L 477.828125 87.574219 L 485.492188 89.054688 L 493.15625 90.550781 L 500.816406 92.054688 L 508.480469 93.574219 L 516.144531 95.101562 L 523.808594 96.644531 L 531.472656 98.195312 L 539.136719 99.761719 L 546.800781 101.332031 L 554.464844 102.914062 L 562.128906 104.507812 L 569.789062 106.105469 L 577.453125 107.714844 L 585.117188 109.328125 L 592.78125 110.949219 L 608.109375 114.207031 L 615.773438 115.84375 L 623.4375 117.484375 L 631.101562 119.128906 L 638.761719 120.773438 L 669.417969 127.367188 L 677.082031 129.019531 L 700.074219 133.964844 L 707.734375 135.613281 L 723.0625 138.902344 L 730.726562 140.359375 L 738.390625 142.183594 L 746.054688 143.824219 L 769.046875 148.734375 L 776.710938 150.367188 L 784.371094 152 L 792.035156 153.628906 L 799.699219 155.261719 L 807.363281 156.890625 L 815.027344 158.523438 L 845.683594 165.039062 "/>
<path fill="none" stroke-width="1.5" stroke-linecap="butt" stroke-linejoin="miter" stroke="rgb(50.196081%, 50.196081%, 50.196081%)" stroke-opacity="0.5" stroke-miterlimit="2" d="M 79.316406 31.683594 L 86.980469 32.375 L 94.644531 33.085938 L 102.308594 33.804688 L 109.972656 34.539062 L 117.636719 35.285156 L 125.300781 36.046875 L 132.964844 36.820312 L 140.628906 37.609375 L 148.289062 38.414062 L 155.953125 39.230469 L 163.617188 40.0625 L 171.28125 40.910156 L 178.945312 41.769531 L 186.609375 42.644531 L 194.273438 43.535156 L 201.9375 44.441406 L 209.601562 45.363281 L 217.261719 46.300781 L 224.925781 47.253906 L 232.589844 48.222656 L 240.253906 49.203125 L 247.917969 50.203125 L 255.582031 51.21875 L 263.246094 52.25 L 270.910156 53.296875 L 278.574219 54.359375 L 286.234375 55.4375 L 293.898438 56.535156 L 301.5625 57.644531 L 309.226562 58.773438 L 316.890625 59.917969 L 324.554688 61.078125 L 332.21875 62.253906 L 339.882812 63.445312 L 347.546875 64.652344 L 355.210938 65.875 L 362.871094 67.117188 L 370.535156 68.375 L 378.199219 69.644531 L 385.863281 70.933594 L 393.527344 72.238281 L 401.191406 73.554688 L 408.855469 74.890625 L 416.519531 76.242188 L 424.183594 77.605469 L 431.84375 78.988281 L 439.507812 80.382812 L 447.171875 81.792969 L 454.835938 83.21875 L 462.5 84.65625 L 470.164062 85.207031 L 477.828125 85.003906 L 485.492188 84.824219 L 493.15625 84.664062 L 500.816406 85.542969 L 508.480469 86.78125 L 516.144531 88.027344 L 523.808594 89.28125 L 531.472656 90.539062 L 539.136719 91.808594 L 546.800781 93.085938 L 554.464844 94.375 L 562.128906 95.667969 L 569.789062 96.96875 L 577.453125 98.277344 L 585.117188 99.59375 L 592.78125 100.917969 L 600.445312 102.25 L 608.109375 103.589844 L 615.773438 104.9375 L 623.4375 106.972656 L 631.101562 109.308594 L 638.761719 111.644531 L 646.425781 113.980469 L 654.089844 116.324219 L 669.417969 121.027344 L 677.082031 123.386719 L 684.746094 125.75 L 692.410156 128.121094 L 700.074219 130.496094 L 707.734375 132.878906 L 715.398438 135.269531 L 723.0625 137.664062 L 730.726562 140.0625 L 738.390625 141.386719 L 746.054688 142.429688 L 753.71875 143.492188 L 761.382812 144.570312 L 769.046875 145.667969 L 776.710938 146.78125 L 784.371094 147.910156 L 792.035156 149.058594 L 799.699219 150.222656 L 807.363281 151.402344 L 815.027344 152.597656 L 822.691406 153.808594 L 830.355469 155.035156 L 838.019531 156.277344 L 845.683594 157.53125 "/>
<path fill="none" stroke-width="1.5" stroke-linecap="butt" stroke-linejoin="miter" stroke="rgb(50.196081%, 50.196081%, 50.196081%)" stroke-opacity="0.5" stroke-miterlimit="2" d="M 79.316406 31.683594 L 86.980469 32.375 L 94.644531 33.082031 L 102.308594 33.804688 L 109.972656 34.535156 L 117.636719 35.277344 L 125.300781 36.03125 L 132.964844 36.796875 L 140.628906 37.574219 L 148.289062 38.363281 L 155.953125 39.164062 L 163.617188 39.976562 L 171.28125 40.800781 L 178.945312 41.632812 L 186.609375 42.480469 L 194.273438 43.335938 L 201.9375 44.199219 L 209.601562 45.078125 L 217.261719 45.964844 L 224.925781 46.863281 L 232.589844 47.773438 L 240.253906 48.691406 L 247.917969 49.621094 L 255.582031 50.558594 L 263.246094 51.507812 L 270.910156 52.464844 L 278.574219 53.433594 L 286.234375 54.414062 L 293.898438 55.402344 L 301.5625 56.398438 L 309.226562 57.40625 L 316.890625 58.425781 L 324.554688 59.453125 L 332.21875 60.488281 L 339.882812 61.53125 L 347.546875 62.585938 L 355.210938 63.652344 L 362.871094 64.726562 L 370.535156 65.808594 L 378.199219 66.898438 L 385.863281 68 L 393.527344 69.105469 L 401.191406 70.226562 L 408.855469 71.351562 L 416.519531 72.488281 L 424.183594 73.632812 L 431.84375 74.785156 L 439.507812 75.945312 L 447.171875 77.117188 L 454.835938 78.296875 L 462.5 79.480469 L 470.164062 80.679688 L 477.828125 81.882812 L 485.492188 83.09375 L 493.15625 84.316406 L 500.816406 84.53125 L 508.480469 84.421875 L 516.144531 84.339844 L 523.808594 84.277344 L 531.472656 85.265625 L 539.136719 86.523438 L 546.800781 87.792969 L 554.464844 89.074219 L 562.128906 90.367188 L 569.789062 91.671875 L 577.453125 93.027344 L 585.117188 95.347656 L 592.78125 97.671875 L 600.445312 99.992188 L 608.109375 102.320312 L 615.773438 104.644531 L 623.4375 106.292969 L 631.101562 107.652344 L 638.761719 109.023438 L 646.425781 110.402344 L 654.089844 111.785156 L 661.753906 113.175781 L 669.417969 114.574219 L 677.082031 115.980469 L 684.746094 117.394531 L 692.410156 118.816406 L 700.074219 120.242188 L 707.734375 121.679688 L 715.398438 123.121094 L 723.0625 124.566406 L 730.726562 126.207031 L 738.390625 128.28125 L 746.054688 130.347656 L 753.71875 132.398438 L 761.382812 134.4375 L 769.046875 136.464844 L 776.710938 138.480469 L 784.371094 140.484375 L 792.035156 142.476562 L 799.699219 144.460938 L 807.363281 146.429688 L 815.027344 148.390625 L 822.691406 150.34375 L 830.355469 152.285156 L 838.019531 154.21875 L 845.683594 156.144531 "/>
<path fill="none" stroke-width="1.5" stroke-linecap="butt" stroke-linejoin="miter" stroke="rgb(50.196081%, 50.196081%, 50.196081%)" stroke-opacity="0.5" stroke-miterlimit="2" d="M 79.316406 31.683594 L 86.980469 32.253906 L 94.644531 32.835938 L 102.308594 33.433594 L 109.972656 34.042969 L 117.636719 34.664062 L 125.300781 35.296875 L 132.964844 35.941406 L 140.628906 36.597656 L 148.289062 37.265625 L 155.953125 37.945312 L 163.617188 38.636719 L 171.28125 39.339844 L 178.945312 40.054688 L 186.609375 40.78125 L 194.273438 41.519531 L 201.9375 42.269531 L 209.601562 43.027344 L 217.261719 43.800781 L 224.925781 44.582031 L 232.589844 45.375 L 240.253906 46.183594 L 247.917969 47 L 255.582031 47.824219 L 263.246094 48.664062 L 270.910156 49.515625 L 278.574219 50.375 L 286.234375 51.246094 L 293.898438 52.128906 L 301.5625 53.027344 L 309.226562 53.929688 L 316.890625 54.847656 L 324.554688 55.777344 L 332.21875 56.71875 L 339.882812 57.667969 L 347.546875 58.632812 L 355.210938 59.605469 L 362.871094 60.59375 L 370.535156 61.589844 L 378.199219 62.601562 L 385.863281 63.621094 L 393.527344 64.652344 L 401.191406 65.699219 L 408.855469 66.753906 L 416.519531 67.820312 L 424.183594 68.902344 L 431.84375 69.992188 L 439.507812 71.097656 L 447.171875 72.210938 L 454.835938 73.339844 L 462.5 74.476562 L 470.164062 75.628906 L 477.828125 76.792969 L 485.492188 77.96875 L 493.15625 79.152344 L 500.816406 80.351562 L 508.480469 81.5625 L 516.144531 82.785156 L 523.808594 84.019531 L 531.472656 84.238281 L 539.136719 84.226562 L 546.800781 84.238281 L 554.464844 86.0625 L 562.128906 88.382812 L 569.789062 90.707031 L 577.453125 92.988281 L 585.117188 94.316406 L 592.78125 95.652344 L 600.445312 97.003906 L 608.109375 98.363281 L 615.773438 99.734375 L 623.4375 101.117188 L 631.101562 102.511719 L 638.761719 103.917969 L 646.425781 105.332031 L 654.089844 106.753906 L 661.753906 108.191406 L 669.417969 109.632812 L 677.082031 111.300781 L 684.746094 113.46875 L 692.410156 115.625 L 700.074219 117.765625 L 707.734375 119.898438 L 715.398438 122.011719 L 723.0625 124.117188 L 730.726562 126.023438 L 738.390625 127.484375 L 746.054688 128.953125 L 753.71875 130.429688 L 761.382812 131.910156 L 769.046875 133.398438 L 776.710938 134.894531 L 784.371094 136.398438 L 792.035156 137.90625 L 799.699219 139.417969 L 807.363281 140.941406 L 815.027344 142.46875 L 822.691406 144 L 830.355469 145.539062 L 838.019531 147.085938 L 845.683594 148.636719 "/>
<path fill="none" stroke-width="1.5" stroke-linecap="butt" stroke-linejoin="miter" stroke="rgb(50.196081%, 50.196081%, 50.196081%)" stroke-opacity="0.5" stroke-miterlimit="2" d="M 79.316406 31.683594 L 86.980469 32.171875 L 94.644531 32.675781 L 102.308594 33.191406 L 109.972656 33.71875 L 117.636719 34.257812 L 125.300781 34.808594 L 132.964844 35.371094 L 140.628906 35.949219 L 148.289062 36.539062 L 155.953125 37.140625 L 163.617188 37.753906 L 171.28125 38.378906 L 178.945312 39.015625 L 186.609375 39.667969 L 194.273438 40.328125 L 201.9375 41.003906 L 209.601562 41.691406 L 217.261719 42.390625 L 224.925781 43.101562 L 232.589844 43.824219 L 240.253906 44.558594 L 247.917969 45.308594 L 255.582031 46.066406 L 263.246094 46.839844 L 270.910156 47.621094 L 278.574219 48.417969 L 286.234375 49.222656 L 293.898438 50.042969 L 301.5625 50.871094 L 309.226562 51.714844 L 316.890625 52.570312 L 324.554688 53.433594 L 332.21875 54.3125 L 339.882812 55.199219 L 347.546875 56.101562 L 355.210938 57.011719 L 362.871094 57.933594 L 370.535156 58.867188 L 378.199219 59.816406 L 385.863281 60.773438 L 393.527344 61.738281 L 401.191406 62.71875 L 408.855469 63.710938 L 416.519531 64.710938 L 424.183594 65.726562 L 431.84375 66.75 L 439.507812 67.785156 L 447.171875 68.832031 L 454.835938 69.886719 L 462.5 70.957031 L 470.164062 72.035156 L 477.828125 73.125 L 485.492188 74.226562 L 493.15625 75.339844 L 500.816406 76.464844 L 508.480469 77.597656 L 516.144531 78.742188 L 523.808594 79.898438 L 531.472656 81.066406 L 539.136719 82.246094 L 546.800781 83.738281 L 554.464844 84.632812 L 562.128906 85.84375 L 569.789062 87.066406 L 577.453125 88.300781 L 585.117188 89.542969 L 592.78125 90.796875 L 600.445312 92.0625 L 608.109375 93.339844 L 615.773438 94.625 L 623.4375 95.921875 L 631.101562 98.035156 L 638.761719 100.273438 L 646.425781 102.503906 L 654.089844 104.71875 L 661.753906 106.925781 L 669.417969 109.121094 L 677.082031 111.089844 L 684.746094 112.554688 L 692.410156 114.027344 L 700.074219 115.507812 L 707.734375 117 L 715.398438 118.503906 L 723.0625 120.011719 L 730.726562 121.53125 L 738.390625 123.058594 L 746.054688 124.589844 L 753.71875 126.132812 L 761.382812 127.683594 L 769.046875 129.242188 L 776.710938 130.804688 L 784.371094 132.375 L 792.035156 133.953125 L 799.699219 135.539062 L 807.363281 137.128906 L 815.027344 138.726562 L 830.355469 141.9375 L 845.683594 145.171875 "/>
<path fill="none" stroke-width="1.5" stroke-linecap="butt" stroke-linejoin="miter" stroke="rgb(50.196081%, 50.196081%, 50.196081%)" stroke-opacity="0.5" stroke-miterlimit="2" d="M 79.316406 31.683594 L 86.980469 32.046875 L 94.644531 32.425781 L 102.308594 32.816406 L 109.972656 33.21875 L 117.636719 33.632812 L 125.300781 34.054688 L 132.964844 34.492188 L 140.628906 34.933594 L 148.289062 35.390625 L 155.953125 35.855469 L 163.617188 36.328125 L 171.28125 36.808594 L 178.945312 37.300781 L 186.609375 37.804688 L 194.273438 38.3125 L 201.9375 38.828125 L 209.601562 39.355469 L 217.261719 39.890625 L 224.925781 40.429688 L 232.589844 40.980469 L 240.253906 41.535156 L 247.917969 42.101562 L 255.582031 42.671875 L 263.246094 43.253906 L 270.910156 43.839844 L 278.574219 44.429688 L 286.234375 45.03125 L 293.898438 45.636719 L 301.5625 46.253906 L 309.226562 46.875 L 316.890625 47.5 L 324.554688 48.136719 L 332.21875 48.777344 L 339.882812 49.425781 L 347.546875 50.078125 L 355.210938 50.742188 L 362.871094 51.410156 L 370.535156 52.085938 L 378.199219 52.769531 L 385.863281 53.460938 L 393.527344 54.15625 L 401.191406 54.859375 L 408.855469 55.574219 L 416.519531 56.292969 L 424.183594 57.019531 L 431.84375 57.753906 L 439.507812 58.496094 L 447.171875 59.25 L 454.835938 60.007812 L 462.5 60.777344 L 470.164062 61.554688 L 477.828125 62.722656 L 485.492188 65.070312 L 493.15625 67.414062 L 500.816406 69.753906 L 516.144531 74.425781 L 523.808594 76.757812 L 539.136719 81.414062 L 546.800781 83.433594 L 554.464844 84.273438 L 562.128906 84.332031 L 569.789062 84.414062 L 577.453125 84.519531 L 585.117188 84.648438 L 592.78125 86.695312 L 600.445312 88.980469 L 608.109375 91.257812 L 615.773438 93.523438 L 623.4375 95.785156 L 631.101562 97.230469 L 638.761719 98.550781 L 646.425781 99.882812 L 654.089844 101.222656 L 661.753906 102.574219 L 669.417969 103.9375 L 677.082031 105.308594 L 684.746094 106.695312 L 692.410156 108.089844 L 700.074219 109.496094 L 707.734375 110.910156 L 715.398438 112.339844 L 723.0625 113.777344 L 730.726562 115.226562 L 738.390625 116.683594 L 746.054688 118.152344 L 753.71875 119.632812 L 761.382812 121.125 L 769.046875 122.628906 L 776.710938 124.140625 L 784.371094 125.664062 L 792.035156 127.195312 L 799.699219 128.742188 L 807.363281 130.296875 L 815.027344 131.859375 L 822.691406 133.4375 L 830.355469 135.023438 L 838.019531 136.621094 L 845.683594 138.226562 "/>
<path fill="none" stroke-width="1" stroke-linecap="butt" stroke-linejoin="miter" stroke="rgb(0%, 0%, 0%)" stroke-opacity="1" stroke-miterlimit="1.154701" d="M 79.316406 361.5 L 79.316406 366.5 "/>
<path fill="none" stroke-width="1" stroke-linecap="butt" stroke-linejoin="miter" stroke="rgb(0%, 0%, 0%)" stroke-opacity="1" stroke-miterlimit="1.154701" d="M 270.910156 361.5 L 270.910156 366.5 "/>
<path fill="none" stroke-width="1" stroke-linecap="butt" stroke-linejoin="miter" stroke="rgb(0%, 0%, 0%)" stroke-opacity="1" stroke-miterlimit="1.154701" d="M 462.5 361.5 L 462.5 366.5 "/>
<path fill="none" stroke-width="1" stroke-linecap="butt" stroke-linejoin="miter" stroke="rgb(0%, 0%, 0%)" stroke-opacity="1" stroke-miterlimit="1.154701" d="M 654.089844 361.5 L 654.089844 366.5 "/>
<path fill="none" stroke-width="1" stroke-linecap="butt" stroke-linejoin="miter" stroke="rgb(0%, 0%, 0%)" stroke-opacity="1" stroke-miterlimit="1.154701" d="M 845.683594 361.5 L 845.683594 366.5 "/>
<path fill="none" stroke-width="1" stroke-linecap="butt" stroke-linejoin="miter" stroke="rgb(0%, 0%, 0%)" stroke-opacity="1" stroke-miterlimit="1.154701" d="M 40.5 312.761719 L 35.5 312.761719 "/>
<path fill="none" stroke-width="1" stroke-linecap="butt" stroke-linejoin="miter" stroke="rgb(0%, 0%, 0%)" stroke-opacity="1" stroke-miterlimit="1.154701" d="M 40.5 219.070312 L 35.5 219.070312 "/>
<path fill="none" stroke-width="1" stroke-linecap="butt" stroke-linejoin="miter" stroke="rgb(0%, 0%, 0%)" stroke-opacity="1" stroke-miterlimit="1.154701" d="M 40.5 125.375 L 35.5 125.375 "/>
<path fill="none" stroke-width="1" stroke-linecap="butt" stroke-linejoin="miter" stroke="rgb(0%, 0%, 0%)" stroke-opacity="1" stroke-miterlimit="1.154701" d="M 40.5 31.683594 L 35.5 31.683594 "/>
<path fill="none" stroke-width="1" stroke-linecap="butt" stroke-linejoin="miter" stroke="rgb(0%, 0%, 0%)" stroke-opacity="1" stroke-miterlimit="1.154701" d="M 40.5 361 L 884.5 361 "/>
<path fill="none" stroke-width="1" stroke-linecap="butt" stroke-linejoin="miter" stroke="rgb(0%, 0%, 0%)" stroke-opacity="1" stroke-miterlimit="1.154701" d="M 41 361.5 L 41 15.5 "/>
<path fill="none" stroke-width="1" stroke-linecap="butt" stroke-linejoin="miter" stroke="rgb(0%, 0%, 0%)" stroke-opacity="1" stroke-miterlimit="1.154701" d="M 40.5 16 L 884.5 16 "/>
<path fill="none" stroke-width="1" stroke-linecap="butt" stroke-linejoin="miter" stroke="rgb(0%, 0%, 0%)" stroke-opacity="1" stroke-miterlimit="1.154701" d="M 884 361.5 L 884 15.5 "/>
</svg>
