<?xml version="1.0" encoding="UTF-8"?>
<svg xmlns="http://www.w3.org/2000/svg" xmlns:xlink="http://www.w3.org/1999/xlink" width="900" height="400" viewBox="0 0 900 400">
<defs>
<g>
<g id="glyph-0-0-5ecc7662">
<path d="M 7.09375 -4.78125 C 7.09375 -1.515625 5.953125 0.203125 3.84375 0.203125 C 1.71875 0.203125 0.609375 -1.515625 0.609375 -4.859375 C 0.609375 -8.1875 1.703125 -9.921875 3.84375 -9.921875 C 6 -9.921875 7.09375 -8.21875 7.09375 -4.78125 Z M 5.84375 -4.890625 C 5.84375 -7.546875 5.1875 -8.828125 3.84375 -8.828125 C 2.515625 -8.828125 1.859375 -7.5625 1.859375 -4.84375 C 1.859375 -2.125 2.515625 -0.8125 3.828125 -0.8125 C 5.1875 -0.8125 5.84375 -2.078125 5.84375 -4.890625 Z M 5.84375 -4.890625 "/>
</g>
<g id="glyph-0-1-5ecc7662">
<path d="M 2.671875 0 C 2.671875 0 1.21875 0 1.21875 0 C 1.21875 0 1.21875 -1.453125 1.21875 -1.453125 C 1.21875 -1.453125 2.671875 -1.453125 2.671875 -1.453125 C 2.671875 -1.453125 2.671875 0 2.671875 0 Z M 2.671875 0 "/>
</g>
<g id="glyph-0-2-5ecc7662">
<path d="M 8.296875 -9.0625 C 8.296875 -9.0625 4.953125 -9.0625 4.953125 -9.0625 C 4.953125 -9.0625 4.953125 0 4.953125 0 C 4.953125 0 3.65625 0 3.65625 0 C 3.65625 0 3.65625 -9.0625 3.65625 -9.0625 C 3.65625 -9.0625 0.296875 -9.0625 0.296875 -9.0625 C 0.296875 -9.0625 0.296875 -10.203125 0.296875 -10.203125 C 0.296875 -10.203125 8.296875 -10.203125 8.296875 -10.203125 C 8.296875 -10.203125 8.296875 -9.0625 8.296875 -9.0625 Z M 8.296875 -9.0625 "/>
</g>
<g id="glyph-0-3-5ecc7662">
<path d="M 7.15625 -7.015625 C 7.15625 -5.796875 6.4375 -4.765625 5.046875 -4.015625 C 5.046875 -4.015625 3.65625 -3.265625 3.65625 -3.265625 C 2.4375 -2.546875 1.984375 -2.03125 1.859375 -1.21875 C 1.859375 -1.21875 7.078125 -1.21875 7.078125 -1.21875 C 7.078125 -1.21875 7.078125 0 7.078125 0 C 7.078125 0 0.46875 0 0.46875 0 C 0.59375 -2.1875 1.1875 -3.125 3.265625 -4.296875 C 3.265625 -4.296875 4.546875 -5.03125 4.546875 -5.03125 C 5.4375 -5.53125 5.890625 -6.203125 5.890625 -6.984375 C 5.890625 -8.046875 5.046875 -8.84375 3.9375 -8.84375 C 2.71875 -8.84375 2.03125 -8.140625 1.9375 -6.484375 C 1.9375 -6.484375 0.703125 -6.484375 0.703125 -6.484375 C 0.765625 -8.890625 1.953125 -9.921875 3.96875 -9.921875 C 5.859375 -9.921875 7.15625 -8.6875 7.15625 -7.015625 Z M 7.15625 -7.015625 "/>
</g>
<g id="glyph-0-4-5ecc7662">
<path d="M 7.1875 -3.296875 C 7.1875 -1.1875 5.78125 0.203125 3.78125 0.203125 C 2.015625 0.203125 0.890625 -0.578125 0.484375 -2.546875 C 0.484375 -2.546875 1.71875 -2.546875 1.71875 -2.546875 C 2.015625 -1.421875 2.671875 -0.875 3.75 -0.875 C 5.09375 -0.875 5.921875 -1.6875 5.921875 -3.125 C 5.921875 -4.59375 5.078125 -5.453125 3.75 -5.453125 C 2.984375 -5.453125 2.5 -5.203125 1.9375 -4.515625 C 1.9375 -4.515625 0.796875 -4.515625 0.796875 -4.515625 C 0.796875 -4.515625 1.546875 -9.71875 1.546875 -9.71875 C 1.546875 -9.71875 6.65625 -9.71875 6.65625 -9.71875 C 6.65625 -9.71875 6.65625 -8.5 6.65625 -8.5 C 6.65625 -8.5 2.53125 -8.5 2.53125 -8.5 C 2.53125 -8.5 2.140625 -5.9375 2.140625 -5.9375 C 2.71875 -6.359375 3.28125 -6.53125 3.96875 -6.53125 C 5.875 -6.53125 7.1875 -5.25 7.1875 -3.296875 Z M 7.1875 -3.296875 "/>
</g>
<g id="glyph-0-5-5ecc7662">
<path d="M 7.28125 -8.6875 C 5.1875 -6.203125 3.796875 -3.203125 3.25 0 C 3.25 0 1.9375 0 1.9375 0 C 2.625 -3.109375 4.03125 -6 6 -8.5 C 6 -8.5 0.640625 -8.5 0.640625 -8.5 C 0.640625 -8.5 0.640625 -9.71875 0.640625 -9.71875 C 0.640625 -9.71875 7.28125 -9.71875 7.28125 -9.71875 C 7.28125 -9.71875 7.28125 -8.6875 7.28125 -8.6875 Z M 7.28125 -8.6875 "/>
</g>
<g id="glyph-0-6-5ecc7662">
<path d="M 4.859375 0 C 4.859375 0 3.625 0 3.625 0 C 3.625 0 3.625 -7.0625 3.625 -7.0625 C 3.625 -7.0625 1.421875 -7.0625 1.421875 -7.0625 C 1.421875 -7.0625 1.421875 -7.953125 1.421875 -7.953125 C 3.328125 -8.1875 3.609375 -8.40625 4.046875 -9.921875 C 4.046875 -9.921875 4.859375 -9.921875 4.859375 -9.921875 C 4.859375 -9.921875 4.859375 0 4.859375 0 Z M 4.859375 0 "/>
</g>
<g id="glyph-0-7-5ecc7662">
<path d="M 7.21875 -3.03125 C 7.21875 -3.03125 0.953125 -3.03125 0.953125 -3.03125 C 0.953125 -3.03125 0.953125 -3.96875 0.953125 -3.96875 C 0.953125 -3.96875 7.21875 -3.96875 7.21875 -3.96875 C 7.21875 -3.96875 7.21875 -3.03125 7.21875 -3.03125 Z M 7.21875 -3.03125 "/>
</g>
<g id="glyph-0-8-5ecc7662">
<path d="M 7.28125 -2.375 C 7.28125 -2.375 5.8125 -2.375 5.8125 -2.375 C 5.8125 -2.375 5.8125 0 5.8125 0 C 5.8125 0 4.578125 0 4.578125 0 C 4.578125 0 4.578125 -2.375 4.578125 -2.375 C 4.578125 -2.375 0.390625 -2.375 0.390625 -2.375 C 0.390625 -2.375 0.390625 -3.6875 0.390625 -3.6875 C 0.390625 -3.6875 4.90625 -9.921875 4.90625 -9.921875 C 4.90625 -9.921875 5.8125 -9.921875 5.8125 -9.921875 C 5.8125 -9.921875 5.8125 -3.484375 5.8125 -3.484375 C 5.8125 -3.484375 7.28125 -3.484375 7.28125 -3.484375 C 7.28125 -3.484375 7.28125 -2.375 7.28125 -2.375 Z M 4.578125 -3.484375 C 4.578125 -3.484375 4.578125 -7.828125 4.578125 -7.828125 C 4.578125 -7.828125 1.46875 -3.484375 1.46875 -3.484375 C 1.46875 -3.484375 4.578125 -3.484375 4.578125 -3.484375 Z M 4.578125 -3.484375 "/>
</g>
<g id="glyph-0-9-5ecc7662">
<path d="M 7.078125 -2.890625 C 7.078125 -1.015625 5.765625 0.203125 3.71875 0.203125 C 1.6875 0.203125 0.609375 -0.78125 0.453125 -3 C 0.453125 -3 1.6875 -3 1.6875 -3 C 1.765625 -1.546875 2.421875 -0.875 3.765625 -0.875 C 5.046875 -0.875 5.828125 -1.625 5.828125 -2.875 C 5.828125 -3.96875 5.125 -4.625 3.765625 -4.625 C 3.765625 -4.625 3.09375 -4.625 3.09375 -4.625 C 3.09375 -4.625 3.09375 -5.65625 3.09375 -5.65625 C 5.0625 -5.65625 5.53125 -6.09375 5.53125 -7.15625 C 5.53125 -8.203125 4.875 -8.84375 3.78125 -8.84375 C 2.515625 -8.84375 1.921875 -8.1875 1.890625 -6.71875 C 1.890625 -6.71875 0.65625 -6.71875 0.65625 -6.71875 C 0.703125 -8.828125 1.765625 -9.921875 3.765625 -9.921875 C 5.65625 -9.921875 6.796875 -8.90625 6.796875 -7.203125 C 6.796875 -6.203125 6.328125 -5.5625 5.40625 -5.1875 C 6.59375 -4.78125 7.078125 -4.09375 7.078125 -2.890625 Z M 7.078125 -2.890625 "/>
</g>
<g id="glyph-1-0-5ecc7662">
<path d="M 7.09375 -4.78125 C 7.09375 -1.515625 5.953125 0.203125 3.84375 0.203125 C 1.71875 0.203125 0.609375 -1.515625 0.609375 -4.859375 C 0.609375 -8.1875 1.703125 -9.921875 3.84375 -9.921875 C 6 -9.921875 7.09375 -8.21875 7.09375 -4.78125 Z M 5.84375 -4.890625 C 5.84375 -7.546875 5.1875 -8.828125 3.84375 -8.828125 C 2.515625 -8.828125 1.859375 -7.5625 1.859375 -4.84375 C 1.859375 -2.125 2.515625 -0.8125 3.828125 -0.8125 C 5.1875 -0.8125 5.84375 -2.078125 5.84375 -4.890625 Z M 5.84375 -4.890625 "/>
</g>
</g>
</defs>
<rect x="-90" y="-40" width="1080" height="480" fill="rgb(100%, 100%, 100%)" fill-opacity="1"/>
<path fill-rule="nonzero" fill="rgb(100%, 100%, 100%)" fill-opacity="1" d="M 41 361 L 884 361 L 884 16 L 41 16 Z M 41 361 "/>
<path fill="none" stroke-width="1" stroke-linecap="butt" stroke-linejoin="miter" stroke="rgb(0%, 0%, 0%)" stroke-opacity="0.12" stroke-miterlimit="1.154701" d="M 79.316406 361 L 79.316406 16 "/>
<path fill="none" stroke-width="1" stroke-linecap="butt" stroke-linejoin="miter" stroke="rgb(0%, 0%, 0%)" stroke-opacity="0.12" stroke-miterlimit="1.154701" d="M 270.910156 361 L 270.910156 16 "/>
<path fill="none" stroke-width="1" stroke-linecap="butt" stroke-linejoin="miter" stroke="rgb(0%, 0%, 0%)" stroke-opacity="0.12" stroke-miterlimit="1.154701" d="M 462.5 361 L 462.5 16 "/>
<path fill="none" stroke-width="1" stroke-linecap="butt" stroke-linejoin="miter" stroke="rgb(0%, 0%, 0%)" stroke-opacity="0.12" stroke-miterlimit="1.154701" d="M 654.089844 361 L 654.089844 16 "/>
<path fill="none" stroke-width="1" stroke-linecap="butt" stroke-linejoin="miter" stroke="rgb(0%, 0%, 0%)" stroke-opacity="0.12" stroke-miterlimit="1.154701" d="M 845.683594 361 L 845.683594 16 "/>
<path fill="none" stroke-width="1" stroke-linecap="butt" stroke-linejoin="miter" stroke="rgb(0%, 0%, 0%)" stroke-opacity="0.12" stroke-miterlimit="1.154701" d="M 41 274.851562 L 884 274.851562 "/>
<path fill="none" stroke-width="1" stroke-linecap="butt" stroke-linejoin="miter" stroke="rgb(0%, 0%, 0%)" stroke-opacity="0.12" stroke-miterlimit="1.154701" d="M 41 153.265625 L 884 153.265625 "/>
<path fill="none" stroke-width="1" stroke-linecap="butt" stroke-linejoin="miter" stroke="rgb(0%, 0%, 0%)" stroke-opacity="0.12" stroke-miterlimit="1.154701" d="M 41 31.683594 L 884 31.683594 "/>
<g fill="rgb(0%, 0%, 0%)" fill-opacity="1">
<use xlink:href="#glyph-0-0-5ecc7662" x="65.311186" y="382.258001"/>
</g>
<g fill="rgb(0%, 0%, 0%)" fill-opacity="1">
<use xlink:href="#glyph-0-1-5ecc7662" x="73.095186" y="382.258001"/>
</g>
<g fill="rgb(0%, 0%, 0%)" fill-opacity="1">
<use xlink:href="#glyph-0-0-5ecc7662" x="76.987185" y="382.258001"/>
</g>
<g fill="rgb(0%, 0%, 0%)" fill-opacity="1">
<use xlink:href="#glyph-0-2-5ecc7662" x="84.771185" y="382.258001"/>
</g>
<g fill="rgb(0%, 0%, 0%)" fill-opacity="1">
<use xlink:href="#glyph-1-0-5ecc7662" x="253.010094" y="382.258001"/>
</g>
<g fill="rgb(0%, 0%, 0%)" fill-opacity="1">
<use xlink:href="#glyph-0-1-5ecc7662" x="260.794095" y="382.258001"/>
</g>
<g fill="rgb(0%, 0%, 0%)" fill-opacity="1">
<use xlink:href="#glyph-0-3-5ecc7662" x="264.686094" y="382.258001"/>
</g>
<g fill="rgb(0%, 0%, 0%)" fill-opacity="1">
<use xlink:href="#glyph-0-4-5ecc7662" x="272.470094" y="382.258001"/>
</g>
<g fill="rgb(0%, 0%, 0%)" fill-opacity="1">
<use xlink:href="#glyph-0-2-5ecc7662" x="280.254094" y="382.258001"/>
</g>
<g fill="rgb(0%, 0%, 0%)" fill-opacity="1">
<use xlink:href="#glyph-0-0-5ecc7662" x="448.493011" y="382.258001"/>
</g>
<g fill="rgb(0%, 0%, 0%)" fill-opacity="1">
<use xlink:href="#glyph-0-1-5ecc7662" x="456.277011" y="382.258001"/>
</g>
<g fill="rgb(0%, 0%, 0%)" fill-opacity="1">
<use xlink:href="#glyph-0-4-5ecc7662" x="460.169011" y="382.258001"/>
</g>
<g fill="rgb(0%, 0%, 0%)" fill-opacity="1">
<use xlink:href="#glyph-0-2-5ecc7662" x="467.95301" y="382.258001"/>
</g>
<g fill="rgb(0%, 0%, 0%)" fill-opacity="1">
<use xlink:href="#glyph-0-0-5ecc7662" x="636.191897" y="382.258001"/>
</g>
<g fill="rgb(0%, 0%, 0%)" fill-opacity="1">
<use xlink:href="#glyph-0-1-5ecc7662" x="643.975897" y="382.258001"/>
</g>
<g fill="rgb(0%, 0%, 0%)" fill-opacity="1">
<use xlink:href="#glyph-0-5-5ecc7662" x="647.867897" y="382.258001"/>
</g>
<g fill="rgb(0%, 0%, 0%)" fill-opacity="1">
<use xlink:href="#glyph-0-4-5ecc7662" x="655.651896" y="382.258001"/>
</g>
<g fill="rgb(0%, 0%, 0%)" fill-opacity="1">
<use xlink:href="#glyph-0-2-5ecc7662" x="663.435897" y="382.258001"/>
</g>
<g fill="rgb(0%, 0%, 0%)" fill-opacity="1">
<use xlink:href="#glyph-0-6-5ecc7662" x="831.674844" y="382.258001"/>
</g>
<g fill="rgb(0%, 0%, 0%)" fill-opacity="1">
<use xlink:href="#glyph-0-1-5ecc7662" x="839.458844" y="382.258001"/>
</g>
<g fill="rgb(0%, 0%, 0%)" fill-opacity="1">
<use xlink:href="#glyph-0-0-5ecc7662" x="843.350844" y="382.258001"/>
</g>
<g fill="rgb(0%, 0%, 0%)" fill-opacity="1">
<use xlink:href="#glyph-0-2-5ecc7662" x="851.134843" y="382.258001"/>
</g>
<g fill="rgb(0%, 0%, 0%)" fill-opacity="1">
<use xlink:href="#glyph-0-7-5ecc7662" x="15.040001" y="279.955405"/>
</g>
<g fill="rgb(0%, 0%, 0%)" fill-opacity="1">
<use xlink:href="#glyph-0-8-5ecc7662" x="23.216001" y="279.955405"/>
</g>
<g fill="rgb(0%, 0%, 0%)" fill-opacity="1">
<use xlink:href="#glyph-0-7-5ecc7662" x="15.040001" y="158.370111"/>
</g>
<g fill="rgb(0%, 0%, 0%)" fill-opacity="1">
<use xlink:href="#glyph-0-9-5ecc7662" x="23.216001" y="158.370111"/>
</g>
<g fill="rgb(0%, 0%, 0%)" fill-opacity="1">
<use xlink:href="#glyph-0-7-5ecc7662" x="15.040001" y="36.784832"/>
</g>
<g fill="rgb(0%, 0%, 0%)" fill-opacity="1">
<use xlink:href="#glyph-0-3-5ecc7662" x="23.216001" y="36.784832"/>
</g>
<path fill="none" stroke-width="1.5" stroke-linecap="butt" stroke-linejoin="miter" stroke="rgb(100%, 0%, 100%)" stroke-opacity="1" stroke-miterlimit="2" d="M 79.316406 274.851562 L 86.980469 274.859375 L 94.644531 274.878906 L 102.308594 274.914062 L 109.972656 274.964844 L 117.636719 275.027344 L 125.300781 275.105469 L 132.964844 275.195312 L 140.628906 275.300781 L 148.289062 275.421875 L 155.953125 275.554688 L 163.617188 275.699219 L 171.28125 275.863281 L 178.945312 276.039062 L 186.609375 276.226562 L 194.273438 276.429688 L 201.9375 276.648438 L 209.601562 276.878906 L 217.261719 277.125 L 224.925781 277.382812 L 232.589844 277.65625 L 240.253906 277.945312 L 247.917969 278.246094 L 255.582031 278.5625 L 263.246094 278.894531 L 270.910156 279.238281 L 278.574219 279.59375 L 286.234375 279.96875 L 293.898438 280.351562 L 301.5625 280.753906 L 309.226562 281.167969 L 316.890625 281.597656 L 324.554688 282.039062 L 332.21875 282.496094 L 339.882812 282.964844 L 347.546875 283.449219 L 355.210938 283.949219 L 362.871094 284.460938 L 370.535156 284.988281 L 378.199219 285.53125 L 385.863281 286.085938 L 393.527344 286.65625 L 401.191406 287.238281 L 408.855469 287.835938 L 416.519531 288.449219 L 424.183594 289.074219 L 431.84375 289.714844 L 439.507812 290.371094 L 447.171875 291.039062 L 454.835938 291.722656 L 462.5 292.417969 L 470.164062 293.128906 L 477.828125 293.855469 L 485.492188 294.59375 L 493.15625 295.347656 L 500.816406 296.113281 L 508.480469 296.898438 L 516.144531 297.691406 L 523.808594 298.503906 L 531.472656 299.328125 L 539.136719 300.167969 L 546.800781 301.019531 L 554.464844 301.886719 L 562.128906 302.769531 L 569.789062 303.664062 L 577.453125 304.574219 L 585.117188 305.496094 L 592.78125 306.433594 L 600.445312 307.386719 L 608.109375 308.355469 L 615.773438 309.335938 L 623.4375 310.328125 L 631.101562 311.339844 L 638.761719 312.363281 L 646.425781 313.398438 L 654.089844 314.449219 L 661.753906 315.515625 L 669.417969 316.597656 L 677.082031 317.691406 L 684.746094 318.800781 L 692.410156 319.921875 L 700.074219 321.058594 L 707.734375 322.207031 L 715.398438 323.375 L 723.0625 324.550781 L 730.726562 325.746094 L 738.390625 326.953125 L 746.054688 328.171875 L 753.71875 329.410156 L 761.382812 330.65625 L 769.046875 331.921875 L 776.710938 333.199219 L 784.371094 334.488281 L 792.035156 335.792969 L 799.699219 337.113281 L 807.363281 338.445312 L 815.027344 339.792969 L 822.691406 341.152344 L 830.355469 342.527344 L 838.019531 343.917969 L 845.683594 345.316406 "/>
<path fill="none" stroke-width="1.5" stroke-linecap="butt" stroke-linejoin="miter" stroke="rgb(50.196081%, 50.196081%, 50.196081%)" stroke-opacity="0.5" stroke-miterlimit="2" d="M 79.316406 153.265625 L 86.980469 154.238281 L 94.644531 155.222656 L 102.308594 156.21875 L 109.972656 157.226562 L 117.636719 158.246094 L 125.300781 159.277344 L 132.964844 160.320312 L 140.628906 161.375 L 148.289062 162.4375 L 155.953125 163.515625 L 163.617188 164.601562 L 171.28125 165.703125 L 178.945312 166.8125 L 186.609375 167.9375 L 194.273438 169.070312 L 201.9375 170.214844 L 209.601562 171.371094 L 217.261719 172.539062 L 224.925781 173.714844 L 232.589844 174.90625 L 240.253906 176.105469 L 247.917969 177.316406 L 255.582031 178.539062 L 263.246094 179.773438 L 270.910156 181.019531 L 278.574219 182.273438 L 286.234375 183.542969 L 293.898438 184.820312 L 301.5625 186.109375 L 309.226562 187.40625 L 316.890625 188.71875 L 324.554688 190.039062 L 332.21875 191.371094 L 339.882812 192.714844 L 347.546875 194.066406 L 355.210938 195.429688 L 362.871094 196.804688 L 370.535156 198.191406 L 378.199219 199.585938 L 385.863281 200.992188 L 393.527344 202.410156 L 401.191406 203.835938 L 408.855469 205.273438 L 416.519531 206.722656 L 424.183594 208.179688 L 431.84375 209.648438 L 439.507812 211.128906 L 447.171875 212.617188 L 454.835938 214.117188 L 462.5 215.625 L 470.164062 217.144531 L 477.828125 218.675781 L 485.492188 220.214844 L 493.15625 221.765625 L 500.816406 223.328125 L 508.480469 224.898438 L 516.144531 226.476562 L 523.808594 228.066406 L 531.472656 229.667969 L 539.136719 231.277344 L 546.800781 232.898438 L 554.464844 234.527344 L 562.128906 236.167969 L 569.789062 237.816406 L 577.453125 239.476562 L 585.117188 241.144531 L 592.78125 242.824219 L 600.445312 244.511719 L 608.109375 246.210938 L 615.773438 247.917969 L 623.4375 249.632812 L 631.101562 251.359375 L 638.761719 253.09375 L 646.425781 254.839844 L 654.089844 256.59375 L 661.753906 258.359375 L 669.417969 260.132812 L 677.082031 261.914062 L 684.746094 263.707031 L 692.410156 265.507812 L 700.074219 267.316406 L 707.734375 269.136719 L 715.398438 270.964844 L 723.0625 272.804688 L 730.726562 274.652344 L 738.390625 276.507812 L 746.054688 278.371094 L 753.71875 280.246094 L 761.382812 282.128906 L 769.046875 284.023438 L 776.710938 285.921875 L 784.371094 287.832031 L 792.035156 289.753906 L 799.699219 291.679688 L 807.363281 293.617188 L 815.027344 295.5625 L 822.691406 297.515625 L 830.355469 299.480469 L 838.019531 301.449219 L 845.683594 303.429688 "/>
<path fill="none" stroke-width="1.5" stroke-linecap="butt" stroke-linejoin="miter" stroke="rgb(50.196081%, 50.196081%, 50.196081%)" stroke-opacity="0.5" stroke-miterlimit="2" d="M 79.316406 153.265625 L 86.980469 154.023438 L 94.644531 154.789062 L 102.308594 155.566406 L 109.972656 156.355469 L 117.636719 157.160156 L 125.300781 157.972656 L 132.964844 158.796875 L 140.628906 159.632812 L 148.289062 160.480469 L 155.953125 161.34375 L 163.617188 162.214844 L 171.28125 163.097656 L 178.945312 163.992188 L 186.609375 164.898438 L 194.273438 165.816406 L 201.9375 166.746094 L 209.601562 167.683594 L 217.261719 168.636719 L 224.925781 169.601562 L 232.589844 170.578125 L 240.253906 171.5625 L 247.917969 172.5625 L 255.582031 173.570312 L 263.246094 174.59375 L 270.910156 175.625 L 278.574219 176.667969 L 286.234375 177.722656 L 293.898438 178.792969 L 301.5625 179.871094 L 309.226562 180.960938 L 316.890625 182.058594 L 324.554688 183.171875 L 332.21875 184.296875 L 339.882812 185.429688 L 347.546875 186.578125 L 355.210938 187.734375 L 362.871094 188.902344 L 370.535156 190.082031 L 378.199219 191.273438 L 385.863281 192.476562 L 393.527344 193.691406 L 401.191406 194.917969 L 408.855469 196.152344 L 416.519531 197.398438 L 424.183594 198.660156 L 431.84375 199.929688 L 439.507812 201.210938 L 447.171875 202.503906 L 454.835938 203.804688 L 462.5 205.121094 L 470.164062 206.445312 L 477.828125 207.78125 L 485.492188 209.128906 L 493.15625 210.488281 L 500.816406 211.859375 L 508.480469 213.238281 L 516.144531 214.632812 L 523.808594 216.035156 L 531.472656 217.449219 L 539.136719 218.875 L 546.800781 220.308594 L 554.464844 221.757812 L 562.128906 223.214844 L 569.789062 224.683594 L 577.453125 226.164062 L 585.117188 227.652344 L 592.78125 229.152344 L 600.445312 230.667969 L 608.109375 232.1875 L 615.773438 233.722656 L 623.4375 235.265625 L 631.101562 236.824219 L 638.761719 238.386719 L 646.425781 239.964844 L 654.089844 241.550781 L 661.753906 243.148438 L 669.417969 244.757812 L 677.082031 246.375 L 684.746094 248.007812 L 692.410156 249.644531 L 700.074219 251.296875 L 707.734375 252.957031 L 715.398438 254.628906 L 723.0625 256.308594 L 730.726562 258 L 738.390625 259.703125 L 746.054688 261.417969 L 753.71875 263.140625 L 761.382812 264.871094 L 769.046875 266.613281 L 776.710938 268.367188 L 784.371094 270.132812 L 792.035156 271.902344 L 799.699219 273.6875 L 807.363281 275.480469 L 815.027344 277.28125 L 822.691406 279.09375 L 830.355469 280.917969 L 838.019531 282.75 L 845.683594 284.589844 "/>
<path fill="none" stroke-width="1.5" stroke-linecap="butt" stroke-linejoin="miter" stroke="rgb(50.196081%, 50.196081%, 50.196081%)" stroke-opacity="0.5" stroke-miterlimit="2" d="M 79.316406 153.265625 L 86.980469 153.71875 L 94.644531 154.175781 L 102.308594 154.644531 L 109.972656 155.117188 L 117.636719 155.601562 L 125.300781 156.09375 L 132.964844 156.589844 L 140.628906 157.097656 L 148.289062 157.613281 L 155.953125 158.136719 L 163.617188 158.664062 L 171.28125 159.203125 L 178.945312 159.75 L 186.609375 160.304688 L 194.273438 160.863281 L 201.9375 161.433594 L 209.601562 162.011719 L 217.261719 162.59375 L 224.925781 163.1875 L 232.589844 163.789062 L 240.253906 164.394531 L 247.917969 165.011719 L 255.582031 165.632812 L 263.246094 166.265625 L 270.910156 166.902344 L 278.574219 167.546875 L 286.234375 168.199219 L 293.898438 168.863281 L 301.5625 169.53125 L 309.226562 170.207031 L 316.890625 170.890625 L 324.554688 171.578125 L 332.21875 172.277344 L 339.882812 172.984375 L 347.546875 173.695312 L 355.210938 174.417969 L 362.871094 175.144531 L 370.535156 175.882812 L 378.199219 176.625 L 385.863281 177.375 L 393.527344 178.132812 L 401.191406 178.898438 L 408.855469 179.667969 L 416.519531 180.449219 L 424.183594 181.238281 L 431.84375 182.03125 L 439.507812 182.832031 L 447.171875 183.644531 L 454.835938 184.460938 L 462.5 185.285156 L 470.164062 186.113281 L 477.828125 186.953125 L 485.492188 187.800781 L 493.15625 188.652344 L 500.816406 189.511719 L 508.480469 190.382812 L 516.144531 191.257812 L 523.808594 192.140625 L 531.472656 193.027344 L 539.136719 193.925781 L 546.800781 194.832031 L 554.464844 195.742188 L 562.128906 196.660156 L 569.789062 197.589844 L 577.453125 198.523438 L 585.117188 199.464844 L 592.78125 200.410156 L 600.445312 201.367188 L 608.109375 202.332031 L 615.773438 203.300781 L 623.4375 204.28125 L 631.101562 205.265625 L 638.761719 206.257812 L 646.425781 207.257812 L 654.089844 208.265625 L 661.753906 209.28125 L 669.417969 210.304688 L 677.082031 211.332031 L 684.746094 212.371094 L 692.410156 213.414062 L 700.074219 214.46875 L 707.734375 215.527344 L 715.398438 216.59375 L 723.0625 217.667969 L 730.726562 218.75 L 738.390625 219.839844 L 746.054688 220.9375 L 753.71875 222.042969 L 761.382812 223.15625 L 769.046875 224.277344 L 776.710938 225.40625 L 784.371094 226.542969 L 792.035156 227.6875 L 799.699219 228.835938 L 807.363281 230.652344 L 815.027344 233.050781 L 822.691406 235.457031 L 830.355469 237.867188 L 845.683594 242.703125 "/>
<path fill="none" stroke-width="1.5" stroke-linecap="butt" stroke-linejoin="miter" stroke="rgb(50.196081%, 50.196081%, 50.196081%)" stroke-opacity="0.5" stroke-miterlimit="2" d="M 79.316406 153.265625 L 86.980469 153.371094 L 94.644531 153.484375 L 102.308594 153.609375 L 109.972656 153.742188 L 117.636719 153.890625 L 125.300781 154.046875 L 132.964844 154.210938 L 140.628906 154.390625 L 148.289062 154.578125 L 155.953125 154.773438 L 163.617188 154.984375 L 171.28125 155.203125 L 178.945312 155.433594 L 186.609375 155.671875 L 194.273438 155.921875 L 201.9375 156.183594 L 209.601562 156.453125 L 217.261719 156.734375 L 224.925781 157.027344 L 232.589844 157.328125 L 240.253906 157.640625 L 247.917969 157.964844 L 255.582031 158.296875 L 263.246094 158.640625 L 270.910156 158.996094 L 278.574219 159.359375 L 286.234375 159.734375 L 293.898438 160.121094 L 301.5625 160.515625 L 309.226562 160.921875 L 316.890625 161.335938 L 324.554688 161.761719 L 332.21875 162.199219 L 339.882812 162.644531 L 347.546875 163.101562 L 355.210938 163.570312 L 362.871094 164.046875 L 370.535156 164.535156 L 378.199219 165.03125 L 385.863281 165.542969 L 393.527344 166.058594 L 401.191406 166.589844 L 408.855469 167.125 L 416.519531 167.675781 L 424.183594 168.234375 L 431.84375 168.804688 L 439.507812 169.382812 L 447.171875 169.972656 L 454.835938 170.574219 L 462.5 171.183594 L 470.164062 171.804688 L 477.828125 172.433594 L 485.492188 173.074219 L 493.15625 173.726562 L 500.816406 174.386719 L 508.480469 175.058594 L 516.144531 175.738281 L 523.808594 176.429688 L 531.472656 177.128906 L 539.136719 177.839844 L 546.800781 178.5625 L 554.464844 179.292969 L 562.128906 180.035156 L 569.789062 180.789062 L 577.453125 181.550781 L 585.117188 182.320312 L 592.78125 183.101562 L 600.445312 183.894531 L 608.109375 184.695312 L 615.773438 185.507812 L 623.4375 186.328125 L 631.101562 187.160156 L 638.761719 188.003906 L 646.425781 188.855469 L 654.089844 189.714844 L 661.753906 190.585938 L 669.417969 191.46875 L 677.082031 192.359375 L 684.746094 193.257812 L 692.410156 195.234375 L 700.074219 197.558594 L 707.734375 199.886719 L 715.398438 202.222656 L 723.0625 204.5625 L 738.390625 209.257812 L 753.71875 213.976562 L 761.382812 216.34375 L 769.046875 218.714844 L 776.710938 221.09375 L 784.371094 223.476562 L 792.035156 225.863281 L 799.699219 228.253906 L 807.363281 229.996094 L 815.027344 231.164062 L 822.691406 232.339844 L 830.355469 233.523438 L 838.019531 234.714844 L 845.683594 235.910156 "/>
<path fill="none" stroke-width="1.5" stroke-linecap="butt" stroke-linejoin="miter" stroke="rgb(50.196081%, 50.196081%, 50.196081%)" stroke-opacity="0.5" stroke-miterlimit="2" d="M 79.316406 153.265625 L 86.980469 153.175781 L 94.644531 153.09375 L 102.308594 153.019531 L 109.972656 152.960938 L 117.636719 152.910156 L 125.300781 152.871094 L 132.964844 152.839844 L 140.628906 152.824219 L 148.289062 152.816406 L 155.953125 152.816406 L 163.617188 152.832031 L 171.28125 152.855469 L 178.945312 152.890625 L 186.609375 152.9375 L 194.273438 152.996094 L 201.9375 153.0625 L 209.601562 153.140625 L 217.261719 153.230469 L 224.925781 153.328125 L 232.589844 153.441406 L 240.253906 153.5625 L 247.917969 153.695312 L 255.582031 153.839844 L 263.246094 153.992188 L 270.910156 154.160156 L 278.574219 154.335938 L 286.234375 154.523438 L 293.898438 154.71875 L 301.5625 154.929688 L 309.226562 155.148438 L 316.890625 155.378906 L 324.554688 155.621094 L 332.21875 155.875 L 339.882812 156.140625 L 347.546875 156.414062 L 355.210938 156.703125 L 362.871094 157 L 370.535156 157.308594 L 378.199219 157.628906 L 385.863281 157.957031 L 393.527344 158.300781 L 401.191406 158.652344 L 408.855469 159.015625 L 416.519531 159.394531 L 424.183594 159.78125 L 431.84375 160.175781 L 439.507812 160.585938 L 447.171875 161.007812 L 454.835938 161.4375 L 462.5 161.882812 L 470.164062 162.335938 L 477.828125 162.800781 L 485.492188 163.277344 L 493.15625 163.765625 L 500.816406 164.265625 L 508.480469 164.773438 L 516.144531 165.296875 L 523.808594 165.832031 L 531.472656 166.375 L 539.136719 166.929688 L 546.800781 167.5 L 554.464844 168.078125 L 562.128906 168.667969 L 569.789062 169.269531 L 577.453125 169.882812 L 585.117188 170.507812 L 592.78125 171.140625 L 600.445312 171.789062 L 608.109375 172.445312 L 615.773438 173.117188 L 623.4375 174.570312 L 631.101562 176.84375 L 638.761719 179.121094 L 646.425781 181.40625 L 654.089844 183.695312 L 661.753906 185.992188 L 669.417969 188.292969 L 677.082031 190.601562 L 684.746094 192.914062 L 692.410156 194.171875 L 700.074219 195.089844 L 707.734375 196.019531 L 715.398438 196.960938 L 723.0625 197.910156 L 730.726562 198.867188 L 738.390625 199.835938 L 746.054688 200.816406 L 753.71875 201.804688 L 761.382812 202.800781 L 769.046875 203.808594 L 776.710938 204.824219 L 784.371094 205.851562 L 792.035156 206.886719 L 799.699219 207.929688 L 807.363281 208.984375 L 815.027344 210.046875 L 822.691406 211.121094 L 830.355469 212.199219 L 838.019531 213.289062 L 845.683594 214.390625 "/>
<path fill="none" stroke-width="1.5" stroke-linecap="butt" stroke-linejoin="miter" stroke="rgb(50.196081%, 50.196081%, 50.196081%)" stroke-opacity="0.5" stroke-miterlimit="2" d="M 79.316406 153.265625 L 86.980469 152.824219 L 94.644531 152.390625 L 102.308594 151.960938 L 109.972656 151.542969 L 117.636719 151.132812 L 125.300781 150.730469 L 132.964844 150.335938 L 140.628906 149.953125 L 148.289062 149.574219 L 155.953125 149.207031 L 163.617188 148.84375 L 171.28125 148.492188 L 178.945312 148.148438 L 186.609375 147.8125 L 194.273438 147.484375 L 201.9375 147.167969 L 209.601562 146.855469 L 217.261719 146.554688 L 224.925781 146.261719 L 232.589844 145.976562 L 240.253906 145.699219 L 247.917969 145.433594 L 255.582031 145.175781 L 263.246094 144.925781 L 270.910156 144.683594 L 278.574219 144.453125 L 286.234375 144.226562 L 293.898438 144.011719 L 301.5625 143.808594 L 309.226562 143.609375 L 316.890625 143.421875 L 324.554688 143.242188 L 332.21875 143.074219 L 339.882812 142.914062 L 347.546875 142.761719 L 355.210938 142.617188 L 362.871094 142.484375 L 370.535156 142.359375 L 378.199219 142.246094 L 385.863281 142.140625 L 393.527344 142.042969 L 401.191406 141.957031 L 408.855469 141.878906 L 416.519531 141.808594 L 424.183594 141.75 L 431.84375 141.703125 L 439.507812 141.660156 L 447.171875 141.632812 L 454.835938 141.609375 L 462.5 141.601562 L 470.164062 141.597656 L 477.828125 141.605469 L 485.492188 141.625 L 493.15625 141.652344 L 500.816406 141.691406 L 508.480469 141.738281 L 516.144531 143.417969 L 523.808594 145.601562 L 531.472656 147.789062 L 539.136719 149.984375 L 546.800781 152.1875 L 554.464844 154.398438 L 562.128906 156.613281 L 569.789062 158.835938 L 577.453125 161.066406 L 585.117188 163.300781 L 592.78125 165.542969 L 600.445312 167.789062 L 608.109375 170.042969 L 615.773438 172.304688 L 623.4375 173.796875 L 631.101562 174.492188 L 638.761719 175.195312 L 646.425781 175.910156 L 654.089844 176.636719 L 661.753906 177.375 L 669.417969 178.125 L 677.082031 178.886719 L 684.746094 179.660156 L 692.410156 180.445312 L 700.074219 181.238281 L 707.734375 182.046875 L 715.398438 182.863281 L 723.0625 183.695312 L 730.726562 184.535156 L 738.390625 185.386719 L 746.054688 186.25 L 753.71875 187.125 L 761.382812 188.011719 L 769.046875 188.910156 L 776.710938 189.820312 L 784.371094 190.738281 L 792.035156 191.671875 L 799.699219 192.613281 L 807.363281 193.566406 L 815.027344 194.53125 L 822.691406 195.507812 L 830.355469 196.496094 L 838.019531 197.496094 L 845.683594 198.503906 "/>
<path fill="none" stroke-width="1.5" stroke-linecap="butt" stroke-linejoin="miter" stroke="rgb(50.196081%, 50.196081%, 50.196081%)" stroke-opacity="0.5" stroke-miterlimit="2" d="M 79.316406 153.265625 L 86.980469 152.523438 L 94.644531 151.792969 L 102.308594 151.074219 L 109.972656 150.363281 L 117.636719 149.667969 L 125.300781 148.984375 L 132.964844 148.3125 L 140.628906 147.652344 L 148.289062 147.003906 L 155.953125 146.363281 L 163.617188 145.738281 L 171.28125 145.125 L 178.945312 144.523438 L 186.609375 143.9375 L 194.273438 143.359375 L 201.9375 142.792969 L 209.601562 142.238281 L 217.261719 141.695312 L 224.925781 141.167969 L 232.589844 140.648438 L 240.253906 140.144531 L 247.917969 139.648438 L 255.582031 139.167969 L 263.246094 138.699219 L 270.910156 138.242188 L 278.574219 137.796875 L 286.234375 137.363281 L 293.898438 136.941406 L 301.5625 136.53125 L 309.226562 136.136719 L 316.890625 135.75 L 324.554688 135.378906 L 332.21875 135.015625 L 339.882812 134.667969 L 347.546875 134.332031 L 355.210938 134.007812 L 362.871094 133.699219 L 370.535156 133.398438 L 378.199219 133.113281 L 385.863281 132.835938 L 393.527344 132.574219 L 401.191406 132.324219 L 408.855469 132.085938 L 416.519531 131.863281 L 424.183594 131.648438 L 431.84375 131.449219 L 439.507812 131.261719 L 447.171875 131.085938 L 454.835938 130.921875 L 462.5 130.769531 L 470.164062 130.632812 L 477.828125 132.605469 L 485.492188 134.753906 L 493.15625 136.910156 L 500.816406 139.070312 L 508.480469 141.242188 L 516.144531 141.796875 L 523.808594 141.863281 L 531.472656 141.941406 L 539.136719 142.027344 L 546.800781 142.125 L 554.464844 142.230469 L 562.128906 142.347656 L 569.789062 142.476562 L 577.453125 142.613281 L 585.117188 142.761719 L 592.78125 142.921875 L 600.445312 143.089844 L 608.109375 143.269531 L 615.773438 143.457031 L 623.4375 143.65625 L 631.101562 145.285156 L 638.761719 146.992188 L 646.425781 148.699219 L 661.753906 152.121094 L 684.746094 157.277344 L 692.410156 159 L 700.074219 160.726562 L 707.734375 162.457031 L 715.398438 164.1875 L 730.726562 167.65625 L 753.71875 172.882812 L 761.382812 174.628906 L 769.046875 176.378906 L 776.710938 178.132812 L 784.371094 179.886719 L 792.035156 181.644531 L 807.363281 185.167969 L 815.027344 186.933594 L 830.355469 190.472656 L 838.019531 192.246094 L 845.683594 194.023438 "/>
<path fill="none" stroke-width="1.5" stroke-linecap="butt" stroke-linejoin="miter" stroke="rgb(50.196081%, 50.196081%, 50.196081%)" stroke-opacity="0.5" stroke-miterlimit="2" d="M 79.316406 153.265625 L 86.980469 152.304688 L 94.644531 151.355469 L 102.308594 150.417969 L 109.972656 149.492188 L 117.636719 148.578125 L 125.300781 147.679688 L 132.964844 146.789062 L 140.628906 145.910156 L 148.289062 145.042969 L 155.953125 144.1875 L 163.617188 143.347656 L 171.28125 142.515625 L 178.945312 141.695312 L 186.609375 140.890625 L 194.273438 140.097656 L 201.9375 139.3125 L 209.601562 138.542969 L 217.261719 137.785156 L 224.925781 137.039062 L 232.589844 136.304688 L 240.253906 135.582031 L 247.917969 134.875 L 255.582031 134.175781 L 263.246094 133.492188 L 270.910156 132.820312 L 278.574219 132.160156 L 286.234375 131.511719 L 293.898438 130.875 L 301.5625 130.253906 L 309.226562 129.640625 L 316.890625 129.042969 L 324.554688 128.457031 L 332.21875 127.882812 L 339.882812 127.324219 L 347.546875 126.777344 L 355.210938 126.238281 L 362.871094 125.714844 L 370.535156 125.207031 L 378.199219 124.707031 L 385.863281 124.222656 L 393.527344 123.75 L 401.191406 123.289062 L 408.855469 122.839844 L 416.519531 122.40625 L 424.183594 121.984375 L 431.84375 121.574219 L 439.507812 121.96875 L 447.171875 124.082031 L 454.835938 126.199219 L 462.5 128.328125 L 470.164062 130.460938 L 477.828125 130.507812 L 485.492188 130.394531 L 493.15625 130.292969 L 500.816406 130.203125 L 508.480469 130.128906 L 516.144531 130.066406 L 523.808594 130.015625 L 531.472656 129.976562 L 539.136719 129.949219 L 546.800781 129.9375 L 554.464844 129.9375 L 562.128906 130.0625 L 569.789062 131.742188 L 577.453125 133.425781 L 592.78125 136.800781 L 600.445312 138.492188 L 615.773438 141.882812 L 623.4375 143.582031 L 631.101562 143.867188 L 638.761719 144.085938 L 646.425781 144.316406 L 654.089844 144.558594 L 661.753906 144.808594 L 669.417969 145.070312 L 677.082031 145.34375 L 684.746094 145.625 L 692.410156 145.921875 L 700.074219 146.222656 L 707.734375 146.539062 L 715.398438 147.847656 L 723.0625 149.425781 L 730.726562 151.007812 L 738.390625 152.59375 L 746.054688 154.183594 L 761.382812 157.371094 L 769.046875 158.972656 L 776.710938 160.578125 L 784.371094 162.183594 L 799.699219 165.410156 L 815.027344 168.652344 L 830.355469 171.910156 L 845.683594 175.183594 "/>
<path fill="none" stroke-width="1.5" stroke-linecap="butt" stroke-linejoin="miter" stroke="rgb(50.196081%, 50.196081%, 50.196081%)" stroke-opacity="0.5" stroke-miterlimit="2" d="M 79.316406 31.683594 L 86.980469 33.402344 L 94.644531 35.132812 L 102.308594 36.871094 L 109.972656 38.621094 L 117.636719 40.378906 L 125.300781 42.144531 L 132.964844 43.921875 L 140.628906 45.707031 L 148.289062 47.5 L 155.953125 49.304688 L 163.617188 51.117188 L 171.28125 52.9375 L 178.945312 54.765625 L 186.609375 56.605469 L 194.273438 58.453125 L 201.9375 60.308594 L 209.601562 62.175781 L 217.261719 64.050781 L 224.925781 65.933594 L 232.589844 67.824219 L 240.253906 69.722656 L 247.917969 71.632812 L 255.582031 73.546875 L 263.246094 75.472656 L 270.910156 77.40625 L 278.574219 79.347656 L 286.234375 81.300781 L 293.898438 83.257812 L 301.5625 85.222656 L 309.226562 87.199219 L 316.890625 89.179688 L 324.554688 91.171875 L 332.21875 93.171875 L 339.882812 95.179688 L 347.546875 97.191406 L 355.210938 99.214844 L 362.871094 101.246094 L 370.535156 103.285156 L 378.199219 105.328125 L 385.863281 107.382812 L 393.527344 109.445312 L 401.191406 111.511719 L 408.855469 113.589844 L 416.519531 115.671875 L 424.183594 117.761719 L 431.84375 119.863281 L 439.507812 121.179688 L 447.171875 120.796875 L 454.835938 120.425781 L 462.5 120.066406 L 470.164062 119.71875 L 477.828125 119.386719 L 485.492188 119.066406 L 493.15625 118.761719 L 500.816406 118.46875 L 508.480469 118.382812 L 523.808594 121.703125 L 539.136719 125.039062 L 554.464844 128.382812 L 562.128906 129.949219 L 569.789062 129.976562 L 577.453125 130.011719 L 585.117188 130.0625 L 592.78125 130.125 L 600.445312 130.199219 L 608.109375 130.289062 L 615.773438 130.390625 L 623.4375 130.503906 L 631.101562 130.75 L 638.761719 132.285156 L 646.425781 133.824219 L 654.089844 135.367188 L 661.753906 136.914062 L 669.417969 138.464844 L 677.082031 140.019531 L 684.746094 141.578125 L 692.410156 143.140625 L 700.074219 144.707031 L 707.734375 146.277344 L 715.398438 146.863281 L 723.0625 147.203125 L 730.726562 147.777344 L 738.390625 149.394531 L 746.054688 151.015625 L 761.382812 154.273438 L 769.046875 155.910156 L 776.710938 157.550781 L 784.371094 159.195312 L 792.035156 160.84375 L 799.699219 162.496094 L 815.027344 165.816406 L 822.691406 167.480469 L 838.019531 170.824219 L 845.683594 172.503906 "/>
<path fill="none" stroke-width="1.5" stroke-linecap="butt" stroke-linejoin="miter" stroke="rgb(50.196081%, 50.196081%, 50.196081%)" stroke-opacity="0.5" stroke-miterlimit="2" d="M 79.316406 31.683594 L 86.980469 33.097656 L 94.644531 34.519531 L 102.308594 35.949219 L 109.972656 37.382812 L 117.636719 38.820312 L 125.300781 40.265625 L 132.964844 41.714844 L 140.628906 43.171875 L 148.289062 44.632812 L 155.953125 46.097656 L 163.617188 47.566406 L 171.28125 49.042969 L 186.609375 52.011719 L 194.273438 53.503906 L 201.9375 55 L 209.601562 56.5 L 217.261719 58.007812 L 224.925781 59.519531 L 232.589844 61.035156 L 240.253906 62.554688 L 255.582031 65.609375 L 263.246094 67.144531 L 270.910156 68.683594 L 278.574219 70.226562 L 286.234375 71.773438 L 301.5625 74.882812 L 309.226562 76.445312 L 324.554688 79.578125 L 332.21875 81.152344 L 339.882812 82.730469 L 347.546875 84.3125 L 355.210938 85.898438 L 362.871094 87.488281 L 370.535156 89.082031 L 378.199219 90.679688 L 393.527344 93.882812 L 401.191406 95.492188 L 408.855469 97.105469 L 424.183594 100.339844 L 431.84375 101.964844 L 439.507812 103.589844 L 454.835938 106.855469 L 462.5 108.492188 L 477.828125 111.773438 L 493.15625 115.070312 L 500.816406 116.726562 L 508.480469 118.1875 L 516.144531 117.917969 L 523.808594 117.664062 L 531.472656 117.421875 L 539.136719 117.191406 L 546.800781 116.976562 L 554.464844 116.773438 L 562.128906 117.109375 L 569.789062 118.609375 L 577.453125 120.113281 L 585.117188 121.621094 L 592.78125 123.132812 L 600.445312 124.648438 L 608.109375 126.167969 L 615.773438 127.691406 L 623.4375 129.21875 L 631.101562 130.628906 L 638.761719 130.769531 L 646.425781 130.921875 L 654.089844 131.859375 L 661.753906 133.429688 L 669.417969 135.003906 L 677.082031 136.582031 L 684.746094 138.167969 L 692.410156 139.757812 L 700.074219 141.351562 L 707.734375 142.949219 L 715.398438 144.554688 L 723.0625 146.164062 L 730.726562 147.546875 L 738.390625 147.90625 L 746.054688 148.273438 L 753.71875 148.652344 L 761.382812 149.042969 L 769.046875 149.441406 L 776.710938 149.855469 L 784.371094 150.277344 L 792.035156 150.710938 L 799.699219 151.152344 L 807.363281 151.609375 L 815.027344 152.074219 L 822.691406 152.550781 L 830.355469 153.449219 L 838.019531 155.03125 L 845.683594 156.617188 "/>
<path fill="none" stroke-width="1.5" stroke-linecap="butt" stroke-linejoin="miter" stroke="rgb(50.196081%, 50.196081%, 50.196081%)" stroke-opacity="0.5" stroke-miterlimit="2" d="M 79.316406 31.683594 L 86.980469 32.878906 L 94.644531 34.085938 L 102.308594 35.296875 L 109.972656 36.511719 L 117.636719 37.734375 L 125.300781 38.960938 L 132.964844 40.191406 L 140.628906 41.429688 L 148.289062 42.675781 L 155.953125 43.921875 L 171.28125 46.4375 L 178.945312 47.703125 L 186.609375 48.972656 L 194.273438 50.25 L 201.9375 51.53125 L 209.601562 52.816406 L 217.261719 54.109375 L 224.925781 55.40625 L 232.589844 56.707031 L 240.253906 58.011719 L 247.917969 59.324219 L 255.582031 60.640625 L 270.910156 63.289062 L 278.574219 64.621094 L 286.234375 65.957031 L 301.5625 68.644531 L 309.226562 69.996094 L 316.890625 71.351562 L 332.21875 74.078125 L 339.882812 75.449219 L 347.546875 76.824219 L 355.210938 78.203125 L 362.871094 79.585938 L 370.535156 80.972656 L 378.199219 82.367188 L 385.863281 83.765625 L 393.527344 85.167969 L 401.191406 86.574219 L 408.855469 87.984375 L 424.183594 90.820312 L 431.84375 92.246094 L 439.507812 93.671875 L 447.171875 95.105469 L 454.835938 96.542969 L 462.5 97.984375 L 470.164062 99.429688 L 485.492188 102.335938 L 493.15625 103.792969 L 500.816406 105.257812 L 508.480469 106.722656 L 516.144531 108.195312 L 531.472656 111.148438 L 539.136719 112.632812 L 546.800781 114.121094 L 554.464844 115.613281 L 562.128906 116.582031 L 569.789062 116.40625 L 577.453125 116.453125 L 585.117188 117.96875 L 592.78125 119.492188 L 600.445312 121.019531 L 608.109375 122.550781 L 615.773438 124.089844 L 623.4375 125.632812 L 631.101562 127.183594 L 638.761719 128.734375 L 646.425781 130.296875 L 654.089844 131.085938 L 661.753906 131.261719 L 669.417969 131.449219 L 677.082031 131.652344 L 684.746094 131.867188 L 692.410156 132.097656 L 700.074219 132.335938 L 707.734375 132.589844 L 715.398438 132.855469 L 723.0625 133.132812 L 730.726562 133.441406 L 738.390625 134.945312 L 746.054688 136.453125 L 753.71875 137.964844 L 761.382812 139.484375 L 769.046875 141.011719 L 776.710938 142.546875 L 784.371094 144.085938 L 792.035156 145.628906 L 799.699219 147.179688 L 807.363281 148.738281 L 815.027344 150.300781 L 822.691406 151.871094 L 830.355469 153.035156 L 838.019531 153.535156 L 845.683594 154.042969 "/>
<path fill="none" stroke-width="1.5" stroke-linecap="butt" stroke-linejoin="miter" stroke="rgb(50.196081%, 50.196081%, 50.196081%)" stroke-opacity="0.5" stroke-miterlimit="2" d="M 79.316406 31.683594 L 86.980469 32.75 L 94.644531 33.828125 L 102.308594 34.914062 L 109.972656 36.007812 L 117.636719 37.109375 L 125.300781 38.21875 L 132.964844 39.335938 L 140.628906 40.460938 L 148.289062 41.59375 L 155.953125 42.734375 L 163.617188 43.886719 L 171.28125 45.042969 L 178.945312 46.207031 L 186.609375 47.378906 L 194.273438 48.5625 L 201.9375 49.75 L 209.601562 50.945312 L 217.261719 52.148438 L 224.925781 53.359375 L 232.589844 54.578125 L 240.253906 55.800781 L 247.917969 57.035156 L 255.582031 58.273438 L 263.246094 59.523438 L 270.910156 60.777344 L 278.574219 62.039062 L 286.234375 63.308594 L 293.898438 64.585938 L 301.5625 65.871094 L 309.226562 67.160156 L 316.890625 68.457031 L 324.554688 69.761719 L 332.21875 71.074219 L 339.882812 72.394531 L 347.546875 73.71875 L 355.210938 75.050781 L 362.871094 76.390625 L 370.535156 77.734375 L 378.199219 79.085938 L 385.863281 80.445312 L 393.527344 81.8125 L 401.191406 83.183594 L 408.855469 84.5625 L 416.519531 85.949219 L 424.183594 87.339844 L 431.84375 88.738281 L 439.507812 90.140625 L 447.171875 91.550781 L 454.835938 92.96875 L 462.5 94.390625 L 470.164062 95.820312 L 477.828125 97.257812 L 485.492188 98.699219 L 493.15625 100.144531 L 500.816406 101.597656 L 508.480469 103.058594 L 516.144531 104.523438 L 523.808594 105.992188 L 539.136719 108.953125 L 546.800781 110.441406 L 554.464844 111.9375 L 562.128906 113.4375 L 569.789062 114.941406 L 577.453125 116.242188 L 585.117188 116.089844 L 592.78125 115.953125 L 600.445312 115.828125 L 608.109375 115.714844 L 615.773438 115.617188 L 623.4375 115.53125 L 631.101562 115.457031 L 638.761719 115.929688 L 646.425781 117.351562 L 654.089844 118.78125 L 661.753906 120.21875 L 669.417969 121.660156 L 684.746094 124.566406 L 692.410156 126.03125 L 700.074219 127.5 L 707.734375 128.976562 L 715.398438 130.457031 L 723.0625 131.945312 L 730.726562 133.425781 L 738.390625 133.730469 L 746.054688 134.058594 L 753.71875 135.535156 L 761.382812 137.015625 L 769.046875 138.503906 L 776.710938 139.996094 L 784.371094 141.492188 L 792.035156 142.996094 L 799.699219 144.503906 L 815.027344 147.535156 L 830.355469 150.589844 L 838.019531 152.125 L 845.683594 153.664062 "/>
<path fill="none" stroke-width="1.5" stroke-linecap="butt" stroke-linejoin="miter" stroke="rgb(50.196081%, 50.196081%, 50.196081%)" stroke-opacity="0.5" stroke-miterlimit="2" d="M 79.316406 31.683594 L 86.980469 32.554688 L 94.644531 33.4375 L 102.308594 34.324219 L 109.972656 35.222656 L 117.636719 36.128906 L 125.300781 37.042969 L 132.964844 37.964844 L 140.628906 38.894531 L 148.289062 39.832031 L 155.953125 40.78125 L 163.617188 41.734375 L 171.28125 42.695312 L 178.945312 43.667969 L 186.609375 44.648438 L 194.273438 45.632812 L 201.9375 46.628906 L 209.601562 47.632812 L 217.261719 48.640625 L 224.925781 49.660156 L 232.589844 50.6875 L 240.253906 51.722656 L 247.917969 52.765625 L 255.582031 53.816406 L 263.246094 54.875 L 270.910156 55.941406 L 278.574219 57.015625 L 286.234375 58.097656 L 293.898438 59.1875 L 301.5625 60.285156 L 309.226562 61.390625 L 316.890625 62.5 L 324.554688 63.621094 L 332.21875 64.75 L 339.882812 65.886719 L 347.546875 67.03125 L 355.210938 68.183594 L 362.871094 69.339844 L 370.535156 70.507812 L 378.199219 71.683594 L 385.863281 72.863281 L 393.527344 74.050781 L 401.191406 75.25 L 408.855469 76.453125 L 416.519531 77.664062 L 424.183594 78.882812 L 431.84375 80.109375 L 439.507812 81.34375 L 447.171875 82.585938 L 454.835938 83.832031 L 462.5 85.089844 L 470.164062 86.351562 L 477.828125 87.621094 L 485.492188 88.898438 L 493.15625 90.183594 L 500.816406 91.476562 L 508.480469 92.777344 L 516.144531 94.082031 L 523.808594 95.394531 L 531.472656 96.714844 L 539.136719 98.042969 L 546.800781 99.378906 L 554.464844 100.71875 L 562.128906 102.066406 L 569.789062 103.421875 L 577.453125 104.785156 L 585.117188 106.152344 L 592.78125 107.53125 L 600.445312 108.914062 L 608.109375 110.300781 L 615.773438 111.699219 L 623.4375 113.101562 L 631.101562 114.511719 L 638.761719 115.398438 L 646.425781 115.417969 L 654.089844 116.816406 L 661.753906 118.21875 L 669.417969 119.628906 L 677.082031 121.046875 L 684.746094 122.46875 L 692.410156 123.894531 L 700.074219 125.328125 L 707.734375 126.769531 L 715.398438 128.214844 L 723.0625 129.667969 L 730.726562 131.125 L 738.390625 132.589844 L 746.054688 134.046875 L 753.71875 134.375 L 761.382812 134.71875 L 769.046875 135.074219 L 776.710938 135.441406 L 784.371094 135.820312 L 792.035156 136.214844 L 799.699219 136.617188 L 807.363281 137.035156 L 815.027344 137.464844 L 822.691406 137.910156 L 830.355469 138.363281 L 838.019531 138.832031 L 845.683594 139.3125 "/>
<path fill="none" stroke-width="1.5" stroke-linecap="butt" stroke-linejoin="miter" stroke="rgb(50.196081%, 50.196081%, 50.196081%)" stroke-opacity="0.5" stroke-miterlimit="2" d="M 79.316406 31.683594 L 86.980469 32.53125 L 94.644531 33.394531 L 102.308594 34.261719 L 109.972656 35.136719 L 117.636719 36.019531 L 125.300781 36.914062 L 132.964844 37.8125 L 140.628906 38.722656 L 148.289062 39.636719 L 155.953125 40.5625 L 163.617188 41.496094 L 171.28125 42.4375 L 178.945312 43.386719 L 186.609375 44.34375 L 194.273438 45.304688 L 201.9375 46.277344 L 209.601562 47.257812 L 217.261719 48.246094 L 224.925781 49.242188 L 232.589844 50.246094 L 240.253906 51.257812 L 247.917969 52.277344 L 255.582031 53.304688 L 263.246094 54.339844 L 270.910156 55.382812 L 278.574219 56.433594 L 286.234375 57.492188 L 293.898438 58.558594 L 301.5625 59.632812 L 309.226562 60.710938 L 316.890625 61.800781 L 324.554688 62.894531 L 332.21875 64 L 339.882812 65.109375 L 347.546875 66.230469 L 355.210938 67.355469 L 362.871094 68.488281 L 370.535156 69.628906 L 378.199219 70.777344 L 385.863281 71.933594 L 393.527344 73.09375 L 401.191406 74.265625 L 408.855469 75.441406 L 416.519531 76.625 L 424.183594 77.820312 L 431.84375 79.015625 L 439.507812 80.222656 L 447.171875 81.4375 L 454.835938 82.65625 L 462.5 83.886719 L 470.164062 85.121094 L 477.828125 86.363281 L 485.492188 87.609375 L 493.15625 88.867188 L 500.816406 90.128906 L 508.480469 91.398438 L 516.144531 92.675781 L 523.808594 93.960938 L 531.472656 95.25 L 546.800781 97.851562 L 554.464844 99.164062 L 562.128906 100.484375 L 569.789062 101.808594 L 577.453125 103.140625 L 585.117188 104.476562 L 592.78125 105.820312 L 600.445312 107.171875 L 608.109375 108.53125 L 615.773438 109.894531 L 623.4375 111.265625 L 631.101562 112.644531 L 638.761719 114.027344 L 646.425781 115.351562 L 654.089844 115.320312 L 661.753906 115.300781 L 669.417969 115.292969 L 677.082031 115.296875 L 684.746094 115.316406 L 692.410156 115.351562 L 700.074219 115.394531 L 707.734375 115.453125 L 715.398438 115.527344 L 723.0625 115.609375 L 730.726562 116.792969 L 738.390625 118.140625 L 746.054688 119.496094 L 753.71875 120.859375 L 761.382812 122.226562 L 769.046875 123.605469 L 776.710938 124.988281 L 784.371094 126.382812 L 792.035156 127.78125 L 799.699219 129.1875 L 807.363281 130.601562 L 815.027344 132.023438 L 822.691406 133.449219 L 830.355469 134.886719 L 838.019531 136.328125 L 845.683594 137.777344 "/>
<path fill="none" stroke-width="1.5" stroke-linecap="butt" stroke-linejoin="miter" stroke="rgb(50.196081%, 50.196081%, 50.196081%)" stroke-opacity="0.5" stroke-miterlimit="2" d="M 79.316406 31.683594 L 86.980469 32.335938 L 94.644531 33 L 102.308594 33.671875 L 109.972656 34.351562 L 117.636719 35.039062 L 125.300781 35.738281 L 132.964844 36.441406 L 140.628906 37.15625 L 148.289062 37.875 L 155.953125 38.605469 L 163.617188 39.34375 L 171.28125 40.089844 L 178.945312 40.84375 L 186.609375 41.609375 L 194.273438 42.378906 L 201.9375 43.160156 L 209.601562 43.945312 L 217.261719 44.742188 L 224.925781 45.546875 L 232.589844 46.359375 L 240.253906 47.179688 L 247.917969 48.007812 L 255.582031 48.847656 L 263.246094 49.691406 L 270.910156 50.546875 L 278.574219 51.410156 L 286.234375 52.277344 L 293.898438 53.15625 L 301.5625 54.046875 L 309.226562 54.941406 L 316.890625 55.84375 L 324.554688 56.757812 L 332.21875 57.675781 L 339.882812 58.605469 L 347.546875 59.542969 L 355.210938 60.484375 L 362.871094 61.441406 L 370.535156 62.402344 L 378.199219 63.371094 L 385.863281 64.347656 L 393.527344 65.335938 L 401.191406 66.328125 L 408.855469 67.332031 L 416.519531 68.34375 L 424.183594 69.363281 L 431.84375 70.390625 L 439.507812 71.425781 L 447.171875 72.46875 L 454.835938 73.523438 L 462.5 74.582031 L 470.164062 75.652344 L 477.828125 76.730469 L 485.492188 77.8125 L 493.15625 78.90625 L 500.816406 80.007812 L 508.480469 81.117188 L 516.144531 82.234375 L 523.808594 83.363281 L 531.472656 84.496094 L 539.136719 85.636719 L 546.800781 86.789062 L 554.464844 87.945312 L 562.128906 89.113281 L 569.789062 90.289062 L 577.453125 91.472656 L 585.117188 92.660156 L 592.78125 93.859375 L 600.445312 95.066406 L 608.109375 96.28125 L 615.773438 97.503906 L 623.4375 98.734375 L 631.101562 99.976562 L 638.761719 101.222656 L 646.425781 102.476562 L 654.089844 103.738281 L 661.753906 105.007812 L 669.417969 106.289062 L 677.082031 107.574219 L 684.746094 108.867188 L 692.410156 110.167969 L 700.074219 111.480469 L 707.734375 112.796875 L 715.398438 114.121094 L 723.0625 115.453125 L 730.726562 115.707031 L 738.390625 115.820312 L 746.054688 115.945312 L 753.71875 116.082031 L 761.382812 116.230469 L 769.046875 116.394531 L 776.710938 116.570312 L 784.371094 116.761719 L 792.035156 117.753906 L 799.699219 119.980469 L 807.363281 122.203125 L 815.027344 124.421875 L 822.691406 126.644531 L 838.019531 131.082031 L 845.683594 133.296875 "/>
<path fill="none" stroke-width="1.5" stroke-linecap="butt" stroke-linejoin="miter" stroke="rgb(50.196081%, 50.196081%, 50.196081%)" stroke-opacity="0.5" stroke-miterlimit="2" d="M 79.316406 31.683594 L 86.980469 32.230469 L 94.644531 32.78125 L 102.308594 33.335938 L 109.972656 33.898438 L 117.636719 34.464844 L 125.300781 35.035156 L 132.964844 35.609375 L 140.628906 36.1875 L 148.289062 36.769531 L 155.953125 37.355469 L 171.28125 38.542969 L 186.609375 39.746094 L 194.273438 40.355469 L 201.9375 40.96875 L 209.601562 41.585938 L 217.261719 42.207031 L 232.589844 43.457031 L 240.253906 44.089844 L 247.917969 44.726562 L 255.582031 45.367188 L 263.246094 46.011719 L 270.910156 46.660156 L 278.574219 47.3125 L 286.234375 47.96875 L 293.898438 48.628906 L 309.226562 49.957031 L 316.890625 50.628906 L 332.21875 51.980469 L 339.882812 52.664062 L 347.546875 53.375 L 355.210938 54.097656 L 362.871094 54.828125 L 370.535156 55.5625 L 378.199219 56.300781 L 385.863281 57.046875 L 393.527344 57.796875 L 401.191406 58.550781 L 408.855469 59.3125 L 416.519531 60.082031 L 424.183594 60.855469 L 431.84375 61.632812 L 439.507812 62.417969 L 447.171875 63.210938 L 454.835938 64.007812 L 462.5 64.808594 L 470.164062 65.617188 L 477.828125 66.429688 L 485.492188 67.246094 L 493.15625 68.074219 L 500.816406 68.902344 L 508.480469 69.738281 L 523.808594 71.425781 L 531.472656 72.28125 L 539.136719 73.140625 L 546.800781 74.003906 L 554.464844 74.875 L 562.128906 75.75 L 569.789062 76.628906 L 585.117188 78.410156 L 592.78125 79.308594 L 608.109375 81.121094 L 615.773438 82.039062 L 623.4375 82.960938 L 631.101562 83.886719 L 638.761719 84.820312 L 646.425781 85.757812 L 654.089844 86.703125 L 661.753906 87.652344 L 669.417969 88.605469 L 677.082031 89.566406 L 684.746094 90.535156 L 692.410156 91.507812 L 700.074219 92.484375 L 707.734375 93.46875 L 715.398438 95.441406 L 723.0625 97.679688 L 746.054688 104.382812 L 769.046875 111.074219 L 776.710938 113.300781 L 784.371094 115.527344 L 792.035156 116.964844 L 799.699219 117.179688 L 807.363281 117.410156 L 815.027344 117.648438 L 822.691406 117.90625 L 830.355469 118.171875 L 838.019531 118.453125 L 845.683594 118.746094 "/>
<path fill="none" stroke-width="1.5" stroke-linecap="butt" stroke-linejoin="miter" stroke="rgb(50.196081%, 50.196081%, 50.196081%)" stroke-opacity="0.5" stroke-miterlimit="2" d="M 79.316406 31.683594 L 86.980469 32.203125 L 102.308594 33.265625 L 117.636719 34.351562 L 132.964844 35.460938 L 140.628906 36.023438 L 148.289062 36.59375 L 155.953125 37.167969 L 163.617188 37.746094 L 171.28125 38.332031 L 186.609375 39.519531 L 194.273438 40.125 L 201.9375 40.734375 L 209.601562 41.347656 L 217.261719 41.964844 L 232.589844 43.222656 L 240.253906 43.859375 L 247.917969 44.503906 L 255.582031 45.152344 L 263.246094 45.804688 L 270.910156 46.464844 L 278.574219 47.132812 L 286.234375 47.800781 L 301.5625 49.160156 L 316.890625 50.542969 L 324.554688 51.242188 L 332.21875 51.949219 L 339.882812 52.660156 L 347.546875 53.347656 L 355.210938 54.039062 L 362.871094 54.730469 L 370.535156 55.425781 L 378.199219 56.125 L 385.863281 56.828125 L 393.527344 57.535156 L 401.191406 58.246094 L 416.519531 59.675781 L 424.183594 60.394531 L 431.84375 61.121094 L 439.507812 61.847656 L 447.171875 62.578125 L 462.5 64.046875 L 477.828125 65.53125 L 493.15625 67.03125 L 500.816406 67.785156 L 516.144531 69.300781 L 531.472656 70.832031 L 539.136719 71.601562 L 546.800781 72.375 L 562.128906 73.929688 L 569.789062 74.714844 L 577.453125 75.5 L 592.78125 77.078125 L 608.109375 78.671875 L 623.4375 80.28125 L 631.101562 81.089844 L 638.761719 81.898438 L 654.089844 83.53125 L 661.753906 84.351562 L 677.082031 86 L 684.746094 86.832031 L 692.410156 88.726562 L 700.074219 90.964844 L 707.734375 93.207031 L 715.398438 94.457031 L 723.0625 95.453125 L 730.726562 96.453125 L 738.390625 97.460938 L 746.054688 98.472656 L 753.71875 99.492188 L 761.382812 100.515625 L 769.046875 101.546875 L 776.710938 102.582031 L 784.371094 103.621094 L 792.035156 104.667969 L 799.699219 105.71875 L 807.363281 106.777344 L 822.691406 108.910156 L 830.355469 109.988281 L 838.019531 111.070312 L 845.683594 112.15625 "/>
<path fill="none" stroke-width="1.5" stroke-linecap="butt" stroke-linejoin="miter" stroke="rgb(50.196081%, 50.196081%, 50.196081%)" stroke-opacity="0.5" stroke-miterlimit="2" d="M 79.316406 31.683594 L 86.980469 32.03125 L 102.308594 32.75 L 109.972656 33.113281 L 117.636719 33.484375 L 125.300781 33.859375 L 132.964844 34.238281 L 140.628906 34.621094 L 148.289062 35.007812 L 155.953125 35.398438 L 163.617188 35.796875 L 171.28125 36.199219 L 178.945312 36.605469 L 186.609375 37.015625 L 194.273438 37.429688 L 201.9375 37.847656 L 209.601562 38.273438 L 217.261719 38.699219 L 224.925781 39.132812 L 232.589844 39.570312 L 240.253906 40.011719 L 247.917969 40.457031 L 263.246094 41.363281 L 278.574219 42.285156 L 286.234375 42.753906 L 293.898438 43.226562 L 309.226562 44.1875 L 316.890625 44.671875 L 332.21875 45.65625 L 339.882812 46.15625 L 347.546875 46.660156 L 355.210938 47.167969 L 362.871094 47.683594 L 370.535156 48.199219 L 378.199219 48.71875 L 385.863281 49.246094 L 393.527344 49.777344 L 408.855469 50.847656 L 424.183594 51.941406 L 431.84375 52.492188 L 447.171875 53.609375 L 454.835938 54.175781 L 462.5 54.746094 L 470.164062 55.320312 L 477.828125 55.898438 L 493.15625 57.070312 L 500.816406 57.664062 L 508.480469 58.257812 L 516.144531 58.859375 L 523.808594 59.578125 L 531.472656 60.316406 L 539.136719 61.0625 L 546.800781 61.816406 L 554.464844 62.578125 L 562.128906 63.351562 L 569.789062 64.128906 L 577.453125 64.914062 L 585.117188 65.710938 L 592.78125 66.511719 L 600.445312 67.324219 L 608.109375 68.144531 L 615.773438 68.972656 L 623.4375 69.808594 L 631.101562 70.769531 L 638.761719 73.015625 L 646.425781 75.265625 L 654.089844 77.511719 L 661.753906 79.753906 L 669.417969 82 L 684.746094 86.484375 L 692.410156 87.664062 L 700.074219 88.5 L 707.734375 89.339844 L 715.398438 90.179688 L 730.726562 91.875 L 738.390625 92.726562 L 746.054688 93.582031 L 761.382812 95.300781 L 769.046875 96.164062 L 776.710938 97.035156 L 784.371094 97.902344 L 792.035156 98.777344 L 799.699219 99.65625 L 807.363281 101.1875 L 822.691406 105.421875 L 830.355469 107.542969 L 845.683594 111.777344 "/>
<path fill="none" stroke-width="1.5" stroke-linecap="butt" stroke-linejoin="miter" stroke="rgb(50.196081%, 50.196081%, 50.196081%)" stroke-opacity="0.5" stroke-miterlimit="2" d="M 79.316406 31.683594 L 86.980469 31.988281 L 94.644531 32.296875 L 102.308594 32.613281 L 109.972656 32.9375 L 117.636719 33.265625 L 125.300781 33.597656 L 132.964844 33.9375 L 140.628906 34.285156 L 148.289062 34.636719 L 155.953125 34.992188 L 163.617188 35.355469 L 171.28125 35.726562 L 178.945312 36.101562 L 186.609375 36.484375 L 194.273438 36.871094 L 201.9375 37.261719 L 209.601562 37.660156 L 217.261719 38.066406 L 224.925781 38.476562 L 232.589844 38.894531 L 240.253906 39.316406 L 247.917969 39.746094 L 255.582031 40.183594 L 263.246094 40.625 L 270.910156 41.070312 L 278.574219 41.523438 L 286.234375 41.984375 L 293.898438 42.449219 L 301.5625 42.921875 L 309.226562 43.402344 L 316.890625 43.886719 L 324.554688 44.375 L 332.21875 44.875 L 339.882812 45.378906 L 347.546875 45.886719 L 355.210938 46.402344 L 362.871094 46.925781 L 370.535156 47.453125 L 378.199219 47.988281 L 385.863281 48.53125 L 393.527344 49.078125 L 401.191406 49.632812 L 408.855469 50.195312 L 416.519531 50.761719 L 424.183594 51.335938 L 431.84375 51.914062 L 439.507812 52.5 L 447.171875 53.09375 L 454.835938 53.695312 L 462.5 54.300781 L 470.164062 54.914062 L 477.828125 55.535156 L 485.492188 56.160156 L 493.15625 56.792969 L 500.816406 57.433594 L 508.480469 58.128906 L 516.144531 58.851562 L 523.808594 59.464844 L 531.472656 60.074219 L 539.136719 60.734375 L 546.800781 61.414062 L 554.464844 62.101562 L 562.128906 62.796875 L 569.789062 63.496094 L 577.453125 64.203125 L 585.117188 64.917969 L 592.78125 65.640625 L 600.445312 66.367188 L 608.109375 67.101562 L 615.773438 67.84375 L 623.4375 68.59375 L 631.101562 70.648438 L 638.761719 71.5 L 646.425781 72.359375 L 654.089844 73.226562 L 661.753906 74.101562 L 669.417969 74.988281 L 677.082031 75.878906 L 684.746094 76.777344 L 692.410156 77.683594 L 700.074219 78.597656 L 707.734375 79.519531 L 715.398438 80.449219 L 723.0625 81.386719 L 730.726562 82.332031 L 738.390625 83.285156 L 746.054688 84.257812 L 753.71875 86.375 L 761.382812 88.488281 L 769.046875 90.605469 L 776.710938 92.71875 L 784.371094 94.835938 L 799.699219 99.070312 L 807.363281 100.535156 L 815.027344 101.417969 L 822.691406 102.304688 L 830.355469 103.195312 L 845.683594 104.984375 "/>
<path fill="none" stroke-width="1" stroke-linecap="butt" stroke-linejoin="miter" stroke="rgb(0%, 0%, 0%)" stroke-opacity="1" stroke-miterlimit="1.154701" d="M 79.316406 361.5 L 79.316406 366.5 "/>
<path fill="none" stroke-width="1" stroke-linecap="butt" stroke-linejoin="miter" stroke="rgb(0%, 0%, 0%)" stroke-opacity="1" stroke-miterlimit="1.154701" d="M 270.910156 361.5 L 270.910156 366.5 "/>
<path fill="none" stroke-width="1" stroke-linecap="butt" stroke-linejoin="miter" stroke="rgb(0%, 0%, 0%)" stroke-opacity="1" stroke-miterlimit="1.154701" d="M 462.5 361.5 L 462.5 366.5 "/>
<path fill="none" stroke-width="1" stroke-linecap="butt" stroke-linejoin="miter" stroke="rgb(0%, 0%, 0%)" stroke-opacity="1" stroke-miterlimit="1.154701" d="M 654.089844 361.5 L 654.089844 366.5 "/>
<path fill="none" stroke-width="1" stroke-linecap="butt" stroke-linejoin="miter" stroke="rgb(0%, 0%, 0%)" stroke-opacity="1" stroke-miterlimit="1.154701" d="M 845.683594 361.5 L 845.683594 366.5 "/>
<path fill="none" stroke-width="1" stroke-linecap="butt" stroke-linejoin="miter" stroke="rgb(0%, 0%, 0%)" stroke-opacity="1" stroke-miterlimit="1.154701" d="M 40.5 274.851562 L 35.5 274.851562 "/>
<path fill="none" stroke-width="1" stroke-linecap="butt" stroke-linejoin="miter" stroke="rgb(0%, 0%, 0%)" stroke-opacity="1" stroke-miterlimit="1.154701" d="M 40.5 153.265625 L 35.5 153.265625 "/>
<path fill="none" stroke-width="1" stroke-linecap="butt" stroke-linejoin="miter" stroke="rgb(0%, 0%, 0%)" stroke-opacity="1" stroke-miterlimit="1.154701" d="M 40.5 31.683594 L 35.5 31.683594 "/>
<path fill="none" stroke-width="1" stroke-linecap="butt" stroke-linejoin="miter" stroke="rgb(0%, 0%, 0%)" stroke-opacity="1" stroke-miterlimit="1.154701" d="M 40.5 361 L 884.5 361 "/>
<path fill="none" stroke-width="1" stroke-linecap="butt" stroke-linejoin="miter" stroke="rgb(0%, 0%, 0%)" stroke-opacity="1" stroke-miterlimit="1.154701" d="M 41 361.5 L 41 15.5 "/>
<path fill="none" stroke-width="1" stroke-linecap="butt" stroke-linejoin="miter" stroke="rgb(0%, 0%, 0%)" stroke-opacity="1" stroke-miterlimit="1.154701" d="M 40.5 16 L 884.5 16 "/>
<path fill="none" stroke-width="1" stroke-linecap="butt" stroke-linejoin="miter" stroke="rgb(0%, 0%, 0%)" stroke-opacity="1" stroke-miterlimit="1.154701" d="M 884 361.5 L 884 15.5 "/>
</svg>
